<svg id="ic_branding_big" xmlns="http://www.w3.org/2000/svg" width="168" height="46" viewBox="0 0 168 46">
  <rect id="Surface" width="168" height="46" fill="none"/>
  <g id="Letters" transform="translate(-338.816 -274.818)">
    <path id="A" d="M504.744,318.443l-17-42c-.007-.018-.021-.033-.03-.051a.877.877,0,0,0-.068-.133c-.009-.014-.023-.025-.034-.039a.774.774,0,0,0-.065-.075.913.913,0,0,0-.13-.118.9.9,0,0,0-.08-.057,1.112,1.112,0,0,0-.167-.08c-.027-.01-.052-.023-.08-.031a1,1,0,0,0-.273-.041h-4a1,1,0,0,0-.272.041c-.028.008-.053.021-.08.031a1.064,1.064,0,0,0-.167.08c-.028.017-.054.037-.081.057a.955.955,0,0,0-.129.118.783.783,0,0,0-.065.075c-.011.014-.025.025-.035.039a.974.974,0,0,0-.067.133.527.527,0,0,0-.03.051l-17,42a1,1,0,0,0,.926,1.375h4a1,1,0,0,0,.927-.625l3.8-9.374h20.279a1,1,0,0,0,.257-.052l3.816,9.426a1,1,0,0,0,.926.625h4a1,1,0,0,0,.927-1.375Zm-28.182-13.624,8.255-20.395,8.255,20.395Z" transform="translate(1)" fill="#fff"/>
    <path id="R" d="M470.562,318.151,454.948,300.7a12.488,12.488,0,0,0-.578-24.828c-.348-.03-.7-.054-1.053-.054H436.711a.892.892,0,0,0-.893.893v19.433h0v22.673a1,1,0,0,0,1,1h3a1,1,0,0,0,1-1v-18h7.552l16.7,18.666a1,1,0,0,0,.745.333h4a1,1,0,0,0,.745-1.667Zm-29.745-22.333v-15h12.5a7.5,7.5,0,1,1,0,15Z" fill="#fff"/>
    <path id="E" d="M404.817,319.819a1,1,0,0,1-1-1v-3a1,1,0,0,1,1-1h24a1,1,0,0,1,1,1v3a1,1,0,0,1-1,1Zm0-19a1,1,0,0,1-1-1v-3a1,1,0,0,1,1-1h22a1,1,0,0,1,1,1v3a1,1,0,0,1-1,1Zm0-20a1,1,0,0,1-1-1v-3a1,1,0,0,1,1-1h24a1,1,0,0,1,1,1v3a1,1,0,0,1-1,1Z" transform="translate(1)" fill="#fff"/>
    <path id="F" d="M373.817,319.819a1,1,0,0,1-1-1v-42a1,1,0,0,1,1-1h23a1,1,0,0,1,1,1v3a1,1,0,0,1-1,1h-19v15h19a1,1,0,0,1,1,1v3a1,1,0,0,1-1,1h-19v18a1,1,0,0,1-1,1Z" transform="translate(3)" fill="#fff"/>
    <path id="S" d="M362.844,299.865c-2.6-1.9-5.987-3.13-9.266-4.323l-1.044-.381a27.8,27.8,0,0,1-6.812-3.184,5.917,5.917,0,0,1-2.706-5.037,5.692,5.692,0,0,1,2.455-4.777,10.421,10.421,0,0,1,6.063-1.712,10.688,10.688,0,0,1,6.1,1.658,6.663,6.663,0,0,1,2.865,4.762,1.667,1.667,0,0,0,1.777,1.6h1.982a1.723,1.723,0,0,0,1.324-.5,1.671,1.671,0,0,0,.388-1.319v-.008a11.458,11.458,0,0,0-4.75-8.417,16.452,16.452,0,0,0-9.688-2.914,16.02,16.02,0,0,0-9.665,3.018,11.035,11.035,0,0,0-3.146,3.658,10.538,10.538,0,0,0-1.185,4.945,10.267,10.267,0,0,0,4.362,8.723c2.546,1.9,5.9,3.1,9.144,4.245l1.088.388c5.313,1.885,9.71,3.79,9.71,8.036a5.937,5.937,0,0,1-2.684,4.979,11.729,11.729,0,0,1-6.729,1.876,13.18,13.18,0,0,1-7.3-1.884,7.341,7.341,0,0,1-3.33-5.388,1.673,1.673,0,0,0-1.776-1.663h-1.982a1.727,1.727,0,0,0-1.325.495,1.677,1.677,0,0,0-.387,1.324,12.118,12.118,0,0,0,5.228,9.109,18.9,18.9,0,0,0,10.875,3.139,17.3,17.3,0,0,0,10.323-3.176,11.58,11.58,0,0,0,3.318-3.779,10.485,10.485,0,0,0,1.248-5.032A9.959,9.959,0,0,0,362.844,299.865Z" transform="translate(5)" fill="#fff"/>
  </g>
</svg>
