<svg id="img_header_AP" xmlns="http://www.w3.org/2000/svg" width="283" height="85" viewBox="0 0 283 85">
  <g id="Logo" transform="translate(0 0)">
    <g id="ic_branding_small">
      <g id="Grupo_3804" data-name="Grupo 3804">
        <g id="ic_branding_small-2" data-name="ic_branding_small">
          <rect id="Rectángulo_2251" data-name="Rectángulo 2251" width="283" height="85" fill="none"/>
          <g id="Letters" transform="translate(5.904 6.07)">
            <path id="A" d="M526.314,343.347,500.13,276.808c-.011-.029-.032-.052-.046-.081a1.384,1.384,0,0,0-.1-.21c-.014-.022-.036-.04-.052-.062a1.3,1.3,0,0,0-.1-.119,1.447,1.447,0,0,0-.2-.187,1.331,1.331,0,0,0-.124-.09,1.665,1.665,0,0,0-.257-.127c-.042-.016-.08-.037-.123-.049a1.49,1.49,0,0,0-.421-.065h-6.161a1.486,1.486,0,0,0-.419.065c-.043.012-.082.033-.123.049a1.615,1.615,0,0,0-.257.127c-.043.027-.083.058-.125.09a1.505,1.505,0,0,0-.2.187,1.194,1.194,0,0,0-.1.119c-.017.022-.039.04-.054.062a1.527,1.527,0,0,0-.1.21.794.794,0,0,0-.046.081l-26.184,66.539a1.626,1.626,0,0,0,.149,1.48,1.527,1.527,0,0,0,1.277.7h6.161a1.538,1.538,0,0,0,1.427-.99l5.845-14.851h31.235a1.5,1.5,0,0,0,.4-.082l5.878,14.933a1.538,1.538,0,0,0,1.426.99h6.161a1.525,1.525,0,0,0,1.277-.7A1.621,1.621,0,0,0,526.314,343.347Zm-43.407-21.584,12.715-32.311,12.715,32.311Z" transform="translate(-255.344 -275.028)" fill="#9ea9aa"/>
            <path id="R" d="M489.333,342.885l-24.05-27.647a19.852,19.852,0,0,0-.89-39.334c-.536-.047-1.074-.086-1.622-.086h-21.1l0,0h-4.473a1.394,1.394,0,0,0-1.376,1.415v66.708a1.562,1.562,0,0,0,1.541,1.584h4.621a1.563,1.563,0,0,0,1.54-1.584V315.426h11.632L480.877,345a1.522,1.522,0,0,0,1.147.528h6.161a1.538,1.538,0,0,0,1.407-.936A1.62,1.62,0,0,0,489.333,342.885ZM443.518,307.5V283.74h19.253a11.887,11.887,0,0,1,0,23.764Z" transform="translate(-272.552 -275.028)" fill="#9ea9aa"/>
            <path id="E" d="M405.357,345.526a1.563,1.563,0,0,1-1.54-1.584v-7.393a1.562,1.562,0,0,1,1.54-1.584h36.966a1.561,1.561,0,0,1,1.54,1.584v7.393a1.562,1.562,0,0,1-1.54,1.584Zm0-30.1a1.563,1.563,0,0,1-1.54-1.584v-7.657a1.562,1.562,0,0,1,1.54-1.584h33.886a1.561,1.561,0,0,1,1.54,1.584v7.657a1.562,1.562,0,0,1-1.54,1.584Zm0-29.045a1.563,1.563,0,0,1-1.54-1.584V277.4a1.562,1.562,0,0,1,1.54-1.584h36.966a1.561,1.561,0,0,1,1.54,1.584V284.8a1.562,1.562,0,0,1-1.54,1.584Z" transform="translate(-294.204 -275.027)" fill="#7d185c"/>
            <path id="F" d="M374.357,345.526a1.563,1.563,0,0,1-1.54-1.584V277.4a1.562,1.562,0,0,1,1.54-1.584h35.426a1.561,1.561,0,0,1,1.54,1.584v4.753a1.562,1.562,0,0,1-1.54,1.584H380.518V307.5h29.265a1.561,1.561,0,0,1,1.54,1.584v4.753a1.562,1.562,0,0,1-1.54,1.584H380.518v28.517a1.562,1.562,0,0,1-1.54,1.584Z" transform="translate(-313.776 -275.027)" fill="#9ea9aa"/>
            <path id="S" d="M377.175,314.206c-4-3-9.221-4.959-14.272-6.849l-1.608-.6c-3.982-1.483-7.78-2.985-10.492-5.044a9.449,9.449,0,0,1-4.168-7.98,9.1,9.1,0,0,1,3.781-7.568,15.729,15.729,0,0,1,9.339-2.712,16.123,16.123,0,0,1,9.4,2.627,10.607,10.607,0,0,1,4.413,7.544,2.6,2.6,0,0,0,2.737,2.538h3.053a2.615,2.615,0,0,0,2.039-.786,2.7,2.7,0,0,0,.6-2.09v-.013a18.277,18.277,0,0,0-7.316-13.335,24.847,24.847,0,0,0-14.922-4.616,24.208,24.208,0,0,0-14.887,4.781,17.356,17.356,0,0,0-4.846,5.8,17.082,17.082,0,0,0-1.825,7.834,16.422,16.422,0,0,0,6.719,13.819c3.922,3.018,9.088,4.9,14.084,6.725q.841.306,1.676.615c8.183,2.986,14.956,6,14.956,12.731a9.48,9.48,0,0,1-4.134,7.888,17.7,17.7,0,0,1-10.364,2.972,19.872,19.872,0,0,1-11.249-2.985,11.676,11.676,0,0,1-5.129-8.536,2.609,2.609,0,0,0-2.735-2.635h-3.053a2.621,2.621,0,0,0-2.041.784,2.709,2.709,0,0,0-.6,2.1,19.32,19.32,0,0,0,8.052,14.431,28.525,28.525,0,0,0,16.75,4.973,26.134,26.134,0,0,0,15.9-5.032,18.2,18.2,0,0,0,5.111-5.987,16.991,16.991,0,0,0,1.922-7.972A15.91,15.91,0,0,0,377.175,314.206Z" transform="translate(-336.318 -275.319)" fill="#9ea9aa"/>
          </g>
        </g>
      </g>
    </g>
  </g>
</svg>
