<?xml version="1.0" encoding="utf-8"?>
<!-- Generator: Adobe Illustrator 24.3.0, SVG Export Plug-In . SVG Version: 6.00 Build 0)  -->
<svg version="1.1" id="Capa_1" xmlns="http://www.w3.org/2000/svg" xmlns:xlink="http://www.w3.org/1999/xlink" x="0px" y="0px"
	 viewBox="0 0 19.6 19.5" style="enable-background:new 0 0 19.6 19.5;" xml:space="preserve">
<style type="text/css">
	.st0{fill:#786ADE;}
</style>
<path class="st0" d="M7.8,8.5h-7c-0.4,0-0.8-0.3-0.8-0.8v-7C0.1,0.3,0.4,0,0.8,0h7c0.4,0,0.8,0.3,0.8,0.8v7C8.6,8.2,8.2,8.5,7.8,8.5
	z M1.6,7h5.5V1.5H1.6V7z"/>
<path class="st0" d="M7.8,19.5h-7c-0.4,0-0.8-0.3-0.8-0.8v-7c0-0.4,0.3-0.8,0.8-0.8h7c0.4,0,0.8,0.3,0.8,0.8v7
	C8.6,19.2,8.2,19.5,7.8,19.5z M1.6,18h5.5v-5.5H1.6V18z"/>
<path class="st0" d="M18.8,8.5h-7c-0.4,0-0.8-0.3-0.8-0.8v-7c0-0.4,0.3-0.8,0.8-0.8h7c0.4,0,0.8,0.3,0.8,0.8v7
	C19.6,8.2,19.2,8.5,18.8,8.5z M12.6,7h5.5V1.5h-5.5V7z"/>
<path class="st0" d="M18.8,19.5h-7c-0.4,0-0.8-0.3-0.8-0.8v-7c0-0.4,0.3-0.8,0.8-0.8h7c0.4,0,0.8,0.3,0.8,0.8v7
	C19.6,19.2,19.2,19.5,18.8,19.5z M12.6,18h5.5v-5.5h-5.5V18z"/>
</svg>
