<?xml version="1.0" encoding="utf-8"?>
<!-- Generator: Adobe Illustrator 24.3.0, SVG Export Plug-In . SVG Version: 6.00 Build 0)  -->
<svg version="1.1" id="Capa_1" xmlns="http://www.w3.org/2000/svg" xmlns:xlink="http://www.w3.org/1999/xlink" x="0px" y="0px"
	 viewBox="0 0 30 30" style="enable-background:new 0 0 30 30;" xml:space="preserve">
<style type="text/css">
	.st0{fill:#FFFFFF;}
	.st1{fill:none;}
</style>
<g>
	<path class="st0" d="M5.5,9V6c0-0.8,0.7-1.5,1.5-1.5h3c0.8,0,1.5,0.7,1.5,1.5S10.8,7.5,10,7.5H8.5V9c0,0.8-0.7,1.5-1.5,1.5
		S5.5,9.8,5.5,9z M10,22.5H8.5V21c0-0.8-0.7-1.5-1.5-1.5S5.5,20.2,5.5,21v3c0,0.8,0.7,1.5,1.5,1.5h3c0.8,0,1.5-0.7,1.5-1.5
		S10.8,22.5,10,22.5z M20,7.5h1.5V9c0,0.8,0.7,1.5,1.5,1.5s1.5-0.7,1.5-1.5V6c0-0.8-0.7-1.5-1.5-1.5h-3c-0.8,0-1.5,0.7-1.5,1.5
		S19.2,7.5,20,7.5z M23,19.5c-0.8,0-1.5,0.7-1.5,1.5v1.5H20c-0.8,0-1.5,0.7-1.5,1.5s0.7,1.5,1.5,1.5h3c0.8,0,1.5-0.7,1.5-1.5v-3
		C24.5,20.2,23.8,19.5,23,19.5z M25,13.5H5c-0.8,0-1.5,0.7-1.5,1.5s0.7,1.5,1.5,1.5h20c0.8,0,1.5-0.7,1.5-1.5S25.8,13.5,25,13.5z"/>
	<rect class="st1" width="30" height="30"/>
</g>
</svg>
