<?xml version="1.0" encoding="utf-8"?>
<!-- Generator: Adobe Illustrator 24.3.0, SVG Export Plug-In . SVG Version: 6.00 Build 0)  -->
<svg version="1.1" id="Capa_1" xmlns="http://www.w3.org/2000/svg" xmlns:xlink="http://www.w3.org/1999/xlink" x="0px" y="0px"
	 viewBox="0 0 30 30" style="enable-background:new 0 0 30 30;" xml:space="preserve">
<style type="text/css">
	.st0{fill:none;}
	.st1{fill:#FFFFFF;}
</style>
<rect class="st0" width="30" height="30"/>
<path class="st1" d="M27.3,6.3C27,5.8,26.5,5.5,26,5.5h-9.5c-0.5,0-1,0.3-1.3,0.7l-1.6,2.7L12,6.2c-0.3-0.4-0.8-0.7-1.3-0.7H4
	c-0.5,0-1,0.3-1.3,0.8s-0.3,1.1,0,1.5l2.7,4.5c0,0.2-0.1,0.3-0.1,0.5V22c0,1.4,1.1,2.5,2.5,2.5h4.7c0,0,0,0,0,0h2c0,0,0,0,0,0h7.5
	c1.4,0,2.5-1.1,2.5-2.5v-9.2c0-0.2,0-0.3-0.1-0.5l2.7-4.5C27.6,7.3,27.6,6.7,27.3,6.3z M17.3,8.5h6l-1.1,1.8c0,0-0.1,0-0.1,0h-5.8
	L17.3,8.5z M9.8,8.5l1.1,1.8h-3c-0.1,0-0.1,0-0.1,0L6.7,8.5H9.8z M8.4,13.3h3.7v8.2H11c0,0,0,0,0,0H8.4V13.3z M21.6,21.5h-5.8
	c0,0,0,0,0,0h-0.7v-8.2h6.5V21.5z"/>
</svg>
