<?xml version="1.0" encoding="utf-8"?>
<!-- Generator: Adobe Illustrator 24.3.0, SVG Export Plug-In . SVG Version: 6.00 Build 0)  -->
<svg version="1.1" id="Capa_1" xmlns="http://www.w3.org/2000/svg" xmlns:xlink="http://www.w3.org/1999/xlink" x="0px" y="0px"
	 viewBox="0 0 30 30" style="enable-background:new 0 0 30 30;" xml:space="preserve">
<style type="text/css">
	.st0{fill:none;}
	.st1{fill:#555555;}
</style>
<g>
	<rect class="st0" width="30" height="30"/>
	<path class="st1" d="M15,27C8.4,27,3,21.6,3,15C3,8.4,8.4,3,15,3c6.6,0,12,5.4,12,12C27,21.6,21.6,27,15,27z M15,6c-5,0-9,4-9,9
		c0,5,4,9,9,9c5,0,9-4,9-9C24,10,20,6,15,6z M14.8,12.1C14.9,12.1,14.9,12.1,14.8,12.1c0.4,0,0.8-0.1,1.1-0.3
		c0.3-0.2,0.4-0.6,0.4-0.9c0-0.4-0.1-0.7-0.4-1c-0.3-0.2-0.6-0.4-1-0.3c-0.4,0-0.7,0.1-1,0.3c-0.3,0.2-0.4,0.6-0.4,1
		c0,0.4,0.1,0.7,0.4,1C14.2,12,14.5,12.1,14.8,12.1z M13.6,19.9h2.7v-6.3h-2.7V19.9z"/>
</g>
</svg>
