<svg xmlns="http://www.w3.org/2000/svg" viewBox="0 0 30 30"><defs><style>.cls-1{fill:#555;}.cls-2{fill:none;}</style></defs><g id="Capa_2" data-name="Capa 2"><g id="Capa_1-2" data-name="Capa 1"><path class="cls-1" d="M25,5.5H5A1.5,1.5,0,0,0,3.5,7V23A1.5,1.5,0,0,0,5,24.5H25A1.5,1.5,0,0,0,26.5,23V7A1.5,1.5,0,0,0,25,5.5Zm-1.5,16H6.5V8.5h17Z"/><path class="cls-1" d="M12.8,16h.36A4,4,0,0,0,17,19a1,1,0,0,0,0-2,2,2,0,0,1-1.68-1h1a1,1,0,0,0,0-2h-1A2,2,0,0,1,17,13a1,1,0,0,0,0-2,4,4,0,0,0-3.82,3H12.8a1,1,0,0,0,0,2Z"/><rect class="cls-2" width="30" height="30"/></g></g></svg>