<svg xmlns="http://www.w3.org/2000/svg" viewBox="0 0 30 30"><defs><style>.cls-1{fill:none;}.cls-2{fill:#555;}</style></defs><g id="Capa_2" data-name="Capa 2"><g id="Capa_1-2" data-name="Capa 1"><rect class="cls-1" width="30" height="30"/><path class="cls-2" d="M24.2,18.17a4.3,4.3,0,0,1-1.57-3.33V12.39c0-2.66-1.8-7.89-6-7.89h0v-1a1.5,1.5,0,0,0-3,0v1h0c-4,0-6.44,4.1-6.44,7.89v2.44a4.36,4.36,0,0,1-1.59,3.36A3,3,0,0,0,4.5,20.51a3.06,3.06,0,0,0,3,3H22.25a3.06,3.06,0,0,0,3.05-3.05,3,3,0,0,0-1.1-2.31Zm-2,2.37L7.5,20.49a7.31,7.31,0,0,0,2.67-5.65V12.39c0-2.31,1.41-4.89,3.44-4.89h3.05c1.85,0,3,3.4,3,4.89v2.45a7.3,7.3,0,0,0,2.66,5.64Z"/><path class="cls-2" d="M17.53,25h-5.3a.6.6,0,0,0-.6.6A2.4,2.4,0,0,0,14,28h1.7a2.39,2.39,0,0,0,2.4-2.4A.6.6,0,0,0,17.53,25Z"/><path class="cls-2" d="M25.81,4.18a1.5,1.5,0,1,0-2.48,1.69A6.77,6.77,0,0,1,24.5,9.94a1.5,1.5,0,0,0,1.44,1.56H26a1.5,1.5,0,0,0,1.5-1.44A9.84,9.84,0,0,0,25.81,4.18Z"/><path class="cls-2" d="M5.5,9.94A6.77,6.77,0,0,1,6.67,5.87,1.5,1.5,0,1,0,4.19,4.18,9.84,9.84,0,0,0,2.5,10.06,1.5,1.5,0,0,0,4,11.5h.06A1.5,1.5,0,0,0,5.5,9.94Z"/></g></g></svg>