<svg xmlns="http://www.w3.org/2000/svg" viewBox="0 0 30 30"><defs><style>.cls-1{fill:#fff;}.cls-2{fill:none;}.cls-3{fill:#555;}</style></defs><g id="Capa_2" data-name="Capa 2"><g id="ic_btn_appearance_light"><path class="cls-1" d="M15.54,25C8.09,25,3.62,18.77,2.42,16.86a2.44,2.44,0,0,1,0-2.69C3.61,12.23,8.08,6,15.54,6s11.92,6.23,13.11,8.14a2.06,2.06,0,0,1,.21.42,3.17,3.17,0,0,1,0,1.88,1.41,1.41,0,0,1-.19.39C27.46,18.77,23,25,15.54,25ZM5.11,15.5C6.28,17.29,9.89,22,15.54,22S24.79,17.29,26,15.5C24.79,13.71,21.18,9,15.54,9S6.28,13.7,5.11,15.5Zm-.21-.32h0Z"/><path class="cls-1" d="M15.5,20A4.5,4.5,0,1,1,20,15.5,4.51,4.51,0,0,1,15.5,20Zm0-6A1.5,1.5,0,1,0,17,15.5,1.5,1.5,0,0,0,15.5,14Z"/><rect class="cls-2" width="30" height="30"/></g><g id="ic_btn_appearance_copia" data-name="ic_btn_appearance copia"><path class="cls-3" d="M15.54,25C8.09,25,3.62,18.77,2.42,16.86a2.44,2.44,0,0,1,0-2.69C3.61,12.23,8.08,6,15.54,6s11.92,6.23,13.11,8.14a2.06,2.06,0,0,1,.21.42,3.17,3.17,0,0,1,0,1.88,1.41,1.41,0,0,1-.19.39C27.46,18.77,23,25,15.54,25ZM5.11,15.5C6.28,17.29,9.89,22,15.54,22S24.79,17.29,26,15.5C24.79,13.71,21.18,9,15.54,9S6.28,13.7,5.11,15.5Zm-.21-.32h0Z"/><path class="cls-3" d="M15.5,20A4.5,4.5,0,1,1,20,15.5,4.51,4.51,0,0,1,15.5,20Zm0-6A1.5,1.5,0,1,0,17,15.5,1.5,1.5,0,0,0,15.5,14Z"/><rect class="cls-2" width="30" height="30"/></g></g></svg>