<svg xmlns="http://www.w3.org/2000/svg" viewBox="0 0 48 48"><defs><style>.cls-1{fill:#62355c;}.cls-2{fill:#fad9ba;}.cls-3{fill:#e2b28a;}</style></defs><title>bandage</title><g id="bandage"><path class="cls-1" d="M39.79,8.21a11,11,0,0,0-15.49,0L8.21,24.3A11,11,0,0,0,23.7,39.79L39.79,23.7A11,11,0,0,0,39.79,8.21ZM38.38,22.29,22.29,38.38A9,9,0,0,1,9.62,25.71L25.71,9.62A9,9,0,0,1,38.38,22.29Z"/><path class="cls-2" d="M38.38,22.29,22.29,38.38A9,9,0,0,1,9.62,25.71L25.71,9.62A9,9,0,0,1,38.38,22.29Z"/><path class="cls-1" d="M31.29,21.88l-5.17-5.17a3.06,3.06,0,0,0-4.24,0l-5.17,5.17a3,3,0,0,0,0,4.24l5.17,5.17a3,3,0,0,0,4.24,0l5.17-5.17A3,3,0,0,0,31.29,21.88Zm-1.41,2.83-5.17,5.17a1,1,0,0,1-1.42,0l-5.17-5.17a1,1,0,0,1,0-1.42l5.17-5.17a1,1,0,0,1,1.42,0l5.17,5.17A1,1,0,0,1,29.88,24.71Z"/><path class="cls-3" d="M29.88,24.71l-5.17,5.17a1,1,0,0,1-1.42,0l-5.17-5.17a1,1,0,0,1,0-1.42l5.17-5.17a1,1,0,0,1,1.42,0l5.17,5.17A1,1,0,0,1,29.88,24.71Z"/><circle class="cls-3" cx="28" cy="14" r="1"/><circle class="cls-3" cx="31" cy="11" r="1"/><circle class="cls-3" cx="31" cy="17" r="1"/><circle class="cls-3" cx="34" cy="14" r="1"/><circle class="cls-3" cx="34" cy="20" r="1"/><circle class="cls-3" cx="37" cy="17" r="1"/><circle class="cls-3" cx="11" cy="31" r="1"/><circle class="cls-3" cx="14" cy="28" r="1"/><circle class="cls-3" cx="14" cy="34" r="1"/><circle class="cls-3" cx="17" cy="31" r="1"/><circle class="cls-3" cx="17" cy="37" r="1"/><circle class="cls-3" cx="20" cy="34" r="1"/></g></svg>