<svg id="Icono_Cabecera_TPV" data-name="Icono Cabecera TPV" xmlns="http://www.w3.org/2000/svg" width="56" height="56" viewBox="0 0 56 56">
  <rect id="Rectángulo_2060" data-name="Rectángulo 2060" width="56" height="56" fill="none"/>
  <g id="Grupo_3522" data-name="Grupo 3522" transform="translate(-283 -607)">
    <path id="Trazado_1720" data-name="Trazado 1720" d="M32,44H0V0H32V44Z" transform="translate(291 613)" fill="#b2a8f8" stroke="#222" stroke-linecap="round" stroke-linejoin="round" stroke-width="3"/>
    <path id="Trazado_1721" data-name="Trazado 1721" d="M20,7H0V0H20V7Z" transform="translate(297 619)" fill="#eeecfb" stroke="#222" stroke-linecap="round" stroke-linejoin="round" stroke-width="3"/>
    <path id="Trazado_1722" data-name="Trazado 1722" d="M2.5,1H0V0H2.5V1Z" transform="translate(297 632)" fill="#fff" stroke="#fff" stroke-linecap="round" stroke-linejoin="round" stroke-width="2.5"/>
    <path id="Trazado_1732" data-name="Trazado 1732" d="M2.5,1H0V0H2.5V1Z" transform="translate(297 638)" fill="#fff" stroke="#fff" stroke-linecap="round" stroke-linejoin="round" stroke-width="2.5"/>
    <path id="Trazado_1735" data-name="Trazado 1735" d="M2.5,1H0V0H2.5V1Z" transform="translate(297 644)" fill="#fff" stroke="#fff" stroke-linecap="round" stroke-linejoin="round" stroke-width="2.5"/>
    <path id="Trazado_1738" data-name="Trazado 1738" d="M2.5,1H0V0H2.5V1Z" transform="translate(297 650)" fill="#fff" stroke="#fff" stroke-linecap="round" stroke-linejoin="round" stroke-width="2.5"/>
    <path id="Trazado_1723" data-name="Trazado 1723" d="M2.5,1H0V0H2.5V1Z" transform="translate(306 632)" fill="#fff" stroke="#fff" stroke-linecap="round" stroke-linejoin="round" stroke-width="2.5"/>
    <path id="Trazado_1733" data-name="Trazado 1733" d="M2.5,1H0V0H2.5V1Z" transform="translate(306 638)" fill="#fff" stroke="#fff" stroke-linecap="round" stroke-linejoin="round" stroke-width="2.5"/>
    <path id="Trazado_1736" data-name="Trazado 1736" d="M2.5,1H0V0H2.5V1Z" transform="translate(306 644)" fill="#fff" stroke="#fff" stroke-linecap="round" stroke-linejoin="round" stroke-width="2.5"/>
    <path id="Trazado_1739" data-name="Trazado 1739" d="M2.5,1H0V0H2.5V1Z" transform="translate(306 650)" fill="#fff" stroke="#fff" stroke-linecap="round" stroke-linejoin="round" stroke-width="2.5"/>
    <path id="Trazado_1724" data-name="Trazado 1724" d="M2.5,1H0V0H2.5V1Z" transform="translate(315 632)" fill="#fff" stroke="#fff" stroke-linecap="round" stroke-linejoin="round" stroke-width="2.5"/>
    <path id="Trazado_1734" data-name="Trazado 1734" d="M2.5,1H0V0H2.5V1Z" transform="translate(315 638)" fill="#fff" stroke="#fff" stroke-linecap="round" stroke-linejoin="round" stroke-width="2.5"/>
    <path id="Trazado_1731" data-name="Trazado 1731" d="M8,24H0V0H8V24Z" transform="translate(323 623)" fill="#fff" stroke="#222" stroke-linecap="round" stroke-linejoin="round" stroke-width="3"/>
    <path id="Trazado_1740" data-name="Trazado 1740" d="M2.5,7H0V0H2.5V7Z" transform="translate(315 644)" fill="#fff" stroke="#fff" stroke-linecap="round" stroke-linejoin="round" stroke-width="2.5"/>
  </g>
</svg>
