<svg xmlns="http://www.w3.org/2000/svg" width="16" height="16" viewBox="0 0 16 16"><defs><style>.a{fill:#fff;}.b{fill:none;}</style></defs><g transform="translate(-1226 -534.5)"><rect class="a" width="8" height="1" transform="translate(1232 540.5)"/><rect class="a" width="8" height="1" transform="translate(1232 547.5)"/><rect class="a" width="7" height="1" transform="translate(1232 548) rotate(-90)"/><rect class="a" width="7" height="1" transform="translate(1239 548) rotate(-90)"/><rect class="a" width="2" height="1" transform="translate(1231 545.5)"/><rect class="a" width="1" height="1" transform="translate(1229 545.5)"/><rect class="a" width="1" height="1" transform="translate(1229 543.5)"/><rect class="a" width="1" height="1" transform="translate(1229 541.5)"/><rect class="a" width="1" height="1" transform="translate(1229 539.5)"/><rect class="a" width="1" height="1" transform="translate(1229 537.5)"/><rect class="a" width="1" height="1" transform="translate(1231 537.5)"/><rect class="a" width="1" height="1" transform="translate(1233 537.5)"/><rect class="a" width="1" height="1" transform="translate(1235 537.5)"/><rect class="a" width="1" height="1" transform="translate(1237 537.5)"/><rect class="a" width="1" height="1" transform="translate(1237 539.5)"/></g><rect class="b" width="16" height="16"/></svg>