<svg xmlns="http://www.w3.org/2000/svg" width="12.003" height="12.003" viewBox="0 0 12.003 12.003"><defs><style>.a{fill:none;}.b,.c{fill:#fff;stroke:#ffb500;}.c{stroke-linejoin:round;}.d{fill:#ffb500;}.e{stroke:none;}</style></defs><path class="a" d="M0,0H12V12H0Z"/><g class="b" transform="translate(3.003 1.003)"><path class="e" d="M3,0H3A3,3,0,0,1,6,3V5A0,0,0,0,1,6,5H0A0,0,0,0,1,0,5V3A3,3,0,0,1,3,0Z"/><path class="a" d="M3,.5H3A2.5,2.5,0,0,1,5.5,3V4.143a.357.357,0,0,1-.357.357H.857A.357.357,0,0,1,.5,4.143V3A2.5,2.5,0,0,1,3,.5Z"/></g><g class="c" transform="translate(2.003 5.003)"><rect class="e" width="8" height="6"/><rect class="a" x="0.5" y="0.5" width="7" height="5"/></g><circle class="d" cx="1" cy="1" r="1" transform="translate(5.005 7)"/></svg>