<svg xmlns="http://www.w3.org/2000/svg" width="12.003" height="12.003" viewBox="0 0 12.003 12.003"><defs><style>.a,.c{fill:none;}.b{fill:#786ade;}.c,.d{stroke:#786ade;}.d{fill:#fff;}.e{stroke:none;}</style></defs><path class="a" d="M0,0H12V12H0Z"/><g transform="translate(354.899 -519.087) rotate(45)"><path class="b" d="M0,0H4A0,0,0,0,1,4,0V2A2,2,0,0,1,2,4H2A2,2,0,0,1,0,2V0A0,0,0,0,1,0,0Z" transform="translate(124 619)"/><g class="c" transform="translate(128 619) rotate(180)"><path class="e" d="M0,0H4A0,0,0,0,1,4,0V4A2,2,0,0,1,2,6H2A2,2,0,0,1,0,4V0A0,0,0,0,1,0,0Z"/><path class="a" d="M.538.5H3.462A.038.038,0,0,1,3.5.538V4A1.5,1.5,0,0,1,2,5.5H2A1.5,1.5,0,0,1,.5,4V.538A.038.038,0,0,1,.538.5Z"/></g></g><g class="d" transform="translate(2.002 1)"><circle class="e" cx="1.5" cy="1.5" r="1.5"/><circle class="a" cx="1.5" cy="1.5" r="1"/></g><circle class="b" cx="0.5" cy="0.5" r="0.5" transform="translate(6.002 2)"/><circle class="b" cx="0.5" cy="0.5" r="0.5" transform="translate(2.002 5)"/></svg>