<svg id="ic_menu_todos" xmlns="http://www.w3.org/2000/svg" width="24" height="24" viewBox="0 0 24 24">
  <rect id="Rectángulo_1274" data-name="Rectángulo 1274" width="24" height="24" fill="none"/>
  <path id="Path" d="M6,3A3,3,0,1,1,3,0,3,3,0,0,1,6,3Z" transform="translate(9 2)" fill="#fff"/>
  <path id="Path-2" data-name="Path" d="M6,3A3,3,0,1,1,3,0,3,3,0,0,1,6,3Z" transform="translate(2 16)" fill="#fff"/>
  <path id="Path-3" data-name="Path" d="M6,3A3,3,0,1,1,3,0,3,3,0,0,1,6,3Z" transform="translate(16 16)" fill="#fff"/>
  <path id="Trazado_1195" data-name="Trazado 1195" d="M-11568-5396v-7h-14v7" transform="translate(11587 5415)" fill="none" stroke="#fff" stroke-linejoin="round" stroke-width="1.5"/>
  <path id="Trazado_1196" data-name="Trazado 1196" d="M-11575-5403v-7" transform="translate(11587 5415)" fill="none" stroke="#fff" stroke-linejoin="round" stroke-width="1.5"/>
</svg>
