<svg xmlns="http://www.w3.org/2000/svg" width="23.5" height="22.5" viewBox="0 0 23.5 22.5">
  <g id="ic_master_refresh" transform="translate(-9.25 -10.25)">
    <g id="Grupo_6" data-name="Grupo 6" transform="translate(-173 -628)">
      <g id="Grupo_5" data-name="Grupo 5" transform="translate(-595.725 428.5)">
        <path id="Trazado_9" data-name="Trazado 9" d="M4.5,0A3.8,3.8,0,0,1,8.3,3.8a3.857,3.857,0,0,1-.678,2.127" transform="translate(785.805 219.174)" fill="none" stroke="#786ade" stroke-linecap="round" stroke-width="1.5"/>
        <path id="Trazado_10" data-name="Trazado 10" d="M205.691,1749,204,1750.69l1.691,1.691" transform="translate(585.036 -1531.5)" fill="none" stroke="#786ade" stroke-linecap="round" stroke-linejoin="round" stroke-width="1.5"/>
        <path id="Trazado_11" data-name="Trazado 11" d="M8.3,6.978a3.8,3.8,0,0,1-3.8-3.8,3.857,3.857,0,0,1,.678-2.127" transform="translate(781 219.822)" fill="none" stroke="#786ade" stroke-linecap="round" stroke-width="1.5"/>
        <path id="Trazado_12" data-name="Trazado 12" d="M204,1752.38l1.691-1.691L204,1749" transform="translate(584.882 -1523.891)" fill="none" stroke="#786ade" stroke-linecap="round" stroke-linejoin="round" stroke-width="1.5"/>
      </g>
      <rect id="Rectángulo_3" data-name="Rectángulo 3" width="21" height="22" rx="1" transform="translate(205 639) rotate(90)" fill="none" stroke="#786ade" stroke-linejoin="round" stroke-width="1.5"/>
      <path id="Trazado_13" data-name="Trazado 13" d="M-1435,2540.98h21.4" transform="translate(1618 -1898)" fill="none" stroke="#786ade" stroke-linejoin="round" stroke-width="1.5"/>
    </g>
  </g>
</svg>
