<svg xmlns="http://www.w3.org/2000/svg" width="23.5" height="20.5" viewBox="0 0 23.5 20.5">
  <g id="ic_master_codebars" transform="translate(-10.25 -11.25)">
    <g id="Grupo_11" data-name="Grupo 11" transform="translate(-604 -836)">
      <g id="Grupo_9" data-name="Grupo 9" transform="translate(-1 1)">
        <g id="Grupo_7" data-name="Grupo 7" transform="translate(883 1807) rotate(180)">
          <path id="Trazado_14" data-name="Trazado 14" d="M201,1751h4" transform="translate(45 -807)" fill="none" stroke="#786ade" stroke-linecap="round" stroke-linejoin="round" stroke-width="1.5"/>
          <path id="Trazado_15" data-name="Trazado 15" d="M200,1751h6" transform="translate(45 -807)" fill="none" stroke="#786ade" stroke-linecap="round" stroke-linejoin="round" stroke-width="1.5"/>
        </g>
        <g id="Grupo_8" data-name="Grupo 8" transform="translate(1579 615) rotate(90)">
          <path id="Trazado_16" data-name="Trazado 16" d="M201,1751h4" transform="translate(45 -807)" fill="none" stroke="#786ade" stroke-linecap="round" stroke-linejoin="round" stroke-width="1.5"/>
          <path id="Trazado_17" data-name="Trazado 17" d="M200,1751h6" transform="translate(45 -807)" fill="none" stroke="#786ade" stroke-linecap="round" stroke-linejoin="round" stroke-width="1.5"/>
        </g>
      </g>
      <path id="Trazado_18" data-name="Trazado 18" d="M21,11V21a1,1,0,0,1-1,1H10.124" transform="translate(636 870) rotate(180)" fill="none" stroke="#786ade" stroke-linecap="round" stroke-width="1.5"/>
      <path id="Trazado_19" data-name="Trazado 19" d="M22,10V21a1,1,0,0,1-1,1H10.124" transform="translate(637 841.938) rotate(90)" fill="none" stroke="#786ade" stroke-linecap="round" stroke-width="1.5"/>
      <path id="Trazado_20" data-name="Trazado 20" d="M18,11v8a1,1,0,0,1-1,1H9.124" transform="translate(614 866) rotate(-90)" fill="none" stroke="#786ade" stroke-linecap="round" stroke-width="1.5"/>
      <g id="Grupo_10" data-name="Grupo 10" transform="translate(333.5 -68.5)">
        <path id="Trazado_21" data-name="Trazado 21" d="M.5-1A.5.5,0,0,1,1-.5v8a.5.5,0,1,1-1,0v-8A.5.5,0,0,1,.5-1Z" transform="translate(284 921)" fill="#786ade"/>
        <path id="Trazado_22" data-name="Trazado 22" d="M.5-1A.5.5,0,0,1,1-.5v8a.5.5,0,1,1-1,0v-8A.5.5,0,0,1,.5-1Z" transform="translate(289 921)" fill="#786ade"/>
        <path id="Trazado_23" data-name="Trazado 23" d="M.5-1A.5.5,0,0,1,1-.5v8a.5.5,0,1,1-1,0v-8A.5.5,0,0,1,.5-1Z" transform="translate(291 921)" fill="#786ade"/>
        <path id="Trazado_24" data-name="Trazado 24" d="M.5-1A.5.5,0,0,1,1-.5v8a.5.5,0,1,1-1,0v-8A.5.5,0,0,1,.5-1Z" transform="translate(297 921)" fill="#786ade"/>
        <path id="Trazado_25" data-name="Trazado 25" d="M.5-1h1A.5.5,0,0,1,2-.5v8a.5.5,0,0,1-.5.5H.5A.5.5,0,0,1,0,7.5v-8A.5.5,0,0,1,.5-1Z" transform="translate(286 921)" fill="#786ade"/>
        <path id="Trazado_26" data-name="Trazado 26" d="M.5-1h2A.5.5,0,0,1,3-.5v8a.5.5,0,0,1-.5.5H.5A.5.5,0,0,1,0,7.5v-8A.5.5,0,0,1,.5-1Z" transform="translate(293 921)" fill="#786ade"/>
      </g>
    </g>
  </g>
</svg>
