<svg xmlns="http://www.w3.org/2000/svg" width="24.527" height="23.032" viewBox="0 0 24.527 23.032">
  <g id="ic_master_synonims" transform="translate(-11.25 -11.25)">
    <g id="Grupo_17" data-name="Grupo 17" transform="translate(-99 -796)">
      <text id="ID" transform="translate(114.005 816)" fill="#786ade" font-size="6" font-family="SegoeUIBlack, Segoe UI" letter-spacing="0.05em"><tspan x="0" y="0">ID</tspan></text>
      <g id="Grupo_16" data-name="Grupo 16" transform="translate(532.526 90.291) rotate(45)">
        <path id="Trazado_52" data-name="Trazado 52" d="M2,0H2A2,2,0,0,1,4,2v9H0V2A2,2,0,0,1,2,0Z" transform="translate(229 797)" fill="#fff" stroke="#786ade" stroke-linecap="round" stroke-linejoin="round" stroke-width="1.5"/>
        <path id="Trazado_53" data-name="Trazado 53" d="M2,0,4,4H0Z" transform="translate(233 812) rotate(180)" fill="#fff" stroke="#786ade" stroke-linecap="round" stroke-linejoin="round" stroke-width="1.5"/>
        <path id="Trazado_54" data-name="Trazado 54" d="M-1389,2666.81h4" transform="translate(1618 -1867)" fill="#fff" stroke="#786ade" stroke-linecap="round" stroke-linejoin="round" stroke-width="1.5"/>
      </g>
      <path id="Trazado_55" data-name="Trazado 55" d="M21,15v6a1,1,0,0,1-1,1H9" transform="translate(133 805) rotate(90)" fill="none" stroke="#786ade" stroke-linecap="round" stroke-width="1.5"/>
      <path id="Trazado_56" data-name="Trazado 56" d="M21,11V21a1,1,0,0,1-1,1H16" transform="translate(107 829) rotate(-90)" fill="none" stroke="#786ade" stroke-linecap="round" stroke-width="1.5"/>
      <path id="Trazado_57" data-name="Trazado 57" d="M21,11V21a1,1,0,0,1-1,1H10.124" transform="translate(132 830) rotate(180)" fill="none" stroke="#786ade" stroke-linecap="round" stroke-width="1.5"/>
      <path id="Trazado_58" data-name="Trazado 58" d="M-1504,2687.61h6.408" transform="translate(1619 -1869)" fill="none" stroke="#786ade" stroke-linecap="round" stroke-width="1.5"/>
      <path id="Trazado_59" data-name="Trazado 59" d="M-1504,2687.61h5.408" transform="translate(1619 -1866)" fill="none" stroke="#786ade" stroke-linecap="round" stroke-width="1.5"/>
    </g>
  </g>
</svg>
