<svg xmlns="http://www.w3.org/2000/svg" width="23.5" height="19.5" viewBox="0 0 23.5 19.5">
  <g id="ic_master_addPhoto" transform="translate(-9.25 -11.25)">
    <g id="Grupo_14" data-name="Grupo 14" transform="translate(-388.5 -952)">
      <path id="Trazado_41" data-name="Trazado 41" d="M1,18a1,1,0,0,1-1-1V3.572a1,1,0,0,1,1-1H6.111V2a2,2,0,0,1,2-2h5.778a2,2,0,0,1,2,2v.572H21a1,1,0,0,1,1,1V17a1,1,0,0,1-1,1Z" transform="translate(398.5 964)" fill="none" stroke="#786ade" stroke-linejoin="round" stroke-width="1.5"/>
      <circle id="Elipse_8" data-name="Elipse 8" cx="4" cy="4" r="4" transform="translate(405.5 970)" fill="none" stroke="#786ade" stroke-linejoin="round" stroke-width="1.5"/>
      <rect id="Rectángulo_4" data-name="Rectángulo 4" width="2.667" height="2.667" rx="1.333" transform="translate(415.5 969.333)" fill="#786ade"/>
    </g>
  </g>
</svg>
