<svg xmlns="http://www.w3.org/2000/svg" width="25.961" height="22.5" viewBox="0 0 25.961 22.5">
  <g id="ic_master_excel" transform="translate(-7.1 -10.25)">
    <path id="Trazado_27" data-name="Trazado 27" d="M3,0h9l6,6V9.733" transform="translate(12 11)" fill="none" stroke="#786ade" stroke-linecap="round" stroke-linejoin="round" stroke-width="1.5"/>
    <path id="Trazado_28" data-name="Trazado 28" d="M303,1560v6h6" transform="translate(-279 -1549)" fill="none" stroke="#786ade" stroke-linejoin="round" stroke-width="1.5"/>
    <g id="Grupo_12" data-name="Grupo 12" transform="translate(974 -222) rotate(90)">
      <path id="Trazado_29" data-name="Trazado 29" d="M201,1751h4" transform="translate(45 -807)" fill="none" stroke="#786ade" stroke-linecap="round" stroke-linejoin="round" stroke-width="1.5"/>
      <path id="Trazado_30" data-name="Trazado 30" d="M204,1749l2,2-2,2" transform="translate(45 -807)" fill="none" stroke="#786ade" stroke-linecap="round" stroke-linejoin="round" stroke-width="1.5"/>
    </g>
    <path id="Trazado_31" data-name="Trazado 31" d="M201,1751h4" transform="translate(233 1783) rotate(180)" fill="none" stroke="#786ade" stroke-linecap="round" stroke-linejoin="round" stroke-width="1.5"/>
    <path id="Trazado_32" data-name="Trazado 32" d="M0,21a1,1,0,0,0,1,1H6" transform="translate(36 11) rotate(90)" fill="none" stroke="#786ade" stroke-linecap="round" stroke-width="1.5"/>
    <text id="_.excel" data-name=".excel" transform="translate(7.1 25)" fill="#786ade" font-size="7" font-family="SegoeUIBlack, Segoe UI"><tspan x="0" y="0">.excel</tspan></text>
    <path id="Trazado_33" data-name="Trazado 33" d="M21,11V21a1,1,0,0,1-1,1H17" transform="translate(36 11) rotate(90)" fill="none" stroke="#786ade" stroke-linecap="round" stroke-width="1.5"/>
  </g>
</svg>
