<svg xmlns="http://www.w3.org/2000/svg" width="14.773" height="14.773" viewBox="0 0 14.773 14.773">
  <g id="Grupo_659" data-name="Grupo 659" transform="translate(-909 -490)">
    <path id="Trazado_735" data-name="Trazado 735" d="M909.587,494.52a7.295,7.295,0,0,1,3.934-3.934,7.286,7.286,0,0,1,5.6-.053,7.47,7.47,0,0,1,2.352,1.505l1.25-1.24a.548.548,0,0,1,.664-.135.575.575,0,0,1,.384.568v4.309a.624.624,0,0,1-.616.616h-4.309a.575.575,0,0,1-.568-.385.547.547,0,0,1,.135-.663l1.318-1.328a4.785,4.785,0,0,0-1.539-.976,4.884,4.884,0,0,0-1.808-.342,4.8,4.8,0,0,0-1.909.39,4.878,4.878,0,0,0-2.626,2.626,4.872,4.872,0,0,0,0,3.818,4.877,4.877,0,0,0,2.626,2.626,4.8,4.8,0,0,0,1.909.389,4.87,4.87,0,0,0,3.886-1.914.3.3,0,0,1,.221-.116.343.343,0,0,1,.24.087l1.318,1.327a.286.286,0,0,1,.082.2.345.345,0,0,1-.063.217,7.214,7.214,0,0,1-2.539,1.967,7.339,7.339,0,0,1-3.145.7,7.192,7.192,0,0,1-2.866-.587,7.3,7.3,0,0,1-3.934-3.934,7.3,7.3,0,0,1,0-5.732Zm0,0" fill="#786ade"/>
  </g>
</svg>
