<svg xmlns="http://www.w3.org/2000/svg" width="12.2" height="12.2" viewBox="0 0 12.2 12.2">
  <g id="Grupo_619" data-name="Grupo 619" transform="translate(0.1 0.1)">
    <path id="Trazado_731" data-name="Trazado 731" d="M21.43,9.018,20.127,6.1V2.9H18.274V2.31h1.853V0H15.69V2.31h1.854V2.9H10.733V6.1L9.43,9.018h0V12h12V9.018ZM16.42.7H19.4v.9H16.42ZM11.463,3.6H19.4V5.818H11.463Zm-.125,2.921h8.183l.989,2.218H10.349ZM20.7,11.3H10.16V9.442H20.7Z" transform="translate(-9.43)" fill="#b2a8f8" stroke="#b2a8f8" stroke-linecap="round" stroke-linejoin="round" stroke-width="0.2"/>
    <rect id="Rectángulo_925" data-name="Rectángulo 925" width="2.624" height="0.78" transform="translate(2.791 4.27)" stroke-width="0.2" stroke="#b2a8f8" stroke-linecap="round" stroke-linejoin="round" fill="#b2a8f8"/>
    <rect id="Rectángulo_926" data-name="Rectángulo 926" width="0.811" height="0.78" transform="translate(5.649 7.229)" stroke-width="0.2" stroke="#b2a8f8" stroke-linecap="round" stroke-linejoin="round" fill="#b2a8f8"/>
    <rect id="Rectángulo_927" data-name="Rectángulo 927" width="0.811" height="0.78" transform="translate(7.185 7.229)" stroke-width="0.2" stroke="#b2a8f8" stroke-linecap="round" stroke-linejoin="round" fill="#b2a8f8"/>
    <rect id="Rectángulo_928" data-name="Rectángulo 928" width="0.811" height="0.78" transform="translate(8.721 7.229)" stroke-width="0.2" stroke="#b2a8f8" stroke-linecap="round" stroke-linejoin="round" fill="#b2a8f8"/>
  </g>
</svg>
