<svg xmlns="http://www.w3.org/2000/svg" width="21.5" height="17.5" viewBox="0 0 21.5 17.5">
  <g id="Grupo_2750" data-name="Grupo 2750" transform="translate(3381.75 -8835.25)">
    <path id="Trazado_1499" data-name="Trazado 1499" d="M436,1769v-14" transform="translate(-5133 9275) rotate(-90)" fill="none" stroke="#786ade" stroke-linecap="round" stroke-linejoin="round" stroke-width="1.5"/>
    <rect id="Rectángulo_1651" data-name="Rectángulo 1651" width="16" height="20" rx="1" transform="translate(-3361 8836) rotate(90)" fill="none" stroke="#786ade" stroke-linejoin="round" stroke-width="1.5"/>
    <path id="Trazado_1496" data-name="Trazado 1496" d="M436,1761v-6" transform="translate(-2942 10604) rotate(180)" fill="none" stroke="#786ade" stroke-linecap="round" stroke-linejoin="round" stroke-width="1.5"/>
    <path id="Trazado_1497" data-name="Trazado 1497" d="M436,1761v-6" transform="translate(-2939 10604) rotate(180)" fill="none" stroke="#786ade" stroke-linecap="round" stroke-linejoin="round" stroke-width="1.5"/>
    <path id="Trazado_1498" data-name="Trazado 1498" d="M436,1761v-6" transform="translate(-2932 10604) rotate(180)" fill="none" stroke="#786ade" stroke-linecap="round" stroke-linejoin="round" stroke-width="1.5"/>
    <g id="Grupo_2748" data-name="Grupo 2748" transform="translate(-3663 7921)">
      <path id="Trazado_1369" data-name="Trazado 1369" d="M436,1761v-6" transform="translate(727 2683) rotate(180)" fill="none" stroke="#786ade" stroke-linecap="round" stroke-linejoin="round" stroke-width="1.5"/>
      <path id="Trazado_1370" data-name="Trazado 1370" d="M436,1761v-6" transform="translate(728 2683) rotate(180)" fill="none" stroke="#786ade" stroke-linecap="round" stroke-linejoin="round" stroke-width="1.5"/>
      <rect id="Rectángulo_1527" data-name="Rectángulo 1527" width="2.5" height="7.5" rx="0.5" transform="translate(290.25 921.25)" fill="#786ade"/>
    </g>
    <g id="Grupo_2749" data-name="Grupo 2749" transform="translate(-3655.95 7921)">
      <path id="Trazado_1369-2" data-name="Trazado 1369" d="M436,1761v-6" transform="translate(727 2683) rotate(180)" fill="none" stroke="#786ade" stroke-linecap="round" stroke-linejoin="round" stroke-width="1.5"/>
      <path id="Trazado_1370-2" data-name="Trazado 1370" d="M436,1761v-6" transform="translate(728 2683) rotate(180)" fill="none" stroke="#786ade" stroke-linecap="round" stroke-linejoin="round" stroke-width="1.5"/>
      <rect id="Rectángulo_1527-2" data-name="Rectángulo 1527" width="2.5" height="7.5" rx="0.5" transform="translate(290.25 921.25)" fill="#786ade"/>
    </g>
  </g>
</svg>
