<svg xmlns="http://www.w3.org/2000/svg" width="27.7" height="27.699" viewBox="0 0 27.7 27.699">
  <g id="Grupo_1696" data-name="Grupo 1696" transform="translate(0.5)">
    <g id="Grupo_1681" data-name="Grupo 1681" transform="translate(0)">
      <path id="Uni贸n_7" data-name="Uni贸n 7" d="M0,23.32V17.489A7.765,7.765,0,0,1,7.756,9.716h5.737a3.959,3.959,0,0,1,3.957,3.9,3.878,3.878,0,0,1-3.878,3.876H8.658a8.735,8.735,0,0,0-8.484,6.98A3.866,3.866,0,0,1,0,23.32ZM0,6.855c0-.3,1.736-.537,3.877-.537s3.878.24,3.878.537-1.736.536-3.878.536S0,7.151,0,6.855ZM0,5.29v-1.4a3.877,3.877,0,1,1,7.755,0V5.26a.078.078,0,0,1,.006.03c0,.3-1.737.537-3.88.537S0,5.586,0,5.29Z" transform="translate(9.75)" fill="#b2a8f8"/>
      <path id="Uni贸n_8" data-name="Uni贸n 8" d="M10.235,18.938a7.755,7.755,0,0,1,7.215-6.8v4.828a3.878,3.878,0,0,1-7.215,1.974ZM3.955,11.146A3.939,3.939,0,0,1,0,7.194a3.878,3.878,0,0,1,3.877-3.8H8.743A.953.953,0,0,0,9.7,2.437V.535C9.7.24,11.432,0,13.573,0s3.876.24,3.877.535V1.566a.95.95,0,0,1-.8.945,8.652,8.652,0,0,0-2.72.879,8.72,8.72,0,0,0-4.719,7.756Z" transform="translate(0 6.358)" fill="#786ade" stroke="rgba(0,0,0,0)" stroke-miterlimit="10" stroke-width="1"/>
    </g>
  </g>
</svg>
