<svg xmlns="http://www.w3.org/2000/svg" width="18.6" height="17.54" viewBox="0 0 18.6 17.54">
  <g id="Grupo_1738" data-name="Grupo 1738" transform="translate(-1504.7 -318.7)">
    <g id="Grupo_1737" data-name="Grupo 1737" transform="translate(1505 319)">
      <path id="Trazado_1219" data-name="Trazado 1219" d="M0,0H7l4,4.235V16.94H0Z" fill="none" stroke="#fff" stroke-linejoin="round" stroke-width="0.6"/>
      <path id="Trazado_1220" data-name="Trazado 1220" d="M-11164-5334v4h4" transform="translate(11171 5334)" fill="none" stroke="#fff" stroke-linejoin="round" stroke-width="0.6"/>
      <path id="Trazado_1221" data-name="Trazado 1221" d="M-11229.324-5320h2" transform="translate(11231.324 5324.235)" fill="none" stroke="#fff" stroke-linecap="round" stroke-width="0.6"/>
      <path id="Trazado_1222" data-name="Trazado 1222" d="M-11229.322-5320h7" transform="translate(11231.324 5327.411)" fill="none" stroke="#fff" stroke-linecap="round" stroke-width="0.6"/>
      <path id="Trazado_1223" data-name="Trazado 1223" d="M-11229.322-5320h7" transform="translate(11231.324 5330.587)" fill="none" stroke="#fff" stroke-linecap="round" stroke-width="0.6"/>
      <path id="Trazado_1224" data-name="Trazado 1224" d="M-11229.322-5320h7" transform="translate(11231.324 5333.94)" fill="none" stroke="#fff" stroke-linecap="round" stroke-width="0.6"/>
    </g>
    <path id="Unión_20" data-name="Unión 20" d="M0,10.783V1.617A1.563,1.563,0,0,1,1.5,0,1.562,1.562,0,0,1,3,1.617v9.167L1.5,12.942Z" transform="translate(1519.998 321)" fill="none" stroke="#fff" stroke-width="0.6"/>
    <path id="Trazado_1227" data-name="Trazado 1227" d="M-11229.324-5320h3" transform="translate(12749.323 5643.235)" fill="none" stroke="#fff" stroke-linecap="round" stroke-width="0.6"/>
  </g>
</svg>
