<?xml version="1.0" encoding="utf-8"?>
<!-- Generator: Adobe Illustrator 24.3.0, SVG Export Plug-In . SVG Version: 6.00 Build 0)  -->
<svg version="1.1" baseProfile="tiny" id="Capa_1" xmlns="http://www.w3.org/2000/svg" xmlns:xlink="http://www.w3.org/1999/xlink"
	 x="0px" y="0px" viewBox="0 0 24.5 23.5" overflow="visible" xml:space="preserve">
<path fill="#786ADE" d="M10,10.7H1.9C1.4,10.7,1,10.3,1,9.8V1.7c0-0.5,0.4-0.9,0.9-0.9H10c0.5,0,0.9,0.4,0.9,0.9v8.2
	C10.9,10.3,10.5,10.7,10,10.7z M2.7,8.9h6.4V2.5H2.7V8.9z M10,23.5H1.9c-0.5,0-0.9-0.4-0.9-0.9v-8.2c0-0.5,0.4-0.9,0.9-0.9H10
	c0.5,0,0.9,0.4,0.9,0.9v8.2C10.9,23.1,10.5,23.5,10,23.5z M2.7,21.8h6.4v-6.4H2.7V21.8z M22.8,10.7h-8.2c-0.5,0-0.9-0.4-0.9-0.9V1.7
	c0-0.5,0.4-0.9,0.9-0.9h8.2c0.5,0,0.9,0.4,0.9,0.9v8.2C23.7,10.3,23.3,10.7,22.8,10.7z M15.6,8.9H22V2.5h-6.4V8.9z M22.8,23.5h-8.2
	c-0.5,0-0.9-0.4-0.9-0.9v-8.2c0-0.5,0.4-0.9,0.9-0.9h8.2c0.5,0,0.9,0.4,0.9,0.9v8.2C23.7,23.1,23.3,23.5,22.8,23.5z M15.6,21.8H22
	v-6.4h-6.4V21.8z"/>
</svg>
