<svg id="ic_menu_categoria_ventas" xmlns="http://www.w3.org/2000/svg" width="24" height="24" viewBox="0 0 24 24">
  <rect id="Rect치ngulo_1297" data-name="Rect치ngulo 1297" width="24" height="24" fill="none"/>
  <g id="Grupo_1732" data-name="Grupo 1732" transform="translate(-1442 -319)">
    <g id="Rect치ngulo_1298" data-name="Rect치ngulo 1298" transform="translate(1448 327)" fill="none" stroke="#fff" stroke-linejoin="round" stroke-width="1">
      <path d="M0,0H12a0,0,0,0,1,0,0V8a4,4,0,0,1-4,4H4A4,4,0,0,1,0,8V0A0,0,0,0,1,0,0Z" stroke="none"/>
      <path d="M1,.5H11a.5.5,0,0,1,.5.5V8A3.5,3.5,0,0,1,8,11.5H4A3.5,3.5,0,0,1,.5,8V1A.5.5,0,0,1,1,.5Z" fill="none"/>
    </g>
    <path id="Trazado_1210" data-name="Trazado 1210" d="M-1.25,6h4a3,3,0,0,0,0-6h-4" transform="translate(1451 328.75) rotate(-90)" fill="none" stroke="#fff" stroke-width="1"/>
    <circle id="Elipse_198" data-name="Elipse 198" cx="1" cy="1" r="1" transform="translate(1456 329)" fill="#fff"/>
    <circle id="Elipse_199" data-name="Elipse 199" cx="1" cy="1" r="1" transform="translate(1450 329)" fill="#fff"/>
    <path id="Trazado_1211" data-name="Trazado 1211" d="M-11229.324-5320h7.324" transform="translate(12678 5654)" fill="none" stroke="#fff" stroke-linecap="round" stroke-width="1"/>
    <path id="Trazado_1212" data-name="Trazado 1212" d="M-11229.324-5320h5.324" transform="translate(12678 5656)" fill="none" stroke="#fff" stroke-linecap="round" stroke-width="1"/>
  </g>
</svg>
