<?xml version="1.0" standalone="no"?>
<!DOCTYPE svg PUBLIC "-//W3C//DTD SVG 1.1//EN" "http://www.w3.org/Graphics/SVG/1.1/DTD/svg11.dtd" >
<svg xmlns="http://www.w3.org/2000/svg" xmlns:xlink="http://www.w3.org/1999/xlink" version="1.1">
<metadata>
Created by FontForge 20170731 at Tue May  4 21:39:39 2021
 By Aleksey,,,
(c) 2020 Braille Institute of America, Inc., a 501(c)(3) Charitable Organization.
</metadata>
<defs>
<font id="AtkinsonHyperlegible-Italic" horiz-adv-x="1419" >
  <font-face 
    font-family="Atkinson Hyperlegible"
    font-weight="400"
    font-style="italic"
    font-stretch="normal"
    units-per-em="2048"
    panose-1="0 0 0 0 0 0 0 0 0 0"
    ascent="1638"
    descent="-410"
    x-height="1016"
    cap-height="1368"
    bbox="-315 -516 2740 1815"
    underline-thickness="116"
    underline-position="-335"
    slope="-12"
    unicode-range="U+000D-25CA"
  />
<missing-glyph horiz-adv-x="1079" 
d="M102 0v1434h875v-1434h-875zM162 43h758l-379 631zM145 100l369 617l-369 614v-1231zM936 96v1239l-371 -618zM539 760l381 633h-760z" />
    <glyph glyph-name=".notdef" horiz-adv-x="1079" 
d="M102 0v1434h875v-1434h-875zM162 43h758l-379 631zM145 100l369 617l-369 614v-1231zM936 96v1239l-371 -618zM539 760l381 633h-760z" />
    <glyph glyph-name=".null" horiz-adv-x="0" 
 />
    <glyph glyph-name="uni000D" unicode="&#xd;" horiz-adv-x="0" 
 />
    <glyph glyph-name="space" unicode=" " horiz-adv-x="573" 
 />
    <glyph glyph-name="exclam" unicode="!" horiz-adv-x="581" 
d="M305 399h-110l92 615l75 354h187l-74 -354zM57 86q-9 54 23 98.5t86 53.5t98 -23t53 -86t-22.5 -98.5t-85.5 -53.5t-98.5 23t-53.5 86z" />
    <glyph glyph-name="quotedbl" unicode="&#x22;" horiz-adv-x="684" 
d="M512 915l-29 453h164l-29 -453h-106zM195 1368h163l-28 -453h-107z" />
    <glyph glyph-name="numbersign" unicode="#" horiz-adv-x="1298" 
d="M328 352h-254l22 166h254l47 332h-254l23 166h254l49 352h168l-49 -352h252l49 352h168l-49 -352h252l-23 -166h-254l-45 -332h252l-23 -166h-254l-49 -352h-168l49 352h-251l-50 -352h-168zM518 518h252l45 332h-252z" />
    <glyph glyph-name="dollar" unicode="$" horiz-adv-x="1249" 
d="M78 313l186 54q46 -137 199 -191l102 477q-68 20 -113.5 36.5t-101.5 48t-89 68t-56 94.5t-23 130q0 98 47.5 176t125.5 123t173.5 65.5t196.5 12.5l27 129h106l-31 -145q112 -26 199.5 -87t128.5 -151l-188 -53q-49 90 -174 127l-93 -432q57 -17 88 -27t82 -30.5
t80.5 -38.5t66.5 -47.5t56 -61.5t33 -76t14 -96q0 -107 -52 -194t-136.5 -139.5t-189 -77t-212.5 -15.5l-32 -156h-107l37 172q-124 31 -216.5 108t-133.5 197zM565 154q89 -8 169 16t133 82.5t53 138.5q0 49 -19 86.5t-57.5 64t-78 44.5t-99.5 37zM377 1049
q-3 -45 12.5 -81t48.5 -62.5t71.5 -44.5t92.5 -36l88 420q-78 5 -145.5 -13.5t-115 -66t-52.5 -116.5z" />
    <glyph glyph-name="percent" unicode="%" horiz-adv-x="2048" 
d="M504 649q-155 0 -253 109t-81 264q17 154 137.5 262.5t274.5 108.5q155 0 252.5 -108.5t80.5 -262.5q-17 -155 -137 -264t-274 -109zM1503 -25q-155 0 -253 109t-81 264q17 154 137.5 262.5t274.5 108.5q155 0 253 -108.5t81 -262.5q-17 -155 -137.5 -264t-274.5 -109z
M653 0h-180l959 1368h180zM1321 348q-9 -92 49 -156.5t150 -64.5q91 0 160.5 64.5t80.5 156.5q11 91 -46.5 155t-149.5 64q-91 0 -163 -64.5t-81 -154.5zM322 1022q-9 -92 48.5 -156.5t149.5 -64.5q91 0 161 64.5t81 156.5q11 91 -47 155t-150 64q-91 0 -162.5 -64
t-80.5 -155z" />
    <glyph glyph-name="ampersand" unicode="&#x26;" horiz-adv-x="1415" 
d="M418 -25q-194 0 -295 109t-92 274q9 148 128.5 265t295.5 174q-104 169 -76 315q26 133 126.5 206t254.5 73q158 0 255 -78t83 -215q-7 -66 -40.5 -122t-89 -99t-114 -74.5t-135.5 -61.5l215 -286q101 123 149 282h179q-58 -197 -232 -415l238 -322h-230l-131 176
q-115 -99 -232 -150t-257 -51zM209 379q-15 -116 48.5 -180t176.5 -64q102 0 193 40.5t192 121.5l-280 385q-141 -46 -229 -122t-101 -181zM557 1106q-3 -29 -4.5 -49t7 -47t14.5 -44.5t18.5 -39.5t19 -33t16.5 -25t11 -16q274 93 289 233q8 70 -36.5 118t-143.5 44
q-76 -3 -126 -38.5t-65 -102.5z" />
    <glyph glyph-name="quotesingle" unicode="'" horiz-adv-x="395" 
d="M223 915l-28 453h163l-28 -453h-107z" />
    <glyph glyph-name="parenleft" unicode="(" horiz-adv-x="620" 
d="M195 -332q-130 296 -131 594t118 574.5t350 531.5h162q-125 -153 -215 -299t-156 -315t-87 -337t6.5 -360t109.5 -389h-157z" />
    <glyph glyph-name="parenright" unicode=")" horiz-adv-x="620" 
d="M57 -332h-166q125 153 216 299t157 315t87 337t-6 360t-109 389h157q129 -295 130 -593t-118 -575t-348 -532z" />
    <glyph glyph-name="asterisk" unicode="*" horiz-adv-x="901" 
d="M244 905l162 146l-189 108l59 101l189 -109l45 215l115 -25l-45 -215l215 23l14 -115l-217 -24l88 -199l-107 -47l-90 199l-161 -146z" />
    <glyph glyph-name="plus" unicode="+" horiz-adv-x="1267" 
d="M86 590h426v426h164v-426h426v-164h-426v-426h-164v426h-426v164z" />
    <glyph glyph-name="comma" unicode="," horiz-adv-x="428" 
d="M37 -272h-125l154 256q-45 15 -69 56.5t-17 90.5q11 54 55 85t98 22q44 -8 74.5 -41t34.5 -75t-21 -85z" />
    <glyph glyph-name="hyphen" unicode="-" horiz-adv-x="755" 
d="M41 426l37 166h598l-37 -166h-598z" />
    <glyph glyph-name="period" unicode="." horiz-adv-x="425" 
d="M-2 106q0 55 38.5 94.5t92.5 39.5q55 0 94 -39t39 -95q0 -54 -39 -92.5t-94 -38.5q-54 0 -92.5 38.5t-38.5 92.5z" />
    <glyph glyph-name="slash" unicode="/" horiz-adv-x="759" 
d="M-102 0l823 1368h178l-823 -1368h-178z" />
    <glyph glyph-name="zero" unicode="0" horiz-adv-x="1339" 
d="M600 -25q-262 0 -379 183.5t-74 525.5t204 525.5t423 183.5q263 0 380.5 -183.5t74.5 -525.5q-43 -343 -204.5 -526t-424.5 -183zM334 684q-8 -85 -10.5 -165.5t15 -151.5t49 -124t90.5 -83.5t140 -30.5q128 0 218 72l-404 829q-74 -132 -98 -346zM756 1239
q-118 0 -203 -63l399 -824q66 136 90 332q7 53 9.5 102.5t-0.5 106.5t-13 105t-32 93.5t-54.5 77.5t-82.5 51t-113 19z" />
    <glyph glyph-name="one" unicode="1" horiz-adv-x="825" 
d="M178 1030l29 139q140 0 235.5 25.5t146.5 67.5t81 106h118l-290 -1368h-174l219 1030h-365z" />
    <glyph glyph-name="two" unicode="2" horiz-adv-x="1157" 
d="M-37 0l33 156q437 245 662.5 433t265.5 363q16 72 3.5 127.5t-47.5 93t-82 57t-100 19.5q-69 0 -129 -19.5t-119 -72.5t-94 -137l-159 49q146 324 508 324q97 0 178.5 -27.5t142 -80.5t84.5 -141t2 -200q-17 -87 -73 -175.5t-132.5 -164.5t-186 -157.5t-214.5 -147.5
t-238 -141h713l-33 -158h-985z" />
    <glyph glyph-name="three" unicode="3" horiz-adv-x="1187" 
d="M66 324l176 47q15 -116 90.5 -184t202.5 -68q131 0 224 73.5t93 190.5q0 53 -15 94.5t-37.5 68.5t-59.5 46.5t-69.5 29.5t-79.5 15.5t-78 6.5t-75 1l33 154q62 0 107 2.5t99.5 10t92.5 23t71.5 39.5t51.5 62.5t20 89.5q4 106 -71.5 164.5t-190.5 58.5q-231 0 -305 -229
l-160 51q44 147 168.5 234.5t307.5 87.5q65 0 126 -10.5t119 -35t100.5 -61.5t68.5 -93.5t26 -127.5q0 -133 -74 -222.5t-203 -131.5q209 -70 209 -305q0 -83 -32 -159t-92.5 -137.5t-159 -98t-220.5 -36.5q-199 0 -317.5 96t-146.5 253z" />
    <glyph glyph-name="four" unicode="4" horiz-adv-x="1302" 
d="M35 338l35 162l876 868h178l-184 -868h254l-35 -162h-254l-71 -338h-179l74 338h-694zM897 1130l-637 -630h502z" />
    <glyph glyph-name="five" unicode="5" horiz-adv-x="1177" 
d="M487 -25q-181 9 -290.5 100.5t-145.5 239.5l170 47q61 -229 275 -239q148 -4 239.5 85t102.5 243q10 155 -58 235t-196 86q-103 6 -180 -36.5t-115 -110.5l-160 49l231 694h789l-37 -166h-643l-129 -383q112 103 276 103q86 0 164 -32.5t137.5 -92t88.5 -153.5t16 -208
q-14 -122 -66 -215.5t-127.5 -147t-162.5 -78.5t-179 -20z" />
    <glyph glyph-name="six" unicode="6" horiz-adv-x="1239" 
d="M575 -25q-255 0 -365.5 176t-72.5 486q14 120 46 229t85 206t122.5 167.5t165 112t206.5 41.5q147 0 241 -60.5t130 -158.5l-181 -52q-49 127 -209 127q-154 0 -259.5 -135.5t-147.5 -374.5q53 79 144 125.5t208 46.5q191 0 305 -129.5t99 -332.5q-7 -98 -44.5 -183
t-101.5 -150.5t-159.5 -103t-211.5 -37.5zM311 465q-15 -144 61.5 -245t209.5 -101q134 0 224 89.5t101 231.5t-63 230t-209 88q-133 0 -221.5 -80.5t-102.5 -212.5z" />
    <glyph glyph-name="seven" unicode="7" horiz-adv-x="1099" 
d="M63 0l848 1202h-751l37 166h964l-35 -166l-841 -1202h-222z" />
    <glyph glyph-name="eight" unicode="8" horiz-adv-x="1263" 
d="M545 -25q-145 0 -254 47t-166.5 141t-44.5 222q13 130 91 223.5t200 139.5q-50 51 -72.5 122t-15.5 150q15 154 135 263.5t274 109.5q153 0 250 -109.5t82 -263.5q-7 -78 -45.5 -149t-99.5 -123q112 -46 170 -139.5t43 -223.5q-20 -191 -173 -300.5t-374 -109.5zM266 385
q-12 -120 67.5 -188t227.5 -68q146 0 240 68.5t106 187.5q12 121 -67.5 192.5t-227.5 71.5q-145 0 -239.5 -71.5t-106.5 -192.5zM434 1020q-9 -91 47.5 -155t147.5 -64t162.5 64t80.5 155q9 92 -48.5 155.5t-149.5 63.5q-90 0 -160.5 -63.5t-79.5 -155.5z" />
    <glyph glyph-name="nine" unicode="9" horiz-adv-x="1230" 
d="M686 432q-107 -11 -197 13t-150.5 74.5t-99 122t-48 153t9.5 170t67 170.5q72 123 200.5 190.5t266.5 67.5q121 0 215 -52q75 -40 129.5 -110t80 -156t8.5 -189t-81 -200q-71 -108 -206 -279.5t-235 -288.5l-99 -118h-238zM369 901q-14 -131 64 -221t206 -90
q130 0 229.5 89.5t124.5 233.5q9 52 -4 106t-45 100.5t-93 75t-140 26.5q-130 -3 -228.5 -92t-113.5 -228z" />
    <glyph glyph-name="colon" unicode=":" horiz-adv-x="428" 
d="M276 768q-54 0 -92.5 39t-38.5 94q0 54 38.5 92.5t92.5 38.5q55 0 94.5 -38.5t39.5 -92.5q0 -55 -39 -94t-95 -39zM109 -25q-54 0 -93 38.5t-39 92.5q0 55 39 94.5t93 39.5q55 0 94 -39t39 -95q0 -54 -39 -92.5t-94 -38.5z" />
    <glyph glyph-name="semicolon" unicode=";" horiz-adv-x="428" 
d="M-88 -272l154 256q-45 15 -69 56.5t-17 90.5q11 54 55 85t98 22q44 -8 74.5 -41t34.5 -75t-21 -85l-184 -309h-125zM279 768q-54 0 -93 39t-39 94q0 54 39 92.5t93 38.5q55 0 94 -38.5t39 -92.5q0 -55 -39 -94t-94 -39z" />
    <glyph glyph-name="less" unicode="&#x3c;" horiz-adv-x="1255" 
d="M78 580l969 436v-185l-754 -323l754 -324v-184l-969 436v144z" />
    <glyph glyph-name="equal" unicode="=" horiz-adv-x="1347" 
d="M129 629v162h1016v-162h-1016zM1145 248h-1016v162h1016v-162z" />
    <glyph glyph-name="greater" unicode="&#x3e;" horiz-adv-x="1255" 
d="M924 508l-754 323v185l969 -436v-144l-969 -436v184z" />
    <glyph glyph-name="question" unicode="?" horiz-adv-x="1079" 
d="M182 1073q57 158 188 238t310 80q60 0 117 -11t112 -37t93.5 -65t57.5 -100.5t9 -137.5q-7 -57 -35 -107t-74 -89t-92 -67.5t-106 -57.5q-111 -55 -159 -115.5t-64 -144.5l-17 -70h-174l14 76q18 84 50 147t80 109t93 75.5t115 65.5q76 39 125 83.5t60 105.5
q13 88 -49 142t-162 54q-126 0 -211.5 -57t-122.5 -166zM334 -14q-51 20 -72.5 70.5t0.5 101.5q17 38 50.5 60t72.5 22q22 0 51 -11q51 -22 72 -71.5t0 -100.5q-17 -38 -50.5 -60t-72.5 -22q-22 0 -51 11z" />
    <glyph glyph-name="at" unicode="@" horiz-adv-x="1611" 
d="M137 684q0 115 36 223.5t101.5 195.5t152.5 152.5t195.5 101.5t223.5 36q94 0 189.5 -26.5t184 -81t157.5 -129.5t110 -180.5t41 -225.5q0 -90 -21.5 -164t-57.5 -123t-83.5 -82.5t-98 -48.5t-102.5 -15q-88 0 -153 39.5t-78 104.5q-52 -70 -122 -107t-140 -37
q-117 0 -185.5 90.5t-35.5 245.5q19 91 55.5 162t82.5 117t103 76t115.5 42.5t122.5 12.5q121 0 239 -41q-73 -359 -96 -453q-13 -56 19 -88t88 -32q60 0 115.5 39.5t80.5 111.5q30 84 25.5 166t-31.5 156.5t-80 137.5t-119.5 109.5t-150.5 72.5t-174 26q-157 0 -291 -78
t-212.5 -212.5t-78.5 -293.5q0 -125 49 -235.5t130 -186t187 -119t218 -43.5q143 0 276 74v-141q-131 -58 -272 -58q-137 0 -266 52t-228.5 143t-160 225.5t-60.5 288.5zM612 639q-18 -82 13 -127t88 -45q68 0 132.5 60t86.5 167l45 211q-54 8 -88 8q-218 0 -277 -274z" />
    <glyph glyph-name="A" unicode="A" horiz-adv-x="1284" 
d="M-106 0l802 1368h238l223 -1368h-211l-43 299h-618l-170 -299h-221zM780 1174l-403 -711h504z" />
    <glyph glyph-name="B" unicode="B" horiz-adv-x="1290" 
d="M29 0l290 1368h515q121 0 210.5 -37t133.5 -95t56 -131t-11 -144t-80 -136t-139 -104q112 -44 152 -162q41 -124 -15 -259q-63 -150 -217 -231q-133 -69 -310 -69h-585zM360 631l-100 -469h371q158 0 254 102q76 80 74 177q-2 100 -87 152q-63 38 -159 38h-353zM481 1204
l-88 -422h352q150 0 232 97q64 76 53 167q-12 90 -93 132q-50 26 -118 26h-338z" />
    <glyph glyph-name="C" unicode="C" horiz-adv-x="1363" 
d="M647 -25q-96 0 -176.5 22t-138.5 61.5t-102 93.5t-69.5 117t-38.5 133.5t-12 142t13 143.5q35 204 134.5 362.5t257 250.5t349.5 92q182 0 306 -78.5t173 -233.5l-182 -61q-33 102 -116 155.5t-201 53.5q-196 0 -338.5 -146.5t-186.5 -394.5q-28 -155 7.5 -281.5
t125.5 -198t216 -71.5q132 0 224.5 51t166.5 162l162 -63q-96 -154 -243.5 -233t-330.5 -79z" />
    <glyph glyph-name="D" unicode="D" horiz-adv-x="1384" 
d="M29 0l290 1368h377q133 0 237 -24t185.5 -76.5t126.5 -136t60.5 -202.5t-13.5 -276q-36 -216 -158 -364t-305.5 -218.5t-420.5 -70.5h-379zM260 162h176q103 0 191.5 16.5t167.5 54t139 95t102.5 143t61.5 195.5q15 85 16 156t-11.5 123.5t-34 94t-55.5 69.5t-71.5 47
t-86 29.5t-96 14.5t-104.5 4h-174z" />
    <glyph glyph-name="E" unicode="E" horiz-adv-x="1165" 
d="M29 0l290 1368h932l-34 -166h-736l-88 -416h543l-37 -163h-541l-98 -457h735l-34 -166h-932z" />
    <glyph glyph-name="F" unicode="F" horiz-adv-x="1126" 
d="M29 0l290 1368h893l-36 -166h-695l-88 -416h694l-34 -163h-695l-133 -623h-196z" />
    <glyph glyph-name="G" unicode="G" horiz-adv-x="1460" 
d="M616 -25q-179 0 -302 92.5t-171.5 253.5t-19.5 367q21 147 83.5 275.5t156.5 224t222 150.5t273 55q192 0 316 -79t169 -233l-182 -61q-24 87 -105 148t-212 61q-193 0 -339 -145.5t-186 -395.5q-20 -128 -3 -228.5t63.5 -171.5t116.5 -109.5t155 -41.5q80 -3 150 14
t132 57.5t108.5 114t70.5 175.5l10 43h-401l35 164h587l-151 -705h-115l-12 168q-172 -193 -449 -193z" />
    <glyph glyph-name="H" unicode="H" horiz-adv-x="1421" 
d="M29 0l290 1368h197l-123 -582h717l123 582h197l-291 -1368h-197l131 623h-715l-133 -623h-196z" />
    <glyph glyph-name="I" unicode="I" horiz-adv-x="847" 
d="M8 0l33 154h190l226 1060h-191l33 154h575l-30 -154h-193l-223 -1060h188l-32 -154h-576z" />
    <glyph glyph-name="J" unicode="J" horiz-adv-x="1042" 
d="M334 -25q-78 0 -144 24.5t-116.5 73.5t-74.5 130t-13 186l184 49q-27 -148 19.5 -226.5t168.5 -78.5q53 0 95 13t82 45.5t70.5 94t49.5 150.5l199 932h197l-199 -934q-19 -92 -50 -165t-64 -120.5t-77.5 -81.5t-81 -51.5t-86.5 -27t-82 -11.5t-77 -2z" />
    <glyph glyph-name="K" unicode="K" horiz-adv-x="1275" 
d="M29 0l290 1368h197l-141 -661l731 661h266l-653 -580l409 -788h-215l-338 664l-258 -234l-92 -430h-196z" />
    <glyph glyph-name="L" unicode="L" horiz-adv-x="1107" 
d="M29 0l290 1368h197l-256 -1202h735l-34 -166h-932z" />
    <glyph glyph-name="M" unicode="M" horiz-adv-x="1687" 
d="M29 0l290 1368h320l127 -1110l598 1110h332l-291 -1368h-197l244 1145l-633 -1145h-194l-148 1178l-252 -1178h-196z" />
    <glyph glyph-name="N" unicode="N" 
d="M29 0l290 1368h281l381 -1175l250 1175h196l-290 -1368h-281l-379 1180l-252 -1180h-196z" />
    <glyph glyph-name="O" unicode="O" horiz-adv-x="1490" 
d="M639 -25q-139 0 -248 55.5t-174.5 151t-90.5 226t-3 278.5q31 207 128.5 365t261.5 250t374 92q186 0 316 -96.5t182 -257t20 -353.5q-18 -110 -56 -211t-102.5 -193t-149.5 -159.5t-203 -107.5t-255 -40zM319 686q-21 -134 -3 -236t68 -172t122 -105.5t160 -35.5
q208 0 353.5 146t188.5 403q42 250 -61.5 396.5t-286.5 146.5q-113 0 -207 -41.5t-160.5 -116t-110.5 -172t-63 -213.5z" />
    <glyph glyph-name="P" unicode="P" horiz-adv-x="1232" 
d="M29 0l290 1368h381q59 0 109.5 -3.5t109 -13.5t104.5 -27.5t89.5 -48t70 -71.5t40 -101t6.5 -134q-21 -218 -172.5 -322t-468.5 -104h-248l-115 -543h-196zM481 1204l-104 -495h260q173 0 270.5 52t116.5 175q12 79 -3.5 133t-58.5 83t-101 40.5t-142 11.5h-238z" />
    <glyph glyph-name="Q" unicode="Q" horiz-adv-x="1533" 
d="M647 10q-139 0 -248.5 55.5t-174.5 151t-90 225.5t-3 277q23 155 85 284t158 223t229.5 146.5t291.5 52.5q140 0 250 -56t175.5 -152t90.5 -225t2 -273q-45 -279 -207 -467l203 -238l-143 -127l-205 240q-172 -117 -414 -117zM328 719q-42 -254 60.5 -400.5t285.5 -146.5
q154 0 278 82l-278 328l145 123l271 -316q98 142 127 330q21 131 2.5 232.5t-68.5 171t-123 105.5t-160 36q-113 0 -207 -42t-160 -116.5t-110 -172t-63 -214.5z" />
    <glyph glyph-name="R" unicode="R" horiz-adv-x="1249" 
d="M29 0l290 1368h418q126 0 219 -20t160.5 -65t96 -122.5t14.5 -187.5q-6 -53 -22.5 -101t-51.5 -96.5t-85.5 -85.5t-129.5 -64t-178 -36l301 -590h-215l-293 575h-205l-123 -575h-196zM481 1204l-98 -467h254q68 0 120 5.5t101.5 20.5t82.5 40t56.5 67t30.5 99
q9 69 -7.5 116t-59.5 72.5t-100.5 36t-139.5 10.5h-240z" />
    <glyph glyph-name="S" unicode="S" horiz-adv-x="1247" 
d="M74 301l186 51q24 -71 79 -120.5t121.5 -72t139.5 -22.5q128 0 220.5 65t92.5 175q0 54 -25 95t-67.5 67t-98 46.5t-116.5 38.5t-121.5 37.5t-116 48.5t-98 67.5t-67.5 99t-25 137.5q0 91 41 165t110 119.5t155 70t180 24.5q158 0 292.5 -66.5t192.5 -189.5l-188 -54
q-35 69 -121.5 108.5t-184.5 39.5q-72 0 -132.5 -21t-102.5 -66.5t-47 -109.5q-5 -67 33.5 -115t103.5 -76t145 -51.5t160.5 -52t147.5 -67t109 -107t42 -162.5q0 -80 -29.5 -149.5t-80.5 -120t-118.5 -86.5t-144.5 -54t-157 -18q-173 0 -314.5 83.5t-195.5 242.5z" />
    <glyph glyph-name="T" unicode="T" horiz-adv-x="1142" 
d="M150 1202l34 166h1102l-35 -166h-454l-252 -1202h-199l254 1202h-450z" />
    <glyph glyph-name="U" unicode="U" 
d="M586 -25q-287 0 -394 143.5t-40 454.5l170 795h196l-172 -811q-45 -221 10.5 -318.5t239.5 -97.5q96 0 167 20t129.5 67t98.5 128t66 201l174 811h196l-170 -795q-24 -114 -60.5 -205.5t-77 -153.5t-94 -107t-102.5 -70t-111.5 -39.5t-112.5 -18.5t-113 -4z" />
    <glyph glyph-name="V" unicode="V" horiz-adv-x="1212" 
d="M184 1368h203l127 -1143l614 1143h228l-762 -1368h-229z" />
    <glyph glyph-name="W" unicode="W" horiz-adv-x="1728" 
d="M238 0l-54 1368h205l25 -1106l479 1106h231l11 -1128l512 1128h225l-635 -1368h-248l-22 1128l-502 -1128h-227z" />
    <glyph glyph-name="X" unicode="X" horiz-adv-x="1277" 
d="M-106 0l667 719l-323 649h208l248 -502l465 502h256l-631 -680l346 -688h-210l-271 541l-499 -541h-256z" />
    <glyph glyph-name="Y" unicode="Y" horiz-adv-x="1224" 
d="M184 1368h197l213 -690l541 690h233l-702 -876l-105 -492h-199l107 492z" />
    <glyph glyph-name="Z" unicode="Z" horiz-adv-x="1255" 
d="M-37 0l35 166l1026 1036h-762l35 166h1014l-35 -166l-1024 -1036h821l-37 -166h-1073z" />
    <glyph glyph-name="bracketleft" unicode="[" horiz-adv-x="649" 
d="M-41 -330l360 1698h424l-30 -154h-254l-297 -1392h256l-33 -152h-426z" />
    <glyph glyph-name="backslash" unicode="\" horiz-adv-x="1062" 
d="M727 0l-532 1368h178l532 -1368h-178z" />
    <glyph glyph-name="bracketright" unicode="]" horiz-adv-x="649" 
d="M-129 -330l33 152h256l297 1392h-256l30 154h424l-358 -1698h-426z" />
    <glyph glyph-name="asciicircum" unicode="^" horiz-adv-x="1130" 
d="M96 637l379 731h156l379 -731h-183l-274 528l-274 -528h-183z" />
    <glyph glyph-name="underscore" unicode="_" horiz-adv-x="845" 
d="M-66 -162v162h771v-162h-771z" />
    <glyph glyph-name="grave" unicode="`" horiz-adv-x="557" 
d="M289 1325q-19 26 -14 59t30 50q20 14 47 14q40 0 62 -31q15 -20 53.5 -82t70.5 -114l31 -52h-139q-108 111 -141 156z" />
    <glyph glyph-name="a" unicode="a" horiz-adv-x="1064" 
d="M313 -25q-133 0 -219 72.5t-86 192.5q0 261 407 346q95 20 320 43q12 1 21 2q63 262 -174 262q-92 0 -159 -41.5t-101 -116.5l-154 47q54 118 157 184t248 66q216 0 308.5 -103t48.5 -311l-49 -233q-43 -211 -47 -385h-162l-8 129q-70 -79 -152 -116.5t-199 -37.5z
M203 285q-11 -81 36.5 -124.5t129.5 -43.5q138 0 237 93t127 249l6 35q-94 -9 -150.5 -16t-124 -18t-106 -25t-75.5 -35t-55.5 -49.5t-24.5 -65.5z" />
    <glyph glyph-name="b" unicode="b" horiz-adv-x="1140" 
d="M16 0l291 1368h176l-104 -487q117 151 287 151q84 0 150 -25t108 -65.5t69.5 -97.5t39 -117t11.5 -127q0 -113 -32.5 -222t-92.5 -200t-157 -147t-215 -56q-214 0 -316 193l-84 -168h-131zM285 432q0 -83 25.5 -151.5t82 -113t135.5 -44.5q83 0 149.5 46t104.5 118
t58 152t20 157q0 132 -57.5 210.5t-171.5 78.5q-81 0 -148.5 -42.5t-109.5 -109.5t-65 -145.5t-23 -155.5z" />
    <glyph glyph-name="c" unicode="c" horiz-adv-x="1009" 
d="M451 -25q-217 0 -323 146t-69 387q36 232 182 378t365 146q274 0 379 -227l-170 -60q-20 62 -79.5 99t-137.5 37q-79 0 -143 -32t-105 -87t-66.5 -117.5t-37.5 -134.5q-8 -62 -9 -118t15 -104.5t44 -84t77.5 -56t115.5 -20.5q155 0 254 133l146 -57q-68 -112 -183 -170
t-255 -58z" />
    <glyph glyph-name="d" unicode="d" horiz-adv-x="1134" 
d="M420 -25q-128 0 -217 70t-125 190.5t-17 270.5q33 244 168 385t326 141q117 0 200 -60.5t113 -156.5l117 553h176q-158 -737 -209 -983q-45 -226 -47 -385h-166l-10 125q-58 -72 -130.5 -111t-178.5 -39zM248 506q-29 -183 36.5 -283t178.5 -100q78 0 143.5 35.5
t107 93.5t66.5 123t31 131q18 173 -45 276t-193 103q-132 0 -215 -106.5t-110 -272.5z" />
    <glyph glyph-name="e" unicode="e" horiz-adv-x="1107" 
d="M485 -25q-226 0 -342 145t-82 388q35 248 188.5 386t381.5 138q97 0 174.5 -30.5t126.5 -84t78.5 -125.5t30 -156t-18.5 -175h-786q-10 -92 9.5 -159.5t61.5 -104t91.5 -53.5t107.5 -17q159 0 252 100l160 -49q-158 -203 -433 -203zM606 885q-120 0 -219 -77t-127 -208
h600q5 52 -6.5 101t-39.5 91t-82 67.5t-126 25.5z" />
    <glyph glyph-name="f" unicode="f" horiz-adv-x="655" 
d="M76 0l186 877h-172l31 139h170l24 108q11 50 21.5 87.5t25 69.5t24 54.5t31 41t34 29.5t44 19.5t50 12t63 6t71.5 2.5h87l-31 -146h-49q-35 0 -55.5 -2t-44 -10t-38 -23.5t-28 -43t-22.5 -68.5l-31 -137h209l-31 -139h-207l-186 -877h-176z" />
    <glyph glyph-name="g" unicode="g" horiz-adv-x="1134" 
d="M367 -389q-132 0 -236.5 62t-140.5 167l184 51q12 -56 70 -95.5t151 -35.5q74 3 128 25t87.5 63.5t53 87t34.5 111.5l27 117q-50 -64 -123.5 -97.5t-155.5 -33.5q-78 0 -149.5 31t-128 90t-85 156.5t-15.5 217.5q11 106 44.5 192.5t80 144.5t105.5 97t120 56.5t125 17.5
q108 0 198 -48.5t129 -131.5l82 160h127q-145 -691 -194 -920q-2 -9 -6 -29q-8 -38 -12.5 -59.5t-17 -63.5t-25 -68.5t-34.5 -65t-47.5 -63.5t-63.5 -53.5t-82 -44.5t-103 -27t-127 -11zM250 524q-20 -154 49.5 -245.5t196.5 -96.5q122 -4 204 91t109 251
q29 168 -46.5 264.5t-199.5 96.5q-126 0 -208.5 -95.5t-104.5 -265.5z" />
    <glyph glyph-name="h" unicode="h" horiz-adv-x="1124" 
d="M16 0l291 1368h176l-104 -494q122 158 350 158q166 0 235 -111t21 -331l-127 -590h-174l121 573q35 173 0.5 240.5t-152.5 67.5q-122 0 -216.5 -84.5t-133.5 -270.5l-110 -526h-177z" />
    <glyph glyph-name="i" unicode="i" horiz-adv-x="552" 
d="M270 0h-176l187 877h-164l28 139h340zM469 1210q-53 0 -90 37t-37 90q0 54 37 91.5t90 37.5q54 0 91.5 -37.5t37.5 -91.5q0 -53 -37.5 -90t-91.5 -37z" />
    <glyph glyph-name="j" unicode="j" horiz-adv-x="528" 
d="M-315 -326l32 150q73 -2 118.5 -0.5t83.5 10t58.5 20.5t37.5 38t26 55.5t20 79.5l211 989h177l-213 -1000q-10 -50 -18.5 -84t-20.5 -69.5t-24.5 -58t-31 -45.5t-39.5 -36t-51 -25t-64.5 -17.5t-81 -8.5t-99.5 -2.5t-121 4.5zM432 1210q-54 0 -91.5 37.5t-37.5 91.5
t37.5 91.5t91.5 37.5q53 0 91 -37.5t38 -91.5t-38 -91.5t-91 -37.5z" />
    <glyph glyph-name="k" unicode="k" horiz-adv-x="999" 
d="M16 0l291 1368h176l-168 -784l482 432h229l-479 -424l305 -592h-193l-243 475l-152 -135l-71 -340h-177z" />
    <glyph glyph-name="l" unicode="l" horiz-adv-x="532" 
d="M260 0q-104 0 -151.5 28t-51 85t14.5 143l235 1112h176l-229 -1081q-9 -47 -10 -76.5t19 -43t69 -13.5h76l-33 -154h-115z" />
    <glyph glyph-name="m" unicode="m" horiz-adv-x="1732" 
d="M193 0h-177l215 1016h131l13 -142q65 79 139.5 118.5t183.5 39.5q116 0 180 -45.5t95 -134.5q135 180 360 180q19 0 34.5 -1t42.5 -5t48 -11.5t47 -22.5t44.5 -35.5t35 -53t23 -72.5t4 -95.5t-16.5 -121.5l-129 -614h-176l125 592q20 93 19 158t-38 99t-116 34
q-128 0 -214 -86.5t-120 -243.5l-117 -553h-176l125 592q20 95 17.5 160t-40 98t-114.5 33q-119 0 -207.5 -83.5t-124.5 -246.5z" />
    <glyph glyph-name="n" unicode="n" horiz-adv-x="1126" 
d="M193 0h-177l215 1016h131l13 -142q122 158 354 158q166 0 235 -112t21 -332l-127 -588h-174l121 571q36 173 1 241.5t-153 68.5q-58 0 -109.5 -18.5t-99 -58.5t-84 -111t-57.5 -167z" />
    <glyph glyph-name="o" unicode="o" horiz-adv-x="1120" 
d="M471 -25q-225 0 -334 148.5t-76 382.5q15 109 55.5 199t95.5 149.5t124.5 100.5t140.5 59t144 18t139 -20.5t122 -63.5t92 -108t49.5 -153.5t-5.5 -201.5q-11 -63 -34.5 -127.5t-69 -135t-104.5 -124t-147.5 -88.5t-191.5 -35zM244 506q-30 -169 33.5 -274t207.5 -105
q136 0 229.5 102.5t121.5 276.5q59 375 -242 375q-59 0 -110.5 -18t-100 -59t-85 -116.5t-54.5 -181.5z" />
    <glyph glyph-name="p" unicode="p" horiz-adv-x="1138" 
d="M123 -332h-176l286 1348h129l11 -135q45 66 121.5 108.5t183.5 42.5q96 0 169.5 -38t117 -104t63 -150.5t14.5 -182.5q-5 -86 -26.5 -168t-62.5 -157.5t-96.5 -132t-134.5 -90.5t-171 -34q-119 0 -200.5 56.5t-117.5 158.5zM291 504q-24 -158 43.5 -270.5t197.5 -112.5
q66 0 121.5 31t94 84.5t64 119.5t38.5 142q32 177 -29 282t-192 105q-128 0 -221.5 -107t-116.5 -274z" />
    <glyph glyph-name="q" unicode="q" horiz-adv-x="1134" 
d="M422 -25q-189 0 -289.5 143t-71.5 386q13 105 51 199t98.5 168.5t149 118.5t193.5 44q116 0 196.5 -48t124.5 -130l82 160h127q-207 -977 -223 -1057q-16 -72 6.5 -109.5t91.5 -37.5q68 0 168 32l-34 -159q-23 -16 -74 -28.5t-105 -12.5q-36 0 -67.5 5.5t-63.5 19
t-54.5 35.5t-39 54.5t-17.5 76.5t9 102l39 184q-37 -63 -117 -104.5t-180 -41.5zM248 504q-25 -175 33 -278t192 -103q89 0 163.5 58.5t117 144.5t51.5 180q18 177 -48.5 279t-193.5 102q-57 0 -106 -24.5t-83.5 -64t-61 -91t-42 -102t-22.5 -101.5z" />
    <glyph glyph-name="r" unicode="r" horiz-adv-x="722" 
d="M193 0h-177l215 1016h129l17 -191q71 103 162.5 155t244.5 52l-39 -182q-102 4 -181.5 -25t-134.5 -87.5t-90.5 -136t-57.5 -181.5z" />
    <glyph glyph-name="s" unicode="s" horiz-adv-x="980" 
d="M436 -25q-158 0 -261.5 61.5t-154.5 194.5l177 60q16 -86 85.5 -131t159.5 -45t157 45t67 121q0 41 -24.5 71t-64 46.5t-90.5 33.5t-104 30t-104 36.5t-90.5 53t-64 80t-24.5 116.5q0 91 58 157t145 96.5t189 30.5q134 0 244 -54.5t147 -154.5l-164 -57q-19 59 -89 92
t-153 33q-84 0 -143.5 -34.5t-59.5 -98.5q0 -40 24.5 -69.5t65 -46t91.5 -33.5t105 -30.5t105 -37t91.5 -53t65 -80t24.5 -115.5q0 -151 -116 -234.5t-294 -83.5z" />
    <glyph glyph-name="t" unicode="t" horiz-adv-x="663" 
d="M100 877l29 139h170l55 254h176l-55 -254h195l-29 -139h-195l-127 -590q-20 -72 -6 -102.5t84 -30.5h90l-32 -154h-127q-105 0 -153.5 28t-52.5 85t15 143l133 621h-170z" />
    <glyph glyph-name="u" unicode="u" horiz-adv-x="1105" 
d="M354 -23q-76 0 -131 23.5t-85.5 64t-44 97.5t-11 119.5t17.5 134.5l127 600h176l-127 -596q-11 -53 -15.5 -92t-0.5 -79t20 -65t50 -41t86 -16q126 0 216 86.5t130 269.5l115 533h174l-215 -1016h-134l-12 143q-67 -88 -144 -127t-192 -39z" />
    <glyph glyph-name="v" unicode="v" horiz-adv-x="909" 
d="M88 1016h178l96 -791l435 791h200l-579 -1016h-182z" />
    <glyph glyph-name="w" unicode="w" horiz-adv-x="1347" 
d="M164 0l-76 1016h178l35 -733l352 733h185l41 -750l360 750h197l-510 -1016h-168l-47 819l-396 -819h-151z" />
    <glyph glyph-name="x" unicode="x" horiz-adv-x="948" 
d="M-127 0l496 537l-242 479h184l176 -350l326 350h223l-471 -508l254 -508h-184l-189 379l-350 -379h-223z" />
    <glyph glyph-name="y" unicode="y" horiz-adv-x="890" 
d="M-127 -330l33 154h69q66 0 101.5 5t65.5 27t47.5 51t48.5 93l-150 1016h182l82 -791l422 791h205l-588 -1059q-39 -71 -62 -109t-54 -75.5t-55 -53.5t-64.5 -29.5t-83.5 -16.5t-111 -3h-88z" />
    <glyph glyph-name="z" unicode="z" horiz-adv-x="956" 
d="M-45 0l31 150l741 718h-557l33 150h772l-33 -150l-735 -718h592l-31 -150h-813z" />
    <glyph glyph-name="braceleft" unicode="{" horiz-adv-x="659" 
d="M301 -332q-110 0 -164.5 29.5t-64 92t11.5 159.5l66 307q12 59 13 102.5t-27 68t-89 24.5l29 137q88 0 126.5 46.5t59.5 145.5l64 307q13 60 25 98.5t30.5 72.5t40.5 52.5t56 32t77 18.5t104 5h95l-31 -145h-84q-66 0 -90.5 -25.5t-42.5 -105.5l-68 -312
q-26 -122 -79 -180t-138 -80q77 -22 105 -78.5t2 -179.5l-66 -313q-19 -79 -4.5 -106t82.5 -27h84l-31 -146h-92z" />
    <glyph glyph-name="bar" unicode="|" horiz-adv-x="591" 
d="M197 -330v1698h165v-1698h-165z" />
    <glyph glyph-name="braceright" unicode="}" horiz-adv-x="659" 
d="M-127 -332l31 146h86q66 0 90.5 26t42.5 107l65 311q26 123 79.5 180.5t140.5 79.5q-77 22 -106 79.5t-3 178.5l68 314q18 78 3 104.5t-81 26.5h-86l30 145h95q109 0 162.5 -29.5t63 -91.5t-10.5 -158l-64 -307q-13 -60 -13.5 -102.5t27 -66t87.5 -23.5l-31 -137
q-45 0 -77 -13.5t-52 -42t-31 -60t-22 -81.5l-66 -305q-13 -60 -25 -99.5t-30.5 -73t-40.5 -52.5t-57 -32.5t-78 -18.5t-105 -5h-92z" />
    <glyph glyph-name="asciitilde" unicode="~" horiz-adv-x="1103" 
d="M205 408l-154 45q24 95 98.5 152t182.5 57q57 0 120 -17.5t108.5 -39t96 -39t86.5 -17.5q49 0 84 26.5t45 77.5l152 -45q-24 -95 -98 -152t-181 -57q-49 0 -108.5 17.5t-105 38t-100 38t-95.5 17.5q-52 0 -87 -26t-44 -76z" />
    <glyph glyph-name="uni00A0" unicode="&#xa0;" horiz-adv-x="573" 
 />
    <glyph glyph-name="exclamdown" unicode="&#xa1;" horiz-adv-x="581" 
d="M0 -330l76 355l168 612h112l-94 -612l-76 -355h-186zM229 932q0 54 39 92.5t94 38.5q54 0 93 -38.5t39 -92.5q0 -55 -39 -94t-93 -39q-56 0 -94.5 38.5t-38.5 94.5z" />
    <glyph glyph-name="cent" unicode="&#xa2;" horiz-adv-x="1007" 
d="M356 -16q-170 31 -249.5 170.5t-47.5 351.5q35 225 174 370t347 154l28 139h103l-31 -143q213 -30 303 -223l-170 -58q-17 51 -60 84.5t-102 44.5l-159 -749q151 3 249 135l146 -59q-66 -110 -178.5 -167t-249.5 -59l-33 -153h-104zM246 508q-22 -138 10.5 -237
t132.5 -132l158 738q-67 -10 -121 -45.5t-89.5 -88t-57.5 -111t-33 -124.5z" />
    <glyph glyph-name="sterling" unicode="&#xa3;" horiz-adv-x="1200" 
d="M45 113q20 7 42 17.5t52 28t58.5 38t58 48.5t54 58.5t44 69.5t30 80.5t10 92t-14.5 103.5h-225l22 105h176q-49 165 -37 293q10 91 54.5 159.5t113 107.5t146 58t162.5 19q165 0 276 -69t143 -198l-170 -47q-34 96 -92 132t-166 36q-47 0 -90 -10t-84 -32.5t-69 -64.5
t-37 -100q-6 -22 -4 -58t4 -56.5t10 -56t14 -56.5t17 -57h415l-22 -105h-369q16 -85 5 -153.5t-52 -128.5t-93.5 -104t-119.5 -79q68 25 127 25q58 0 156.5 -37t171.5 -37q107 0 235 51l21 -149q-152 -62 -268 -62q-78 0 -195 38t-193 38q-123 0 -290 -76z" />
    <glyph glyph-name="currency" unicode="&#xa4;" horiz-adv-x="1363" 
d="M344 934l-135 135l74 74l135 -135q119 96 276 96q161 0 277 -96l135 135l74 -74l-136 -135q97 -118 97 -277q0 -157 -97 -278l136 -135l-74 -72l-135 133q-119 -94 -277 -94q-154 0 -276 94l-135 -133l-74 72l135 135q-96 125 -96 278q0 155 96 277zM694 948
q-121 0 -206 -85.5t-85 -205.5q0 -122 85 -207t206 -85t206 85t85 207q0 120 -85 205.5t-206 85.5z" />
    <glyph glyph-name="yen" unicode="&#xa5;" horiz-adv-x="1224" 
d="M96 176l23 105h305l37 176h-305l22 104h268l-262 807h197l215 -694l539 694h233l-647 -807h260l-23 -104h-299l-36 -176h299l-23 -105h-299l-37 -176h-198l36 176h-305z" />
    <glyph glyph-name="brokenbar" unicode="&#xa6;" horiz-adv-x="591" 
d="M197 733v635h165v-635h-165zM362 -330h-165v635h165v-635z" />
    <glyph glyph-name="section" unicode="&#xa7;" horiz-adv-x="1077" 
d="M-88 -113l176 47q9 -71 65 -107t134 -36q76 0 140.5 34t80.5 93q9 23 6.5 46.5t-6.5 42t-18.5 39t-29 37.5t-37 36.5t-43.5 36t-48 37.5q-14 11 -21 16q-113 87 -149 125q-82 86 -82 190q0 143 100 238.5t256 128.5q-46 45 -63.5 110t0 132.5t61 126t127 96t189.5 37.5
q77 0 147 -19.5t126.5 -65.5t76.5 -112l-170 -47q-9 50 -60 77t-118 27q-74 0 -134 -31.5t-71 -86.5q-7 -33 -1 -60t30.5 -55t45 -46t66.5 -53.5t72 -56.5q19 -16 58.5 -47t58 -46t46.5 -43.5t40.5 -50.5t23 -53.5t10.5 -66.5q0 -275 -356 -389q34 -42 46.5 -98t4.5 -113.5
t-40 -114t-82 -100.5t-126.5 -71t-167.5 -27q-144 0 -241 65t-123 178zM532 801q-113 -25 -190.5 -87t-85 -137.5t83.5 -150.5l205 -162q213 65 258 173.5t-94 224.5z" />
    <glyph glyph-name="dieresis" unicode="&#xa8;" horiz-adv-x="874" 
d="M264 1319q0 44 32.5 76t78.5 32t78 -32t32 -76q0 -46 -32 -78.5t-78 -32.5t-78.5 32.5t-32.5 78.5zM698 1319q0 44 32.5 76t76.5 32q46 0 78.5 -32t32.5 -76q0 -46 -32.5 -78.5t-78.5 -32.5q-44 0 -76.5 32.5t-32.5 78.5z" />
    <glyph glyph-name="copyright" unicode="&#xa9;" horiz-adv-x="1667" 
d="M143 684q0 115 36 223.5t101.5 195.5t152.5 152.5t195.5 101.5t223.5 36t223.5 -36t195.5 -101.5t152.5 -152.5t101.5 -195.5t36 -223.5t-36 -223.5t-101.5 -195.5t-152.5 -152.5t-195.5 -101.5t-223.5 -36t-223.5 36t-195.5 101.5t-152.5 152.5t-101.5 195.5t-36 223.5z
M270 684q0 -158 78 -292t212 -212t292 -78t292 78t212 212t78 292t-78 292t-212 212t-292 78t-292 -78t-212 -212t-78 -292zM856 307q-170 0 -263 104t-93 289q0 181 97 284t263 103q106 0 181.5 -45t115.5 -122l-137 -52q-54 101 -164 101q-91 0 -146 -68.5t-55 -200.5
q0 -133 55 -202.5t146 -69.5q120 0 170 92l135 -49q-43 -74 -120 -119t-185 -45z" />
    <glyph glyph-name="ordfeminine" unicode="&#xaa;" horiz-adv-x="743" 
d="M326 811q-82 0 -131.5 42t-47.5 110q1 33 13.5 61t32 48t51.5 36.5t63.5 27t77 20t83 15t89.5 11.5q6 29 6 50t-8.5 42t-34 32t-67.5 11q-78 0 -115 -76l-117 37q67 137 252 137q128 0 187 -62.5t32 -181.5q-49 -209 -49 -346h-121l-6 78q-58 -92 -190 -92zM297 983
q-4 -31 15.5 -49.5t54.5 -18.5q78 0 113.5 38t49.5 108l7 22q-137 -13 -187 -35t-53 -65z" />
    <glyph glyph-name="guillemotleft" unicode="&#xab;" horiz-adv-x="1153" 
d="M303 82l-211 430l352 432h213l-370 -452l198 -410h-182zM518 512l352 432h213l-370 -452l198 -410h-182z" />
    <glyph glyph-name="logicalnot" unicode="&#xac;" horiz-adv-x="1366" 
d="M154 649v162h1015v-627h-165v465h-850z" />
    <glyph glyph-name="registered" unicode="&#xae;" horiz-adv-x="1667" 
d="M852 -25q-192 0 -355.5 95t-258.5 258t-95 354q0 145 56 276.5t151 226.5t226.5 151.5t275.5 56.5t275.5 -56.5t226.5 -151.5t151 -226.5t56 -276.5q0 -191 -95 -354t-258.5 -258t-355.5 -95zM270 682q0 -118 46 -225.5t124 -185.5t186 -124.5t226 -46.5t226 46.5
t186 124.5t124 185.5t46 225.5q0 159 -77.5 293.5t-212 213.5t-292.5 79t-292.5 -79t-212 -213.5t-77.5 -293.5zM731 332h-156v753h230q90 0 150.5 -9.5t110 -34.5t72.5 -72.5t23 -120.5q0 -28 -6.5 -54.5t-24 -57.5t-56 -57.5t-93.5 -41.5l221 -305h-176l-209 284h-86v-284
zM829 961h-98v-226h109q166 0 166 111q0 65 -45.5 90t-131.5 25z" />
    <glyph glyph-name="macron" unicode="&#xaf;" horiz-adv-x="782" 
d="M244 1231l28 137h566l-29 -137h-565z" />
    <glyph glyph-name="degree" unicode="&#xb0;" horiz-adv-x="733" 
d="M178 1114q0 116 82 197.5t197 81.5t196.5 -81.5t81.5 -197.5t-81.5 -197t-196.5 -81q-116 0 -197.5 81.5t-81.5 196.5zM307 1114q0 -61 44 -105t106 -44q63 0 106 43.5t43 105.5q0 63 -43 106.5t-106 43.5q-62 0 -106 -43.5t-44 -106.5z" />
    <glyph glyph-name="plusminus" unicode="&#xb1;" horiz-adv-x="1337" 
d="M133 715h404v301h161v-301h404v-162h-404v-299h-161v299h-404v162zM1102 0h-969v162h969v-162z" />
    <glyph glyph-name="twosuperior" unicode="&#xb2;" horiz-adv-x="786" 
d="M121 825l24 111q270 149 378 251t116 202q4 53 -28 85.5t-85 32.5q-51 0 -94 -30.5t-65 -92.5l-123 39q36 88 109 137.5t175 49.5q115 0 187.5 -54t66.5 -159q-6 -117 -120 -234.5t-318 -218.5h367l-25 -119h-565z" />
    <glyph glyph-name="threesuperior" unicode="&#xb3;" horiz-adv-x="806" 
d="M178 995l131 35q14 -52 51.5 -83.5t96.5 -31.5q66 0 108 33.5t45 93.5q1 27 -6.5 48.5t-17.5 34.5t-30.5 22.5t-34 14t-40 7t-37 2.5h-34.5h-13l23 111h7q29 0 48.5 0.5t55.5 6.5t59 17t41 34.5t18 56.5q0 58 -33.5 84t-87.5 26q-59 0 -97 -25t-66 -83l-119 37
q42 87 116.5 130.5t172.5 43.5q50 0 93.5 -10.5t80.5 -32.5t58 -62t21 -94q0 -59 -35.5 -105.5t-103.5 -72.5q56 -26 81.5 -78.5t19.5 -120.5q-13 -109 -97 -166t-209 -57q-97 0 -167.5 49t-98.5 135z" />
    <glyph glyph-name="acute" unicode="&#xb4;" horiz-adv-x="555" 
d="M383 1171h-152q207 224 248 259q21 18 51 18q35 0 60 -25q22 -25 19.5 -57.5t-25.5 -52.5q-18 -16 -68.5 -51.5t-91.5 -63.5z" />
    <glyph glyph-name="paragraph" unicode="&#xb6;" horiz-adv-x="1067" 
d="M385 602q-126 30 -190.5 135.5t-34.5 241.5q23 106 94 195.5t171 141.5t206 52h532l-30 -139h-84l-330 -1561h-170l330 1561h-191l-332 -1561h-170z" />
    <glyph glyph-name="periodcentered" unicode="&#xb7;" horiz-adv-x="481" 
d="M109 508q0 54 38.5 92.5t92.5 38.5q55 0 94 -38.5t39 -92.5q0 -56 -38.5 -94.5t-94.5 -38.5q-54 0 -92.5 39t-38.5 94z" />
    <glyph glyph-name="cedilla" unicode="&#xb8;" horiz-adv-x="602" 
d="M-49 -334l47 76q65 -29 117 -29q73 0 105 42q24 33 2 57q-18 20 -60 20q-29 0 -62 -8q-30 -7 -44 14.5t5 44.5l140 168l61 -43l-84 -100q117 20 163 -44q37 -50 8 -115q-32 -73 -122 -103q-45 -15 -98 -15q-83 0 -178 35z" />
    <glyph glyph-name="onesuperior" unicode="&#xb9;" horiz-adv-x="526" 
d="M238 1397l20 98q86 0 136.5 22t78.5 78h117l-164 -770h-141l123 572h-170z" />
    <glyph glyph-name="ordmasculine" unicode="&#xba;" horiz-adv-x="784" 
d="M430 817q-118 0 -192 77.5t-58 223.5q16 145 106 222t208 77q117 0 190 -77t59 -222q-14 -146 -104.5 -223.5t-208.5 -77.5zM322 1118q-9 -91 24 -141.5t96 -50.5t107 51t53 141q9 89 -24.5 140t-96.5 51q-62 0 -106 -51t-53 -140z" />
    <glyph glyph-name="guillemotright" unicode="&#xbb;" horiz-adv-x="1136" 
d="M18 82l371 453l-199 409h183l211 -430l-353 -432h-213zM444 82l371 453l-199 409h183l211 -430l-353 -432h-213z" />
    <glyph glyph-name="onequarter" unicode="&#xbc;" horiz-adv-x="1687" 
d="M817 176l25 111l483 481h158l-103 -475h133l-24 -117h-133l-37 -176h-143l36 176h-395zM205 0l958 1368h180l-958 -1368h-180zM229 1169l21 97q86 0 136.5 22t78.5 78h117l-164 -768h-139l120 571h-170zM1303 592l-295 -299h229z" />
    <glyph glyph-name="onehalf" unicode="&#xbd;" horiz-adv-x="1642" 
d="M371 0h-181l959 1368h180zM1407 0h-565l22 111q272 149 380 250t116 200q4 54 -28.5 87.5t-86.5 33.5q-50 0 -93 -30.5t-65 -92.5l-122 39q36 88 108.5 136t175.5 48q115 0 188.5 -54t67.5 -157q-6 -116 -121 -233t-319 -219h367zM397 1169h-168l21 97q86 0 136.5 22
t78.5 78h117l-164 -768h-142z" />
    <glyph glyph-name="threequarters" unicode="&#xbe;" horiz-adv-x="1855" 
d="M987 176l23 111l485 481h156l-103 -475h133l-24 -117h-131l-39 -176h-144l39 176h-395zM395 0l959 1368h180l-959 -1368h-180zM172 776l131 37q14 -52 51.5 -82.5t96.5 -30.5q66 0 108 32t45 91q1 21 -3 38t-9.5 29.5t-18.5 22.5t-21.5 16.5t-26.5 11t-27 7t-30 3.5
t-27.5 1h-27.5h-22l23 113h7q29 0 48.5 0.5t55.5 6.5t59 17t41 34.5t18 56.5q0 108 -121 108q-59 0 -98 -25t-66 -83l-118 37q83 174 288 174q51 0 94 -10t80 -32t58.5 -62t21.5 -95q0 -58 -35.5 -104t-103.5 -72q55 -25 80.5 -78.5t19.5 -120.5q-13 -108 -97 -164.5
t-208 -56.5q-96 0 -167 48t-99 132zM1470 592l-294 -299h231z" />
    <glyph glyph-name="questiondown" unicode="&#xbf;" horiz-adv-x="1079" 
d="M367 -358q-61 0 -118.5 11t-112.5 37.5t-94 65.5t-58 100.5t-9 137.5q7 57 35.5 106t75 88.5t92.5 68t107 58.5q110 54 158.5 115.5t64.5 147.5l14 69h174l-16 -76q-18 -84 -49.5 -147.5t-79 -110t-92 -76t-113.5 -65.5q-77 -40 -126 -83.5t-60 -104.5
q-13 -88 49.5 -143.5t163.5 -55.5q125 0 210 58t122 167l157 -49q-57 -158 -187.5 -238.5t-307.5 -80.5zM659 795q-55 0 -92 38t-37 93q0 56 37 94.5t92 38.5q56 0 95 -39t39 -94q0 -54 -39.5 -92.5t-94.5 -38.5z" />
    <glyph glyph-name="Agrave" unicode="&#xc0;" horiz-adv-x="1284" 
d="M-106 0l802 1368h238l223 -1368h-211l-43 299h-618l-170 -299h-221zM377 463h504l-101 711zM606 1696q0 25 18.5 49t55.5 24q43 1 68 -34l172 -211h-150q-103 76 -133.5 106t-30.5 66z" />
    <glyph glyph-name="Aacute" unicode="&#xc1;" horiz-adv-x="1284" 
d="M-106 0l802 1368h238l223 -1368h-211l-43 299h-618l-170 -299h-221zM377 463h504l-101 711zM764 1524q4 3 68.5 57t128.5 106t81 64q27 18 54 18q31 0 52 -21t21 -52q0 -44 -39 -70q-14 -9 -200 -102h-166z" />
    <glyph glyph-name="Acircumflex" unicode="&#xc2;" horiz-adv-x="1284" 
d="M115 0h-221l802 1368h238l223 -1368h-211l-43 299h-618zM377 463h504l-101 711zM705 1530h-197l272 207q51 39 111 39q59 0 92 -39l186 -207h-188l-113 125z" />
    <glyph glyph-name="Atilde" unicode="&#xc3;" horiz-adv-x="1284" 
d="M-106 0l802 1368h238l223 -1368h-211l-43 299h-618l-170 -299h-221zM377 463h504l-101 711zM614 1542h-133q40 105 108.5 158t153.5 53q58 0 105.5 -21.5t85.5 -43t72 -21.5q9 0 18 1.5t15.5 3.5t14.5 7t12.5 7.5t12.5 9.5t10.5 9.5l10.5 10.5l10 10q27 27 55 27
q36 0 54.5 -32t-2.5 -66q-74 -117 -211 -117q-51 0 -95 21.5t-85 43t-85 21.5q-90 0 -127 -82z" />
    <glyph glyph-name="Adieresis" unicode="&#xc4;" horiz-adv-x="1284" 
d="M-106 0l802 1368h238l223 -1368h-211l-43 299h-618l-170 -299h-221zM377 463h504l-101 711zM524 1630q0 44 32.5 76.5t78.5 32.5q45 0 77.5 -32.5t32.5 -76.5q0 -46 -32 -78t-78 -32t-78.5 32t-32.5 78zM958 1630q0 44 32.5 76.5t76.5 32.5q46 0 78.5 -32.5t32.5 -76.5
q0 -46 -32.5 -78t-78.5 -32q-45 0 -77 32t-32 78z" />
    <glyph glyph-name="Aring" unicode="&#xc5;" horiz-adv-x="1284" 
d="M115 0h-221l782 1333q-68 68 -68 160q0 91 66.5 157t161.5 66q93 0 156 -65.5t63 -157.5q0 -61 -30 -113.5t-81 -81.5l213 -1298h-211l-43 299h-618zM780 1174l-403 -711h504zM725 1493q0 -43 31 -73.5t75 -30.5t75.5 30.5t31.5 73.5t-31.5 73.5t-75.5 30.5t-75 -30.5
t-31 -73.5z" />
    <glyph glyph-name="AE" unicode="&#xc6;" horiz-adv-x="2029" 
d="M-106 0l1288 1366h932l-35 -166h-736l-88 -416h545l-35 -163h-544l-97 -455h736l-35 -166h-934l63 297h-557l-274 -297h-229zM1122 1083l-575 -620h442z" />
    <glyph glyph-name="Ccedilla" unicode="&#xc7;" horiz-adv-x="1363" 
d="M537 -16q-90 14 -162.5 51t-120 90t-82 119.5t-47 139.5t-15 151t12.5 153q35 204 134.5 362.5t257 250.5t349.5 92q182 0 306 -78.5t173 -233.5l-182 -61q-33 102 -116 155.5t-201 53.5q-196 0 -338.5 -146.5t-186.5 -394.5q-28 -155 7.5 -281.5t125.5 -198t216 -71.5
q132 0 224.5 51t166.5 162l162 -63q-195 -312 -594 -312l-58 -67q117 20 163 -44q37 -50 8 -115q-32 -73 -122 -103q-45 -15 -98 -15q-83 0 -178 35l47 76q65 -29 117 -29q73 0 105 42q24 33 2 57q-18 20 -60 20q-28 0 -61 -8q-30 -7 -44 14.5t5 44.5z" />
    <glyph glyph-name="Egrave" unicode="&#xc8;" horiz-adv-x="1165" 
d="M29 0l290 1368h932l-34 -166h-736l-88 -416h543l-37 -163h-541l-98 -457h735l-34 -166h-932zM797 1524q-103 76 -133.5 106t-30.5 66q0 25 18.5 49t55.5 24q42 1 67 -34l172 -211h-149z" />
    <glyph glyph-name="Eacute" unicode="&#xc9;" horiz-adv-x="1165" 
d="M961 0h-932l290 1368h932l-34 -166h-736l-88 -416h543l-37 -163h-541l-98 -457h735zM897 1524h-166q4 3 69 57t129 106t81 64q27 18 53 18q31 0 52.5 -21t21.5 -52q0 -44 -39 -70q-10 -7 -201 -102z" />
    <glyph glyph-name="Ecircumflex" unicode="&#xca;" horiz-adv-x="1165" 
d="M29 0l290 1368h932l-34 -166h-736l-88 -416h543l-37 -163h-541l-98 -457h735l-34 -166h-932zM678 1536h-197l273 207q51 39 110 39t92 -39l187 -207h-189l-112 125z" />
    <glyph glyph-name="Edieresis" unicode="&#xcb;" horiz-adv-x="1165" 
d="M29 0l290 1368h932l-34 -166h-736l-88 -416h543l-37 -163h-541l-98 -457h735l-34 -166h-932zM594 1520q-46 0 -78.5 32t-32.5 78q0 44 32.5 76.5t78.5 32.5t78.5 -32.5t32.5 -76.5q0 -46 -32.5 -78t-78.5 -32zM918 1630q0 44 32 76.5t76 32.5q46 0 78.5 -32.5t32.5 -76.5
q0 -46 -32.5 -78t-78.5 -32q-44 0 -76 32t-32 78z" />
    <glyph glyph-name="Igrave" unicode="&#xcc;" horiz-adv-x="847" 
d="M584 0h-576l33 154h190l226 1060h-191l33 154h575l-30 -154h-193l-223 -1060h188zM395 1696q0 25 18.5 49t55.5 24q43 1 68 -34l172 -211h-150q-103 76 -133.5 106t-30.5 66z" />
    <glyph glyph-name="Iacute" unicode="&#xcd;" horiz-adv-x="847" 
d="M584 0h-576l33 154h190l226 1060h-191l33 154h575l-30 -154h-193l-223 -1060h188zM702 1524h-165q4 3 68.5 57t128.5 106t81 64q27 18 53 18q31 0 52.5 -21t21.5 -52q0 -44 -39 -70q-10 -7 -201 -102z" />
    <glyph glyph-name="Icircumflex" unicode="&#xce;" horiz-adv-x="847" 
d="M584 0h-576l33 154h190l226 1060h-191l33 154h575l-30 -154h-193l-223 -1060h188zM492 1530h-197l274 207q51 39 111 39q56 0 92 -39l184 -207h-188l-111 125z" />
    <glyph glyph-name="Idieresis" unicode="&#xcf;" horiz-adv-x="847" 
d="M584 0h-576l33 154h190l226 1060h-191l33 154h575l-30 -154h-193l-223 -1060h188zM315 1626q0 44 32.5 76.5t78.5 32.5t78.5 -32.5t32.5 -76.5q0 -46 -32.5 -78t-78.5 -32t-78.5 32t-32.5 78zM858 1516q-44 0 -76 32t-32 78q0 44 32 76.5t76 32.5q46 0 78.5 -32.5
t32.5 -76.5q0 -46 -32.5 -78t-78.5 -32z" />
    <glyph glyph-name="Eth" unicode="&#xd0;" horiz-adv-x="1458" 
d="M233 621h-188l35 163h188l125 584h377q133 0 237 -24t185.5 -76.5t126.5 -136t60.5 -202.5t-13.5 -276q-36 -215 -158.5 -363.5t-306 -219t-420.5 -70.5h-379zM719 621h-287l-98 -459h176q103 0 191 16.5t167.5 54t139 95t102 143t61.5 195.5q15 85 16 156t-11.5 123.5
t-34 94t-55 69.5t-71 47t-86 29.5t-96 14.5t-104.5 4h-174l-88 -420h287z" />
    <glyph glyph-name="Ntilde" unicode="&#xd1;" 
d="M225 0h-196l290 1368h281l381 -1175l250 1175h196l-290 -1368h-281l-379 1180zM567 1538q40 105 108.5 158t153.5 53q58 0 105.5 -21.5t85.5 -43t72 -21.5q9 0 18 1.5t15.5 3.5t14.5 7t12.5 7.5t12.5 9.5t10.5 9.5l10.5 10.5l10 10q27 27 55 27q36 0 54.5 -32t-2.5 -66
q-74 -117 -211 -117q-51 0 -95 21.5t-85 43t-85 21.5q-90 0 -127 -82h-133z" />
    <glyph glyph-name="Ograve" unicode="&#xd2;" horiz-adv-x="1490" 
d="M639 -25q-139 0 -248 55.5t-174.5 151t-90.5 226t-3 278.5q31 207 128.5 365t261.5 250t374 92q186 0 316 -96.5t182 -257t20 -353.5q-18 -110 -56 -211t-102.5 -193t-149.5 -159.5t-203 -107.5t-255 -40zM319 686q-21 -134 -3 -236t68 -172t122 -105.5t160 -35.5
q208 0 353.5 146t188.5 403q42 250 -61.5 396.5t-286.5 146.5q-113 0 -207 -41.5t-160.5 -116t-110.5 -172t-63 -213.5zM870 1524q-102 75 -132.5 105.5t-30.5 66.5q0 25 18 49t55 24q43 1 68 -34l172 -211h-150z" />
    <glyph glyph-name="Oacute" unicode="&#xd3;" horiz-adv-x="1490" 
d="M639 -25q-139 0 -248 55.5t-174.5 151t-90.5 226t-3 278.5q31 207 128.5 365t261.5 250t374 92q186 0 316 -96.5t182 -257t20 -353.5q-18 -110 -56 -211t-102.5 -193t-149.5 -159.5t-203 -107.5t-255 -40zM319 686q-21 -134 -3 -236t68 -172t122 -105.5t160 -35.5
q208 0 353.5 146t188.5 403q42 250 -61.5 396.5t-286.5 146.5q-113 0 -207 -41.5t-160.5 -116t-110.5 -172t-63 -213.5zM838 1524q4 3 68.5 57t128.5 106t81 64q27 18 53 18q31 0 52.5 -21t21.5 -52q0 -44 -39 -70q-14 -9 -200 -102h-166z" />
    <glyph glyph-name="Ocircumflex" unicode="&#xd4;" horiz-adv-x="1490" 
d="M639 -25q-139 0 -248 55.5t-174.5 151t-90.5 226t-3 278.5q31 207 128.5 365t261.5 250t374 92q186 0 316 -96.5t182 -257t20 -353.5q-18 -110 -56 -211t-102.5 -193t-149.5 -159.5t-203 -107.5t-255 -40zM319 686q-21 -134 -3 -236t68 -172t122 -105.5t160 -35.5
q208 0 353.5 146t188.5 403q42 250 -61.5 396.5t-286.5 146.5q-113 0 -207 -41.5t-160.5 -116t-110.5 -172t-63 -213.5zM807 1530h-197l273 207q51 39 110 39t92 -39l187 -207h-189l-112 125z" />
    <glyph glyph-name="Otilde" unicode="&#xd5;" horiz-adv-x="1490" 
d="M639 -25q-139 0 -248 55.5t-174.5 151t-90.5 226t-3 278.5q31 207 128.5 365t261.5 250t374 92q186 0 316 -96.5t182 -257t20 -353.5q-18 -110 -56 -211t-102.5 -193t-149.5 -159.5t-203 -107.5t-255 -40zM319 686q-21 -134 -3 -236t68 -172t122 -105.5t160 -35.5
q208 0 353.5 146t188.5 403q42 250 -61.5 396.5t-286.5 146.5q-113 0 -207 -41.5t-160.5 -116t-110.5 -172t-63 -213.5zM575 1540q40 105 109 158t154 53q58 0 105.5 -21.5t85 -43t71.5 -21.5q9 0 18 1.5t15.5 3.5t14.5 7t12.5 7.5t12.5 9.5t10.5 9.5l10.5 10.5l10 10
q27 27 56 27q36 0 54 -32t-3 -66q-74 -117 -211 -117q-51 0 -94.5 21.5t-84.5 43t-85 21.5q-90 0 -127 -82h-134z" />
    <glyph glyph-name="Odieresis" unicode="&#xd6;" horiz-adv-x="1490" 
d="M639 -25q-139 0 -248 55.5t-174.5 151t-90.5 226t-3 278.5q31 207 128.5 365t261.5 250t374 92q186 0 316 -96.5t182 -257t20 -353.5q-18 -110 -56 -211t-102.5 -193t-149.5 -159.5t-203 -107.5t-255 -40zM319 686q-21 -134 -3 -236t68 -172t122 -105.5t160 -35.5
q208 0 353.5 146t188.5 403q42 250 -61.5 396.5t-286.5 146.5q-113 0 -207 -41.5t-160.5 -116t-110.5 -172t-63 -213.5zM635 1630q0 44 32.5 76.5t77.5 32.5q46 0 78.5 -32.5t32.5 -76.5q0 -46 -32.5 -78t-78.5 -32t-78 32t-32 78zM1069 1630q0 44 32.5 76.5t76.5 32.5
q46 0 78 -32.5t32 -76.5q0 -46 -32 -78t-78 -32q-44 0 -76.5 32t-32.5 78z" />
    <glyph glyph-name="multiply" unicode="&#xd7;" horiz-adv-x="1214" 
d="M158 827l116 119l316 -315l315 315l117 -119l-313 -315l313 -313l-117 -119l-315 315l-316 -315l-116 119l315 313z" />
    <glyph glyph-name="Oslash" unicode="&#xd8;" horiz-adv-x="1490" 
d="M84 -8l-72 74l174 163q-102 190 -63 453q31 209 129 367.5t262 250t373 91.5q233 0 377 -150l159 150l72 -76l-166 -156q120 -196 76 -477q-18 -109 -56 -209t-102.5 -192t-149 -159t-202 -107t-254.5 -40q-252 0 -395 168zM387 274q100 -137 281 -137q207 0 353.5 145
t188.5 400q33 196 -28 338zM319 682q-29 -178 17 -311l788 739q-101 119 -264 119q-113 0 -207 -42t-160.5 -117t-110.5 -173t-63 -215z" />
    <glyph glyph-name="Ugrave" unicode="&#xd9;" 
d="M586 -25q-287 0 -394 143.5t-40 454.5l170 795h196l-172 -811q-45 -221 10.5 -318.5t239.5 -97.5q96 0 167 20t129.5 67t98.5 128t66 201l174 811h196l-170 -795q-24 -114 -60.5 -205.5t-77 -153.5t-94 -107t-102.5 -70t-111.5 -39.5t-112.5 -18.5t-113 -4zM838 1524
q-103 76 -133.5 106t-30.5 66q0 25 18.5 49t55.5 24q42 1 67 -34l172 -211h-149z" />
    <glyph glyph-name="Uacute" unicode="&#xda;" 
d="M586 -25q-287 0 -394 143.5t-40 454.5l170 795h196l-172 -811q-45 -221 10.5 -318.5t239.5 -97.5q96 0 167 20t129.5 67t98.5 128t66 201l174 811h196l-170 -795q-24 -114 -60.5 -205.5t-77 -153.5t-94 -107t-102.5 -70t-111.5 -39.5t-112.5 -18.5t-113 -4zM805 1524
q4 3 68.5 57t128.5 106t81 64q27 18 54 18q31 0 52 -21t21 -52q0 -44 -39 -70q-14 -9 -200 -102h-166z" />
    <glyph glyph-name="Ucircumflex" unicode="&#xdb;" 
d="M586 -25q-287 0 -394 143.5t-40 454.5l170 795h196l-172 -811q-45 -221 10.5 -318.5t239.5 -97.5q96 0 167 20t129.5 67t98.5 128t66 201l174 811h196l-170 -795q-24 -114 -60.5 -205.5t-77 -153.5t-94 -107t-102.5 -70t-111.5 -39.5t-112.5 -18.5t-113 -4zM578 1530
l272 207q51 39 111 39q59 0 92 -39l186 -207h-188l-113 125l-164 -125h-196z" />
    <glyph glyph-name="Udieresis" unicode="&#xdc;" 
d="M586 -25q-287 0 -394 143.5t-40 454.5l170 795h196l-172 -811q-45 -221 10.5 -318.5t239.5 -97.5q96 0 167 20t129.5 67t98.5 128t66 201l174 811h196l-170 -795q-24 -114 -60.5 -205.5t-77 -153.5t-94 -107t-102.5 -70t-111.5 -39.5t-112.5 -18.5t-113 -4zM705 1522
q-46 0 -78.5 32t-32.5 78q0 44 32.5 76.5t78.5 32.5q45 0 77.5 -32.5t32.5 -76.5q0 -46 -32 -78t-78 -32zM1028 1632q0 44 32.5 76.5t76.5 32.5q45 0 77.5 -32.5t32.5 -76.5q0 -46 -32 -78t-78 -32q-45 0 -77 32t-32 78z" />
    <glyph glyph-name="Yacute" unicode="&#xdd;" horiz-adv-x="1224" 
d="M469 492l-285 876h197l213 -690l541 690h233l-702 -876l-105 -492h-199zM696 1524q4 3 69 57t129 106t81 64q27 18 53 18q31 0 52.5 -21t21.5 -52q0 -44 -39 -70q-10 -7 -201 -102h-166z" />
    <glyph glyph-name="Thorn" unicode="&#xde;" horiz-adv-x="1200" 
d="M25 -16l290 1366h177l-62 -287h260q99 0 176 -13t140 -42t96.5 -76.5t45 -117.5t-14.5 -163q-46 -186 -188.5 -260t-412.5 -74h-260l-71 -333h-176zM307 483h279q299 0 342 174q22 84 8 137t-76.5 78t-187.5 25h-277z" />
    <glyph glyph-name="germandbls" unicode="&#xdf;" horiz-adv-x="1247" 
d="M205 0h-176l196 926q12 52 21.5 88t30.5 89t46 89.5t67 77.5t93.5 65.5t126 41t164.5 16.5q114 0 202.5 -33t142.5 -107t48 -180q-6 -111 -75.5 -198.5t-192.5 -112.5q124 -46 177 -127.5t46 -231.5q-5 -95 -43 -171t-99 -126t-141.5 -82t-168 -43.5t-181.5 -5.5l-12 162
q49 -6 96 -6q150 0 246 69t109 210t-71 202.5t-265 61.5l33 157q156 0 257 59.5t107 162.5q6 93 -52 144.5t-171 51.5q-160 0 -244.5 -73.5t-120.5 -249.5z" />
    <glyph glyph-name="agrave" unicode="&#xe0;" horiz-adv-x="1064" 
d="M313 -25q-133 0 -219 72.5t-86 192.5q0 261 407 346q95 20 320 43q12 1 21 2q63 262 -174 262q-92 0 -159 -41.5t-101 -116.5l-154 47q54 118 157 184t248 66q216 0 308.5 -103t48.5 -311l-49 -233q-43 -211 -47 -385h-162l-8 129q-70 -79 -152 -116.5t-199 -37.5z
M203 285q-11 -81 36.5 -124.5t129.5 -43.5q138 0 237 93t127 249l6 35q-94 -9 -150.5 -16t-124 -18t-106 -25t-75.5 -35t-55.5 -49.5t-24.5 -65.5zM457 1327q-19 26 -14 59t30 50q20 14 47 14q40 0 62 -31q15 -20 53.5 -82t70.5 -114l31 -52h-139q-108 111 -141 156z" />
    <glyph glyph-name="aacute" unicode="&#xe1;" horiz-adv-x="1064" 
d="M313 -25q-133 0 -219 72.5t-86 192.5q0 261 407 346q95 20 320 43q12 1 21 2q63 262 -174 262q-92 0 -159 -41.5t-101 -116.5l-154 47q54 118 157 184t248 66q216 0 308.5 -103t48.5 -311l-49 -233q-43 -211 -47 -385h-162l-8 129q-70 -79 -152 -116.5t-199 -37.5z
M203 285q-11 -81 36.5 -124.5t129.5 -43.5q138 0 237 93t127 249l6 35q-94 -9 -150.5 -16t-124 -18t-106 -25t-75.5 -35t-55.5 -49.5t-24.5 -65.5zM561 1171q207 224 248 259q21 18 51 18q35 0 60 -25q21 -25 19 -57t-26 -53q-18 -16 -68 -51.5t-91 -63.5l-41 -27h-152z" />
    <glyph glyph-name="acircumflex" unicode="&#xe2;" horiz-adv-x="1064" 
d="M8 240q0 261 407 346q95 20 320 43q12 1 21 2q63 262 -174 262q-92 0 -159 -41.5t-101 -116.5l-154 47q54 118 157 184t248 66q216 0 308.5 -103t48.5 -311l-49 -233q-43 -211 -47 -385h-162l-8 129q-70 -79 -152 -116.5t-199 -37.5q-133 0 -219 72.5t-86 192.5zM203 285
q-11 -81 36.5 -124.5t129.5 -43.5q138 0 237 93t127 249l6 35q-94 -9 -150.5 -16t-124 -18t-106 -25t-75.5 -35t-55.5 -49.5t-24.5 -65.5zM530 1178h-196l274 206q51 39 111 39q56 0 92 -39l184 -206h-188l-111 125z" />
    <glyph glyph-name="atilde" unicode="&#xe3;" horiz-adv-x="1064" 
d="M8 240q0 261 407 346q95 20 320 43q12 1 21 2q63 262 -174 262q-92 0 -159 -41.5t-101 -116.5l-154 47q54 118 157 184t248 66q216 0 308.5 -103t48.5 -311l-49 -233q-43 -211 -47 -385h-162l-8 129q-70 -79 -152 -116.5t-199 -37.5q-133 0 -219 72.5t-86 192.5zM203 285
q-11 -81 36.5 -124.5t129.5 -43.5q138 0 237 93t127 249l6 35q-94 -9 -150.5 -16t-124 -18t-106 -25t-75.5 -35t-55.5 -49.5t-24.5 -65.5zM438 1182h-133q40 105 108.5 158t153.5 53q58 0 105.5 -21.5t85 -43t71.5 -21.5q8 0 16 1t15 3.5t12.5 4.5t12.5 7t10.5 7t10.5 8.5
t9.5 8.5t10 10t8.5 9q27 27 55 27q36 0 54 -32.5t-3 -66.5q-74 -116 -211 -116q-51 0 -94.5 21.5t-84.5 43t-85 21.5q-90 0 -127 -82z" />
    <glyph glyph-name="adieresis" unicode="&#xe4;" horiz-adv-x="1064" 
d="M313 -25q-133 0 -219 72.5t-86 192.5q0 261 407 346q95 20 320 43q12 1 21 2q63 262 -174 262q-92 0 -159 -41.5t-101 -116.5l-154 47q54 118 157 184t248 66q216 0 308.5 -103t48.5 -311l-49 -233q-43 -211 -47 -385h-162l-8 129q-70 -79 -152 -116.5t-199 -37.5z
M203 285q-11 -81 36.5 -124.5t129.5 -43.5q138 0 237 93t127 249l6 35q-94 -9 -150.5 -16t-124 -18t-106 -25t-75.5 -35t-55.5 -49.5t-24.5 -65.5zM358 1319q0 44 32.5 76t78.5 32t78.5 -32t32.5 -76q0 -46 -32.5 -78.5t-78.5 -32.5t-78.5 32.5t-32.5 78.5zM793 1319
q0 44 32 76t76 32q46 0 78.5 -32t32.5 -76q0 -46 -32.5 -78.5t-78.5 -32.5q-44 0 -76 32.5t-32 78.5z" />
    <glyph glyph-name="aring" unicode="&#xe5;" horiz-adv-x="1064" 
d="M8 240q0 261 407 346q95 20 320 43q12 1 21 2q63 262 -174 262q-92 0 -159 -41.5t-101 -116.5l-154 47q54 118 157 184t248 66q216 0 308.5 -103t48.5 -311l-49 -233q-43 -211 -47 -385h-162l-8 129q-70 -79 -152 -116.5t-199 -37.5q-133 0 -219 72.5t-86 192.5z
M479 1368q0 91 66.5 157t161.5 66q93 0 156 -65.5t63 -157.5t-63 -157.5t-156 -65.5q-95 0 -161.5 66t-66.5 157zM203 285q-11 -81 36.5 -124.5t129.5 -43.5q138 0 237 93t127 249l6 35q-94 -9 -150.5 -16t-124 -18t-106 -25t-75.5 -35t-55.5 -49.5t-24.5 -65.5zM702 1473
q-44 0 -75 -31t-31 -74t31 -73.5t75 -30.5t75.5 30.5t31.5 73.5t-31.5 74t-75.5 31z" />
    <glyph glyph-name="ae" unicode="&#xe6;" horiz-adv-x="1779" 
d="M145 14q-68 35 -102.5 96t-33 123.5t21.5 119.5t53 91q38 39 80 64t115.5 47.5t189 32.5t281.5 10q40 148 1.5 220.5t-167.5 72.5q-91 0 -158 -42t-100 -116l-156 49q56 122 167.5 189.5t262.5 60.5q239 -12 311 -147q153 147 392 147q96 0 173.5 -30.5t126 -84
t78.5 -126t31 -156t-18 -174.5h-789q-10 -92 10 -159.5t62.5 -104t92.5 -53.5t108 -17q159 0 252 100l159 -49q-158 -203 -434 -203q-134 0 -230 61t-145 169q-53 -82 -131.5 -135.5t-155 -74t-157.5 -20.5q-115 0 -191 39zM207 285q-15 -71 22.5 -120.5t126.5 -49.5
q143 1 243.5 94.5t133.5 249.5q-86 0 -149.5 -3t-134.5 -13.5t-117.5 -28.5t-81 -51t-43.5 -78zM932 598h598q6 52 -5 101.5t-39.5 91.5t-82.5 68t-125 26q-120 0 -219 -77.5t-127 -209.5z" />
    <glyph glyph-name="ccedilla" unicode="&#xe7;" horiz-adv-x="1009" 
d="M362 -16q-173 29 -254 169.5t-49 354.5q36 232 182 378t365 146q274 0 379 -227l-170 -60q-20 62 -79.5 99t-137.5 37q-79 0 -143 -32t-105 -87t-66.5 -117.5t-37.5 -134.5q-8 -62 -9 -118t15 -104.5t44 -84t77.5 -56t115.5 -20.5q155 0 254 133l146 -57
q-68 -112 -182 -170t-254 -58l-56 -67q117 20 163 -44q37 -50 8 -115q-32 -73 -122 -103q-45 -15 -98 -15q-83 0 -178 35l47 76q65 -29 117 -29q73 0 105 42q24 33 2 57q-18 20 -60 20q-29 0 -62 -8q-31 -7 -44.5 14.5t6.5 44.5z" />
    <glyph glyph-name="egrave" unicode="&#xe8;" horiz-adv-x="1107" 
d="M485 -25q-226 0 -342 145t-82 388q35 248 188.5 386t381.5 138q97 0 174.5 -30.5t126.5 -84t78.5 -125.5t30 -156t-18.5 -175h-786q-10 -92 9.5 -159.5t61.5 -104t91.5 -53.5t107.5 -17q159 0 252 100l160 -49q-158 -203 -433 -203zM606 885q-120 0 -219 -77t-127 -208
h600q5 52 -6.5 101t-39.5 91t-82 67.5t-126 25.5zM473 1325q-19 26 -14 59t30 50q20 14 48 14q39 0 61 -31q15 -20 54 -82t70 -114l32 -52h-140q-108 111 -141 156z" />
    <glyph glyph-name="eacute" unicode="&#xe9;" horiz-adv-x="1107" 
d="M485 -25q-226 0 -342 145t-82 388q35 248 188.5 386t381.5 138q97 0 174.5 -30.5t126.5 -84t78.5 -125.5t30 -156t-18.5 -175h-786q-10 -92 9.5 -159.5t61.5 -104t91.5 -53.5t107.5 -17q159 0 252 100l160 -49q-158 -203 -433 -203zM606 885q-120 0 -219 -77t-127 -208
h600q5 52 -6.5 101t-39.5 91t-82 67.5t-126 25.5zM600 1171q207 224 248 259q21 18 51 18q34 0 59 -25q22 -25 19.5 -57.5t-25.5 -52.5q-18 -16 -68 -51.5t-91 -63.5l-41 -27h-152z" />
    <glyph glyph-name="ecircumflex" unicode="&#xea;" horiz-adv-x="1107" 
d="M485 -25q-226 0 -342 145t-82 388q35 248 188.5 386t381.5 138q97 0 174.5 -30.5t126.5 -84t78.5 -125.5t30 -156t-18.5 -175h-786q-10 -92 9.5 -159.5t61.5 -104t91.5 -53.5t107.5 -17q159 0 252 100l160 -49q-158 -203 -433 -203zM606 885q-120 0 -219 -77t-127 -208
h600q5 52 -6.5 101t-39.5 91t-82 67.5t-126 25.5zM340 1178l274 206q51 39 111 39q56 0 92 -39l184 -206h-188l-111 125l-165 -125h-197z" />
    <glyph glyph-name="edieresis" unicode="&#xeb;" horiz-adv-x="1107" 
d="M485 -25q-226 0 -342 145t-82 388q35 248 188.5 386t381.5 138q97 0 174.5 -30.5t126.5 -84t78.5 -125.5t30 -156t-18.5 -175h-786q-10 -92 9.5 -159.5t61.5 -104t91.5 -53.5t107.5 -17q159 0 252 100l160 -49q-158 -203 -433 -203zM606 885q-120 0 -219 -77t-127 -208
h600q5 52 -6.5 101t-39.5 91t-82 67.5t-126 25.5zM395 1319q0 44 32.5 76t78.5 32t78 -32t32 -76q0 -46 -32 -78.5t-78 -32.5t-78.5 32.5t-32.5 78.5zM938 1208q-44 0 -76.5 32.5t-32.5 78.5q0 44 32.5 76t76.5 32q46 0 78.5 -32t32.5 -76q0 -46 -32.5 -78.5t-78.5 -32.5z
" />
    <glyph glyph-name="igrave" unicode="&#xec;" horiz-adv-x="552" 
d="M270 0h-176l187 877h-164l28 139h340zM229 1325q-19 26 -13.5 59t30.5 50q20 14 47 14q39 0 61 -31q15 -20 54 -82t70 -114l32 -52h-139q-109 111 -142 156z" />
    <glyph glyph-name="iacute" unicode="&#xed;" horiz-adv-x="552" 
d="M96 2l187 877h-164l28 139h340l-215 -1016h-176zM487 1167h-151q207 223 248 258q22 19 51 19q34 0 59 -25q22 -25 19.5 -57.5t-25.5 -52.5q-18 -16 -68.5 -51.5t-91.5 -63.5z" />
    <glyph glyph-name="icircumflex" unicode="&#xee;" horiz-adv-x="552" 
d="M96 2l187 877h-164l28 139h340l-215 -1016h-176zM78 1178l272 206q51 39 111 39q59 0 92 -39l186 -206h-188l-113 125l-164 -125h-196z" />
    <glyph glyph-name="idieresis" unicode="&#xef;" horiz-adv-x="552" 
d="M270 0h-176l187 877h-164l28 139h340zM186 1196q-46 0 -78 32.5t-32 78.5q0 44 32 76t78 32t78.5 -32t32.5 -76q0 -46 -32.5 -78.5t-78.5 -32.5zM618 1196q-44 0 -76 32.5t-32 78.5q0 44 32 76t76 32q46 0 78.5 -32t32.5 -76q0 -46 -32.5 -78.5t-78.5 -32.5z" />
    <glyph glyph-name="eth" unicode="&#xf0;" horiz-adv-x="1167" 
d="M473 -25q-125 0 -228 65.5t-155.5 175t-40.5 233.5q21 202 156 332t346 130q125 0 217.5 -65t124.5 -152q35 299 -88 432l-191 -157l-57 73l172 144q-108 58 -278 49l32 156q246 6 385 -91l109 91l59 -74l-96 -78q144 -156 135 -491q-1 -50 -7.5 -107t-24 -134.5
t-45 -148.5t-74.5 -142.5t-107 -123.5t-149 -84.5t-195 -32.5zM221 449q-20 -128 56.5 -228t216.5 -100q133 0 219.5 87.5t101.5 231.5q17 146 -57 232t-199 86q-140 0 -229.5 -83t-108.5 -226z" />
    <glyph glyph-name="ntilde" unicode="&#xf1;" horiz-adv-x="1126" 
d="M193 0h-177l215 1016h131l13 -142q122 158 354 158q166 0 235 -112t21 -332l-127 -588h-174l121 571q36 173 1 241.5t-153 68.5q-58 0 -109.5 -18.5t-99 -58.5t-84 -111t-57.5 -167zM455 1182h-133q40 105 108.5 158t153.5 53q58 0 105.5 -21.5t85 -43t71.5 -21.5
q9 0 18 1.5t15.5 3.5t14.5 7t12.5 7.5t12.5 9.5t10.5 9.5l10.5 10.5l10 10q27 27 56 27q36 0 54 -32.5t-3 -66.5q-74 -116 -211 -116q-51 0 -94.5 21.5t-84.5 43t-85 21.5q-90 0 -127 -82z" />
    <glyph glyph-name="ograve" unicode="&#xf2;" horiz-adv-x="1120" 
d="M471 -25q-225 0 -334 148.5t-76 382.5q15 109 55.5 199t95.5 149.5t124.5 100.5t140.5 59t144 18t139 -20.5t122 -63.5t92 -108t49.5 -153.5t-5.5 -201.5q-11 -63 -34.5 -127.5t-69 -135t-104.5 -124t-147.5 -88.5t-191.5 -35zM244 506q-30 -169 33.5 -274t207.5 -105
q136 0 229.5 102.5t121.5 276.5q59 375 -242 375q-59 0 -110.5 -18t-100 -59t-85 -116.5t-54.5 -181.5zM473 1325q-19 26 -14 59t30 50q20 14 48 14q39 0 61 -31q15 -20 54 -82t70 -114l32 -52h-140q-110 111 -141 156z" />
    <glyph glyph-name="oacute" unicode="&#xf3;" horiz-adv-x="1120" 
d="M471 -25q-225 0 -334 148.5t-76 382.5q15 109 55.5 199t95.5 149.5t124.5 100.5t140.5 59t144 18t139 -20.5t122 -63.5t92 -108t49.5 -153.5t-5.5 -201.5q-11 -63 -34.5 -127.5t-69 -135t-104.5 -124t-147.5 -88.5t-191.5 -35zM244 506q-30 -169 33.5 -274t207.5 -105
q136 0 229.5 102.5t121.5 276.5q59 375 -242 375q-59 0 -110.5 -18t-100 -59t-85 -116.5t-54.5 -181.5zM756 1171h-152q207 224 248 259q21 18 51 18q35 0 60 -25q21 -25 19 -57t-26 -53q-18 -16 -68 -51.5t-91 -63.5z" />
    <glyph glyph-name="ocircumflex" unicode="&#xf4;" horiz-adv-x="1120" 
d="M471 -25q-225 0 -334 148.5t-76 382.5q15 109 55.5 199t95.5 149.5t124.5 100.5t140.5 59t144 18t139 -20.5t122 -63.5t92 -108t49.5 -153.5t-5.5 -201.5q-11 -63 -34.5 -127.5t-69 -135t-104.5 -124t-147.5 -88.5t-191.5 -35zM244 506q-30 -169 33.5 -274t207.5 -105
q136 0 229.5 102.5t121.5 276.5q59 375 -242 375q-59 0 -110.5 -18t-100 -59t-85 -116.5t-54.5 -181.5zM549 1178h-197l275 206q51 39 110 39q56 0 92 -39l185 -206h-189l-110 125z" />
    <glyph glyph-name="otilde" unicode="&#xf5;" horiz-adv-x="1120" 
d="M471 -25q-225 0 -334 148.5t-76 382.5q15 109 55.5 199t95.5 149.5t124.5 100.5t140.5 59t144 18t139 -20.5t122 -63.5t92 -108t49.5 -153.5t-5.5 -201.5q-11 -63 -34.5 -127.5t-69 -135t-104.5 -124t-147.5 -88.5t-191.5 -35zM244 506q-30 -169 33.5 -274t207.5 -105
q136 0 229.5 102.5t121.5 276.5q59 375 -242 375q-59 0 -110.5 -18t-100 -59t-85 -116.5t-54.5 -181.5zM322 1182q40 105 108.5 158t153.5 53q58 0 105.5 -21.5t85 -43t71.5 -21.5q15 0 27 3t24 11t17.5 12t19.5 17.5t16 15.5q27 27 56 27q36 0 54 -32.5t-3 -66.5
q-74 -116 -211 -116q-51 0 -94.5 21.5t-84.5 43t-85 21.5q-90 0 -127 -82h-133z" />
    <glyph glyph-name="odieresis" unicode="&#xf6;" horiz-adv-x="1120" 
d="M471 -25q-225 0 -334 148.5t-76 382.5q15 109 55.5 199t95.5 149.5t124.5 100.5t140.5 59t144 18t139 -20.5t122 -63.5t92 -108t49.5 -153.5t-5.5 -201.5q-11 -63 -34.5 -127.5t-69 -135t-104.5 -124t-147.5 -88.5t-191.5 -35zM244 506q-30 -169 33.5 -274t207.5 -105
q136 0 229.5 102.5t121.5 276.5q59 375 -242 375q-59 0 -110.5 -18t-100 -59t-85 -116.5t-54.5 -181.5zM383 1319q0 44 32.5 76t78.5 32t78 -32t32 -76q0 -46 -32 -78.5t-78 -32.5t-78.5 32.5t-32.5 78.5zM817 1319q0 44 32.5 76t76.5 32q46 0 78 -32t32 -76
q0 -46 -32 -78.5t-78 -32.5q-44 0 -76.5 32.5t-32.5 78.5z" />
    <glyph glyph-name="divide" unicode="&#xf7;" horiz-adv-x="1267" 
d="M106 592h1016v-166h-1016v166zM614 725q-56 0 -94.5 38t-38.5 93q0 56 38.5 94.5t94.5 38.5q55 0 93 -38.5t38 -94.5t-37.5 -93.5t-93.5 -37.5zM614 29q-56 0 -94.5 38.5t-38.5 94.5q0 54 39 92.5t94 38.5t93 -38.5t38 -92.5q0 -56 -38 -94.5t-93 -38.5z" />
    <glyph glyph-name="oslash" unicode="&#xf8;" horiz-adv-x="1120" 
d="M49 -23l-72 76l127 119q-70 133 -45 332q15 109 56 199t96.5 150t124.5 101t139.5 59.5t142.5 18.5q176 0 287 -108l125 118l72 -75l-131 -125q82 -147 45 -359q-11 -62 -35 -126.5t-69 -134t-104 -123.5t-147 -89t-190 -35q-195 0 -305 113zM295 209q63 -82 190 -82
q135 0 228 102.5t121 274.5q20 123 -3 209zM244 504q-19 -115 2 -199l538 504q-66 72 -192 72q-58 0 -109.5 -18.5t-100 -59.5t-84.5 -117t-54 -182z" />
    <glyph glyph-name="ugrave" unicode="&#xf9;" horiz-adv-x="1105" 
d="M354 -23q-76 0 -131 23.5t-85.5 64t-44 97.5t-11 119.5t17.5 134.5l127 600h176l-127 -596q-11 -53 -15.5 -92t-0.5 -79t20 -65t50 -41t86 -16q126 0 216 86.5t130 269.5l115 533h174l-215 -1016h-134l-12 143q-67 -88 -144 -127t-192 -39zM469 1325q-19 26 -14 59t30 50
q20 14 47 14q40 0 62 -31q15 -20 54 -82t70 -114l32 -52h-140q-108 111 -141 156z" />
    <glyph glyph-name="uacute" unicode="&#xfa;" horiz-adv-x="1105" 
d="M354 -23q-76 0 -131 23.5t-85.5 64t-44 97.5t-11 119.5t17.5 134.5l127 600h176l-127 -596q-11 -53 -15.5 -92t-0.5 -79t20 -65t50 -41t86 -16q126 0 216 86.5t130 269.5l115 533h174l-215 -1016h-134l-12 143q-67 -88 -144 -127t-192 -39zM752 1171h-152
q207 224 248 259q21 18 51 18q34 0 59 -25q22 -25 19.5 -57.5t-25.5 -52.5q-18 -16 -68 -51.5t-91 -63.5z" />
    <glyph glyph-name="ucircumflex" unicode="&#xfb;" horiz-adv-x="1105" 
d="M354 -23q-76 0 -131 23.5t-85.5 64t-44 97.5t-11 119.5t17.5 134.5l127 600h176l-127 -596q-11 -53 -15.5 -92t-0.5 -79t20 -65t50 -41t86 -16q126 0 216 86.5t130 269.5l115 533h174l-215 -1016h-134l-12 143q-67 -88 -144 -127t-192 -39zM543 1178h-197l275 206
q51 39 110 39q56 0 92 -39l185 -206h-189l-110 125z" />
    <glyph glyph-name="udieresis" unicode="&#xfc;" horiz-adv-x="1105" 
d="M354 -23q-76 0 -131 23.5t-85.5 64t-44 97.5t-11 119.5t17.5 134.5l127 600h176l-127 -596q-11 -53 -15.5 -92t-0.5 -79t20 -65t50 -41t86 -16q126 0 216 86.5t130 269.5l115 533h174l-215 -1016h-134l-12 143q-67 -88 -144 -127t-192 -39zM373 1319q0 44 32 76t78 32
t78.5 -32t32.5 -76q0 -46 -32.5 -78.5t-78.5 -32.5t-78 32.5t-32 78.5zM915 1208q-44 0 -76 32.5t-32 78.5q0 44 32 76t76 32q46 0 78.5 -32t32.5 -76q0 -46 -32.5 -78.5t-78.5 -32.5z" />
    <glyph glyph-name="yacute" unicode="&#xfd;" horiz-adv-x="890" 
d="M-39 -330h-88l33 154h69q66 0 101.5 5t65.5 27t47.5 51t48.5 93l-150 1016h182l82 -791l422 791h205l-588 -1059q-39 -71 -62 -109t-54 -75.5t-55 -53.5t-64.5 -29.5t-83.5 -16.5t-111 -3zM633 1171h-152q207 224 248 259q21 18 51 18q35 0 60 -25q22 -25 19.5 -57.5
t-25.5 -52.5q-18 -16 -68.5 -51.5t-91.5 -63.5z" />
    <glyph glyph-name="thorn" unicode="&#xfe;" horiz-adv-x="1142" 
d="M-53 -330l360 1698h176l-98 -471q107 135 287 135q168 0 270 -114t102 -322q-1 -142 -42 -260.5t-110 -196.5t-159 -121t-190 -43q-116 0 -197.5 62.5t-109.5 155.5l-113 -523h-176zM289 446q0 -155 66.5 -239t181.5 -84q76 0 139 44.5t101.5 114t59.5 150t21 158.5
q1 148 -60.5 221.5t-164.5 73.5q-69 0 -128 -30t-98 -77.5t-66.5 -107t-39.5 -116.5t-12 -108z" />
    <glyph glyph-name="ydieresis" unicode="&#xff;" horiz-adv-x="890" 
d="M-127 -330l33 154h69q66 0 101.5 5t65.5 27t47.5 51t48.5 93l-150 1016h182l82 -791l422 791h205l-588 -1059q-39 -71 -62 -109t-54 -75.5t-55 -53.5t-64.5 -29.5t-83.5 -16.5t-111 -3h-88zM377 1208q-46 0 -78.5 32.5t-32.5 78.5q0 44 32.5 76t78.5 32t78 -32t32 -76
q0 -46 -32 -78.5t-78 -32.5zM700 1319q0 44 32.5 76t76.5 32q46 0 78.5 -32t32.5 -76q0 -46 -32.5 -78.5t-78.5 -32.5q-44 0 -76.5 32.5t-32.5 78.5z" />
    <glyph glyph-name="Amacron" unicode="&#x100;" horiz-adv-x="1284" 
d="M-106 0l802 1368h238l223 -1368h-211l-43 299h-618l-170 -299h-221zM377 463h504l-101 711zM1137 1561h-566l31 137h565z" />
    <glyph glyph-name="amacron" unicode="&#x101;" horiz-adv-x="1064" 
d="M8 240q0 261 407 346q95 20 320 43q12 1 21 2q63 262 -174 262q-92 0 -159 -41.5t-101 -116.5l-154 47q54 118 157 184t248 66q216 0 308.5 -103t48.5 -311l-49 -233q-43 -211 -47 -385h-162l-8 129q-70 -79 -152 -116.5t-199 -37.5q-133 0 -219 72.5t-86 192.5zM203 285
q-11 -81 36.5 -124.5t129.5 -43.5q138 0 237 93t127 249l6 35q-94 -9 -150.5 -16t-124 -18t-106 -25t-75.5 -35t-55.5 -49.5t-24.5 -65.5zM956 1231h-565l29 137h565z" />
    <glyph glyph-name="Abreve" unicode="&#x102;" horiz-adv-x="1284" 
d="M-106 0l802 1368h238l223 -1368h-211l-43 299h-618l-170 -299h-221zM377 463h504l-101 711zM1049 1751h141q-42 -103 -129 -174.5t-209 -71.5t-193 76t-71 170h141q9 -46 42.5 -77.5t94.5 -31.5q114 0 183 109z" />
    <glyph glyph-name="abreve" unicode="&#x103;" horiz-adv-x="1064" 
d="M672 0l-8 129q-70 -79 -152 -116.5t-199 -37.5q-133 0 -219 72.5t-86 192.5q0 261 407 346q95 20 320 43q12 1 21 2q63 262 -174 262q-92 0 -159 -41.5t-101 -116.5l-154 47q54 118 157 184t248 66q216 0 308.5 -103t48.5 -311l-49 -233q-43 -211 -47 -385h-162zM739 494
q-94 -9 -150.5 -16t-124 -18t-106 -25t-75.5 -35t-55.5 -49.5t-24.5 -65.5q-11 -81 36.5 -124.5t129.5 -43.5q138 0 237 93t127 249zM866 1411h142q-42 -103 -129 -174.5t-209 -71.5t-193 76t-71 170h141q9 -45 42.5 -76.5t94.5 -31.5q113 0 182 108z" />
    <glyph glyph-name="Aogonek" unicode="&#x104;" horiz-adv-x="1284" 
d="M115 0h-221l802 1368h238l223 -1368q-101 -37 -161 -84t-60 -98q0 -25 23.5 -40.5t60.5 -15.5q38 0 90 19l-23 -111q-79 -24 -137 -24q-82 0 -127 38.5t-45 98.5q0 69 59.5 128.5t157.5 88.5h-49l-43 299h-618zM780 1174l-403 -711h504z" />
    <glyph glyph-name="aogonek" unicode="&#x105;" horiz-adv-x="1064" 
d="M8 240q0 261 407 346q95 20 320 43q12 1 21 2q63 262 -174 262q-92 0 -159 -41.5t-101 -116.5l-154 47q54 118 157 184t248 66q216 0 308.5 -103t48.5 -311l-49 -233q-43 -211 -47 -385q-101 -37 -161.5 -84t-60.5 -98q0 -25 23.5 -40.5t60.5 -15.5q38 0 90 19l-22 -111
q-80 -24 -137 -24q-82 0 -127 38.5t-45 98.5q0 69 59.5 128.5t157.5 88.5l-8 129q-70 -79 -152 -116.5t-199 -37.5q-133 0 -219 72.5t-86 192.5zM203 285q-11 -81 36.5 -124.5t129.5 -43.5q138 0 237 93t127 249l6 35q-94 -9 -150.5 -16t-124 -18t-106 -25t-75.5 -35
t-55.5 -49.5t-24.5 -65.5z" />
    <glyph glyph-name="Cacute" unicode="&#x106;" horiz-adv-x="1363" 
d="M647 -25q-96 0 -176.5 22t-138.5 61.5t-102 93.5t-69.5 117t-38.5 133.5t-12 142t13 143.5q35 204 134.5 362.5t257 250.5t349.5 92q182 0 306 -78.5t173 -233.5l-182 -61q-33 102 -116 155.5t-201 53.5q-196 0 -338.5 -146.5t-186.5 -394.5q-28 -155 7.5 -281.5
t125.5 -198t216 -71.5q132 0 224.5 51t166.5 162l162 -63q-96 -154 -243.5 -233t-330.5 -79zM836 1524q4 3 68.5 57t128.5 106t81 64q27 18 53 18q31 0 52.5 -21t21.5 -52q0 -44 -39 -70q-10 -7 -201 -102h-165z" />
    <glyph glyph-name="cacute" unicode="&#x107;" horiz-adv-x="1009" 
d="M451 -25q-217 0 -323 146t-69 387q36 232 182 378t365 146q274 0 379 -227l-170 -60q-20 62 -79.5 99t-137.5 37q-79 0 -143 -32t-105 -87t-66.5 -117.5t-37.5 -134.5q-8 -62 -9 -118t15 -104.5t44 -84t77.5 -56t115.5 -20.5q155 0 254 133l146 -57q-68 -112 -183 -170
t-255 -58zM588 1171q207 224 248 259q21 18 51 18q34 0 59 -25q22 -25 19.5 -57.5t-25.5 -52.5q-18 -16 -68.5 -51.5t-91.5 -63.5l-41 -27h-151z" />
    <glyph glyph-name="Cdotaccent" unicode="&#x10a;" horiz-adv-x="1363" 
d="M647 -25q-96 0 -176.5 22t-138.5 61.5t-102 93.5t-69.5 117t-38.5 133.5t-12 142t13 143.5q35 204 134.5 362.5t257 250.5t349.5 92q182 0 306 -78.5t173 -233.5l-182 -61q-33 102 -116 155.5t-201 53.5q-196 0 -338.5 -146.5t-186.5 -394.5q-28 -155 7.5 -281.5
t125.5 -198t216 -71.5q132 0 224.5 51t166.5 162l162 -63q-96 -154 -243.5 -233t-330.5 -79zM956 1520q-46 0 -78 32t-32 78t32 78.5t78 32.5t78.5 -32.5t32.5 -78.5t-32.5 -78t-78.5 -32z" />
    <glyph glyph-name="cdotaccent" unicode="&#x10b;" horiz-adv-x="1009" 
d="M451 -25q-217 0 -323 146t-69 387q36 232 182 378t365 146q274 0 379 -227l-170 -60q-20 62 -79.5 99t-137.5 37q-79 0 -143 -32t-105 -87t-66.5 -117.5t-37.5 -134.5q-8 -62 -9 -118t15 -104.5t44 -84t77.5 -56t115.5 -20.5q155 0 254 133l146 -57q-68 -112 -183 -170
t-255 -58zM721 1208q-46 0 -78.5 32.5t-32.5 78.5t32.5 78.5t78.5 32.5t78 -32.5t32 -78.5t-32 -78.5t-78 -32.5z" />
    <glyph glyph-name="Ccaron" unicode="&#x10c;" horiz-adv-x="1363" 
d="M647 -25q-96 0 -176.5 22t-138.5 61.5t-102 93.5t-69.5 117t-38.5 133.5t-12 142t13 143.5q35 204 134.5 362.5t257 250.5t349.5 92q182 0 306 -78.5t173 -233.5l-182 -61q-33 102 -116 155.5t-201 53.5q-196 0 -338.5 -146.5t-186.5 -394.5q-28 -155 7.5 -281.5
t125.5 -198t216 -71.5q132 0 224.5 51t166.5 162l162 -63q-96 -154 -243.5 -233t-330.5 -79zM639 1763h186l111 -125l166 125h198l-272 -207q-49 -38 -108 -38q-63 0 -95 38z" />
    <glyph glyph-name="ccaron" unicode="&#x10d;" horiz-adv-x="1009" 
d="M451 -25q-217 0 -323 146t-69 387q36 232 182 378t365 146q274 0 379 -227l-170 -60q-20 62 -79.5 99t-137.5 37q-79 0 -143 -32t-105 -87t-66.5 -117.5t-37.5 -134.5q-8 -62 -9 -118t15 -104.5t44 -84t77.5 -56t115.5 -20.5q155 0 254 133l146 -57q-68 -112 -183 -170
t-255 -58zM393 1411h187l110 -125l166 125h199l-273 -207q-51 -39 -108 -39q-61 0 -94 39z" />
    <glyph glyph-name="Dcaron" unicode="&#x10e;" horiz-adv-x="1384" 
d="M29 0l290 1368h377q133 0 237 -24t185.5 -76.5t126.5 -136t60.5 -202.5t-13.5 -276q-36 -216 -158 -364t-305.5 -218.5t-420.5 -70.5h-379zM260 162h176q103 0 191.5 16.5t167.5 54t139 95t102.5 143t61.5 195.5q15 85 16 156t-11.5 123.5t-34 94t-55.5 69.5t-71.5 47
t-86 29.5t-96 14.5t-104.5 4h-174zM592 1763h186l111 -125l166 125h198l-272 -207q-49 -38 -109 -38q-62 0 -94 38z" />
    <glyph glyph-name="dcaron" unicode="&#x10f;" horiz-adv-x="1202" 
d="M739 0l-10 125q-58 -72 -130.5 -111t-178.5 -39q-128 0 -217 70t-125 190.5t-17 270.5q33 244 168 385t326 141q117 0 200 -60.5t113 -156.5l117 553h176q-158 -737 -209 -983q-45 -226 -47 -385h-166zM463 123q78 0 143.5 35.5t107 93.5t66.5 123t31 131q18 173 -45 276
t-193 103q-132 0 -215 -106.5t-110 -272.5q-29 -183 36.5 -283t178.5 -100zM1268 1016h-101q103 279 121 315q7 21 30.5 40.5t55.5 19.5q39 0 56.5 -28.5t-0.5 -72.5z" />
    <glyph glyph-name="Dcroat" unicode="&#x110;" horiz-adv-x="1499" 
d="M274 621h-188l35 163h188l125 584h377q133 0 237 -24t185.5 -76.5t126.5 -136t60.5 -202.5t-13.5 -276q-36 -215 -158.5 -363.5t-306 -219t-420.5 -70.5h-379zM760 621h-287l-98 -459h176q103 0 191 16.5t167.5 54t139 95t102 143t61.5 195.5q15 85 16 156t-11.5 123.5
t-34 94t-55 69.5t-71 47t-86 29.5t-96 14.5t-104.5 4h-174l-88 -420h287z" />
    <glyph glyph-name="dcroat" unicode="&#x111;" horiz-adv-x="1230" 
d="M420 -25q-128 0 -217 70t-125 190.5t-17 270.5q33 244 168 385t326 141q117 0 200 -60.5t113 -156.5l66 307h-334l31 138h332l22 108h176q-8 -40 -22 -108h166l-31 -138h-166q-126 -588 -156 -737q-45 -226 -47 -385h-166l-10 125q-58 -72 -130.5 -111t-178.5 -39z
M248 506q-29 -183 36.5 -283t178.5 -100q78 0 143.5 35.5t107 93.5t66.5 123t31 131q18 173 -45 276t-193 103q-132 0 -215 -106.5t-110 -272.5z" />
    <glyph glyph-name="Emacron" unicode="&#x112;" horiz-adv-x="1165" 
d="M29 0l290 1368h932l-34 -166h-736l-88 -416h543l-37 -163h-541l-98 -457h735l-34 -166h-932zM541 1561l30 137h566l-31 -137h-565z" />
    <glyph glyph-name="emacron" unicode="&#x113;" horiz-adv-x="1107" 
d="M485 -25q-226 0 -342 145t-82 388q35 248 188.5 386t381.5 138q97 0 174.5 -30.5t126.5 -84t78.5 -125.5t30 -156t-18.5 -175h-786q-10 -92 9.5 -159.5t61.5 -104t91.5 -53.5t107.5 -17q159 0 252 100l160 -49q-158 -203 -433 -203zM606 885q-120 0 -219 -77t-127 -208
h600q5 52 -6.5 101t-39.5 91t-82 67.5t-126 25.5zM989 1231h-565l29 137h565z" />
    <glyph glyph-name="Edotaccent" unicode="&#x116;" horiz-adv-x="1165" 
d="M961 0h-932l290 1368h932l-34 -166h-736l-88 -416h543l-37 -163h-541l-98 -457h735zM846 1561q-46 0 -78.5 32t-32.5 78t32.5 78.5t78.5 32.5t78 -32.5t32 -78.5t-32 -78t-78 -32z" />
    <glyph glyph-name="edotaccent" unicode="&#x117;" horiz-adv-x="1107" 
d="M485 -25q-226 0 -342 145t-82 388q35 248 188.5 386t381.5 138q97 0 174.5 -30.5t126.5 -84t78.5 -125.5t30 -156t-18.5 -175h-786q-10 -92 9.5 -159.5t61.5 -104t91.5 -53.5t107.5 -17q159 0 252 100l160 -49q-158 -203 -433 -203zM606 885q-120 0 -219 -77t-127 -208
h600q5 52 -6.5 101t-39.5 91t-82 67.5t-126 25.5zM614 1319q0 46 32.5 78.5t78.5 32.5t78.5 -32.5t32.5 -78.5t-32.5 -78.5t-78.5 -32.5t-78.5 32.5t-32.5 78.5z" />
    <glyph glyph-name="Eogonek" unicode="&#x118;" horiz-adv-x="1165" 
d="M756 0h-727l290 1368h932l-34 -166h-736l-88 -416h543l-37 -163h-541l-98 -457h735l-34 -166h-43q-101 -37 -161.5 -84t-60.5 -98q0 -25 23.5 -40.5t60.5 -15.5q38 0 90 19l-22 -111q-80 -24 -137 -24q-82 0 -127 38.5t-45 98.5q0 69 59.5 128.5t157.5 88.5z" />
    <glyph glyph-name="eogonek" unicode="&#x119;" horiz-adv-x="1107" 
d="M479 -25q-223 3 -337.5 147.5t-80.5 385.5q35 248 188.5 386t381.5 138q97 0 174.5 -30.5t126.5 -84t78.5 -125.5t30 -156t-18.5 -175h-786q-10 -92 9.5 -159.5t61.5 -104t91.5 -53.5t107.5 -17q159 0 252 100l160 -49q-90 -117 -230 -168q-158 -77 -158 -180
q0 -32 23.5 -50t62.5 -18q37 0 89 19l-23 -111q-76 -24 -137 -24q-82 0 -127 41t-45 108q0 102 106 180zM606 885q-120 0 -219 -77t-127 -208h600q5 52 -6.5 101t-39.5 91t-82 67.5t-126 25.5z" />
    <glyph glyph-name="Ecaron" unicode="&#x11a;" horiz-adv-x="1165" 
d="M961 0h-932l290 1368h932l-34 -166h-736l-88 -416h543l-37 -163h-541l-98 -457h735zM543 1763h186l111 -125l166 125h198l-272 -207q-49 -38 -109 -38q-62 0 -94 38z" />
    <glyph glyph-name="ecaron" unicode="&#x11b;" horiz-adv-x="1107" 
d="M485 -25q-226 0 -342 145t-82 388q35 248 188.5 386t381.5 138q97 0 174.5 -30.5t126.5 -84t78.5 -125.5t30 -156t-18.5 -175h-786q-10 -92 9.5 -159.5t61.5 -104t91.5 -53.5t107.5 -17q159 0 252 100l160 -49q-158 -203 -433 -203zM606 885q-120 0 -219 -77t-127 -208
h600q5 52 -6.5 101t-39.5 91t-82 67.5t-126 25.5zM606 1204l-186 207h186l111 -125l166 125h198l-272 -207q-51 -39 -109 -39q-61 0 -94 39z" />
    <glyph glyph-name="Gbreve" unicode="&#x11e;" horiz-adv-x="1460" 
d="M721 541l35 164h587l-151 -705h-115l-12 168q-172 -193 -449 -193q-179 0 -302 92.5t-171.5 253.5t-19.5 367q21 147 83.5 275.5t156.5 224t222 150.5t273 55q192 0 316 -79t169 -233l-182 -61q-24 87 -105 148t-212 61q-193 0 -339 -145.5t-186 -395.5
q-20 -128 -3 -228.5t63.5 -171.5t116.5 -109.5t155 -41.5q80 -3 150 14t132 57.5t108.5 114t70.5 175.5l10 43h-401zM1147 1763h141q-42 -103 -129 -174t-209 -71t-193 75.5t-71 169.5h141q9 -45 43 -76.5t95 -31.5q113 0 182 108z" />
    <glyph glyph-name="gbreve" unicode="&#x11f;" horiz-adv-x="1134" 
d="M-10 -160l184 51q12 -56 70 -95.5t151 -35.5q74 3 128 25t87.5 63.5t53 87t34.5 111.5l27 117q-36 -47 -86.5 -78t-106 -44t-115 -8.5t-114 25.5t-102 63t-80.5 98t-48 135.5t-5 172.5q12 111 48 201t87 148t114 96t128.5 51.5t131.5 9t122.5 -27t101.5 -61.5t69 -89
l82 160h127q-145 -691 -194 -920q-2 -9 -6 -29q-8 -38 -12.5 -59.5t-17 -63.5t-25 -68.5t-34.5 -65t-47.5 -63.5t-63.5 -53.5t-82 -44.5t-103 -27t-127 -11q-132 0 -236.5 62t-140.5 167zM496 182q122 -4 204 91t109 251q29 168 -46.5 264.5t-199.5 96.5
q-126 0 -208.5 -95.5t-104.5 -265.5q-20 -154 49.5 -245.5t196.5 -96.5zM883 1411h141q-42 -103 -129 -174.5t-209 -71.5t-193 76t-71 170h141q9 -45 42.5 -76.5t94.5 -31.5q114 0 183 108z" />
    <glyph glyph-name="Gdotaccent" unicode="&#x120;" horiz-adv-x="1460" 
d="M616 -25q-179 0 -302 92.5t-171.5 253.5t-19.5 367q21 147 83.5 275.5t156.5 224t222 150.5t273 55q192 0 316 -79t169 -233l-182 -61q-24 87 -105 148t-212 61q-193 0 -339 -145.5t-186 -395.5q-20 -128 -3 -228.5t63.5 -171.5t116.5 -109.5t155 -41.5q80 -3 150 14
t132 57.5t108.5 114t70.5 175.5l10 43h-401l35 164h587l-151 -705h-115l-12 168q-172 -193 -449 -193zM956 1561q-46 0 -78 32t-32 78t32 78.5t78 32.5t78.5 -32.5t32.5 -78.5t-32.5 -78t-78.5 -32z" />
    <glyph glyph-name="gdotaccent" unicode="&#x121;" horiz-adv-x="1134" 
d="M367 -389q-132 0 -236.5 62t-140.5 167l184 51q12 -56 70 -95.5t151 -35.5q74 3 128 25t87.5 63.5t53 87t34.5 111.5l27 117q-50 -64 -123.5 -97.5t-155.5 -33.5q-78 0 -149.5 31t-128 90t-85 156.5t-15.5 217.5q11 106 44.5 192.5t80 144.5t105.5 97t120 56.5t125 17.5
q108 0 198 -48.5t129 -131.5l82 160h127q-145 -691 -194 -920q-2 -9 -6 -29q-8 -38 -12.5 -59.5t-17 -63.5t-25 -68.5t-34.5 -65t-47.5 -63.5t-63.5 -53.5t-82 -44.5t-103 -27t-127 -11zM250 524q-20 -154 49.5 -245.5t196.5 -96.5q122 -4 204 91t109 251
q29 168 -46.5 264.5t-199.5 96.5q-126 0 -208.5 -95.5t-104.5 -265.5zM715 1210q-46 0 -78.5 32.5t-32.5 78.5t32.5 78.5t78.5 32.5t78 -32.5t32 -78.5t-32 -78.5t-78 -32.5z" />
    <glyph glyph-name="uni0122" unicode="&#x122;" horiz-adv-x="1460" 
d="M721 541l35 164h587l-151 -705h-115l-12 168q-172 -193 -449 -193q-179 0 -302 92.5t-171.5 253.5t-19.5 367q21 147 83.5 275.5t156.5 224t222 150.5t273 55q192 0 316 -79t169 -233l-182 -61q-24 87 -105 148t-212 61q-193 0 -339 -145.5t-186 -395.5
q-20 -128 -3 -228.5t63.5 -171.5t116.5 -109.5t155 -41.5q80 -3 150 14t132 57.5t108.5 114t70.5 175.5l10 43h-401zM375 -514l-51 74q25 -2 54.5 3t61.5 19t56.5 44.5t33.5 72.5q9 40 -7.5 75t-53.5 52l123 59q49 -31 67.5 -78.5t8.5 -99.5q-18 -100 -101 -160.5
t-192 -60.5z" />
    <glyph glyph-name="uni0123" unicode="&#x123;" horiz-adv-x="1134" 
d="M-10 -160l184 51q12 -56 70 -95.5t151 -35.5q74 3 128 25t87.5 63.5t53 87t34.5 111.5l27 117q-36 -47 -86.5 -78t-106 -44t-115 -8.5t-114 25.5t-102 63t-80.5 98t-48 135.5t-5 172.5q12 111 48 201t87 148t114 96t128.5 51.5t131.5 9t122.5 -27t101.5 -61.5t69 -89
l82 160h127q-145 -691 -194 -920q-2 -9 -6 -29q-8 -38 -12.5 -59.5t-17 -63.5t-25 -68.5t-34.5 -65t-47.5 -63.5t-63.5 -53.5t-82 -44.5t-103 -27t-127 -11q-132 0 -236.5 62t-140.5 167zM496 182q122 -4 204 91t109 251q29 168 -46.5 264.5t-199.5 96.5
q-126 0 -208.5 -95.5t-104.5 -265.5q-20 -154 49.5 -245.5t196.5 -96.5zM858 1581l51 -74q-37 3 -76.5 -6t-80 -43.5t-52.5 -89.5q-7 -40 10 -75t52 -52l-121 -59q-49 31 -67.5 78.5t-8.5 99.5q18 100 101 160.5t192 60.5z" />
    <glyph glyph-name="Hbar" unicode="&#x126;" horiz-adv-x="1454" 
d="M244 0h-197l219 1032h-153l34 162h154l37 174h197l-37 -174h716l37 174h197l-37 -174h150l-35 -162h-150l-219 -1032h-196l131 623h-715zM1180 1032h-717l-51 -246h716z" />
    <glyph glyph-name="hbar" unicode="&#x127;" horiz-adv-x="1191" 
d="M352 1260l23 108h176l-23 -108h328l-29 -138h-327l-54 -248q122 158 351 158q166 0 235 -111t21 -331l-127 -590h-174l120 573q36 173 1.5 240.5t-152.5 67.5q-122 0 -216.5 -84.5t-133.5 -270.5l-111 -526h-176l238 1122h-168l28 138h170z" />
    <glyph glyph-name="Imacron" unicode="&#x12a;" horiz-adv-x="847" 
d="M584 0h-576l33 154h190l226 1060h-191l33 154h575l-30 -154h-193l-223 -1060h188zM909 1561h-565l31 137h565z" />
    <glyph glyph-name="imacron" unicode="&#x12b;" horiz-adv-x="569" 
d="M111 2l186 877h-164l29 139h340l-215 -1016h-176zM168 1231l29 137h565l-29 -137h-565z" />
    <glyph glyph-name="Iogonek" unicode="&#x12e;" horiz-adv-x="847" 
d="M264 0h-256l33 154h190l226 1060h-191l33 154h575l-30 -154h-193l-223 -1060h188l-32 -154h-158q-101 -37 -161 -84t-60 -98q0 -25 23.5 -40.5t60.5 -15.5q38 0 90 19l-23 -111q-80 -24 -137 -24q-82 0 -127 38.5t-45 98.5q0 69 59.5 128.5t157.5 88.5z" />
    <glyph glyph-name="iogonek" unicode="&#x12f;" horiz-adv-x="552" 
d="M-111 -217q0 69 60 128.5t160 88.5h-15l187 877h-164l28 139h340l-215 -1016q-101 -37 -161 -84t-60 -98q0 -25 23.5 -40.5t60.5 -15.5q38 0 90 19l-22 -111q-79 -24 -140 -24q-82 0 -127 38.5t-45 98.5zM469 1210q-53 0 -90 37t-37 90q0 54 37 91.5t90 37.5
q54 0 91.5 -37.5t37.5 -91.5q0 -53 -37.5 -90t-91.5 -37z" />
    <glyph glyph-name="dotlessi" unicode="&#x131;" horiz-adv-x="552" 
d="M94 0l187 877h-164l28 139h340l-215 -1016h-176z" />
    <glyph glyph-name="uni0136" unicode="&#x136;" horiz-adv-x="1275" 
d="M29 0l290 1368h197l-141 -661l731 661h266l-653 -580l409 -788h-215l-338 664l-258 -234l-92 -430h-196zM279 -514l-52 74q25 -3 55 2.5t61.5 19.5t56.5 44.5t34 72.5q9 40 -7.5 75t-53.5 52l123 59q96 -61 75 -178q-18 -100 -100.5 -160.5t-191.5 -60.5z" />
    <glyph glyph-name="uni0137" unicode="&#x137;" horiz-adv-x="999" 
d="M16 0l291 1368h176l-168 -784l482 432h229l-479 -424l305 -592h-193l-243 475l-152 -135l-71 -340h-177zM150 -514l-52 74q25 -3 55 2.5t61.5 19.5t56.5 44.5t34 72.5q9 40 -7.5 75t-53.5 52l121 59q98 -60 77 -178q-18 -100 -100.5 -160.5t-191.5 -60.5z" />
    <glyph glyph-name="uni013B" unicode="&#x13b;" horiz-adv-x="1107" 
d="M29 0l290 1368h197l-256 -1202h735l-34 -166h-932zM248 -516l-53 74q37 -3 76.5 6t79.5 43.5t52 89.5q8 40 -8.5 75t-52.5 52l121 59q96 -59 78 -178q-18 -100 -101 -160.5t-192 -60.5z" />
    <glyph glyph-name="uni013C" unicode="&#x13c;" horiz-adv-x="532" 
d="M408 154l-33 -154h-115q-104 0 -151.5 28t-51 85t14.5 143l235 1112h176l-229 -1081q-9 -47 -10 -76.5t19 -43t69 -13.5h76zM-53 -514l-51 74q25 -2 54.5 3t61.5 19t56.5 44.5t33.5 72.5q9 40 -7.5 75t-51.5 52l121 59q49 -31 67.5 -78.5t8.5 -99.5q-18 -100 -101 -160.5
t-192 -60.5z" />
    <glyph glyph-name="Lcaron" unicode="&#x13d;" horiz-adv-x="1107" 
d="M29 0l290 1368h197l-256 -1202h735l-34 -166h-932zM662 1016h-101q103 279 121 315q7 21 30.5 40.5t55.5 19.5q39 0 56 -28.5t-1 -72.5z" />
    <glyph glyph-name="lcaron" unicode="&#x13e;" horiz-adv-x="540" 
d="M408 154l-33 -154h-115q-104 0 -151.5 28t-51 85t14.5 143l235 1112h176l-229 -1081q-9 -47 -10 -76.5t19 -43t69 -13.5h76zM594 1016h-100q106 287 120 315q7 21 30.5 40.5t55.5 19.5q39 0 56.5 -28.5t-0.5 -72.5z" />
    <glyph glyph-name="Lslash" unicode="&#x141;" horiz-adv-x="1173" 
d="M94 0l117 545l-203 -107l31 150l203 106l143 674h197l-117 -557l412 221l-31 -149l-414 -219l-106 -496h735l-35 -168h-932z" />
    <glyph glyph-name="lslash" unicode="&#x142;" horiz-adv-x="557" 
d="M160 557l-156 -82l31 146l155 79l142 668h176l-121 -563l207 110l-31 -145l-207 -108l-80 -375q-18 -71 -4.5 -102t82.5 -31h78l-33 -154h-114q-105 0 -153 28t-52 85t14 143z" />
    <glyph glyph-name="Nacute" unicode="&#x143;" 
d="M225 0h-196l290 1368h281l381 -1175l250 1175h196l-290 -1368h-281l-379 1180zM1006 1526h-166q4 3 68.5 57t128.5 106t81 64q28 19 53 19q31 0 52.5 -21.5t21.5 -52.5q0 -44 -39 -70q-14 -9 -200 -102z" />
    <glyph glyph-name="nacute" unicode="&#x144;" horiz-adv-x="1126" 
d="M193 0h-177l215 1016h131l13 -142q122 158 354 158q166 0 235 -112t21 -332l-127 -588h-174l121 571q36 173 1 241.5t-153 68.5q-58 0 -109.5 -18.5t-99 -58.5t-84 -111t-57.5 -167zM606 1171q207 224 248 259q21 18 51 18q35 0 60 -25q21 -25 19 -57t-26 -53
q-18 -16 -68 -51.5t-91 -63.5l-41 -27h-152z" />
    <glyph glyph-name="uni0145" unicode="&#x145;" 
d="M29 0l290 1368h281l381 -1175l250 1175h196l-290 -1368h-281l-379 1180l-252 -1180h-196zM371 -514l-54 74q37 -3 76.5 6t80 43.5t52.5 89.5q8 40 -8.5 75t-52.5 52l121 59q96 -59 78 -178q-18 -100 -101 -160.5t-192 -60.5z" />
    <glyph glyph-name="uni0146" unicode="&#x146;" horiz-adv-x="1126" 
d="M16 0l215 1016h131l13 -142q122 158 354 158q166 0 235 -112t21 -332l-127 -588h-174l121 571q36 173 1 241.5t-153 68.5q-58 0 -109.5 -18.5t-99 -58.5t-84 -111t-57.5 -167l-110 -526h-177zM223 -514l-53 74q37 -3 76.5 6t80 43.5t52.5 89.5q8 40 -9 75t-53 52l121 59
q96 -59 78 -178q-18 -100 -101 -160.5t-192 -60.5z" />
    <glyph glyph-name="Ncaron" unicode="&#x147;" 
d="M225 0h-196l290 1368h281l381 -1175l250 1175h196l-290 -1368h-281l-379 1180zM629 1763h186l111 -125l166 125h198l-272 -207q-49 -38 -109 -38q-62 0 -94 38z" />
    <glyph glyph-name="ncaron" unicode="&#x148;" horiz-adv-x="1126" 
d="M193 0h-177l215 1016h131l13 -142q122 158 354 158q166 0 235 -112t21 -332l-127 -588h-174l121 571q36 173 1 241.5t-153 68.5q-58 0 -109.5 -18.5t-99 -58.5t-84 -111t-57.5 -167zM406 1411h186l110 -125l166 125h199l-272 -207q-51 -39 -109 -39q-61 0 -94 39z" />
    <glyph glyph-name="Ohungarumlaut" unicode="&#x150;" horiz-adv-x="1490" 
d="M639 -25q-139 0 -248 55.5t-174.5 151t-90.5 226t-3 278.5q31 207 128.5 365t261.5 250t374 92q186 0 316 -96.5t182 -257t20 -353.5q-18 -110 -56 -211t-102.5 -193t-149.5 -159.5t-203 -107.5t-255 -40zM319 686q-21 -134 -3 -236t68 -172t122 -105.5t160 -35.5
q208 0 353.5 146t188.5 403q42 250 -61.5 396.5t-286.5 146.5q-113 0 -207 -41.5t-160.5 -116t-110.5 -172t-63 -213.5zM1026 1524q205 225 248 260q24 18 53 18q37 0 55 -24q21 -24 19.5 -57t-25.5 -54q-18 -16 -68 -52t-91 -63l-41 -28h-150zM879 1524h-152
q209 223 248 260q24 18 53 18q36 0 57 -24q22 -25 19.5 -57t-25.5 -54q-18 -16 -68 -52t-91 -63z" />
    <glyph glyph-name="ohungarumlaut" unicode="&#x151;" horiz-adv-x="1120" 
d="M471 -25q-225 0 -334 148.5t-76 382.5q15 109 55.5 199t95.5 149.5t124.5 100.5t140.5 59t144 18t139 -20.5t122 -63.5t92 -108t49.5 -153.5t-5.5 -201.5q-11 -63 -34.5 -127.5t-69 -135t-104.5 -124t-147.5 -88.5t-191.5 -35zM244 506q-30 -169 33.5 -274t207.5 -105
q136 0 229.5 102.5t121.5 276.5q59 375 -242 375q-59 0 -110.5 -18t-100 -59t-85 -116.5t-54.5 -181.5zM727 1171q205 226 248 261q24 18 53 18q33 0 55 -25q21 -24 19.5 -56.5t-25.5 -53.5q-18 -16 -68 -52t-91 -64l-41 -28h-150zM580 1171h-152q209 224 248 261
q24 18 53 18q35 0 57 -25q21 -25 19.5 -56.5t-25.5 -53.5q-18 -16 -68 -52t-91 -64z" />
    <glyph glyph-name="OE" unicode="&#x152;" horiz-adv-x="2203" 
d="M641 -25q-94 0 -175 25t-141.5 71.5t-107 111t-70.5 143t-32 169.5t8 189q23 156 85 285.5t158 224t229.5 147t291.5 52.5q155 0 270.5 -66.5t181.5 -185.5l50 227h899l-35 -166h-735l-88 -416h542l-35 -163h-544l-97 -455h738l-35 -168h-901l35 164q-201 -189 -492 -189
zM319 684q-42 -253 61.5 -399t287.5 -146q207 0 352.5 145t187.5 400q21 131 3 233t-68 171.5t-123 106t-160 36.5q-113 0 -207 -42t-160.5 -117t-110.5 -173t-63 -215z" />
    <glyph glyph-name="oe" unicode="&#x153;" horiz-adv-x="1863" 
d="M475 -25q-224 0 -336 144.5t-78 386.5q18 134 76 239t137.5 165.5t166 91t173.5 30.5q114 0 199.5 -46t142.5 -155q70 96 182 148.5t242 52.5q97 0 176 -30t129 -82.5t80.5 -124.5t31.5 -156t-19 -176h-787q-16 -174 61.5 -255t209.5 -81q161 0 251 100l160 -49
q-158 -203 -424 -203q-143 0 -232 50t-149 151q-151 -201 -393 -201zM244 510q-30 -176 34.5 -278t198.5 -105q138 -1 236 104t123 277q51 373 -238 373q-59 0 -111 -18t-102 -58.5t-86.5 -115.5t-54.5 -179zM1360 885q-120 0 -217 -77t-125 -208h598q6 53 -5 102.5
t-39.5 91t-83 66.5t-128.5 25z" />
    <glyph glyph-name="Racute" unicode="&#x154;" horiz-adv-x="1249" 
d="M29 0l290 1368h418q126 0 219 -20t160.5 -65t96 -122.5t14.5 -187.5q-6 -53 -22.5 -101t-51.5 -96.5t-85.5 -85.5t-129.5 -64t-178 -36l301 -590h-215l-293 575h-205l-123 -575h-196zM383 737h254q68 0 120 5.5t101.5 20.5t82.5 40t56.5 67t30.5 99q9 69 -7.5 116
t-59.5 72.5t-100.5 36t-139.5 10.5h-240zM891 1524h-166q4 3 69 57t129 106t81 64q27 18 53 18q31 0 52 -21t21 -52q0 -45 -38 -70q-10 -7 -201 -102z" />
    <glyph glyph-name="racute" unicode="&#x155;" horiz-adv-x="722" 
d="M193 0h-177l215 1016h129l17 -191q71 103 162.5 155t244.5 52l-39 -182q-102 4 -181.5 -25t-134.5 -87.5t-90.5 -136t-57.5 -181.5zM401 1169q207 223 248 258q22 19 51 19q35 0 60 -25q22 -25 19.5 -57.5t-25.5 -52.5q-18 -16 -68.5 -51.5t-91.5 -63.5l-41 -27h-152z
" />
    <glyph glyph-name="Rcaron" unicode="&#x158;" horiz-adv-x="1249" 
d="M225 0h-196l290 1368h418q126 0 219 -20t160.5 -65t96 -122.5t14.5 -187.5q-6 -53 -22.5 -101t-51.5 -96.5t-85.5 -85.5t-129.5 -64t-178 -36l301 -590h-215l-293 575h-205zM481 1204l-98 -467h254q68 0 120 5.5t101.5 20.5t82.5 40t56.5 67t30.5 99q9 69 -7.5 116
t-59.5 72.5t-100.5 36t-139.5 10.5h-240zM557 1763h186l111 -125l166 125h199l-273 -207q-49 -38 -108 -38q-63 0 -95 38z" />
    <glyph glyph-name="rcaron" unicode="&#x159;" horiz-adv-x="722" 
d="M195 4h-177l215 1016h129l17 -191q71 103 162.5 155t244.5 52l-38 -182q-102 4 -181.5 -25t-134.5 -87.5t-91 -136t-58 -181.5zM276 1411h187l110 -125l166 125h199l-272 -207q-51 -39 -109 -39t-94 39z" />
    <glyph glyph-name="Sacute" unicode="&#x15a;" horiz-adv-x="1247" 
d="M1114 403q0 -80 -29.5 -149.5t-80.5 -120t-118.5 -86.5t-144.5 -54t-157 -18q-173 0 -314.5 83.5t-195.5 242.5l186 51q24 -71 79 -120.5t121.5 -72t139.5 -22.5q128 0 220.5 65t92.5 175q0 54 -25 95t-67.5 67t-98 46.5t-116.5 38.5t-121.5 37.5t-116 48.5t-98 67.5
t-67.5 99t-25 137.5q0 91 41 165t110 119.5t155 70t180 24.5q158 0 292.5 -66.5t192.5 -189.5l-188 -54q-35 69 -121.5 108.5t-184.5 39.5q-72 0 -132.5 -21t-102.5 -66.5t-47 -109.5q-5 -67 33.5 -115t103.5 -76t145 -51.5t160.5 -52t147.5 -67t109 -107t42 -162.5z
M682 1524q4 3 69 57t129 106t81 64q27 18 53 18q31 0 52 -21t21 -52q0 -45 -38 -70q-10 -7 -201 -102h-166z" />
    <glyph glyph-name="sacute" unicode="&#x15b;" horiz-adv-x="980" 
d="M436 -25q-158 0 -261.5 61.5t-154.5 194.5l177 60q16 -86 85.5 -131t159.5 -45t157 45t67 121q0 41 -24.5 71t-64 46.5t-90.5 33.5t-104 30t-104 36.5t-90.5 53t-64 80t-24.5 116.5q0 91 58 157t145 96.5t189 30.5q134 0 244 -54.5t147 -154.5l-164 -57q-19 59 -89 92
t-153 33q-84 0 -143.5 -34.5t-59.5 -98.5q0 -40 24.5 -69.5t65 -46t91.5 -33.5t105 -30.5t105 -37t91.5 -53t65 -80t24.5 -115.5q0 -151 -116 -234.5t-294 -83.5zM518 1167q207 223 248 258q22 19 51 19q35 0 60 -25q21 -25 19 -57t-26 -53q-18 -16 -68 -51.5t-91 -63.5
l-41 -27h-152z" />
    <glyph glyph-name="Scedilla" unicode="&#x15e;" horiz-adv-x="1247" 
d="M516 -23q-154 16 -273.5 98t-168.5 226l186 51q24 -71 79 -120.5t121.5 -72t139.5 -22.5q128 0 220.5 65t92.5 175q0 54 -25 95t-67.5 67t-98 46.5t-116.5 38.5t-121.5 37.5t-116 48.5t-98 67.5t-67.5 99t-25 137.5q0 91 41 165t110 119.5t155 70t180 24.5
q158 0 292.5 -66.5t192.5 -189.5l-188 -54q-35 69 -121.5 108.5t-184.5 39.5q-72 0 -132.5 -21t-102.5 -66.5t-47 -109.5q-5 -67 33.5 -115t103.5 -76t145 -51.5t160.5 -52t147.5 -67t109 -107t42 -162.5q0 -96 -42.5 -176.5t-113 -133.5t-160.5 -83.5t-188 -34.5l-55 -67
q117 20 163 -44q37 -50 8 -115q-32 -73 -122 -103q-45 -15 -98 -15q-83 0 -178 35l47 76q65 -29 117 -29q73 0 105 42q24 33 2 57q-18 20 -60 20q-29 0 -62 -8q-30 -7 -44 14.5t5 44.5z" />
    <glyph glyph-name="scedilla" unicode="&#x15f;" horiz-adv-x="980" 
d="M354 -20q-247 28 -334 251l177 60q16 -86 85.5 -131t159.5 -45t157 45t67 121q0 41 -24.5 71t-64 46.5t-90.5 33.5t-104 30t-104 36.5t-90.5 53t-64 80t-24.5 116.5q0 91 58 157t145 96.5t189 30.5q134 0 244 -54.5t147 -154.5l-164 -57q-19 59 -89 92t-153 33
q-84 0 -143.5 -34.5t-59.5 -98.5q0 -40 24.5 -69.5t65 -46t91.5 -33.5t105 -30.5t105 -37t91.5 -53t65 -80t24.5 -115.5q0 -148 -112.5 -231.5t-287.5 -86.5l-55 -67q117 20 163 -44q37 -50 8 -115q-32 -73 -122 -103q-45 -15 -98 -15q-83 0 -178 35l47 76q65 -29 117 -29
q73 0 105 42q24 33 2 57q-18 20 -60 20q-29 0 -62 -8q-30 -7 -44 14.5t5 44.5z" />
    <glyph glyph-name="Scaron" unicode="&#x160;" horiz-adv-x="1247" 
d="M74 301l186 51q24 -71 79 -120.5t121.5 -72t139.5 -22.5q128 0 220.5 65t92.5 175q0 54 -25 95t-67.5 67t-98 46.5t-116.5 38.5t-121.5 37.5t-116 48.5t-98 67.5t-67.5 99t-25 137.5q0 91 41 165t110 119.5t155 70t180 24.5q158 0 292.5 -66.5t192.5 -189.5l-188 -54
q-35 69 -121.5 108.5t-184.5 39.5q-72 0 -132.5 -21t-102.5 -66.5t-47 -109.5q-5 -67 33.5 -115t103.5 -76t145 -51.5t160.5 -52t147.5 -67t109 -107t42 -162.5q0 -80 -29.5 -149.5t-80.5 -120t-118.5 -86.5t-144.5 -54t-157 -18q-173 0 -314.5 83.5t-195.5 242.5zM672 1556
l-187 207h187l110 -125l166 125h199l-273 -207q-49 -38 -108 -38q-62 0 -94 38z" />
    <glyph glyph-name="scaron" unicode="&#x161;" horiz-adv-x="980" 
d="M436 -25q-158 0 -261.5 61.5t-154.5 194.5l177 60q16 -86 85.5 -131t159.5 -45t157 45t67 121q0 41 -24.5 71t-64 46.5t-90.5 33.5t-104 30t-104 36.5t-90.5 53t-64 80t-24.5 116.5q0 91 58 157t145 96.5t189 30.5q134 0 244 -54.5t147 -154.5l-164 -57q-19 59 -89 92
t-153 33q-84 0 -143.5 -34.5t-59.5 -98.5q0 -40 24.5 -69.5t65 -46t91.5 -33.5t105 -30.5t105 -37t91.5 -53t65 -80t24.5 -115.5q0 -151 -116 -234.5t-294 -83.5zM492 1204l-187 207h187l110 -125l166 125h199l-273 -207q-51 -39 -108 -39q-61 0 -94 39z" />
    <glyph glyph-name="uni0162" unicode="&#x162;" horiz-adv-x="1142" 
d="M346 0l254 1202h-450l34 166h1102l-35 -166h-454l-252 -1202h-199zM225 -514l-51 74q25 -3 55 2.5t61.5 19.5t56.5 44.5t34 72.5q9 40 -8 75t-54 52l123 59q49 -31 67.5 -78.5t8.5 -99.5q-18 -100 -101 -160.5t-192 -60.5z" />
    <glyph glyph-name="uni0163" unicode="&#x163;" horiz-adv-x="663" 
d="M489 156l-32 -154h-127q-105 0 -153.5 28t-52.5 85t15 143l133 621h-170l29 139h170l55 254h176l-55 -254h195l-29 -139h-194l-127 -590q-20 -72 -6.5 -102.5t83.5 -30.5h90zM-16 -514l-52 74q25 -3 55 2.5t61.5 19.5t56.5 44.5t34 72.5q9 40 -7.5 75t-51.5 52l121 59
q96 -61 75 -178q-18 -100 -100.5 -160.5t-191.5 -60.5z" />
    <glyph glyph-name="Tcaron" unicode="&#x164;" horiz-adv-x="1142" 
d="M600 1202h-450l34 166h1102l-35 -166h-454l-252 -1202h-199zM670 1542l-187 207h187l110 -125l166 125h199l-273 -207q-51 -39 -108 -39q-61 0 -94 39z" />
    <glyph glyph-name="tcaron" unicode="&#x165;" horiz-adv-x="659" 
d="M487 154l-32 -154h-127q-105 0 -153.5 28t-52.5 85t15 143l133 621h-170l29 139h170l55 254h176l-55 -254h195l-29 -139h-195l-127 -590q-20 -72 -6 -102.5t84 -30.5h90zM696 1116h-100q105 283 121 316q7 21 30.5 40t55.5 19q39 0 56 -28t-1 -72z" />
    <glyph glyph-name="Umacron" unicode="&#x16a;" 
d="M586 -25q-287 0 -394 143.5t-40 454.5l170 795h196l-172 -811q-45 -221 10.5 -318.5t239.5 -97.5q96 0 167 20t129.5 67t98.5 128t66 201l174 811h196l-170 -795q-24 -114 -60.5 -205.5t-77 -153.5t-94 -107t-102.5 -70t-111.5 -39.5t-112.5 -18.5t-113 -4zM1192 1561
h-565l30 137h566z" />
    <glyph glyph-name="umacron" unicode="&#x16b;" horiz-adv-x="1105" 
d="M354 -23q-76 0 -131 23.5t-85.5 64t-44 97.5t-11 119.5t17.5 134.5l127 600h176l-127 -596q-11 -53 -15.5 -92t-0.5 -79t20 -65t50 -41t86 -16q126 0 216 86.5t130 269.5l115 533h174l-215 -1016h-134l-12 143q-67 -88 -144 -127t-192 -39zM965 1231h-566l29 137h565z
" />
    <glyph glyph-name="Uring" unicode="&#x16e;" 
d="M586 -25q-287 0 -394 143.5t-40 454.5l170 795h196l-172 -811q-45 -221 10.5 -318.5t239.5 -97.5q96 0 167 20t129.5 67t98.5 128t66 201l174 811h196l-170 -795q-24 -114 -60.5 -205.5t-77 -153.5t-94 -107t-102.5 -70t-111.5 -39.5t-112.5 -18.5t-113 -4zM688 1591
q0 91 66 157.5t161 66.5q93 0 156.5 -66t63.5 -158t-63.5 -157.5t-156.5 -65.5q-95 0 -161 66t-66 157zM805 1591q0 -43 31 -73.5t75 -30.5t75.5 30.5t31.5 73.5t-31.5 74t-75.5 31t-75 -31t-31 -74z" />
    <glyph glyph-name="uring" unicode="&#x16f;" horiz-adv-x="1105" 
d="M354 -23q-76 0 -131 23.5t-85.5 64t-44 97.5t-11 119.5t17.5 134.5l127 600h176l-127 -596q-11 -53 -15.5 -92t-0.5 -79t20 -65t50 -41t86 -16q126 0 216 86.5t130 269.5l115 533h174l-215 -1016h-134l-12 143q-67 -88 -144 -127t-192 -39zM707 1145q-95 0 -161.5 66
t-66.5 157t66.5 157t161.5 66q93 0 156 -65.5t63 -157.5t-63 -157.5t-156 -65.5zM596 1368q0 -43 31 -73.5t75 -30.5t75.5 30.5t31.5 73.5t-31.5 74t-75.5 31t-75 -31t-31 -74z" />
    <glyph glyph-name="Uhungarumlaut" unicode="&#x170;" 
d="M586 -25q-287 0 -394 143.5t-40 454.5l170 795h196l-172 -811q-45 -221 10.5 -318.5t239.5 -97.5q96 0 167 20t129.5 67t98.5 128t66 201l174 811h196l-170 -795q-24 -114 -60.5 -205.5t-77 -153.5t-94 -107t-102.5 -70t-111.5 -39.5t-112.5 -18.5t-113 -4zM1128 1524
h-149q205 225 248 260q24 18 53 18q37 0 55 -24q21 -24 19.5 -57t-25.5 -54q-18 -16 -68.5 -52t-91.5 -63zM680 1524q209 223 248 260q24 18 53 18q36 0 57 -24q22 -25 19.5 -57t-25.5 -54q-18 -16 -68.5 -52t-91.5 -63l-41 -28h-151z" />
    <glyph glyph-name="uhungarumlaut" unicode="&#x171;" horiz-adv-x="1105" 
d="M354 -23q-76 0 -131 23.5t-85.5 64t-44 97.5t-11 119.5t17.5 134.5l127 600h176l-127 -596q-11 -53 -15.5 -92t-0.5 -79t20 -65t50 -41t86 -16q126 0 216 86.5t130 269.5l115 533h174l-215 -1016h-134l-12 143q-67 -88 -144 -127t-192 -39zM737 1171q205 226 248 261
q24 18 53 18q34 0 56 -25q21 -24 19 -56.5t-26 -53.5q-18 -16 -68 -52t-91 -64l-41 -28h-150zM438 1171q209 224 248 261q24 18 53 18q36 0 58 -25q21 -25 19.5 -56.5t-25.5 -53.5q-18 -16 -68.5 -52t-91.5 -64l-41 -28h-152z" />
    <glyph glyph-name="Uogonek" unicode="&#x172;" 
d="M520 -23q-249 15 -340 159t-28 437l170 795h196l-172 -811q-45 -221 10.5 -318.5t239.5 -97.5q96 0 167 20t129.5 67t98.5 128t66 201l174 811h196l-170 -795q-28 -138 -75 -242t-100 -167t-121.5 -104t-131 -57.5t-137.5 -22.5q-79 -35 -124.5 -77t-45.5 -85
q0 -25 23.5 -40.5t60.5 -15.5q38 0 90 19l-22 -111q-79 -24 -137 -24q-82 0 -127 38.5t-45 98.5q0 58 41 109t114 85z" />
    <glyph glyph-name="uogonek" unicode="&#x173;" horiz-adv-x="1105" 
d="M354 -23q-76 0 -131 23.5t-85.5 64t-44 97.5t-11 119.5t17.5 134.5l127 600h176l-127 -596q-11 -53 -15.5 -92t-0.5 -79t20 -65t50 -41t86 -16q126 0 216 86.5t130 269.5l115 533h174l-215 -1016q-101 -37 -161.5 -84t-60.5 -98q0 -25 23.5 -40.5t60.5 -15.5q38 0 90 19
l-22 -111q-80 -24 -137 -24q-82 0 -127 38.5t-45 98.5q0 45 22.5 83.5t61 66t77.5 45.5t84 32l-12 133q-67 -88 -144 -127t-192 -39z" />
    <glyph glyph-name="Ydieresis" unicode="&#x178;" horiz-adv-x="1224" 
d="M469 492l-285 876h197l213 -690l541 690h233l-702 -876l-105 -492h-199zM502 1626q0 44 32 76.5t78 32.5t78.5 -32.5t32.5 -76.5q0 -46 -32.5 -78t-78.5 -32t-78 32t-32 78zM1044 1516q-44 0 -76 32t-32 78q0 44 32 76.5t76 32.5q46 0 78.5 -32.5t32.5 -76.5
q0 -46 -32.5 -78t-78.5 -32z" />
    <glyph glyph-name="Zacute" unicode="&#x179;" horiz-adv-x="1255" 
d="M1036 0h-1073l35 166l1026 1036h-762l35 166h1014l-35 -166l-1024 -1036h821zM850 1524h-166q4 3 69 57t129 106t81 64q27 18 53 18q31 0 52.5 -21t21.5 -52q0 -44 -39 -70q-10 -7 -201 -102z" />
    <glyph glyph-name="zacute" unicode="&#x17a;" horiz-adv-x="956" 
d="M768 0h-813l31 150l741 718h-557l33 150h772l-33 -150l-735 -718h592zM672 1167h-152q207 223 248 258q22 19 51 19q35 0 60 -25q21 -25 19 -57t-26 -53q-18 -16 -68 -51.5t-91 -63.5z" />
    <glyph glyph-name="Zdotaccent" unicode="&#x17b;" horiz-adv-x="1255" 
d="M1036 0h-1073l35 166l1026 1036h-762l35 166h1014l-35 -166l-1024 -1036h821zM834 1520q-46 0 -78.5 32t-32.5 78t32.5 78.5t78.5 32.5t78 -32.5t32 -78.5t-32 -78t-78 -32z" />
    <glyph glyph-name="zdotaccent" unicode="&#x17c;" horiz-adv-x="956" 
d="M-45 0l31 150l741 718h-557l33 150h772l-33 -150l-735 -718h592l-31 -150h-813zM514 1319q0 46 32.5 78.5t78.5 32.5t78 -32.5t32 -78.5t-32 -78.5t-78 -32.5t-78.5 32.5t-32.5 78.5z" />
    <glyph glyph-name="Zcaron" unicode="&#x17d;" horiz-adv-x="1255" 
d="M1036 0h-1073l35 166l1026 1036h-762l35 166h1014l-35 -166l-1024 -1036h821zM526 1763h187l110 -125l166 125h199l-273 -207q-49 -38 -108 -38q-62 0 -94 38z" />
    <glyph glyph-name="zcaron" unicode="&#x17e;" horiz-adv-x="956" 
d="M768 0h-813l31 150l741 718h-557l33 150h772l-33 -150l-735 -718h592zM319 1411h187l110 -125l166 125h199l-272 -207q-51 -39 -109 -39q-61 0 -94 39z" />
    <glyph glyph-name="florin" unicode="&#x192;" horiz-adv-x="673" 
d="M-147 -338l32 154q50 -11 70 -11q60 0 88 36.5t43 109.5l197 926h-172l30 139h172l25 121q20 98 41.5 153.5t61 93t96 50t149.5 12.5h100l-32 -146h-82q-62 0 -100 -30t-54 -103l-33 -151h209l-28 -139h-207l-203 -955q-30 -145 -91 -210.5t-177 -65.5q-53 0 -135 16z
" />
    <glyph glyph-name="uni0218" unicode="&#x218;" horiz-adv-x="1247" 
d="M74 301l186 51q25 -75 85 -126t131.5 -71t149.5 -15.5t141.5 32t104.5 81.5t41 124q0 54 -25 95t-67.5 67t-98 46.5t-116.5 38.5t-121.5 37.5t-116 48.5t-98 67.5t-67.5 99t-25 137.5q0 111 60 195t152.5 127t207 54t221.5 -13t197.5 -86.5t132.5 -153.5l-188 -54
q-25 50 -78.5 85t-116.5 50.5t-131 12t-124.5 -25t-95 -66t-42.5 -105.5q-5 -67 33.5 -115t103.5 -76t145 -51.5t160.5 -52t147.5 -67t109 -107t42 -162.5q0 -120 -65.5 -214t-166.5 -145t-225 -64.5t-238.5 15t-209.5 107.5t-135 199zM274 -514l-51 74q25 -3 55 2.5
t61.5 19.5t56.5 44.5t34 72.5q9 40 -7.5 75t-53.5 52l123 59q96 -61 75 -178q-18 -100 -101 -160.5t-192 -60.5z" />
    <glyph glyph-name="uni0219" unicode="&#x219;" horiz-adv-x="980" 
d="M20 231l177 60q10 -51 41 -89.5t73 -57.5t90.5 -27t95 2t84.5 29.5t61.5 54.5t23.5 78q0 41 -24.5 71t-64 46.5t-90.5 33.5t-104 30t-104 36.5t-90.5 53t-64 80t-24.5 116.5q0 84 50.5 148t127.5 95.5t171 38t180.5 -13.5t156.5 -70.5t97 -122.5l-164 -57q-16 48 -67 80
t-114 40t-123 -0.5t-100.5 -42.5t-40.5 -85q0 -40 24.5 -69.5t65 -46t91.5 -33.5t105 -30.5t105 -37t91.5 -53t65 -80t24.5 -115.5q0 -151 -116 -234.5t-294 -83.5q-158 0 -261.5 61.5t-154.5 194.5zM143 -514l-53 74q37 -3 76.5 6t80 43.5t52.5 89.5q8 40 -8.5 75t-52.5 52
l120 59q96 -59 78 -178q-18 -100 -101 -160.5t-192 -60.5z" />
    <glyph glyph-name="uni021A" unicode="&#x21a;" horiz-adv-x="1142" 
d="M346 0l254 1202h-450l34 166h1102l-35 -166h-454l-252 -1202h-199zM221 -514l-51 74q25 -3 55 2.5t61.5 19.5t56.5 44.5t34 72.5q9 40 -8 75t-54 52l123 59q49 -31 67.5 -78.5t8.5 -99.5q-18 -100 -101 -160.5t-192 -60.5z" />
    <glyph glyph-name="uni021B" unicode="&#x21b;" horiz-adv-x="663" 
d="M487 154l-32 -154h-127q-105 0 -153.5 28t-52.5 85t15 143l133 621h-170l29 139h170l55 254h176l-55 -254h195l-29 -139h-195l-127 -590q-20 -72 -6 -102.5t84 -30.5h90zM-8 -514l-51 74q25 -2 54.5 3t61.5 19t56.5 44.5t33.5 72.5q9 40 -7.5 75t-53.5 52l123 59
q49 -31 67.5 -78.5t8.5 -99.5q-18 -100 -101 -160.5t-192 -60.5z" />
    <glyph glyph-name="circumflex" unicode="&#x2c6;" horiz-adv-x="878" 
d="M428 1178h-197l275 206q51 39 110 39q57 0 93 -39l184 -206h-188l-111 125z" />
    <glyph glyph-name="caron" unicode="&#x2c7;" horiz-adv-x="878" 
d="M279 1397h186l110 -125l166 125h199l-272 -207q-51 -39 -109 -39q-61 0 -94 39z" />
    <glyph glyph-name="uni02C9" unicode="&#x2c9;" horiz-adv-x="782" 
d="M240 1217l28 137h566l-29 -137h-565z" />
    <glyph glyph-name="breve" unicode="&#x2d8;" horiz-adv-x="819" 
d="M739 1397h142q-42 -103 -129 -174.5t-209 -71.5t-193 76t-71 170h141q9 -46 42.5 -77.5t94.5 -31.5q113 0 182 109z" />
    <glyph glyph-name="dotaccent" unicode="&#x2d9;" horiz-adv-x="442" 
d="M262 1305q0 46 32.5 78t78.5 32t78 -32t32 -78t-32 -78.5t-78 -32.5t-78.5 32.5t-32.5 78.5z" />
    <glyph glyph-name="ring" unicode="&#x2da;" horiz-adv-x="673" 
d="M502 1130q-95 0 -161.5 66.5t-66.5 157.5t66.5 157t161.5 66q93 0 156 -65.5t63 -157.5t-63 -158t-156 -66zM391 1354q0 -43 31.5 -74t75.5 -31t75 31t31 74t-31 73.5t-75 30.5t-75.5 -30.5t-31.5 -73.5z" />
    <glyph glyph-name="ogonek" unicode="&#x2db;" horiz-adv-x="552" 
d="M248 -330q-79 -24 -137 -24q-82 0 -127 38.5t-45 98.5q0 69 59.5 128.5t157.5 88.5h161q-101 -37 -161 -84t-60 -98q0 -25 23.5 -40.5t60.5 -15.5q38 0 90 19z" />
    <glyph glyph-name="tilde" unicode="&#x2dc;" horiz-adv-x="860" 
d="M317 1182h-133q40 105 108.5 158t153.5 53q58 0 105.5 -21.5t85.5 -43t72 -21.5q9 0 18 1.5t15.5 3.5t14.5 7t12.5 7.5t12.5 9.5t10.5 9.5l10.5 10.5l10 10q27 27 55 27q36 0 54.5 -32.5t-2.5 -66.5q-74 -116 -211 -116q-51 0 -95 21.5t-85 43t-85 21.5q-90 0 -127 -82z
" />
    <glyph glyph-name="hungarumlaut" unicode="&#x2dd;" horiz-adv-x="806" 
d="M510 1171q205 226 248 261q24 18 53 18q33 0 55 -25q21 -24 19.5 -56.5t-25.5 -53.5q-18 -16 -68.5 -52t-91.5 -64l-41 -28h-149zM211 1171q209 224 248 261q24 18 53 18q35 0 57 -25q21 -25 19.5 -56.5t-25.5 -53.5q-18 -16 -68.5 -52t-91.5 -64l-41 -28h-151z" />
    <glyph glyph-name="uni0326" unicode="&#x326;" horiz-adv-x="573" 
d="M-49 -514l-51 74q25 -2 54.5 3t61.5 19t56.5 44.5t33.5 72.5q9 40 -7.5 75t-53.5 52l123 59q49 -31 67.5 -78.5t8.5 -99.5q-18 -100 -101 -160.5t-192 -60.5z" />
    <glyph glyph-name="uni0394" unicode="&#x394;" horiz-adv-x="1554" 
d="M-18 0l667 1393l670 -1393h-1337zM238 160h823l-412 860z" />
    <glyph glyph-name="uni03A9" unicode="&#x3a9;" horiz-adv-x="1589" 
d="M467 266q-140 78 -224.5 217.5t-84.5 304.5q0 123 47.5 235t127.5 193t191.5 129t233.5 48q123 0 234.5 -48t192 -129t128 -193t47.5 -235q0 -165 -84.5 -304.5t-224.5 -217.5v-100h309v-166h-483v354q146 39 239.5 159.5t93.5 274.5q0 188 -132.5 320.5t-319.5 132.5
q-186 0 -318.5 -133t-132.5 -320q0 -154 94 -274.5t240 -159.5v-354h-483v166h309v100z" />
    <glyph glyph-name="uni03BC" unicode="&#x3bc;" horiz-adv-x="1114" 
d="M-53 -332l286 1346h181l-131 -613q-26 -131 -1 -195t107 -81q46 -8 70 -8q234 0 311 364l113 533h176l-217 -1014h-133l-11 139q-61 -84 -127 -124t-172 -40q-58 0 -108.5 29.5t-75.5 85.5l-88 -422h-180z" />
    <glyph glyph-name="pi" unicode="&#x3c0;" horiz-adv-x="1210" 
d="M254 0h-170l180 852h-170l35 164h1088l-37 -164h-172l-119 -565l-3 -15q-8 -41 -9.5 -67t19 -38.5t71.5 -12.5h65l-33 -154h-104q-100 0 -147 26.5t-53.5 83.5t12.5 146l124 596h-397z" />
    <glyph glyph-name="endash" unicode="&#x2013;" horiz-adv-x="1017" 
d="M82 426v162h815v-162h-815z" />
    <glyph glyph-name="emdash" unicode="&#x2014;" horiz-adv-x="1673" 
d="M82 426v162h1470v-162h-1470z" />
    <glyph glyph-name="quoteleft" unicode="&#x2018;" horiz-adv-x="487" 
d="M303 858q-67 11 -95.5 75t7.5 126l186 309h125l-155 -256q46 -18 70.5 -58t15.5 -89q-9 -54 -54 -85.5t-100 -21.5z" />
    <glyph glyph-name="quoteright" unicode="&#x2019;" horiz-adv-x="487" 
d="M311 879h-125l154 258q-45 15 -69 56.5t-17 90.5q10 54 55 85t99 22q44 -8 74.5 -41t34.5 -75t-21 -85z" />
    <glyph glyph-name="quotesinglbase" unicode="&#x201a;" horiz-adv-x="489" 
d="M68 -272h-125l153 256q-45 17 -69 58.5t-17 88.5q11 54 55.5 86t98.5 23q68 -12 97.5 -76.5t-9.5 -126.5z" />
    <glyph glyph-name="quotedblleft" unicode="&#x201c;" horiz-adv-x="808" 
d="M303 858q-67 11 -95.5 75t7.5 126l186 309h125l-155 -256q46 -18 70.5 -58t15.5 -89q-9 -54 -54 -85.5t-100 -21.5zM625 858q-68 11 -97.5 75t9.5 126l184 309h123l-152 -256q45 -17 69 -58.5t17 -88.5q-11 -54 -55 -85.5t-98 -21.5z" />
    <glyph glyph-name="quotedblright" unicode="&#x201d;" horiz-adv-x="806" 
d="M311 879h-125l154 258q-45 15 -69 56.5t-17 90.5q10 54 55 85t99 22q44 -8 74.5 -41t34.5 -75t-21 -85zM506 879l153 258q-44 15 -67.5 56.5t-16.5 90.5q9 54 53.5 85.5t98.5 21.5q67 -12 96 -75.5t-8 -125.5l-184 -311h-125z" />
    <glyph glyph-name="quotedblbase" unicode="&#x201e;" horiz-adv-x="806" 
d="M68 -272h-125l153 256q-45 17 -69 58.5t-17 88.5q11 54 55.5 86t98.5 23q68 -12 97.5 -76.5t-9.5 -126.5zM262 -272l154 256q-44 17 -67.5 58.5t-16.5 88.5q9 55 53 87t98 22q67 -12 96 -76.5t-8 -126.5l-184 -309h-125z" />
    <glyph glyph-name="dagger" unicode="&#x2020;" horiz-adv-x="1107" 
d="M526 854h-389l35 162h389l76 352h164l-74 -352h387l-35 -162h-387l-180 -854h-168z" />
    <glyph glyph-name="daggerdbl" unicode="&#x2021;" horiz-adv-x="1107" 
d="M31 354l35 162h389l71 338h-389l35 162h389l76 352h164l-76 -352h389l-35 -162h-389l-69 -338h387l-35 -162h-387l-74 -354h-168l76 354h-389z" />
    <glyph glyph-name="bullet" unicode="&#x2022;" horiz-adv-x="913" 
d="M100 520q0 141 99.5 240.5t240.5 99.5t240.5 -99.5t99.5 -240.5q0 -140 -99.5 -240t-240.5 -100t-240.5 100t-99.5 240z" />
    <glyph glyph-name="ellipsis" unicode="&#x2026;" horiz-adv-x="1431" 
d="M481 106q0 56 38 95t93 39t94 -39t39 -95q0 -54 -39 -92.5t-94 -38.5t-93 38.5t-38 92.5zM952 106q0 56 39 95t94 39q54 0 93 -39.5t39 -94.5q0 -54 -39 -92.5t-93 -38.5q-55 0 -94 38.5t-39 92.5zM139 -25q-54 0 -92.5 38.5t-38.5 92.5q0 55 38.5 94.5t92.5 39.5
q55 0 94 -39t39 -95q0 -54 -39 -92.5t-94 -38.5z" />
    <glyph glyph-name="perthousand" unicode="&#x2030;" horiz-adv-x="2881" 
d="M549 647q-155 0 -264 109.5t-109 263.5t109 263.5t264 109.5q154 0 262.5 -109.5t108.5 -263.5t-108.5 -263.5t-262.5 -109.5zM1176 346q0 155 108.5 264t263.5 109q154 0 262.5 -109t108.5 -264q0 -154 -108.5 -262.5t-262.5 -108.5q-155 0 -263.5 108.5t-108.5 262.5z
M1997 346q0 155 109 264t264 109q154 0 262 -109t108 -264q0 -154 -108 -262.5t-262 -108.5q-155 0 -264 108.5t-109 262.5zM659 0h-180l959 1368h180zM2370 567q-92 0 -157 -64.5t-65 -156.5q0 -91 65 -155t157 -64q91 0 155 64t64 155q0 92 -64 156.5t-155 64.5zM1548 567
q-92 0 -156.5 -64.5t-64.5 -156.5q0 -91 64.5 -155t156.5 -64q91 0 155 64t64 155q0 92 -64 156.5t-155 64.5zM549 1239q-91 0 -156 -64t-65 -155t65 -155t156 -64t155 64t64 155t-64 155t-155 64z" />
    <glyph glyph-name="guilsinglleft" unicode="&#x2039;" horiz-adv-x="727" 
d="M303 82l-211 430l352 432h213l-370 -452l198 -410h-182z" />
    <glyph glyph-name="guilsinglright" unicode="&#x203a;" horiz-adv-x="710" 
d="M18 82l371 453l-199 409h183l211 -430l-353 -432h-213z" />
    <glyph glyph-name="fraction" unicode="&#x2044;" horiz-adv-x="909" 
d="M-96 0l958 1368h180l-958 -1368h-180z" />
    <glyph glyph-name="Euro" unicode="&#x20ac;" horiz-adv-x="1435" 
d="M8 492l80 104h150q6 86 26 174h-196l79 104h148q82 237 254.5 377t404.5 140q173 0 291.5 -78t163.5 -232l-174 -59q-32 100 -111 153.5t-190 53.5q-147 0 -263.5 -94t-183.5 -261h484l-80 -104h-438q-24 -94 -29 -174h334l-78 -104h-254q17 -162 108 -258.5t234 -96.5
q125 0 212.5 49.5t158.5 159.5l153 -61q-92 -153 -232 -231.5t-315 -78.5q-102 0 -185.5 28t-140.5 76.5t-97 115t-60 140.5t-24 157h-230z" />
    <glyph glyph-name="uni2113" unicode="&#x2113;" horiz-adv-x="923" 
d="M201 385l-160 -102l39 182l160 104l100 467q19 89 44 151t64 110t95.5 71t134.5 23q116 0 182 -69.5t53 -201.5q-9 -92 -47.5 -174t-108 -156t-152 -138t-199.5 -138l-44 -205q-22 -105 5.5 -144.5t93.5 -39.5q91 0 196 80l50 -119q-58 -48 -138 -79.5t-161 -31.5
q-156 0 -209 81t-13 263zM446 702q235 144 297 396q37 149 -75 149q-59 0 -91 -40.5t-55 -147.5z" />
    <glyph glyph-name="trademark" unicode="&#x2122;" horiz-adv-x="1900" 
d="M969 1368h221l190 -582l191 582h221v-770h-137v571l-201 -571h-147l-201 571v-571h-137v770zM272 1245v123h621v-123h-242v-647h-137v647h-242z" />
    <glyph glyph-name="estimated" unicode="&#x212e;" horiz-adv-x="1286" 
d="M631 -25q-76 0 -151 22t-143.5 67.5t-120.5 109.5t-83 154.5t-31 195.5q0 91 39 181.5t106.5 163t168.5 118t215 45.5q107 0 204.5 -41.5t168 -112t112.5 -167t43 -203.5h-840v-348q132 -119 312 -119q102 0 193 42t155 116l68 -21q-74 -94 -182.5 -148.5t-233.5 -54.5z
M631 967q-181 0 -312 -121v-275h623v275q-131 121 -311 121z" />
    <glyph glyph-name="partialdiff" unicode="&#x2202;" horiz-adv-x="1218" 
d="M104 504q0 107 28 196t75.5 149.5t111 102.5t132 61t141.5 19t149 -27t121 -83q-30 95 -84.5 158t-133.5 94.5t-162.5 42t-194.5 8.5v168h4q60 0 94.5 -1t105 -8.5t117.5 -21t114.5 -42t112.5 -68.5t95.5 -103.5t80.5 -143.5t50 -192t20 -246q0 -98 -16.5 -183.5
t-53.5 -161.5t-92.5 -130t-139 -85.5t-187.5 -31.5q-73 0 -141.5 19t-132 61t-111 103t-75.5 150t-28 196zM592 881q-57 0 -110 -22.5t-97.5 -67t-71 -119t-26.5 -168.5q0 -95 26.5 -170t71 -119t97.5 -67t110 -23t109.5 22.5t96.5 67t70.5 119.5t26.5 170q0 94 -26.5 168.5
t-70.5 119t-96.5 67t-109.5 22.5z" />
    <glyph glyph-name="product" unicode="&#x220f;" horiz-adv-x="1558" 
d="M272 1368h981v-1698h-168v1532h-647v-1532h-166v1698z" />
    <glyph glyph-name="summation" unicode="&#x2211;" horiz-adv-x="1562" 
d="M252 1368h985v-166h-778l502 -682l-502 -684h778v-166h-985v166l504 684l-504 682v166z" />
    <glyph glyph-name="minus" unicode="&#x2212;" horiz-adv-x="1267" 
d="M86 428v162h1016v-162h-1016z" />
    <glyph glyph-name="uni2215" unicode="&#x2215;" horiz-adv-x="909" 
d="M-96 0l958 1368h180l-958 -1368h-180z" />
    <glyph glyph-name="uni2219" unicode="&#x2219;" horiz-adv-x="485" 
d="M94 522q0 56 39 94.5t94 38.5q53 0 92 -38.5t39 -92.5t-38.5 -93.5t-92.5 -39.5q-59 0 -96 39.5t-37 91.5z" />
    <glyph glyph-name="radical" unicode="&#x221a;" horiz-adv-x="1050" 
d="M543 -330l-246 627h-217v164h332l211 -537l251 1446h181l-310 -1700h-202z" />
    <glyph glyph-name="infinity" unicode="&#x221e;" horiz-adv-x="1597" 
d="M100 524q0 134 94.5 220.5t245.5 86.5q177 0 344 -182q163 182 342 182q151 0 245.5 -86.5t94.5 -220.5q0 -137 -90.5 -224t-236.5 -87q-104 0 -189 52t-166 141q-83 -90 -167.5 -141.5t-188.5 -51.5q-146 0 -237 87t-91 224zM266 524q0 -65 48.5 -110t121.5 -45
q67 0 123.5 35t126.5 120q-63 75 -119 113.5t-125 38.5q-76 0 -126 -42t-50 -110zM883 524q70 -86 125.5 -120.5t121.5 -34.5q73 0 121.5 45t48.5 110q0 68 -50 110t-126 42q-68 0 -122.5 -38t-118.5 -114z" />
    <glyph glyph-name="integral" unicode="&#x222b;" horiz-adv-x="626" 
d="M-63 -227q0 42 30 72t72 30q43 0 71.5 -31t28.5 -73q0 -21 -4 -31q3 0 8 0.5t18.5 10t23.5 27.5t18 59.5t8 99.5v1013q0 445 272 445q76 0 125 -30t49 -97q0 -43 -29.5 -73t-72.5 -30t-72.5 31t-29.5 72q0 17 6 32q-3 0 -8 -0.5t-18.5 -9.5t-23.5 -27.5t-18 -60
t-8 -100.5v-1012q0 -444 -272 -444q-76 0 -125 30t-49 97z" />
    <glyph glyph-name="approxequal" unicode="&#x2248;" horiz-adv-x="1239" 
d="M117 633q25 96 99.5 152.5t184.5 56.5q57 0 120.5 -17.5t108.5 -39t95.5 -39t85.5 -17.5q47 0 82 27.5t45 77.5l152 -46q-24 -95 -98 -151.5t-181 -56.5q-62 0 -138.5 27.5t-148.5 55t-123 27.5q-52 0 -87 -26t-44 -76zM117 252q24 96 98 152.5t182 56.5
q73 0 152.5 -28.5t147.5 -56.5t112 -28q49 0 84 27t45 78l152 -45q-24 -95 -98 -152t-181 -57q-62 0 -138.5 27.5t-148.5 55t-123 27.5q-52 0 -87 -26t-44 -76z" />
    <glyph glyph-name="notequal" unicode="&#x2260;" horiz-adv-x="1347" 
d="M639 629h-489v164h604l157 223h203l-156 -223h207v-164h-321l-154 -219h475v-162h-587l-175 -248h-204l174 248h-223v162h337z" />
    <glyph glyph-name="lessequal" unicode="&#x2264;" horiz-adv-x="1333" 
d="M129 690l969 344v-186l-754 -230l754 -229v-184l-969 342v143zM1098 0h-969v164h969v-164z" />
    <glyph glyph-name="greaterequal" unicode="&#x2265;" horiz-adv-x="1404" 
d="M954 618l-753 230v186l968 -344v-143l-968 -342v184zM201 0v164h968v-164h-968z" />
    <glyph glyph-name="lozenge" unicode="&#x25ca;" horiz-adv-x="1148" 
d="M586 -150l-467 795l467 795l465 -795zM586 156l286 489l-286 490l-289 -490z" />
    <glyph glyph-name="NULL" horiz-adv-x="0" 
 />
    <glyph glyph-name="grave.case" horiz-adv-x="569" 
d="M508 1524q-103 76 -133.5 106t-30.5 66q0 25 18.5 49t55.5 24q42 1 67 -34l172 -211h-149z" />
    <glyph glyph-name="acute.case" horiz-adv-x="587" 
d="M471 1524h-166q4 3 69 57t129 106t81 64q27 18 53 18q31 0 52.5 -21t21.5 -52q0 -44 -39 -70q-10 -7 -201 -102z" />
    <glyph glyph-name="circumflex.case" horiz-adv-x="878" 
d="M307 1530l273 207q51 39 110 39t92 -39l187 -207h-189l-112 125l-164 -125h-197z" />
    <glyph glyph-name="dieresis.case" horiz-adv-x="874" 
d="M330 1626q0 44 32 76.5t78 32.5t78.5 -32.5t32.5 -76.5q0 -46 -32.5 -78t-78.5 -32t-78 32t-32 78zM764 1626q0 44 32 76.5t76 32.5q46 0 78.5 -32.5t32.5 -76.5q0 -46 -32.5 -78t-78.5 -32q-44 0 -76 32t-32 78z" />
    <glyph glyph-name="caron.case" horiz-adv-x="878" 
d="M354 1749h187l110 -125l166 125h199l-273 -207q-51 -39 -108 -39q-61 0 -94 39z" />
    <glyph glyph-name="ring.case" horiz-adv-x="673" 
d="M528 1255q-94 0 -160.5 66.5t-66.5 157.5t66 157t161 66q93 0 156.5 -65.5t63.5 -157.5t-63.5 -158t-156.5 -66zM418 1479q0 -43 31 -74t75 -31t75.5 31t31.5 74t-31.5 73.5t-75.5 30.5t-75 -30.5t-31 -73.5z" />
    <glyph glyph-name="macron.case" horiz-adv-x="778" 
d="M311 1561l31 137h565l-30 -137h-566z" />
    <glyph glyph-name="breve.case" horiz-adv-x="819" 
d="M815 1749h141q-42 -103 -129 -174.5t-209 -71.5t-193 76t-71 170h142q9 -46 42.5 -77.5t94.5 -31.5q113 0 182 109z" />
    <glyph glyph-name="dotaccent.case" horiz-adv-x="442" 
d="M336 1657q0 46 32 78t78 32t78.5 -32t32.5 -78t-32.5 -78.5t-78.5 -32.5t-78 32.5t-32 78.5z" />
    <glyph glyph-name="tilde.case" horiz-adv-x="933" 
d="M440 1534h-133q40 105 108.5 158t153.5 53q58 0 105.5 -21.5t85 -43t71.5 -21.5q8 0 16 1t15 3.5t12.5 4.5t12.5 7t10.5 7t10.5 8.5t9.5 8.5t10 10t8.5 9q27 27 55 27q36 0 54 -32t-3 -66q-74 -117 -211 -117q-51 0 -94.5 21.5t-84.5 43t-85 21.5q-90 0 -127 -82z" />
    <glyph glyph-name="hungarumlaut.case" horiz-adv-x="849" 
d="M604 1524q205 225 248 260q24 18 53 18q38 0 56 -24q21 -24 19 -57t-26 -54q-18 -16 -68 -52t-91 -63l-41 -28h-150zM305 1524q209 223 248 260q24 18 53 18q37 0 58 -24q21 -25 19 -57t-26 -54q-18 -16 -68 -52t-91 -63l-41 -28h-152z" />
    <glyph glyph-name="zero.tf" horiz-adv-x="1308" 
d="M592 -25q-262 0 -379 183.5t-74 525.5t204 525.5t423 183.5q263 0 380.5 -183.5t74.5 -525.5q-43 -343 -204.5 -526t-424.5 -183zM326 684q-8 -85 -10.5 -165.5t15 -151.5t49 -124t90.5 -83.5t140 -30.5q127 0 217 72l-403 829q-74 -132 -98 -346zM748 1239
q-118 0 -203 -63l399 -824q66 136 90 332q7 53 9.5 102.5t-0.5 106.5t-13 105t-32 93.5t-54.5 77.5t-82.5 51t-113 19z" />
    <glyph glyph-name="one.tf" horiz-adv-x="1308" 
d="M76 16l33 158h366l184 877h-364l31 137q140 0 235 25.5t145 67t80 105.5h119l-256 -1212h324l-33 -158h-864z" />
    <glyph glyph-name="two.tf" horiz-adv-x="1308" 
d="M35 0l33 156q436 244 661.5 432.5t265.5 363.5q16 72 3.5 127.5t-47 93t-81.5 57t-100 19.5q-69 0 -129 -19.5t-119 -72.5t-94 -137l-160 49q146 324 508 324q97 0 179 -27.5t142 -80.5t84.5 -141t2.5 -200q-17 -87 -73 -175.5t-132.5 -164.5t-186 -157.5t-214.5 -147.5
t-238 -141h713l-33 -158h-985z" />
    <glyph glyph-name="three.tf" horiz-adv-x="1308" 
d="M152 324l176 47q15 -116 90.5 -184t202.5 -68q131 0 224 73.5t93 190.5q0 53 -15 94.5t-37.5 68.5t-59.5 46.5t-69.5 29.5t-79.5 15.5t-78 6.5t-75 1l33 154q62 0 107 2.5t99.5 10t92.5 23t71.5 39.5t51.5 62.5t20 89.5q4 106 -71.5 164.5t-190.5 58.5q-231 0 -305 -229
l-160 51q44 147 168.5 234.5t307.5 87.5q65 0 126 -10.5t119 -35t100.5 -61.5t68.5 -93.5t26 -127.5q0 -133 -74 -222.5t-203 -131.5q209 -70 209 -305q0 -83 -32 -159t-92.5 -137.5t-159 -98t-220.5 -36.5q-199 0 -317.5 96t-146.5 253z" />
    <glyph glyph-name="four.tf" horiz-adv-x="1308" 
d="M49 338l35 162l877 868h178l-185 -868h254l-34 -162h-254l-72 -338h-178l73 338h-694zM911 1130l-637 -630h502z" />
    <glyph glyph-name="five.tf" horiz-adv-x="1308" 
d="M117 315l170 47q61 -229 274 -239q148 -4 239.5 85t102.5 243q10 155 -58 235t-196 86q-103 6 -180 -36.5t-115 -110.5l-159 49l231 694h788l-36 -166h-643l-129 -383q112 103 276 103q86 0 163.5 -32.5t137 -92t88.5 -153.5t16 -208q-14 -122 -66 -215.5t-127 -147
t-162 -78.5t-179 -20q-181 9 -290.5 100.5t-145.5 239.5z" />
    <glyph glyph-name="six.tf" horiz-adv-x="1308" 
d="M618 -25q-255 0 -365.5 176t-72.5 486q14 120 46 229t85 206t122.5 167.5t165 112t206.5 41.5q147 0 241 -60.5t130 -158.5l-181 -52q-49 127 -209 127q-154 0 -259.5 -135.5t-147.5 -374.5q53 79 144 125.5t208 46.5q191 0 305 -129.5t99 -332.5q-7 -98 -44.5 -183
t-101.5 -150.5t-159.5 -103t-211.5 -37.5zM354 465q-15 -144 61.5 -245t209.5 -101q134 0 224 89.5t101 231.5t-63 230t-209 88q-133 0 -221.5 -80.5t-102.5 -212.5z" />
    <glyph glyph-name="seven.tf" horiz-adv-x="1308" 
d="M215 0l848 1202h-752l37 166h965l-35 -166l-842 -1202h-221z" />
    <glyph glyph-name="eight.tf" horiz-adv-x="1308" 
d="M569 -25q-145 0 -254 47t-166.5 141t-44.5 222q13 130 91 223.5t200 139.5q-50 51 -72.5 122t-15.5 150q15 154 135.5 263.5t274.5 109.5q153 0 250 -109.5t82 -263.5q-7 -78 -46 -149t-100 -123q112 -46 170 -139.5t43 -223.5q-20 -191 -173 -300.5t-374 -109.5z
M291 385q-12 -120 67.5 -188t227.5 -68q146 0 240 68.5t106 187.5q12 121 -67.5 192.5t-227.5 71.5q-145 0 -239.5 -71.5t-106.5 -192.5zM459 1020q-9 -91 47.5 -155t146.5 -64q91 0 163 64.5t81 154.5q9 92 -49 155.5t-150 63.5q-90 0 -160 -63.5t-79 -155.5z" />
    <glyph glyph-name="nine.tf" horiz-adv-x="1308" 
d="M729 432q-107 -11 -197 13t-150.5 74.5t-99 122t-48 153t9.5 170t67 170.5q72 123 200.5 190.5t266.5 67.5q121 0 215 -52q75 -40 129.5 -110t80 -156t8.5 -189t-81 -200q-71 -108 -206 -279.5t-234 -288.5l-100 -118h-238zM412 901q-14 -131 64 -221t206 -90
q130 0 229.5 89.5t124.5 233.5q9 52 -4 106t-45 100.5t-93 75t-140 26.5q-130 -3 -228.5 -92t-113.5 -228z" />
    <glyph glyph-name="ogonek.case" horiz-adv-x="544" 
d="M242 -330q-80 -24 -138 -24q-82 0 -127 38.5t-45 98.5q0 69 60 128.5t158 88.5h161q-101 -37 -161 -84t-60 -98q0 -25 23.5 -40.5t60.5 -15.5q38 0 90 19z" />
    <glyph glyph-name="caron.salt" horiz-adv-x="421" 
d="M297 1014h-100q106 287 120 315q7 21 30.5 40.5t55.5 19.5q39 0 56.5 -28.5t-0.5 -72.5z" />
    </font>
</defs>
</svg>
