<?xml version="1.0" standalone="no"?>
<!DOCTYPE svg PUBLIC "-//W3C//DTD SVG 1.1//EN" "http://www.w3.org/Graphics/SVG/1.1/DTD/svg11.dtd" >
<svg xmlns="http://www.w3.org/2000/svg" xmlns:xlink="http://www.w3.org/1999/xlink" version="1.1">
<metadata>
Created by FontForge 20170731 at Tue May  4 21:39:39 2021
 By Aleksey,,,
(c) 2020 Braille Institute of America, Inc., a 501(c)(3) Charitable Organization.
</metadata>
<defs>
<font id="AtkinsonHyperlegible-Bold" horiz-adv-x="1173" >
  <font-face 
    font-family="Atkinson Hyperlegible"
    font-weight="700"
    font-stretch="normal"
    units-per-em="2048"
    panose-1="0 0 0 0 0 0 0 0 0 0"
    ascent="1638"
    descent="-410"
    x-height="1016"
    cap-height="1368"
    bbox="-143 -516 2865 1866"
    underline-thickness="116"
    underline-position="-335"
    unicode-range="U+000D-25CA"
  />
<missing-glyph horiz-adv-x="1079" 
d="M102 0v1434h875v-1434h-875zM162 43h758l-379 631zM145 100l369 617l-369 614v-1231zM936 96v1239l-371 -618zM539 760l381 633h-760z" />
    <glyph glyph-name=".notdef" horiz-adv-x="1079" 
d="M102 0v1434h875v-1434h-875zM162 43h758l-379 631zM145 100l369 617l-369 614v-1231zM936 96v1239l-371 -618zM539 760l381 633h-760z" />
    <glyph glyph-name=".null" horiz-adv-x="0" 
 />
    <glyph glyph-name="uni000D" unicode="&#xd;" horiz-adv-x="0" 
 />
    <glyph glyph-name="space" unicode=" " horiz-adv-x="655" 
 />
    <glyph glyph-name="exclam" unicode="!" horiz-adv-x="579" 
d="M90 1014v354h397v-354l-86 -516h-227zM291 -25q-83 0 -142 59t-59 142t59 141t142 58q82 0 140 -58t58 -141t-58 -142t-140 -59z" />
    <glyph glyph-name="exclam" unicode="&#xe90f;" horiz-adv-x="579" 
d="M90 1014v354h397v-354l-86 -516h-227zM291 -25q-83 0 -142 59t-59 142t59 141t142 58q82 0 140 -58t58 -141t-58 -142t-140 -59z" />
    <glyph glyph-name="quotedbl" unicode="&#x22;" horiz-adv-x="839" 
d="M82 1368h291l-29 -479h-233zM467 1368h291l-29 -479h-231z" />
    <glyph glyph-name="quotedbl" unicode="&#xe911;" horiz-adv-x="839" 
d="M82 1368h291l-29 -479h-233zM467 1368h291l-29 -479h-231z" />
    <glyph glyph-name="numbersign" unicode="#" horiz-adv-x="1603" 
d="M311 260h-262l41 285h262l41 276h-262l41 287h262l39 260h287l-39 -260h280l39 260h289l-39 -260h264l-43 -285h-262l-39 -276h263l-41 -287h-265l-37 -260h-288l37 260h-279l-37 -260h-289zM641 547h281l39 274h-281z" />
    <glyph glyph-name="numbersign" unicode="&#xe913;" horiz-adv-x="1603" 
d="M311 260h-262l41 285h262l41 276h-262l41 287h262l39 260h287l-39 -260h280l39 260h289l-39 -260h264l-43 -285h-262l-39 -276h263l-41 -287h-265l-37 -260h-288l37 260h-279l-37 -260h-289zM641 547h281l39 274h-281z" />
    <glyph glyph-name="dollar" unicode="$" horiz-adv-x="1267" 
d="M557 -20q-190 17 -319.5 105t-186.5 237l295 106q43 -151 211 -182v321l-84 19q-89 20 -159 48.5t-130.5 73t-93.5 111.5t-33 152q0 95 42.5 172.5t115 127.5t159 79.5t183.5 38.5v141h150v-141q158 -13 279 -85.5t175 -207.5l-293 -107q-41 102 -161 133v-293l22 -4
q55 -10 97.5 -20t96 -27t93.5 -37t80.5 -50.5t66.5 -67t42 -86.5t16 -109q0 -78 -28.5 -147t-77 -120.5t-114 -91t-140 -62t-154.5 -30.5v-155h-150v158zM707 240q78 8 130 44t52 103q0 53 -46.5 88t-135.5 60v-295zM389 1001q0 -52 42.5 -89.5t113.5 -49.5l12 -2v270
q-76 -9 -122 -43t-46 -86z" />
    <glyph glyph-name="dollar" unicode="&#xe914;" horiz-adv-x="1267" 
d="M557 -20q-190 17 -319.5 105t-186.5 237l295 106q43 -151 211 -182v321l-84 19q-89 20 -159 48.5t-130.5 73t-93.5 111.5t-33 152q0 95 42.5 172.5t115 127.5t159 79.5t183.5 38.5v141h150v-141q158 -13 279 -85.5t175 -207.5l-293 -107q-41 102 -161 133v-293l22 -4
q55 -10 97.5 -20t96 -27t93.5 -37t80.5 -50.5t66.5 -67t42 -86.5t16 -109q0 -78 -28.5 -147t-77 -120.5t-114 -91t-140 -62t-154.5 -30.5v-155h-150v158zM707 240q78 8 130 44t52 103q0 53 -46.5 88t-135.5 60v-295zM389 1001q0 -52 42.5 -89.5t113.5 -49.5l12 -2v270
q-76 -9 -122 -43t-46 -86z" />
    <glyph glyph-name="percent" unicode="%" horiz-adv-x="2000" 
d="M1548 -25q-167 0 -285 119t-118 287q0 167 118 284t285 117q168 0 286 -117t118 -284t-118.5 -286.5t-285.5 -119.5zM453 586q-168 0 -286 117t-118 284t118.5 286.5t285.5 119.5q166 0 284.5 -119.5t118.5 -286.5t-118.5 -284t-284.5 -117zM651 0h-258l957 1368h260z
M1548 541q-66 0 -114 -47t-48 -113q0 -67 48 -114.5t114 -47.5t114 47.5t48 114.5q0 66 -48 113t-114 47zM293 987q0 -66 47 -113t113 -47q67 0 114 47t47 113q0 68 -47 115t-114 47q-66 0 -113 -47.5t-47 -114.5z" />
    <glyph glyph-name="percent" unicode="&#xe915;" horiz-adv-x="2000" 
d="M1548 -25q-167 0 -285 119t-118 287q0 167 118 284t285 117q168 0 286 -117t118 -284t-118.5 -286.5t-285.5 -119.5zM453 586q-168 0 -286 117t-118 284t118.5 286.5t285.5 119.5q166 0 284.5 -119.5t118.5 -286.5t-118.5 -284t-284.5 -117zM651 0h-258l957 1368h260z
M1548 541q-66 0 -114 -47t-48 -113q0 -67 48 -114.5t114 -47.5t114 47.5t48 114.5q0 66 -48 113t-114 47zM293 987q0 -66 47 -113t113 -47q67 0 114 47t47 113q0 68 -47 115t-114 47q-66 0 -113 -47.5t-47 -114.5z" />
    <glyph glyph-name="ampersand" unicode="&#x26;" horiz-adv-x="1437" 
d="M49 391q0 117 80.5 222.5t243.5 174.5q-125 158 -125 310q0 154 121 251t305 97q99 0 189.5 -48t147 -131.5t56.5 -179.5q0 -95 -62.5 -189.5t-195.5 -176.5l192 -221q82 131 117 297h260q-24 -146 -79 -277.5t-125 -222.5l256 -297h-361l-94 109q-221 -136 -430 -136
q-142 0 -257 60t-177 155t-62 203zM375 403q0 -71 60.5 -122.5t150.5 -51.5q104 0 217 70l-258 295q-86 -34 -128 -84.5t-42 -106.5zM662 1212q-56 0 -93 -30.5t-37 -81.5q0 -95 127 -205q74 39 111 89t37 97q0 56 -41 93.5t-104 37.5z" />
    <glyph glyph-name="ampersand" unicode="&#xe916;" horiz-adv-x="1437" 
d="M49 391q0 117 80.5 222.5t243.5 174.5q-125 158 -125 310q0 154 121 251t305 97q99 0 189.5 -48t147 -131.5t56.5 -179.5q0 -95 -62.5 -189.5t-195.5 -176.5l192 -221q82 131 117 297h260q-24 -146 -79 -277.5t-125 -222.5l256 -297h-361l-94 109q-221 -136 -430 -136
q-142 0 -257 60t-177 155t-62 203zM375 403q0 -71 60.5 -122.5t150.5 -51.5q104 0 217 70l-258 295q-86 -34 -128 -84.5t-42 -106.5zM662 1212q-56 0 -93 -30.5t-37 -81.5q0 -95 127 -205q74 39 111 89t37 97q0 56 -41 93.5t-104 37.5z" />
    <glyph glyph-name="quotesingle" unicode="'" horiz-adv-x="454" 
d="M82 1368h291l-29 -479h-233z" />
    <glyph glyph-name="quotesingle" unicode="&#xe917;" horiz-adv-x="454" 
d="M82 1368h291l-29 -479h-233z" />
    <glyph glyph-name="parenleft" unicode="(" horiz-adv-x="749" 
d="M369 -330q-297 416 -297 903q0 424 225 795h295q-232 -351 -232 -803t318 -895h-309z" />
    <glyph glyph-name="parenleft" unicode="&#xe918;" horiz-adv-x="749" 
d="M369 -330q-297 416 -297 903q0 424 225 795h295q-232 -351 -232 -803t318 -895h-309z" />
    <glyph glyph-name="parenright" unicode=")" horiz-adv-x="749" 
d="M72 -330q317 437 317 895q0 454 -231 803h295q225 -371 225 -795q0 -485 -295 -903h-311z" />
    <glyph glyph-name="parenright" unicode="&#xe919;" horiz-adv-x="749" 
d="M72 -330q317 437 317 895q0 454 -231 803h295q225 -371 225 -795q0 -485 -295 -903h-311z" />
    <glyph glyph-name="asterisk" unicode="*" horiz-adv-x="888" 
d="M784 1055l-194 -64l121 -168l-146 -104l-121 166l-120 -166l-146 104l121 168l-197 64l56 170l196 -64v207h181v-207l192 64z" />
    <glyph glyph-name="asterisk" unicode="&#xe91a;" horiz-adv-x="888" 
d="M784 1055l-194 -64l121 -168l-146 -104l-121 166l-120 -166l-146 104l121 168l-197 64l56 170l196 -64v207h181v-207l192 64z" />
    <glyph glyph-name="plus" unicode="+" horiz-adv-x="1265" 
d="M502 377h-393v262h393v377h262v-377h393v-262h-393v-377h-262v377z" />
    <glyph glyph-name="plus" unicode="&#xe91b;" horiz-adv-x="1265" 
d="M502 377h-393v262h393v377h262v-377h393v-262h-393v-377h-262v377z" />
    <glyph glyph-name="comma" unicode="," horiz-adv-x="567" 
d="M238 -18q-67 15 -110.5 69.5t-43.5 124.5q0 83 59 141t142 58q82 0 140 -58.5t58 -142.5q0 -38 -12 -72l-158 -401h-184z" />
    <glyph glyph-name="comma" unicode="&#xe91c;" horiz-adv-x="567" 
d="M238 -18q-67 15 -110.5 69.5t-43.5 124.5q0 83 59 141t142 58q82 0 140 -58.5t58 -142.5q0 -38 -12 -72l-158 -401h-184z" />
    <glyph glyph-name="hyphen" unicode="-" horiz-adv-x="835" 
d="M752 377h-668v264h668v-264z" />
    <glyph glyph-name="hyphen" unicode="&#xe91d;" horiz-adv-x="835" 
d="M752 377h-668v264h668v-264z" />
    <glyph glyph-name="period" unicode="." horiz-adv-x="567" 
d="M84 176q0 83 59 141t142 58q82 0 140 -58t58 -141t-58 -142t-140 -59q-83 0 -142 59t-59 142z" />
    <glyph glyph-name="period" unicode="&#xe91e;" horiz-adv-x="567" 
d="M84 176q0 83 59 141t142 58q82 0 140 -58t58 -141t-58 -142t-140 -59q-83 0 -142 59t-59 142z" />
    <glyph glyph-name="slash" unicode="/" horiz-adv-x="905" 
d="M31 0l534 1368h309l-530 -1368h-313z" />
    <glyph glyph-name="slash" unicode="&#xe91f;" horiz-adv-x="905" 
d="M31 0l534 1368h309l-530 -1368h-313z" />
    <glyph glyph-name="zero" unicode="0" horiz-adv-x="1335" 
d="M92 686q0 333 151 520t435 187q285 0 436.5 -187t151.5 -520q0 -332 -152 -521.5t-436 -189.5q-283 0 -434.5 189.5t-151.5 521.5zM428 883q-16 -91 -16 -197q0 -239 71.5 -359t194.5 -120q103 0 166 78zM678 1161q-94 0 -158 -67l412 -590q12 80 12 180q0 241 -70.5 359
t-195.5 118z" />
    <glyph glyph-name="one" unicode="1" horiz-adv-x="917" 
d="M96 918v251q73 0 116.5 3t89.5 14t74.5 32.5t55.5 58t49 91.5h236v-1368h-309v918h-312z" />
    <glyph glyph-name="one" unicode="&#xe920;" horiz-adv-x="917" 
d="M96 918v251q73 0 116.5 3t89.5 14t74.5 32.5t55.5 58t49 91.5h236v-1368h-309v918h-312z" />
    <glyph glyph-name="two" unicode="2" horiz-adv-x="1200" 
d="M70 256l88 63q56 39 84 59t89.5 65t97 73.5t91.5 76t90 82t74.5 80.5t63 84t38 80.5t15.5 79.5q0 76 -55 119t-134 43q-73 0 -130 -40t-79 -128l-282 103q55 141 189 219t317 78q215 0 351 -106.5t136 -293.5q0 -198 -163.5 -374.5t-483.5 -362.5h653v-256h-1050v256z
" />
    <glyph glyph-name="three" unicode="3" horiz-adv-x="1239" 
d="M68 287l282 102q25 -94 93.5 -138t160.5 -44q98 0 154.5 47t56.5 131q0 211 -383 211v217q177 0 272 48.5t95 139.5q0 76 -61.5 118t-151.5 42q-83 0 -144 -40t-80 -128l-280 103q39 101 121.5 169.5t183 98t217.5 29.5q77 0 149 -13t137.5 -41.5t114.5 -69t78 -100.5
t29 -131q0 -103 -55.5 -187.5t-134.5 -129.5q97 -37 155 -130t58 -192q0 -103 -44.5 -185.5t-120 -134t-171.5 -78t-203 -26.5q-119 0 -221 32t-184 103.5t-123 176.5z" />
    <glyph glyph-name="four" unicode="4" horiz-adv-x="1282" 
d="M47 516l666 852h311v-805h188v-274h-188v-289h-311v289h-666v227zM713 961l-328 -398h328v398z" />
    <glyph glyph-name="five" unicode="5" horiz-adv-x="1253" 
d="M604 -25q-182 0 -319.5 80t-200.5 230l270 98q52 -176 234 -176q111 0 179.5 64.5t68.5 181.5q0 119 -69.5 182t-172.5 63q-152 0 -225 -133l-277 103l86 700h916v-254h-658l-30 -256q46 33 122 52.5t150 19.5q93 0 178 -30.5t153 -88.5t108 -150.5t40 -207.5
q0 -114 -44.5 -206t-121.5 -151t-176 -90t-211 -31z" />
    <glyph glyph-name="six" unicode="6" horiz-adv-x="1294" 
d="M104 659q0 121 20.5 227.5t66 200.5t113.5 161t168 106t224 39q150 0 256 -53t162 -146l-278 -100q-20 35 -62.5 54t-97.5 19q-113 0 -179.5 -86.5t-66.5 -255.5q113 101 293 101q123 0 229.5 -60.5t172 -172.5t65.5 -249q0 -211 -149.5 -340t-383.5 -129
q-115 0 -207.5 34t-156.5 95t-107 147t-62.5 188t-19.5 220zM434 451q0 -111 60 -177.5t161 -66.5q99 0 157 66t58 176q0 109 -58.5 176t-158.5 67q-99 0 -159 -65.5t-60 -175.5z" />
    <glyph glyph-name="seven" unicode="7" horiz-adv-x="1112" 
d="M528 0h-358l555 1112h-694v256h1024v-256z" />
    <glyph glyph-name="eight" unicode="8" horiz-adv-x="1280" 
d="M641 -25q-249 0 -406 118.5t-157 330.5q0 121 56.5 202t176.5 146q-65 105 -65 225q0 166 111.5 281t283.5 115t282.5 -115t110.5 -281q0 -125 -67 -223q121 -67 178 -148.5t57 -203.5q0 -141 -74.5 -243.5t-200 -153t-286.5 -50.5zM399 422q0 -85 67 -137t175 -52
q105 0 172.5 53t67.5 136q0 84 -66.5 132t-173.5 48q-109 0 -175.5 -47.5t-66.5 -132.5zM641 1137q-59 0 -100 -41t-41 -101q0 -59 41 -100t100 -41q57 0 97 41t40 100q0 60 -39.5 101t-97.5 41z" />
    <glyph glyph-name="nine" unicode="9" horiz-adv-x="1148" 
d="M78 903q0 132 65 244.5t176.5 178t243.5 65.5q99 0 190.5 -39t158 -105t106 -157.5t39.5 -190.5q0 -109 -49 -213l-332 -686h-328l221 414q-133 0 -246 64.5t-179 177.5t-66 247zM354 883q7 -84 69.5 -140.5t145.5 -56.5q88 0 150.5 62.5t62.5 150.5q0 8 -2 12v11
q-9 83 -70 137.5t-143 54.5h-18q-84 -7 -139.5 -68.5t-55.5 -144.5v-18z" />
    <glyph glyph-name="colon" unicode=":" horiz-adv-x="567" 
d="M285 -25q-83 0 -142 59t-59 142t59 141t142 58q82 0 140 -58t58 -141t-58 -142t-140 -59zM285 647q-83 0 -142 57.5t-59 139.5q0 83 59 141.5t142 58.5q82 0 140 -58.5t58 -141.5q0 -82 -58 -139.5t-140 -57.5z" />
    <glyph glyph-name="colon" unicode="&#xe921;" horiz-adv-x="567" 
d="M285 -25q-83 0 -142 59t-59 142t59 141t142 58q82 0 140 -58t58 -141t-58 -142t-140 -59zM285 647q-83 0 -142 57.5t-59 139.5q0 83 59 141.5t142 58.5q82 0 140 -58.5t58 -141.5q0 -82 -58 -139.5t-140 -57.5z" />
    <glyph glyph-name="semicolon" unicode=";" horiz-adv-x="567" 
d="M84 176q0 83 59 141t142 58q82 0 140 -58t58 -141q0 -40 -12 -74l-158 -401h-184l109 281q-67 15 -110.5 69.5t-43.5 124.5zM84 844q0 83 59 141.5t142 58.5q82 0 140 -58.5t58 -141.5q0 -82 -58 -139.5t-140 -57.5q-83 0 -142 57.5t-59 139.5z" />
    <glyph glyph-name="semicolon" unicode="&#xe922;" horiz-adv-x="567" 
d="M84 176q0 83 59 141t142 58q82 0 140 -58t58 -141q0 -40 -12 -74l-158 -401h-184l109 281q-67 15 -110.5 69.5t-43.5 124.5zM84 844q0 83 59 141.5t142 58.5q82 0 140 -58.5t58 -141.5q0 -82 -58 -139.5t-140 -57.5q-83 0 -142 57.5t-59 139.5z" />
    <glyph glyph-name="less" unicode="&#x3c;" 
d="M82 410v202l1010 432v-290l-664 -242l664 -246v-291z" />
    <glyph glyph-name="less" unicode="&#xe923;" 
d="M82 410v202l1010 432v-290l-664 -242l664 -246v-291z" />
    <glyph glyph-name="equal" unicode="=" horiz-adv-x="1265" 
d="M109 461h1048v-264h-1048v264zM1157 580h-1048v260h1048v-260z" />
    <glyph glyph-name="equal" unicode="&#xe924;" horiz-adv-x="1265" 
d="M109 461h1048v-264h-1048v264zM1157 580h-1048v260h1048v-260z" />
    <glyph glyph-name="greater" unicode="&#x3e;" 
d="M1092 410l-1010 -435v291l666 246l-666 242v290l1010 -432v-202z" />
    <glyph glyph-name="greater" unicode="&#xe925;" 
d="M1092 410l-1010 -435v291l666 246l-666 242v290l1010 -432v-202z" />
    <glyph glyph-name="question" unicode="?" horiz-adv-x="1257" 
d="M362 995l-280 103q57 141 202 218t349 77q139 0 254.5 -36.5t191.5 -118t76 -196.5q0 -125 -67 -201t-191 -134q-57 -27 -87.5 -43.5t-59.5 -41.5t-41 -54t-13 -70h-315q0 141 47 215t168 137l78 37q40 17 60.5 27.5t48.5 28.5t40.5 38.5t12.5 44.5q0 52 -59 84.5
t-156 32.5q-96 0 -165 -36.5t-94 -111.5zM342 176q0 83 58 141t141 58t140.5 -58t57.5 -141q0 -84 -57.5 -142.5t-140.5 -58.5t-141 59t-58 142z" />
    <glyph glyph-name="question" unicode="&#xe926;" horiz-adv-x="1257" 
d="M362 995l-280 103q57 141 202 218t349 77q139 0 254.5 -36.5t191.5 -118t76 -196.5q0 -125 -67 -201t-191 -134q-57 -27 -87.5 -43.5t-59.5 -41.5t-41 -54t-13 -70h-315q0 141 47 215t168 137l78 37q40 17 60.5 27.5t48.5 28.5t40.5 38.5t12.5 44.5q0 52 -59 84.5
t-156 32.5q-96 0 -165 -36.5t-94 -111.5zM342 176q0 83 58 141t141 58t140.5 -58t57.5 -141q0 -84 -57.5 -142.5t-140.5 -58.5t-141 59t-58 142z" />
    <glyph glyph-name="at" unicode="@" horiz-adv-x="1544" 
d="M72 684q0 192 95 355t258.5 258.5t356.5 95.5q139 0 266.5 -52.5t220.5 -141.5t148.5 -215t55.5 -267v-25q-4 -94 -35 -169t-78.5 -119.5t-102.5 -67.5t-112 -23q-72 0 -130.5 36t-84.5 100q-46 -64 -109.5 -98t-130.5 -34q-115 0 -197.5 88.5t-82.5 243.5
q0 112 32 194.5t89.5 128.5t125.5 67.5t150 21.5q119 0 244 -41v-387q0 -67 32 -104t78 -37q57 0 102 53.5t52 156.5v27q0 146 -73 266t-196 187t-268 67q-154 0 -284.5 -77t-205.5 -207.5t-75 -282.5q0 -154 76.5 -283.5t208 -204.5t286.5 -75q143 0 273 74v-160
q-132 -58 -279 -58q-115 0 -222.5 36t-194.5 101.5t-152.5 152.5t-101 195.5t-35.5 223.5zM608 653q0 -67 33 -104t80 -37q54 0 95.5 48.5t41.5 133.5v172q-46 8 -76 8q-174 0 -174 -221z" />
    <glyph glyph-name="at" unicode="&#xe92c;" horiz-adv-x="1544" 
d="M72 684q0 192 95 355t258.5 258.5t356.5 95.5q139 0 266.5 -52.5t220.5 -141.5t148.5 -215t55.5 -267v-25q-4 -94 -35 -169t-78.5 -119.5t-102.5 -67.5t-112 -23q-72 0 -130.5 36t-84.5 100q-46 -64 -109.5 -98t-130.5 -34q-115 0 -197.5 88.5t-82.5 243.5
q0 112 32 194.5t89.5 128.5t125.5 67.5t150 21.5q119 0 244 -41v-387q0 -67 32 -104t78 -37q57 0 102 53.5t52 156.5v27q0 146 -73 266t-196 187t-268 67q-154 0 -284.5 -77t-205.5 -207.5t-75 -282.5q0 -154 76.5 -283.5t208 -204.5t286.5 -75q143 0 273 74v-160
q-132 -58 -279 -58q-115 0 -222.5 36t-194.5 101.5t-152.5 152.5t-101 195.5t-35.5 223.5zM608 653q0 -67 33 -104t80 -37q54 0 95.5 48.5t41.5 133.5v172q-46 8 -76 8q-174 0 -174 -221z" />
    <glyph glyph-name="A" unicode="A" horiz-adv-x="1413" 
d="M10 0l518 1368h357l518 -1368h-352l-82 244h-525l-82 -244h-352zM705 1026l-173 -520h349z" />
    <glyph glyph-name="B" unicode="B" horiz-adv-x="1325" 
d="M90 1368h598q94 0 168.5 -9.5t142 -33.5t112.5 -63.5t71 -102.5t26 -147q0 -186 -161 -285q101 -34 159 -110t58 -195q0 -422 -553 -422h-621v1368zM713 578h-299v-310h299q102 0 155.5 41.5t53.5 114.5t-53 113.5t-156 40.5zM698 1104h-284v-277h284q81 0 127.5 38
t46.5 102t-46 100.5t-128 36.5z" />
    <glyph glyph-name="C" unicode="C" horiz-adv-x="1394" 
d="M756 -25q-319 0 -501.5 190.5t-182.5 518.5q0 324 187 516.5t505 192.5q190 0 335.5 -85t225.5 -233l-287 -104q-43 79 -119 117t-165 38q-147 0 -243.5 -119t-96.5 -323q0 -209 96 -325.5t248 -116.5q89 0 168.5 35.5t122.5 117.5l284 -104q-84 -148 -235 -232t-342 -84
z" />
    <glyph glyph-name="D" unicode="D" horiz-adv-x="1396" 
d="M541 0h-451v1368h451q792 0 792 -684t-792 -684zM414 272h133q79 0 138.5 8t121.5 33.5t101.5 69.5t65 120t25.5 181q0 88 -16.5 156t-48.5 112.5t-71.5 74.5t-94 45.5t-106 21.5t-115.5 6h-133v-828z" />
    <glyph glyph-name="E" unicode="E" horiz-adv-x="1187" 
d="M90 0v1368h1053v-285h-729v-237h444v-285h-444v-276h729v-285h-1053z" />
    <glyph glyph-name="F" unicode="F" horiz-adv-x="1114" 
d="M90 0v1368h979v-285h-655v-237h655v-285h-655v-561h-324z" />
    <glyph glyph-name="G" unicode="G" horiz-adv-x="1472" 
d="M721 -25q-300 0 -474.5 192.5t-174.5 520.5q0 213 87.5 373.5t245 246t363.5 85.5q182 0 326 -72.5t225 -210.5l-279 -115q-37 59 -106.5 95t-169.5 36q-153 0 -251.5 -114.5t-98.5 -323.5q0 -212 96.5 -329t259.5 -117q47 0 89.5 7t82.5 24.5t69 43t46.5 66t17.5 90.5
v39h-307v262h631v-774h-213l-45 152q-131 -177 -420 -177z" />
    <glyph glyph-name="H" unicode="H" horiz-adv-x="1390" 
d="M414 0h-324v1368h324v-522h563v522h323v-1368h-323v561h-563v-561z" />
    <glyph glyph-name="I" unicode="I" horiz-adv-x="937" 
d="M309 1114h-192v254h704v-254h-188v-860h188v-254h-704v254h192v860z" />
    <glyph glyph-name="J" unicode="J" horiz-adv-x="1146" 
d="M522 -25q-209 0 -338.5 102t-173.5 281l297 109q20 -101 73 -168.5t142 -67.5q106 0 158.5 67.5t52.5 225.5v844h324v-844q0 -260 -138 -404.5t-397 -144.5z" />
    <glyph glyph-name="K" unicode="K" horiz-adv-x="1349" 
d="M90 1368h324v-543l493 543h396l-541 -586l567 -782h-375l-401 557l-139 -154v-403h-324v1368z" />
    <glyph glyph-name="L" unicode="L" horiz-adv-x="1099" 
d="M414 285h655v-285h-979v1368h324v-1083z" />
    <glyph glyph-name="M" unicode="M" horiz-adv-x="1724" 
d="M90 1368h485l285 -981l289 981h485v-1368h-315v1075l-326 -1075h-266l-324 1075v-1075h-313v1368z" />
    <glyph glyph-name="N" unicode="N" horiz-adv-x="1433" 
d="M90 1368h412l528 -975v975h313v-1368h-413l-529 975v-975h-311v1368z" />
    <glyph glyph-name="O" unicode="O" horiz-adv-x="1564" 
d="M72 684q0 210 89 371.5t250 249.5t369 88t370 -88t252.5 -249.5t90.5 -371.5t-90.5 -371.5t-252.5 -249.5t-370 -88t-369 88t-250 249.5t-89 371.5zM414 684q0 -210 104.5 -326t261.5 -116q76 0 142.5 28.5t117.5 82.5t80 139.5t29 191.5t-29 191.5t-80 139.5
t-117.5 82.5t-142.5 28.5q-157 0 -261.5 -116t-104.5 -326z" />
    <glyph glyph-name="P" unicode="P" horiz-adv-x="1298" 
d="M414 0h-324v1368h526q112 0 201 -12t170 -42.5t134 -80t84.5 -128t31.5 -183.5t-31.5 -184t-84.5 -128.5t-134 -80t-170 -42.5t-201 -12h-202v-475zM414 1096v-353h213q60 0 105.5 8t84 27t58.5 55t20 89q0 99 -70.5 136.5t-197.5 37.5h-213z" />
    <glyph glyph-name="Q" unicode="Q" horiz-adv-x="1599" 
d="M780 -25q-208 0 -369 88t-250 249.5t-89 371.5t89 371.5t250 249.5t369 88t370 -88t252.5 -249.5t90.5 -371.5q0 -234 -113 -408l219 -206l-169 -183l-224 211q-177 -123 -426 -123zM780 1126q-157 0 -261.5 -116t-104.5 -326t104.5 -326t261.5 -116q117 0 205 63
l-293 279l170 178l264 -248q23 73 23 170q0 106 -29 191.5t-80 139.5t-117.5 82.5t-142.5 28.5z" />
    <glyph glyph-name="R" unicode="R" horiz-adv-x="1339" 
d="M414 0h-324v1368h526q112 0 201 -11t170 -40.5t134 -76.5t84.5 -121.5t31.5 -174.5q0 -50 -9 -94.5t-32.5 -91t-60 -84t-94.5 -70.5t-134 -53l398 -551h-375l-371 516h-145v-516zM414 1096v-310h213q49 0 86.5 3.5t73 14t58.5 27.5t36.5 44.5t13.5 64.5q0 46 -20 77.5
t-58 48t-83.5 23.5t-106.5 7h-213z" />
    <glyph glyph-name="S" unicode="S" horiz-adv-x="1267" 
d="M51 322l295 106q27 -96 104.5 -144t194.5 -48q100 0 172 35t72 108q0 68 -65 108t-185 64l-166 33q-88 17 -159.5 46t-131 74.5t-92.5 113t-33 151.5q0 105 51.5 189t136.5 133.5t185.5 75.5t206.5 26q85 0 163.5 -17t148.5 -52t125.5 -93t86.5 -135l-293 -107
q-28 69 -95.5 106.5t-164.5 37.5q-96 0 -157.5 -35.5t-61.5 -96.5q0 -52 42 -88.5t114 -50.5l184 -37q57 -12 97.5 -21.5t96 -27.5t94 -37.5t80 -50t66.5 -66t41.5 -85.5t16.5 -109q0 -105 -50.5 -193t-133 -143.5t-184.5 -86t-210 -30.5q-223 0 -375.5 90.5t-216.5 256.5z
" />
    <glyph glyph-name="T" unicode="T" horiz-adv-x="1263" 
d="M471 1083h-440v285h1202v-285h-440v-1083h-322v1083z" />
    <glyph glyph-name="U" unicode="U" horiz-adv-x="1345" 
d="M84 598v770h324v-797q0 -83 10 -138.5t37.5 -102t81.5 -68.5t137 -22q82 0 135.5 22t81 68.5t37.5 102t10 138.5v797h324v-770q0 -322 -137.5 -472.5t-450.5 -150.5q-316 0 -453 150.5t-137 472.5z" />
    <glyph glyph-name="V" unicode="V" horiz-adv-x="1343" 
d="M483 0l-463 1368h336l314 -1006l315 1006h338l-465 -1368h-375z" />
    <glyph glyph-name="W" unicode="W" horiz-adv-x="1808" 
d="M350 0l-330 1368h324l191 -948l200 948h336l203 -948l190 948h324l-330 -1368h-346l-209 963l-207 -963h-346z" />
    <glyph glyph-name="X" unicode="X" horiz-adv-x="1431" 
d="M410 0h-390l502 702l-473 666h387l279 -393l280 393h387l-473 -666l502 -702h-389l-307 432z" />
    <glyph glyph-name="Y" unicode="Y" horiz-adv-x="1406" 
d="M543 532l-523 836h377l305 -526l306 526h378l-522 -836v-532h-321v532z" />
    <glyph glyph-name="Z" unicode="Z" horiz-adv-x="1271" 
d="M1176 1120l-684 -835h714v-285h-1140v248l690 835h-660v285h1080v-248z" />
    <glyph glyph-name="bracketleft" unicode="[" horiz-adv-x="681" 
d="M90 -330v1698h524v-238h-262v-1224h262v-236h-524z" />
    <glyph glyph-name="bracketleft" unicode="&#xe927;" horiz-adv-x="681" 
d="M90 -330v1698h524v-238h-262v-1224h262v-236h-524z" />
    <glyph glyph-name="backslash" unicode="\" horiz-adv-x="905" 
d="M344 1368l530 -1368h-309l-534 1368h313z" />
    <glyph glyph-name="backslash" unicode="&#xe928;" horiz-adv-x="905" 
d="M344 1368l530 -1368h-309l-534 1368h313z" />
    <glyph glyph-name="bracketright" unicode="]" horiz-adv-x="681" 
d="M592 -330h-524v236h262v1224h-262v238h524v-1698z" />
    <glyph glyph-name="bracketright" unicode="&#xe929;" horiz-adv-x="681" 
d="M592 -330h-524v236h262v1224h-262v238h524v-1698z" />
    <glyph glyph-name="asciicircum" unicode="^" horiz-adv-x="1206" 
d="M401 639h-292l378 729h232l379 -729h-293l-201 397z" />
    <glyph glyph-name="asciicircum" unicode="&#xe92a;" horiz-adv-x="1206" 
d="M401 639h-292l378 729h232l379 -729h-293l-201 397z" />
    <glyph glyph-name="underscore" unicode="_" horiz-adv-x="880" 
d="M860 -262h-840v262h840v-262z" />
    <glyph glyph-name="underscore" unicode="&#xe92b;" horiz-adv-x="880" 
d="M860 -262h-840v262h840v-262z" />
    <glyph glyph-name="grave" unicode="`" horiz-adv-x="643" 
d="M147 1288q-38 38 -38 86t33.5 82.5t80.5 34.5q44 0 78 -31l234 -284h-234z" />
    <glyph glyph-name="grave" unicode="&#xe932;" horiz-adv-x="643" 
d="M147 1288q-38 38 -38 86t33.5 82.5t80.5 34.5q44 0 78 -31l234 -284h-234z" />
    <glyph glyph-name="a" unicode="a" horiz-adv-x="1122" 
d="M39 274q0 90 48.5 156t142.5 107t210 63.5t273 34.5v39q0 85 -42.5 122.5t-127.5 37.5q-67 0 -114 -30.5t-62 -90.5l-263 94q53 106 175 171.5t290 65.5q224 0 337.5 -99.5t113.5 -323.5v-224q0 -101 10 -216.5t25 -180.5h-289l-37 123q-106 -148 -340 -148
q-149 0 -249.5 82t-100.5 217zM719 451q-88 -7 -148 -17t-111 -27t-75.5 -44t-24.5 -66q0 -49 41 -79t103 -30q101 0 158 53.5t57 184.5v25z" />
    <glyph glyph-name="b" unicode="b" horiz-adv-x="1220" 
d="M102 1368h312v-491q47 80 134 123.5t175 43.5q200 0 324 -141.5t124 -386.5q0 -246 -124.5 -393.5t-323.5 -147.5q-90 0 -176 41t-133 121l-39 -137h-273v1368zM399 510q0 -149 63 -221t163 -72q94 0 158.5 81t64.5 218q0 134 -64 210.5t-159 76.5q-99 0 -162.5 -73
t-63.5 -220z" />
    <glyph glyph-name="c" unicode="c" horiz-adv-x="1064" 
d="M569 -25q-247 0 -383.5 146.5t-136.5 392.5q0 239 144 384.5t376 145.5q69 0 133 -14t126 -43.5t114 -82.5t86 -126l-260 -94q-46 119 -180 119q-95 0 -158 -70.5t-63 -220.5q0 -80 18.5 -139t50.5 -92t70 -48.5t82 -15.5q125 0 182 96l254 -92q-73 -128 -196 -187
t-259 -59z" />
    <glyph glyph-name="d" unicode="d" horiz-adv-x="1220" 
d="M498 -25q-199 0 -324 147.5t-125 393.5q0 245 124.5 386.5t324.5 141.5q89 0 175.5 -43.5t133.5 -123.5v491h311v-971q0 -216 35 -397h-297l-41 137q-61 -83 -144 -122.5t-173 -39.5zM598 803q-96 0 -160.5 -76.5t-64.5 -210.5q0 -137 64.5 -218t160.5 -81q98 0 160.5 72
t62.5 221q0 147 -62.5 220t-160.5 73z" />
    <glyph glyph-name="e" unicode="e" horiz-adv-x="1159" 
d="M49 514q0 158 74.5 280t198 186t272.5 64q164 0 286.5 -78.5t183 -218t50.5 -317.5h-752q7 -102 75 -157.5t161 -55.5q139 0 205 76l248 -90q-76 -113 -195 -170.5t-250 -57.5q-251 0 -404 145t-153 394zM602 813q-94 0 -160.5 -50t-79.5 -149h463q-3 95 -65.5 147
t-157.5 52z" />
    <glyph glyph-name="f" unicode="f" horiz-adv-x="751" 
d="M10 778v238h168v166q0 177 89.5 243t301.5 66h142v-246h-86q-84 0 -110 -17t-26 -75v-137h222v-238h-222v-778h-311v778h-168z" />
    <glyph glyph-name="g" unicode="g" horiz-adv-x="1222" 
d="M49 530q0 128 37 229.5t98.5 162.5t136.5 93t156 32q99 0 186.5 -44t145.5 -126l41 139h268v-940q0 -249 -136 -370.5t-382 -121.5q-67 0 -129 12t-123 38.5t-112.5 75.5t-85.5 116l253 92q48 -96 189 -96q100 0 158.5 46.5t58.5 145.5v183q-64 -79 -148.5 -119.5
t-173.5 -40.5q-83 0 -161.5 34t-140 96t-99 156.5t-37.5 206.5zM373 547q0 -129 63.5 -198.5t161.5 -69.5q101 0 162 60.5t61 199.5q0 140 -61.5 202t-161.5 62q-99 0 -162 -64.5t-63 -191.5z" />
    <glyph glyph-name="h" unicode="h" horiz-adv-x="1171" 
d="M414 0h-312v1368h312v-487q39 65 122 114t191 49q189 0 265.5 -105t76.5 -321v-618h-311v541q0 52 -1.5 83t-10 69.5t-24.5 59.5t-46 35.5t-74 14.5q-97 0 -142.5 -70.5t-45.5 -210.5v-522z" />
    <glyph glyph-name="i" unicode="i" horiz-adv-x="645" 
d="M49 778v238h506v-1016h-313v778h-193zM399 1184q-76 0 -130 54.5t-54 129.5q0 76 53.5 130t130.5 54t131 -54t54 -130q0 -75 -54.5 -129.5t-130.5 -54.5z" />
    <glyph glyph-name="j" unicode="j" horiz-adv-x="530" 
d="M-143 -84h120q82 0 109 15t27 65v1020h311v-1065q0 -84 -28.5 -141t-83.5 -86.5t-121 -41.5t-156 -12h-178v246zM86 1368q0 76 54 130t130 54q75 0 130 -54t55 -130q0 -75 -55 -129.5t-130 -54.5q-76 0 -130 54.5t-54 129.5z" />
    <glyph glyph-name="k" unicode="k" horiz-adv-x="1161" 
d="M102 1368h312v-737l340 385h368l-397 -424l428 -592h-369l-264 369l-106 -113v-256h-312v1368z" />
    <glyph glyph-name="l" unicode="l" horiz-adv-x="643" 
d="M102 287v1081h312v-999q0 -70 27.5 -92.5t107.5 -22.5h88v-254h-199q-99 0 -159 11t-102 42.5t-58.5 87t-16.5 146.5z" />
    <glyph glyph-name="m" unicode="m" horiz-adv-x="1814" 
d="M414 0h-312v1016h273l39 -135q39 65 120.5 114t186.5 49q229 0 301 -170q58 83 148.5 126.5t199.5 43.5q188 0 265 -105t77 -321v-618h-311v541q0 51 -2 83t-10.5 70t-25 59t-46.5 35.5t-74 14.5q-94 0 -137 -65.5t-43 -200.5v-537h-313v541q0 43 -1.5 70t-6 61
t-14.5 54.5t-26 39.5t-42.5 28t-61.5 9q-184 0 -184 -273v-530z" />
    <glyph glyph-name="n" unicode="n" horiz-adv-x="1171" 
d="M102 1016h273l39 -135q39 65 122 114t191 49q189 0 265.5 -105t76.5 -321v-618h-311v541q0 52 -1.5 83t-10 69.5t-24.5 59.5t-46 35.5t-74 14.5q-97 0 -142.5 -70.5t-45.5 -210.5v-522h-312v1016z" />
    <glyph glyph-name="o" unicode="o" 
d="M49 512q0 133 44 237t120 167t171 95.5t204 32.5q85 0 163 -19.5t146.5 -62t118.5 -104t79 -150.5t29 -196t-29 -196.5t-79.5 -151.5t-118.5 -105t-146 -63.5t-163 -20.5q-109 0 -204 33t-171 97t-120 169t-44 238zM588 803q-100 0 -160.5 -69.5t-60.5 -221.5
t59.5 -223.5t161.5 -71.5q100 0 159.5 71.5t59.5 223.5t-60 221.5t-159 69.5z" />
    <glyph glyph-name="p" unicode="p" horiz-adv-x="1220" 
d="M414 -330h-312v1346h271l41 -139q47 80 134 123.5t175 43.5q199 0 323.5 -145.5t124.5 -390.5q0 -247 -124 -390t-324 -143q-87 0 -174.5 44.5t-134.5 125.5v-475zM399 514q0 -149 63.5 -223t162.5 -74q95 0 159 77t64 214q0 135 -64.5 215t-158.5 80q-100 0 -163 -70.5
t-63 -218.5z" />
    <glyph glyph-name="q" unicode="q" horiz-adv-x="1230" 
d="M498 -25q-200 0 -324.5 143.5t-124.5 389.5q0 244 125 390t324 146q89 0 175.5 -43.5t133.5 -123.5l41 139h270v-938q0 -30 1.5 -48t8 -39.5t19 -33t35 -19.5t55.5 -8q55 0 143 21v-268q-108 -35 -227 -35q-53 0 -99.5 8.5t-93 31t-79.5 58.5t-53.5 96t-20.5 138v163
q-47 -80 -134 -124t-175 -44zM598 803q-96 0 -160.5 -80t-64.5 -215q0 -137 64 -214t161 -77q98 0 160.5 74t62.5 223q0 148 -62 218.5t-161 70.5z" />
    <glyph glyph-name="r" unicode="r" horiz-adv-x="761" 
d="M414 0h-312v1016h246l55 -187q46 120 127 170.5t201 44.5v-311q-49 6 -84 6q-117 0 -175 -54t-58 -173v-512z" />
    <glyph glyph-name="s" unicode="s" horiz-adv-x="1093" 
d="M541 -25q-181 0 -310.5 66t-187.5 192l264 97q23 -63 86.5 -95t153.5 -32q80 0 136 24.5t56 69.5q0 33 -36 55t-121 37l-183 31q-154 26 -242.5 103t-88.5 200q0 103 65 177t169 109t233 35q156 0 276 -55.5t174 -169.5l-262 -96q-25 94 -191 94q-167 0 -167 -82
q0 -31 28.5 -50.5t95.5 -31.5l189 -35q191 -35 275.5 -98.5t84.5 -187.5q0 -87 -39 -156.5t-107.5 -112.5t-157.5 -65.5t-193 -22.5z" />
    <glyph glyph-name="t" unicode="t" horiz-adv-x="776" 
d="M27 778v238h168v254h311v-254h221v-238h-221v-409q0 -70 27 -92.5t104 -22.5h90v-254h-197q-99 0 -158.5 11t-101.5 42.5t-58.5 87t-16.5 146.5v491h-168z" />
    <glyph glyph-name="u" unicode="u" horiz-adv-x="1167" 
d="M102 1016h312v-533q0 -39 0.5 -61t3.5 -54.5t9 -51t17 -40t27.5 -32.5t41 -19t56.5 -8q98 0 139.5 61t41.5 203v535h313v-1016h-270l-43 143q-48 -82 -116.5 -125t-178.5 -43q-194 0 -273.5 106.5t-79.5 324.5v610z" />
    <glyph glyph-name="v" unicode="v" horiz-adv-x="1077" 
d="M362 0l-362 1016h322l217 -692l217 692h321l-364 -1016h-351z" />
    <glyph glyph-name="w" unicode="w" horiz-adv-x="1480" 
d="M254 0l-254 1016h307l154 -688l131 688h295l131 -688l153 688h310l-254 -1016h-340l-148 729l-145 -729h-340z" />
    <glyph glyph-name="x" unicode="x" horiz-adv-x="1091" 
d="M340 0h-340l377 530l-346 486h340l176 -248l174 248h340l-346 -486l377 -530h-340l-205 293z" />
    <glyph glyph-name="y" unicode="y" horiz-adv-x="1060" 
d="M0 1016h334l198 -635l195 635h334l-389 -1016q-31 -82 -58.5 -134t-62 -93t-79 -62t-101.5 -31t-138 -10h-100v226h62q100 0 130.5 13.5t53.5 70.5l10 26z" />
    <glyph glyph-name="z" unicode="z" horiz-adv-x="1056" 
d="M463 248h553v-248h-955v248l527 520h-498v248h897v-248z" />
    <glyph glyph-name="braceleft" unicode="{" horiz-adv-x="757" 
d="M193 199q0 102 -28 149t-116 47v252q88 0 116 46.5t28 146.5v196q0 97 26 163t79 102.5t121.5 51.5t164.5 15h104v-246h-67q-70 0 -102 -18t-32 -72v-252q0 -62 -15.5 -108t-44 -75t-59.5 -45.5t-73 -27.5v-6q89 -24 140.5 -80.5t51.5 -175.5v-256q0 -54 32 -72t102 -18
h67v-246h-104q-97 0 -165 15t-121 52t-79 103t-26 164v195z" />
    <glyph glyph-name="braceleft" unicode="&#xe92d;" horiz-adv-x="757" 
d="M193 199q0 102 -28 149t-116 47v252q88 0 116 46.5t28 146.5v196q0 97 26 163t79 102.5t121.5 51.5t164.5 15h104v-246h-67q-70 0 -102 -18t-32 -72v-252q0 -62 -15.5 -108t-44 -75t-59.5 -45.5t-73 -27.5v-6q89 -24 140.5 -80.5t51.5 -175.5v-256q0 -54 32 -72t102 -18
h67v-246h-104q-97 0 -165 15t-121 52t-79 103t-26 164v195z" />
    <glyph glyph-name="bar" unicode="|" horiz-adv-x="479" 
d="M389 -330h-299v1698h299v-1698z" />
    <glyph glyph-name="bar" unicode="&#xe92e;" horiz-adv-x="479" 
d="M389 -330h-299v1698h299v-1698z" />
    <glyph glyph-name="braceright" unicode="}" horiz-adv-x="757" 
d="M70 -330v246h69q70 0 101.5 18t31.5 72v256q0 119 51 175.5t140 80.5v6q-41 11 -72.5 27.5t-60 45.5t-43.5 75t-15 108v252q0 54 -31.5 72t-101.5 18h-69v246h106q96 0 164.5 -15t121.5 -51.5t79 -102.5t26 -163v-196q0 -49 5 -80.5t19 -59t43 -40.5t75 -13v-252
q-87 0 -114.5 -47t-27.5 -149v-195q0 -98 -26 -164t-79 -103t-121 -52t-165 -15h-106z" />
    <glyph glyph-name="braceright" unicode="&#xe92f;" horiz-adv-x="757" 
d="M70 -330v246h69q70 0 101.5 18t31.5 72v256q0 119 51 175.5t140 80.5v6q-41 11 -72.5 27.5t-60 45.5t-43.5 75t-15 108v252q0 54 -31.5 72t-101.5 18h-69v246h106q96 0 164.5 -15t121.5 -51.5t79 -102.5t26 -163v-196q0 -49 5 -80.5t19 -59t43 -40.5t75 -13v-252
q-87 0 -114.5 -47t-27.5 -149v-195q0 -98 -26 -164t-79 -103t-121 -52t-165 -15h-106z" />
    <glyph glyph-name="asciitilde" unicode="~" horiz-adv-x="1091" 
d="M82 377q11 168 74.5 254t203.5 86q52 0 106 -19t91 -42.5t79.5 -42.5t74.5 -19q92 0 82 164l217 -76q-11 -168 -74 -254t-201 -86q-48 0 -99 19t-87.5 42.5t-82.5 42.5t-85 19q-43 0 -65.5 -35t-18.5 -131z" />
    <glyph glyph-name="asciitilde" unicode="&#xe930;" horiz-adv-x="1091" 
d="M82 377q11 168 74.5 254t203.5 86q52 0 106 -19t91 -42.5t79.5 -42.5t74.5 -19q92 0 82 164l217 -76q-11 -168 -74 -254t-201 -86q-48 0 -99 19t-87.5 42.5t-82.5 42.5t-85 19q-43 0 -65.5 -35t-18.5 -131z" />
    <glyph glyph-name="uni00A0" unicode="&#xa0;" horiz-adv-x="655" 
 />
    <glyph glyph-name="exclamdown" unicode="&#xa1;" horiz-adv-x="579" 
d="M92 -330v355l84 518h227l84 -518v-355h-395zM90 862q0 83 59 142t142 59q82 0 140 -59t58 -142q0 -82 -58 -139t-140 -57q-83 0 -142 57t-59 139z" />
    <glyph glyph-name="exclamdown" unicode="&#xe931;" horiz-adv-x="579" 
d="M92 -330v355l84 518h227l84 -518v-355h-395zM90 862q0 83 59 142t142 59q82 0 140 -59t58 -142q0 -82 -58 -139t-140 -57q-83 0 -142 57t-59 139z" />
    <glyph glyph-name="cent" unicode="&#xa2;" horiz-adv-x="1064" 
d="M500 -23q-216 21 -333.5 164.5t-117.5 372.5q0 218 123.5 360.5t327.5 165.5v129h149v-131q123 -15 222.5 -78.5t156.5 -183.5l-260 -92q-36 88 -117 111v-572q78 18 119 88l254 -92q-60 -108 -159.5 -166t-215.5 -73v-158h-149v155zM500 784q-133 -61 -133 -272
q0 -217 133 -276v548z" />
    <glyph glyph-name="cent" unicode="&#xe933;" horiz-adv-x="1064" 
d="M500 -23q-216 21 -333.5 164.5t-117.5 372.5q0 218 123.5 360.5t327.5 165.5v129h149v-131q123 -15 222.5 -78.5t156.5 -183.5l-260 -92q-36 88 -117 111v-572q78 18 119 88l254 -92q-60 -108 -159.5 -166t-215.5 -73v-158h-149v155zM500 784q-133 -61 -133 -272
q0 -217 133 -276v548z" />
    <glyph glyph-name="sterling" unicode="&#xa3;" horiz-adv-x="1263" 
d="M102 754h154q-88 164 -88 276q0 92 44.5 163.5t119 113.5t164 63t188.5 21q179 0 316.5 -78t197.5 -215l-278 -103q-22 75 -86.5 111.5t-145.5 36.5q-85 0 -138.5 -37.5t-53.5 -101.5q0 -25 5 -50t17.5 -54t20.5 -45.5t28.5 -52.5t26.5 -48h328v-150h-258q14 -38 14 -82
q0 -150 -215 -286q66 38 172 38q54 0 153 -21.5t140 -21.5q102 0 211 64l90 -248q-144 -72 -328 -72q-74 0 -208.5 37t-200.5 37q-144 0 -277 -74l-113 238q131 63 191.5 130t60.5 171q0 46 -20 90h-232v150z" />
    <glyph glyph-name="sterling" unicode="&#xe934;" horiz-adv-x="1263" 
d="M102 754h154q-88 164 -88 276q0 92 44.5 163.5t119 113.5t164 63t188.5 21q179 0 316.5 -78t197.5 -215l-278 -103q-22 75 -86.5 111.5t-145.5 36.5q-85 0 -138.5 -37.5t-53.5 -101.5q0 -25 5 -50t17.5 -54t20.5 -45.5t28.5 -52.5t26.5 -48h328v-150h-258q14 -38 14 -82
q0 -150 -215 -286q66 38 172 38q54 0 153 -21.5t140 -21.5q102 0 211 64l90 -248q-144 -72 -328 -72q-74 0 -208.5 37t-200.5 37q-144 0 -277 -74l-113 238q131 63 191.5 130t60.5 171q0 46 -20 90h-232v150z" />
    <glyph glyph-name="currency" unicode="&#xa4;" horiz-adv-x="1220" 
d="M246 913l-137 138l106 106l137 -137q117 84 258 84t258 -84l138 137l106 -106l-137 -138q82 -114 82 -256q0 -141 -82 -260l137 -137l-106 -106l-138 137q-114 -82 -258 -82t-258 82l-137 -137l-106 106l137 137q-84 117 -84 260q0 139 84 256zM408 657
q0 -85 58.5 -144.5t143.5 -59.5q84 0 143.5 59.5t59.5 144.5q0 83 -60 142t-143 59q-84 0 -143 -59t-59 -142z" />
    <glyph glyph-name="currency" unicode="&#xe935;" horiz-adv-x="1220" 
d="M246 913l-137 138l106 106l137 -137q117 84 258 84t258 -84l138 137l106 -106l-137 -138q82 -114 82 -256q0 -141 -82 -260l137 -137l-106 -106l-138 137q-114 -82 -258 -82t-258 82l-137 -137l-106 106l137 137q-84 117 -84 260q0 139 84 256zM408 657
q0 -85 58.5 -144.5t143.5 -59.5q84 0 143.5 59.5t59.5 144.5q0 83 -60 142t-143 59q-84 0 -143 -59t-59 -142z" />
    <glyph glyph-name="yen" unicode="&#xa5;" horiz-adv-x="1406" 
d="M510 586l-490 780h377l305 -524l306 524h378l-489 -780h233v-152h-266v-129h266v-151h-266v-154h-321v154h-264v151h264v129h-264v152h231z" />
    <glyph glyph-name="yen" unicode="&#xe936;" horiz-adv-x="1406" 
d="M510 586l-490 780h377l305 -524l306 524h378l-489 -780h233v-152h-266v-129h266v-151h-266v-154h-321v154h-264v151h264v129h-264v152h231z" />
    <glyph glyph-name="brokenbar" unicode="&#xa6;" horiz-adv-x="442" 
d="M352 -330h-262v637h262v-637zM90 1368h262v-635h-262v635z" />
    <glyph glyph-name="brokenbar" unicode="&#xe937;" horiz-adv-x="442" 
d="M352 -330h-262v637h262v-637zM90 1368h262v-635h-262v635z" />
    <glyph glyph-name="section" unicode="&#xa7;" horiz-adv-x="1183" 
d="M332 256q-143 69 -216 153t-73 195q0 75 47.5 142t128.5 116q-80 100 -80 217q0 99 61 171.5t159.5 107.5t218.5 35q88 0 164 -19.5t148 -73t111 -137.5l-266 -96q-37 90 -160 90q-61 0 -96 -19t-35 -51t30.5 -58t94.5 -58l250 -123q160 -78 234.5 -153.5t74.5 -186.5
q0 -84 -49.5 -154.5t-140.5 -120.5q90 -96 90 -223q0 -165 -128.5 -264.5t-332.5 -99.5q-163 0 -275.5 74.5t-160.5 207.5l266 97q37 -140 178 -140q66 0 105 28t39 73q0 44 -38 81t-114 74zM432 721q-84 -43 -84 -92q0 -38 30.5 -65.5t94.5 -59.5l256 -127q44 20 65 41.5
t21 52.5q0 29 -23 54.5t-50 41t-85 43.5z" />
    <glyph glyph-name="section" unicode="&#xe938;" horiz-adv-x="1183" 
d="M332 256q-143 69 -216 153t-73 195q0 75 47.5 142t128.5 116q-80 100 -80 217q0 99 61 171.5t159.5 107.5t218.5 35q88 0 164 -19.5t148 -73t111 -137.5l-266 -96q-37 90 -160 90q-61 0 -96 -19t-35 -51t30.5 -58t94.5 -58l250 -123q160 -78 234.5 -153.5t74.5 -186.5
q0 -84 -49.5 -154.5t-140.5 -120.5q90 -96 90 -223q0 -165 -128.5 -264.5t-332.5 -99.5q-163 0 -275.5 74.5t-160.5 207.5l266 97q37 -140 178 -140q66 0 105 28t39 73q0 44 -38 81t-114 74zM432 721q-84 -43 -84 -92q0 -38 30.5 -65.5t94.5 -59.5l256 -127q44 20 65 41.5
t21 52.5q0 29 -23 54.5t-50 41t-85 43.5z" />
    <glyph glyph-name="dieresis" unicode="&#xa8;" horiz-adv-x="925" 
d="M121 1327q0 60 42.5 103t102.5 43t102 -43t42 -103t-42 -101.5t-102 -41.5t-102.5 41.5t-42.5 101.5zM664 1184q-60 0 -103 41.5t-43 101.5t43 103t103 43q58 0 99.5 -43t41.5 -103t-41 -101.5t-100 -41.5z" />
    <glyph glyph-name="copyright" unicode="&#xa9;" horiz-adv-x="1634" 
d="M815 -25q-115 0 -222.5 36t-194.5 101.5t-152.5 152.5t-101 195.5t-35.5 223.5q0 143 56 274t150.5 226t225.5 151t274 56q145 0 276.5 -56t226.5 -151t151.5 -226t56.5 -274q0 -144 -56.5 -275.5t-151.5 -226.5t-226.5 -151t-276.5 -56zM252 684q0 -154 76 -284.5
t205.5 -206.5t281.5 -76q154 0 284.5 76t206.5 206.5t76 284.5q0 153 -76 283t-206.5 206t-284.5 76q-152 0 -282 -76t-205.5 -206t-75.5 -283zM821 297q-177 0 -276 105.5t-99 281.5q0 173 104.5 279t270.5 106q106 0 196 -46t138 -146l-188 -70q-35 88 -133 88
q-67 0 -112.5 -51.5t-45.5 -159.5q0 -111 45.5 -162t112.5 -51q94 0 135 70l184 -68q-53 -92 -142.5 -134t-189.5 -42z" />
    <glyph glyph-name="copyright" unicode="&#xe93a;" horiz-adv-x="1634" 
d="M815 -25q-115 0 -222.5 36t-194.5 101.5t-152.5 152.5t-101 195.5t-35.5 223.5q0 143 56 274t150.5 226t225.5 151t274 56q145 0 276.5 -56t226.5 -151t151.5 -226t56.5 -274q0 -144 -56.5 -275.5t-151.5 -226.5t-226.5 -151t-276.5 -56zM252 684q0 -154 76 -284.5
t205.5 -206.5t281.5 -76q154 0 284.5 76t206.5 206.5t76 284.5q0 153 -76 283t-206.5 206t-284.5 76q-152 0 -282 -76t-205.5 -206t-75.5 -283zM821 297q-177 0 -276 105.5t-99 281.5q0 173 104.5 279t270.5 106q106 0 196 -46t138 -146l-188 -70q-35 88 -133 88
q-67 0 -112.5 -51.5t-45.5 -159.5q0 -111 45.5 -162t112.5 -51q94 0 135 70l184 -68q-53 -92 -142.5 -134t-189.5 -42z" />
    <glyph glyph-name="ordfeminine" unicode="&#xaa;" horiz-adv-x="808" 
d="M328 809q-101 0 -160 57.5t-59 139.5q0 80 53 120q61 48 254 70l71 8v13q0 59 -81 59q-70 0 -80 -49l-179 63q61 125 283 125q133 0 196.5 -55t63.5 -176v-123q0 -152 10 -236h-172l-18 66q-51 -82 -182 -82zM322 1014q0 -25 17 -41.5t50 -16.5q44 0 73.5 23t29.5 63v35
l-76 -6q-94 -8 -94 -57z" />
    <glyph glyph-name="ordfeminine" unicode="&#xe93d;" horiz-adv-x="808" 
d="M328 809q-101 0 -160 57.5t-59 139.5q0 80 53 120q61 48 254 70l71 8v13q0 59 -81 59q-70 0 -80 -49l-179 63q61 125 283 125q133 0 196.5 -55t63.5 -176v-123q0 -152 10 -236h-172l-18 66q-51 -82 -182 -82zM322 1014q0 -25 17 -41.5t50 -16.5q44 0 73.5 23t29.5 63v35
l-76 -6q-94 -8 -94 -57z" />
    <glyph glyph-name="guillemotleft" unicode="&#xab;" horiz-adv-x="1370" 
d="M602 514l299 430h359l-306 -430l308 -432h-361zM109 514l303 430h354l-303 -430l305 -432h-356z" />
    <glyph glyph-name="guillemotleft" unicode="&#xe93e;" horiz-adv-x="1370" 
d="M602 514l299 430h359l-306 -430l308 -432h-361zM109 514l303 430h354l-303 -430l305 -432h-356z" />
    <glyph glyph-name="logicalnot" unicode="&#xac;" horiz-adv-x="1265" 
d="M109 864h1048v-749h-262v489h-786v260z" />
    <glyph glyph-name="logicalnot" unicode="&#xe93f;" horiz-adv-x="1265" 
d="M109 864h1048v-749h-262v489h-786v260z" />
    <glyph glyph-name="registered" unicode="&#xae;" horiz-adv-x="1634" 
d="M109 684q0 143 56 274t150.5 226t225.5 151t274 56q145 0 276.5 -56t226.5 -151t151.5 -226t56.5 -274q0 -144 -56.5 -275.5t-151.5 -226.5t-226.5 -151t-276.5 -56q-115 0 -222.5 36t-194.5 101.5t-152.5 152.5t-101 195.5t-35.5 223.5zM252 684q0 -154 76 -284.5
t205.5 -206.5t281.5 -76q154 0 284.5 76t206.5 206.5t76 284.5q0 153 -76 283t-206.5 206t-284.5 76q-152 0 -282 -76t-205.5 -206t-75.5 -283zM494 330v753h309q78 0 136.5 -10.5t107 -35.5t73.5 -72t25 -115q0 -166 -178 -215l219 -305h-221l-207 284h-66v-284h-198z
M692 928v-160h107q66 0 102.5 17t36.5 63t-36.5 63t-102.5 17h-107z" />
    <glyph glyph-name="registered" unicode="&#xe940;" horiz-adv-x="1634" 
d="M109 684q0 143 56 274t150.5 226t225.5 151t274 56q145 0 276.5 -56t226.5 -151t151.5 -226t56.5 -274q0 -144 -56.5 -275.5t-151.5 -226.5t-226.5 -151t-276.5 -56q-115 0 -222.5 36t-194.5 101.5t-152.5 152.5t-101 195.5t-35.5 223.5zM252 684q0 -154 76 -284.5
t205.5 -206.5t281.5 -76q154 0 284.5 76t206.5 206.5t76 284.5q0 153 -76 283t-206.5 206t-284.5 76q-152 0 -282 -76t-205.5 -206t-75.5 -283zM494 330v753h309q78 0 136.5 -10.5t107 -35.5t73.5 -72t25 -115q0 -166 -178 -215l219 -305h-221l-207 284h-66v-284h-198z
M692 928v-160h107q66 0 102.5 17t36.5 63t-36.5 63t-102.5 17h-107z" />
    <glyph glyph-name="macron" unicode="&#xaf;" horiz-adv-x="829" 
d="M721 1167h-612v201h612v-201z" />
    <glyph glyph-name="degree" unicode="&#xb0;" horiz-adv-x="827" 
d="M82 1059q0 137 98 234.5t234 97.5q138 0 234.5 -97.5t96.5 -234.5q0 -138 -96.5 -236t-234.5 -98q-137 0 -234.5 98t-97.5 236zM414 1208q-62 0 -106 -44t-44 -105t44 -105.5t106 -44.5q63 0 106 44t43 106t-43 105.5t-106 43.5z" />
    <glyph glyph-name="degree" unicode="&#xe941;" horiz-adv-x="827" 
d="M82 1059q0 137 98 234.5t234 97.5q138 0 234.5 -97.5t96.5 -234.5q0 -138 -96.5 -236t-234.5 -98q-137 0 -234.5 98t-97.5 236zM414 1208q-62 0 -106 -44t-44 -105t44 -105.5t106 -44.5q63 0 106 44t43 106t-43 105.5t-106 43.5z" />
    <glyph glyph-name="plusminus" unicode="&#xb1;" horiz-adv-x="1265" 
d="M109 801h393v213h262v-213h393v-221h-393v-211h-262v211h-393v221zM1157 0h-1048v262h1048v-262z" />
    <glyph glyph-name="plusminus" unicode="&#xe942;" horiz-adv-x="1265" 
d="M109 801h393v213h262v-213h393v-221h-393v-211h-262v211h-393v221zM1157 0h-1048v262h1048v-262z" />
    <glyph glyph-name="twosuperior" unicode="&#xb2;" horiz-adv-x="833" 
d="M109 825v166l73 51q57 38 91.5 62t86 64.5t80.5 71.5t51.5 68.5t22.5 69.5q0 35 -25 54.5t-63 19.5q-43 0 -72 -24.5t-37 -63.5l-186 68q32 86 110.5 131t194.5 45q129 0 209 -56.5t80 -165.5q0 -55 -21 -103.5t-69.5 -96.5t-99 -86t-136.5 -96h324v-179h-614z" />
    <glyph glyph-name="twosuperior" unicode="&#xe943;" horiz-adv-x="833" 
d="M109 825v166l73 51q57 38 91.5 62t86 64.5t80.5 71.5t51.5 68.5t22.5 69.5q0 35 -25 54.5t-63 19.5q-43 0 -72 -24.5t-37 -63.5l-186 68q32 86 110.5 131t194.5 45q129 0 209 -56.5t80 -165.5q0 -55 -21 -103.5t-69.5 -96.5t-99 -86t-136.5 -96h324v-179h-614z" />
    <glyph glyph-name="threesuperior" unicode="&#xb3;" horiz-adv-x="845" 
d="M416 809q-112 0 -191 44t-116 126l186 68q13 -39 47 -59.5t78 -20.5q50 0 76 22.5t26 59.5q0 43 -36.5 62t-112.5 19h-31v173h31q133 0 133 77q0 36 -27.5 54t-66.5 18t-69 -18t-42 -52l-182 68q35 77 113 117.5t188 40.5q132 0 214.5 -55.5t82.5 -153.5q0 -58 -29 -103
t-72 -67q56 -20 88.5 -69t32.5 -116q0 -73 -45 -127.5t-116.5 -81t-159.5 -26.5z" />
    <glyph glyph-name="threesuperior" unicode="&#xe944;" horiz-adv-x="845" 
d="M416 809q-112 0 -191 44t-116 126l186 68q13 -39 47 -59.5t78 -20.5q50 0 76 22.5t26 59.5q0 43 -36.5 62t-112.5 19h-31v173h31q133 0 133 77q0 36 -27.5 54t-66.5 18t-69 -18t-42 -52l-182 68q35 77 113 117.5t188 40.5q132 0 214.5 -55.5t82.5 -153.5q0 -58 -29 -103
t-72 -67q56 -20 88.5 -69t32.5 -116q0 -73 -45 -127.5t-116.5 -81t-159.5 -26.5z" />
    <glyph glyph-name="acute" unicode="&#xb4;" horiz-adv-x="643" 
d="M109 1176l227 276q30 37 84 37q50 0 82.5 -32.5t32.5 -82.5q0 -55 -39 -86l-154 -112h-233z" />
    <glyph glyph-name="acute" unicode="&#xe9cb;" horiz-adv-x="643" 
d="M109 1176l227 276q30 37 84 37q50 0 82.5 -32.5t32.5 -82.5q0 -55 -39 -86l-154 -112h-233z" />
    <glyph glyph-name="paragraph" unicode="&#xb6;" horiz-adv-x="1054" 
d="M49 979q0 160 113.5 273.5t273.5 113.5h578v-137h-96v-1561h-195v1561h-188v-1561h-195v936q-126 33 -208.5 136.5t-82.5 238.5z" />
    <glyph glyph-name="paragraph" unicode="&#xe946;" horiz-adv-x="1054" 
d="M49 979q0 160 113.5 273.5t273.5 113.5h578v-137h-96v-1561h-195v1561h-188v-1561h-195v936q-126 33 -208.5 136.5t-82.5 238.5z" />
    <glyph glyph-name="periodcentered" unicode="&#xb7;" horiz-adv-x="616" 
d="M109 508q0 83 58.5 141t141.5 58q82 0 140.5 -58t58.5 -141t-58.5 -141t-140.5 -58q-83 0 -141.5 58t-58.5 141z" />
    <glyph glyph-name="periodcentered" unicode="&#xe947;" horiz-adv-x="616" 
d="M109 508q0 83 58.5 141t141.5 58q82 0 140.5 -58t58.5 -141t-58.5 -141t-140.5 -58q-83 0 -141.5 58t-58.5 141z" />
    <glyph glyph-name="cedilla" unicode="&#xb8;" horiz-adv-x="657" 
d="M330 -383q-94 0 -180 27l32 102q52 -27 125 -27q90 0 90 56q0 25 -20.5 39t-54.5 14q-26 0 -56 -10q-18 -6 -35 4q-15 8 -20 25t4 32l107 172l84 -51l-62 -98q27 6 70 6q69 0 122.5 -31.5t53.5 -95.5q0 -57 -39 -95t-95 -53.5t-126 -15.5z" />
    <glyph glyph-name="cedilla" unicode="&#xe9cd;" horiz-adv-x="657" 
d="M330 -383q-94 0 -180 27l32 102q52 -27 125 -27q90 0 90 56q0 25 -20.5 39t-54.5 14q-26 0 -56 -10q-18 -6 -35 4q-15 8 -20 25t4 32l107 172l84 -51l-62 -98q27 6 70 6q69 0 122.5 -31.5t53.5 -95.5q0 -57 -39 -95t-95 -53.5t-126 -15.5z" />
    <glyph glyph-name="onesuperior" unicode="&#xb9;" horiz-adv-x="595" 
d="M109 1503q49 0 78.5 2.5t60.5 11t49.5 28t28.5 50.5h161v-770h-206v500h-172v178z" />
    <glyph glyph-name="onesuperior" unicode="&#xe948;" horiz-adv-x="595" 
d="M109 1503q49 0 78.5 2.5t60.5 11t49.5 28t28.5 50.5h161v-770h-206v500h-172v178z" />
    <glyph glyph-name="ordmasculine" unicode="&#xba;" horiz-adv-x="837" 
d="M117 1110q0 148 87.5 224.5t223.5 76.5t222.5 -76.5t86.5 -224.5q0 -147 -87 -224t-222 -77t-223 77t-88 224zM428 1253q-44 0 -72 -37t-28 -106t28 -106t72 -37q45 0 72.5 37t27.5 106t-27.5 106t-72.5 37z" />
    <glyph glyph-name="ordmasculine" unicode="&#xe949;" horiz-adv-x="837" 
d="M117 1110q0 148 87.5 224.5t223.5 76.5t222.5 -76.5t86.5 -224.5q0 -147 -87 -224t-222 -77t-223 77t-88 224zM428 1253q-44 0 -72 -37t-28 -106t28 -106t72 -37q45 0 72.5 37t27.5 106t-27.5 106t-72.5 37z" />
    <glyph glyph-name="guillemotright" unicode="&#xbb;" horiz-adv-x="1370" 
d="M905 514l-303 430h356l304 -430l-304 -432h-356zM109 82l307 432l-305 430h356l301 -430l-301 -432h-358z" />
    <glyph glyph-name="guillemotright" unicode="&#xe94a;" horiz-adv-x="1370" 
d="M905 514l-303 430h356l304 -430l-304 -432h-356zM109 82l307 432l-305 430h356l301 -430l-301 -432h-358z" />
    <glyph glyph-name="onequarter" unicode="&#xbc;" horiz-adv-x="1746" 
d="M225 0l959 1366h260l-959 -1366h-260zM942 152v159l371 457h207v-438h118v-178h-118v-152h-207v152h-371zM281 1096h-172v180q50 0 78.5 2t60 10.5t50 27.5t28.5 50h161v-768h-206v498zM1153 330h160v194z" />
    <glyph glyph-name="onequarter" unicode="&#xe94b;" horiz-adv-x="1746" 
d="M225 0l959 1366h260l-959 -1366h-260zM942 152v159l371 457h207v-438h118v-178h-118v-152h-207v152h-371zM281 1096h-172v180q50 0 78.5 2t60 10.5t50 27.5t28.5 50h161v-768h-206v498zM1153 330h160v194z" />
    <glyph glyph-name="onehalf" unicode="&#xbd;" horiz-adv-x="1753" 
d="M485 0h-260l959 1366h260zM1028 0v166q21 15 92 63t112.5 79t95 76.5t80 85.5t26.5 75q0 41 -24.5 61.5t-63.5 20.5q-44 0 -73 -24t-38 -64l-186 67q32 85 110.5 129.5t194.5 44.5q130 0 210.5 -55.5t80.5 -163.5q0 -45 -16 -86.5t-40.5 -75t-70.5 -73.5t-88.5 -71
t-110.5 -77h323v-178h-614zM281 1096h-172v180q50 0 78.5 2t60 10.5t50 27.5t28.5 50h161v-768h-206v498z" />
    <glyph glyph-name="onehalf" unicode="&#xe94c;" horiz-adv-x="1753" 
d="M485 0h-260l959 1366h260zM1028 0v166q21 15 92 63t112.5 79t95 76.5t80 85.5t26.5 75q0 41 -24.5 61.5t-63.5 20.5q-44 0 -73 -24t-38 -64l-186 67q32 85 110.5 129.5t194.5 44.5q130 0 210.5 -55.5t80.5 -163.5q0 -45 -16 -86.5t-40.5 -75t-70.5 -73.5t-88.5 -71
t-110.5 -77h323v-178h-614zM281 1096h-172v180q50 0 78.5 2t60 10.5t50 27.5t28.5 50h161v-768h-206v498z" />
    <glyph glyph-name="threequarters" unicode="&#xbe;" horiz-adv-x="1964" 
d="M410 0l958 1366h260l-958 -1366h-260zM1161 311l371 457h207v-438h116v-178h-116v-152h-207v152h-371v159zM416 594q-112 0 -191 44t-116 124l186 65q13 -37 47 -57t78 -20q50 0 76 21.5t26 55.5q0 46 -36.5 66t-112.5 20h-31v172h31q133 0 133 80q0 33 -28 51.5
t-66 18.5q-39 0 -69 -18t-42 -52l-182 68q35 77 114 117.5t193 40.5q128 0 209.5 -56t81.5 -153q0 -58 -29 -103t-72 -67q56 -20 88.5 -69t32.5 -116q0 -108 -93 -170.5t-228 -62.5zM1532 524l-162 -194h162v194z" />
    <glyph glyph-name="threequarters" unicode="&#xe94d;" horiz-adv-x="1964" 
d="M410 0l958 1366h260l-958 -1366h-260zM1161 311l371 457h207v-438h116v-178h-116v-152h-207v152h-371v159zM416 594q-112 0 -191 44t-116 124l186 65q13 -37 47 -57t78 -20q50 0 76 21.5t26 55.5q0 46 -36.5 66t-112.5 20h-31v172h31q133 0 133 80q0 33 -28 51.5
t-66 18.5q-39 0 -69 -18t-42 -52l-182 68q35 77 114 117.5t193 40.5q128 0 209.5 -56t81.5 -153q0 -58 -29 -103t-72 -67q56 -20 88.5 -69t32.5 -116q0 -108 -93 -170.5t-228 -62.5zM1532 524l-162 -194h162v194z" />
    <glyph glyph-name="questiondown" unicode="&#xbf;" horiz-adv-x="1257" 
d="M102 -4q0 64 19 116.5t56.5 92.5t80 69t102.5 58q56 25 87.5 42.5t59.5 42t40.5 54.5t13.5 72h316q0 -143 -48.5 -219.5t-177.5 -141.5q-20 -10 -72 -33t-79.5 -37t-52.5 -39.5t-25 -52.5q0 -57 57 -90.5t152 -33.5q215 0 264 145l281 -102q-57 -140 -201.5 -216.5
t-347.5 -76.5q-104 0 -196.5 21.5t-167 63t-118 110t-43.5 155.5zM717 664q-82 0 -140.5 57.5t-58.5 140.5t58.5 142t140.5 59q83 0 140.5 -58.5t57.5 -142.5q0 -83 -57.5 -140.5t-140.5 -57.5z" />
    <glyph glyph-name="questiondown" unicode="&#xe94e;" horiz-adv-x="1257" 
d="M102 -4q0 64 19 116.5t56.5 92.5t80 69t102.5 58q56 25 87.5 42.5t59.5 42t40.5 54.5t13.5 72h316q0 -143 -48.5 -219.5t-177.5 -141.5q-20 -10 -72 -33t-79.5 -37t-52.5 -39.5t-25 -52.5q0 -57 57 -90.5t152 -33.5q215 0 264 145l281 -102q-57 -140 -201.5 -216.5
t-347.5 -76.5q-104 0 -196.5 21.5t-167 63t-118 110t-43.5 155.5zM717 664q-82 0 -140.5 57.5t-58.5 140.5t58.5 142t140.5 59q83 0 140.5 -58.5t57.5 -142.5q0 -83 -57.5 -140.5t-140.5 -57.5z" />
    <glyph glyph-name="Agrave" unicode="&#xc0;" horiz-adv-x="1413" 
d="M362 0h-352l518 1368h357l518 -1368h-352l-82 244h-525zM705 1026l-173 -520h349zM399 1610q-41 41 -41 88q0 44 35.5 79t79.5 35q45 0 78 -30l256 -285h-256z" />
    <glyph glyph-name="Aacute" unicode="&#xc1;" horiz-adv-x="1413" 
d="M362 0h-352l518 1368h357l518 -1368h-352l-82 244h-525zM705 1026l-173 -520h349zM823 1497h-256q244 273 244 275l10 10q33 30 78 30q47 0 81 -33.5t34 -80.5q0 -49 -39 -88z" />
    <glyph glyph-name="Acircumflex" unicode="&#xc2;" horiz-adv-x="1413" 
d="M362 0h-352l518 1368h357l518 -1368h-352l-82 244h-525zM571 1497h-264l301 272q46 39 101 39q58 0 100 -39l303 -272h-264l-139 125zM532 506h349l-176 520z" />
    <glyph glyph-name="Atilde" unicode="&#xc3;" horiz-adv-x="1413" 
d="M362 0h-352l518 1368h357l518 -1368h-352l-82 244h-525zM317 1497q19 114 84 175t172 61q55 0 100.5 -21t82.5 -42t71 -21q48 0 88 43q38 41 74 41q52 0 76 -41.5t-2 -87.5q-31 -55 -93.5 -86t-129.5 -31q-72 0 -140 33q-12 6 -31 16.5t-28 15t-22 8.5t-25 5
q-37 2 -62.5 -16.5t-31.5 -51.5h-183zM705 1026l-173 -520h349z" />
    <glyph glyph-name="Adieresis" unicode="&#xc4;" horiz-adv-x="1413" 
d="M362 0h-352l518 1368h357l518 -1368h-352l-82 244h-525zM705 1026l-173 -520h349zM365 1630q0 60 42.5 103t102.5 43t101.5 -43t41.5 -103t-41.5 -101.5t-101.5 -41.5t-102.5 41.5t-42.5 101.5zM762 1630q0 60 42.5 103t102.5 43q58 0 100 -43t42 -103t-41.5 -101.5
t-100.5 -41.5q-60 0 -102.5 41.5t-42.5 101.5z" />
    <glyph glyph-name="Aring" unicode="&#xc5;" horiz-adv-x="1413" 
d="M10 0l496 1309q-70 80 -70 184q0 112 79 191t192 79t192.5 -79t79.5 -191q0 -103 -72 -182l496 -1311h-352l-82 244h-525l-82 -244h-352zM705 1026l-173 -520h349zM610 1493q0 -40 28.5 -68t68.5 -28t68 28t28 68t-28 68t-68 28t-68.5 -28t-28.5 -68z" />
    <glyph glyph-name="AE" unicode="&#xc6;" horiz-adv-x="2080" 
d="M362 0h-352l975 1366h1051v-285h-727v-235h446v-283h-446v-278h727v-285h-1051v244h-459zM698 506h287v422z" />
    <glyph glyph-name="AE" unicode="&#xe953;" horiz-adv-x="2080" 
d="M362 0h-352l975 1366h1051v-285h-727v-235h446v-283h-446v-278h727v-285h-1051v244h-459zM698 506h287v422z" />
    <glyph glyph-name="Ccedilla" unicode="&#xc7;" horiz-adv-x="1394" 
d="M72 684q0 324 187 516.5t505 192.5q190 0 335.5 -85t225.5 -233l-287 -104q-43 79 -119 117t-165 38q-147 0 -243.5 -119t-96.5 -323q0 -209 96 -325.5t248 -116.5q89 0 168.5 35.5t122.5 117.5l284 -104q-84 -148 -235.5 -232t-345.5 -84l-45 -73q27 6 69 6
q69 0 122.5 -31.5t53.5 -95.5q0 -57 -39 -95t-95 -53.5t-126 -15.5q-94 0 -180 27l33 102q52 -27 125 -27q90 0 90 56q0 24 -21 38.5t-55 14.5q-25 0 -55 -10q-18 -6 -35 4q-15 8 -20 25t4 32l63 103q-267 34 -418 220t-151 482z" />
    <glyph glyph-name="Egrave" unicode="&#xc8;" horiz-adv-x="1187" 
d="M90 0v1368h1053v-285h-729v-237h444v-285h-444v-276h729v-285h-1053zM340 1698q0 44 35.5 79t79.5 35t77 -30l256 -285h-256l-151 113q-41 41 -41 88z" />
    <glyph glyph-name="Eacute" unicode="&#xc9;" horiz-adv-x="1187" 
d="M1143 0h-1053v1368h1053v-285h-729v-237h444v-285h-444v-276h729v-285zM451 1497q243 273 243 275l11 10q33 30 77 30q47 0 81 -33.5t34 -80.5q0 -49 -39 -88l-151 -113h-256z" />
    <glyph glyph-name="Ecircumflex" unicode="&#xca;" horiz-adv-x="1187" 
d="M90 1368h1053v-285h-729v-237h444v-285h-444v-276h729v-285h-1053v1368zM215 1497l301 272q46 39 100 39q59 0 101 -39l303 -272h-264l-140 125l-137 -125h-264z" />
    <glyph glyph-name="Edieresis" unicode="&#xcb;" horiz-adv-x="1187" 
d="M90 1368h1053v-285h-729v-237h444v-285h-444v-276h729v-285h-1053v1368zM274 1630q0 60 43 103t103 43t101.5 -43t41.5 -103t-41.5 -101.5t-101.5 -41.5t-103 41.5t-43 101.5zM817 1487q-60 0 -102.5 41.5t-42.5 101.5t42.5 103t102.5 43q58 0 99.5 -43t41.5 -103
t-41 -101.5t-100 -41.5z" />
    <glyph glyph-name="Igrave" unicode="&#xcc;" horiz-adv-x="937" 
d="M117 1368h704v-254h-188v-860h188v-254h-704v254h192v860h-192v254zM162 1698q0 44 35 79t79 35q45 0 78 -30l256 -285h-256l-151 113q-41 41 -41 88z" />
    <glyph glyph-name="Iacute" unicode="&#xcd;" horiz-adv-x="937" 
d="M117 1368h704v-254h-188v-860h188v-254h-704v254h192v860h-192v254zM590 1497h-256q244 273 244 275l10 10q33 30 78 30q47 0 80.5 -33.5t33.5 -80.5q0 -49 -39 -88z" />
    <glyph glyph-name="Icircumflex" unicode="&#xce;" horiz-adv-x="937" 
d="M821 0h-704v254h192v860h-192v254h704v-254h-188v-860h188v-254zM68 1497l301 272q46 39 100 39q58 0 100 -39l303 -272h-264l-139 125l-137 -125h-264z" />
    <glyph glyph-name="Idieresis" unicode="&#xcf;" horiz-adv-x="937" 
d="M117 0v254h192v860h-192v254h704v-254h-188v-860h188v-254h-704zM127 1630q0 60 42.5 103t102.5 43t102 -43t42 -103t-42 -101.5t-102 -41.5t-102.5 41.5t-42.5 101.5zM670 1487q-60 0 -103 41.5t-43 101.5t43 103t103 43q58 0 99.5 -43t41.5 -103t-41 -101.5t-100 -41.5
z" />
    <glyph glyph-name="Eth" unicode="&#xd0;" horiz-adv-x="1574" 
d="M27 844h241v524h451q792 0 792 -684t-792 -684h-451v563h-241v281zM592 844h158v-281h-158v-291h133q55 0 99.5 4t93 15t85.5 29.5t71 50t56 74t35 103.5t13 136q0 105 -25.5 181.5t-65.5 121t-101.5 70.5t-122 34.5t-138.5 8.5h-133v-256z" />
    <glyph glyph-name="Ntilde" unicode="&#xd1;" horiz-adv-x="1433" 
d="M90 1368h412l528 -975v975h313v-1368h-413l-529 975v-975h-311v1368zM506 1497h-182q19 114 84 175t172 61q55 0 100.5 -21t82.5 -42t71 -21q48 0 88 43q38 41 73 41q52 0 76 -41.5t-2 -87.5q-31 -55 -93.5 -86t-129.5 -31q-71 0 -139 33q-12 6 -31.5 16.5t-28 15
t-22 8.5t-25.5 5q-37 2 -62.5 -16.5t-31.5 -51.5z" />
    <glyph glyph-name="Ograve" unicode="&#xd2;" horiz-adv-x="1564" 
d="M780 -25q-208 0 -369 88t-250 249.5t-89 371.5t89 371.5t250 249.5t369 88t370 -88t252.5 -249.5t90.5 -371.5t-90.5 -371.5t-252.5 -249.5t-370 -88zM414 684q0 -210 104.5 -326t261.5 -116q76 0 142.5 28.5t117.5 82.5t80 139.5t29 191.5t-29 191.5t-80 139.5
t-117.5 82.5t-142.5 28.5q-157 0 -261.5 -116t-104.5 -326zM504 1610q-41 41 -41 88q0 44 35.5 79t79.5 35t77 -30l256 -285h-256z" />
    <glyph glyph-name="Oacute" unicode="&#xd3;" horiz-adv-x="1564" 
d="M780 -25q-208 0 -369 88t-250 249.5t-89 371.5t89 371.5t250 249.5t369 88t370 -88t252.5 -249.5t90.5 -371.5t-90.5 -371.5t-252.5 -249.5t-370 -88zM414 684q0 -210 104.5 -326t261.5 -116q76 0 142.5 28.5t117.5 82.5t80 139.5t29 191.5t-29 191.5t-80 139.5
t-117.5 82.5t-142.5 28.5q-157 0 -261.5 -116t-104.5 -326zM655 1497q244 273 244 275l10 10q33 30 78 30q47 0 81 -33.5t34 -80.5q0 -49 -39 -88l-152 -113h-256z" />
    <glyph glyph-name="Ocircumflex" unicode="&#xd4;" horiz-adv-x="1564" 
d="M72 684q0 210 89 371.5t250 249.5t369 88t370 -88t252.5 -249.5t90.5 -371.5t-90.5 -371.5t-252.5 -249.5t-370 -88t-369 88t-250 249.5t-89 371.5zM414 684q0 -210 104.5 -326t261.5 -116q76 0 142.5 28.5t117.5 82.5t80 139.5t29 191.5t-29 191.5t-80 139.5
t-117.5 82.5t-142.5 28.5q-157 0 -261.5 -116t-104.5 -326zM647 1497h-264l301 272q46 39 100 39q59 0 101 -39l303 -272h-264l-140 125z" />
    <glyph glyph-name="Otilde" unicode="&#xd5;" horiz-adv-x="1564" 
d="M72 684q0 210 89 371.5t250 249.5t369 88t370 -88t252.5 -249.5t90.5 -371.5t-90.5 -371.5t-252.5 -249.5t-370 -88t-369 88t-250 249.5t-89 371.5zM780 1126q-157 0 -261.5 -116t-104.5 -326t104.5 -326t261.5 -116q76 0 142.5 28.5t117.5 82.5t80 139.5t29 191.5
t-29 191.5t-80 139.5t-117.5 82.5t-142.5 28.5zM575 1503h-182q19 114 84 175t172 61q55 0 100.5 -21t82.5 -42t71 -21q48 0 88 43q38 41 74 41q52 0 76 -41.5t-2 -87.5q-31 -55 -93.5 -86t-130.5 -31q-71 0 -139 33q-12 6 -31 16.5t-28 15t-22 8.5t-25 5q-37 2 -63 -16.5
t-32 -51.5z" />
    <glyph glyph-name="Odieresis" unicode="&#xd6;" horiz-adv-x="1564" 
d="M72 684q0 210 89 371.5t250 249.5t369 88t370 -88t252.5 -249.5t90.5 -371.5t-90.5 -371.5t-252.5 -249.5t-370 -88t-369 88t-250 249.5t-89 371.5zM414 684q0 -210 104.5 -326t261.5 -116q76 0 142.5 28.5t117.5 82.5t80 139.5t29 191.5t-29 191.5t-80 139.5
t-117.5 82.5t-142.5 28.5q-157 0 -261.5 -116t-104.5 -326zM440 1630q0 60 43 103t103 43t101.5 -43t41.5 -103t-41.5 -101.5t-101.5 -41.5t-103 41.5t-43 101.5zM983 1487q-60 0 -102.5 41.5t-42.5 101.5t42.5 103t102.5 43q58 0 99.5 -43t41.5 -103t-41 -101.5t-100 -41.5
z" />
    <glyph glyph-name="multiply" unicode="&#xd7;" horiz-adv-x="1103" 
d="M1020 788l-285 -280l279 -279l-187 -184l-274 279l-277 -279l-186 184l279 279l-285 280l186 187l283 -285l281 285z" />
    <glyph glyph-name="multiply" unicode="&#xe964;" horiz-adv-x="1103" 
d="M1020 788l-285 -280l279 -279l-187 -184l-274 279l-277 -279l-186 184l279 279l-285 280l186 187l283 -285l281 285z" />
    <glyph glyph-name="Oslash" unicode="&#xd8;" horiz-adv-x="1562" 
d="M246 195q-174 190 -174 489q0 317 196 512t510 195q230 0 406 -109l92 109l115 -99l-91 -106q92 -93 141.5 -221.5t49.5 -280.5q0 -210 -90.5 -371.5t-252.5 -249.5t-370 -88q-238 0 -418 119l-102 -119l-115 99zM557 322q99 -80 221 -80q76 0 142.5 28.5t117.5 82.5
t80 139.5t29 191.5q0 151 -57 256zM778 1124q-156 0 -260 -116t-104 -324q0 -136 49 -240l526 613q-88 67 -211 67z" />
    <glyph glyph-name="Oslash" unicode="&#xe965;" horiz-adv-x="1562" 
d="M246 195q-174 190 -174 489q0 317 196 512t510 195q230 0 406 -109l92 109l115 -99l-91 -106q92 -93 141.5 -221.5t49.5 -280.5q0 -210 -90.5 -371.5t-252.5 -249.5t-370 -88q-238 0 -418 119l-102 -119l-115 99zM557 322q99 -80 221 -80q76 0 142.5 28.5t117.5 82.5
t80 139.5t29 191.5q0 151 -57 256zM778 1124q-156 0 -260 -116t-104 -324q0 -136 49 -240l526 613q-88 67 -211 67z" />
    <glyph glyph-name="Ugrave" unicode="&#xd9;" horiz-adv-x="1345" 
d="M84 598v770h324v-797q0 -83 10 -138.5t37.5 -102t81.5 -68.5t137 -22q82 0 135.5 22t81 68.5t37.5 102t10 138.5v797h324v-770q0 -322 -137.5 -472.5t-450.5 -150.5q-316 0 -453 150.5t-137 472.5zM352 1698q0 44 35.5 79t79.5 35q45 0 78 -30l256 -285h-256l-152 113
q-41 41 -41 88z" />
    <glyph glyph-name="Uacute" unicode="&#xda;" horiz-adv-x="1345" 
d="M84 1368h324v-797q0 -83 10 -138.5t37.5 -102t81.5 -68.5t137 -22q82 0 135.5 22t81 68.5t37.5 102t10 138.5v797h324v-770q0 -322 -137.5 -472.5t-450.5 -150.5q-316 0 -453 150.5t-137 472.5v770zM801 1497h-256q243 273 243 275l11 10q33 30 78 30q47 0 80.5 -33.5
t33.5 -80.5q0 -49 -39 -88z" />
    <glyph glyph-name="Ucircumflex" unicode="&#xdb;" horiz-adv-x="1345" 
d="M84 598v770h324v-797q0 -83 10 -138.5t37.5 -102t81.5 -68.5t137 -22q82 0 135.5 22t81 68.5t37.5 102t10 138.5v797h324v-770q0 -322 -137.5 -472.5t-450.5 -150.5q-316 0 -453 150.5t-137 472.5zM535 1497h-265l301 272q46 39 101 39q58 0 100 -39l303 -272h-264
l-139 125z" />
    <glyph glyph-name="Udieresis" unicode="&#xdc;" horiz-adv-x="1345" 
d="M674 -25q-316 0 -453 150.5t-137 472.5v770h324v-797q0 -83 10 -138.5t37.5 -102t81.5 -68.5t137 -22q82 0 135.5 22t81 68.5t37.5 102t10 138.5v797h324v-770q0 -322 -137.5 -472.5t-450.5 -150.5zM477 1487q-60 0 -102.5 41.5t-42.5 101.5t42.5 103t102.5 43t102 -43
t42 -103t-42 -101.5t-102 -41.5zM874 1487q-60 0 -102.5 41.5t-42.5 101.5t42.5 103t102.5 43q58 0 100 -43t42 -103t-41.5 -101.5t-100.5 -41.5z" />
    <glyph glyph-name="Yacute" unicode="&#xdd;" horiz-adv-x="1406" 
d="M543 532l-523 836h377l305 -526l306 526h378l-522 -836v-532h-321v532zM831 1497h-256q244 273 244 275l10 10q33 30 78 30q47 0 81 -33.5t34 -80.5q0 -49 -39 -88z" />
    <glyph glyph-name="Thorn" unicode="&#xde;" horiz-adv-x="1275" 
d="M90 0v1366h326v-215h180q112 0 200.5 -12t168.5 -42.5t133.5 -80.5t84.5 -129.5t31 -184.5q0 -104 -31 -181.5t-84.5 -126.5t-134 -79t-168.5 -41.5t-200 -11.5h-180v-262h-326zM416 551h190q49 0 84.5 3t72 12.5t59 26.5t36.5 46t14 70q0 42 -14 72t-36.5 47t-59 27
t-71.5 12.5t-85 2.5h-190v-319z" />
    <glyph glyph-name="Thorn" unicode="&#xe96b;" horiz-adv-x="1275" 
d="M90 0v1366h326v-215h180q112 0 200.5 -12t168.5 -42.5t133.5 -80.5t84.5 -129.5t31 -184.5q0 -104 -31 -181.5t-84.5 -126.5t-134 -79t-168.5 -41.5t-200 -11.5h-180v-262h-326zM416 551h190q49 0 84.5 3t72 12.5t59 26.5t36.5 46t14 70q0 42 -14 72t-36.5 47t-59 27
t-71.5 12.5t-85 2.5h-190v-319z" />
    <glyph glyph-name="germandbls" unicode="&#xdf;" horiz-adv-x="1288" 
d="M403 0h-313v891q0 137 38 235t113 155.5t176 83.5t236 26q140 0 249 -42t174 -129.5t65 -209.5q0 -80 -31.5 -146.5t-77.5 -105.5q88 -46 141.5 -132t53.5 -208q0 -217 -134.5 -330t-361.5 -113q-51 0 -78 2l-84 275q71 -19 138 -19q82 0 141 46.5t59 126.5
q0 204 -274 204h-64v240h54q217 0 217 145q0 65 -49 104.5t-146 39.5q-74 0 -121.5 -16t-74 -52t-36.5 -83.5t-10 -119.5v-868z" />
    <glyph glyph-name="germandbls" unicode="&#xe96c;" horiz-adv-x="1288" 
d="M403 0h-313v891q0 137 38 235t113 155.5t176 83.5t236 26q140 0 249 -42t174 -129.5t65 -209.5q0 -80 -31.5 -146.5t-77.5 -105.5q88 -46 141.5 -132t53.5 -208q0 -217 -134.5 -330t-361.5 -113q-51 0 -78 2l-84 275q71 -19 138 -19q82 0 141 46.5t59 126.5
q0 204 -274 204h-64v240h54q217 0 217 145q0 65 -49 104.5t-146 39.5q-74 0 -121.5 -16t-74 -52t-36.5 -83.5t-10 -119.5v-868z" />
    <glyph glyph-name="agrave" unicode="&#xe0;" horiz-adv-x="1122" 
d="M39 274q0 90 48.5 156t142.5 107t210 63.5t273 34.5v39q0 85 -42.5 122.5t-127.5 37.5q-67 0 -114 -30.5t-62 -90.5l-263 94q53 106 175 171.5t290 65.5q224 0 337.5 -99.5t113.5 -323.5v-224q0 -101 10 -216.5t25 -180.5h-289l-37 123q-106 -148 -340 -148
q-149 0 -249.5 82t-100.5 217zM360 297q0 -49 41 -79t103 -30q101 0 158 53.5t57 184.5v25q-88 -7 -148 -17t-111 -27t-75.5 -44t-24.5 -66zM297 1374q0 47 34 82t81 35q43 0 77 -31l234 -284h-234l-153 112q-39 39 -39 86z" />
    <glyph glyph-name="aacute" unicode="&#xe1;" horiz-adv-x="1122" 
d="M389 -25q-149 0 -249.5 82t-100.5 217q0 90 48.5 156t142.5 107t210 63.5t273 34.5v39q0 85 -42.5 122.5t-127.5 37.5q-67 0 -114 -30.5t-62 -90.5l-263 94q53 106 175 171.5t290 65.5q224 0 337.5 -99.5t113.5 -323.5v-224q0 -101 10 -216.5t25 -180.5h-289l-37 123
q-106 -148 -340 -148zM719 451q-88 -7 -148 -17t-111 -27t-75.5 -44t-24.5 -66q0 -49 41 -79t103 -30q101 0 158 53.5t57 184.5v25zM707 1176h-234l227 276q30 37 84 37q50 0 82.5 -32.5t32.5 -82.5q0 -55 -39 -86z" />
    <glyph glyph-name="acircumflex" unicode="&#xe2;" horiz-adv-x="1122" 
d="M389 -25q-149 0 -249.5 82t-100.5 217q0 90 48.5 156t142.5 107t210 63.5t273 34.5v39q0 85 -42.5 122.5t-127.5 37.5q-67 0 -114 -30.5t-62 -90.5l-263 94q53 106 175 171.5t290 65.5q224 0 337.5 -99.5t113.5 -323.5v-224q0 -101 10 -216.5t25 -180.5h-289l-37 123
q-106 -148 -340 -148zM170 1176l301 270q44 41 102 41q55 0 103 -41l299 -270h-262l-140 124l-139 -124h-264zM719 451q-88 -7 -148 -17t-111 -27t-75.5 -44t-24.5 -66q0 -49 41 -79t103 -30q101 0 158 53.5t57 184.5v25z" />
    <glyph glyph-name="atilde" unicode="&#xe3;" horiz-adv-x="1122" 
d="M39 274q0 90 48.5 156t142.5 107t210 63.5t273 34.5v39q0 85 -42.5 122.5t-127.5 37.5q-67 0 -114 -30.5t-62 -90.5l-263 94q53 106 175 171.5t290 65.5q224 0 337.5 -99.5t113.5 -323.5v-224q0 -101 10 -216.5t25 -180.5h-289l-37 123q-106 -148 -340 -148
q-149 0 -249.5 82t-100.5 217zM195 1176q19 114 83.5 174.5t172.5 60.5q55 0 100.5 -21t82.5 -42t71 -21q48 0 88 43q38 41 73 41q52 0 76 -41.5t-2 -87.5q-31 -55 -93.5 -86t-129.5 -31q-71 0 -139 33q-12 6 -31.5 16.5t-28 15t-22 8.5t-25.5 5q-37 2 -62.5 -16t-31.5 -51
h-182zM719 451q-88 -7 -148 -17t-111 -27t-75.5 -44t-24.5 -66q0 -49 41 -79t103 -30q101 0 158 53.5t57 184.5v25z" />
    <glyph glyph-name="adieresis" unicode="&#xe4;" horiz-adv-x="1122" 
d="M39 274q0 90 48.5 156t142.5 107t210 63.5t273 34.5v39q0 85 -42.5 122.5t-127.5 37.5q-67 0 -114 -30.5t-62 -90.5l-263 94q53 106 175 171.5t290 65.5q224 0 337.5 -99.5t113.5 -323.5v-224q0 -101 10 -216.5t25 -180.5h-289l-37 123q-106 -148 -340 -148
q-149 0 -249.5 82t-100.5 217zM719 451q-88 -7 -148 -17t-111 -27t-75.5 -44t-24.5 -66q0 -49 41 -79t103 -30q101 0 158 53.5t57 184.5v25zM240 1327q0 60 42.5 103t102.5 43t101.5 -43t41.5 -103t-41.5 -101.5t-101.5 -41.5t-102.5 41.5t-42.5 101.5zM637 1327
q0 60 42.5 103t102.5 43q58 0 100 -43t42 -103t-41.5 -101.5t-100.5 -41.5q-60 0 -102.5 41.5t-42.5 101.5z" />
    <glyph glyph-name="aring" unicode="&#xe5;" horiz-adv-x="1122" 
d="M39 274q0 90 48.5 156t142.5 107t210 63.5t273 34.5v39q0 85 -42.5 122.5t-127.5 37.5q-67 0 -114 -30.5t-62 -90.5l-263 94q53 106 175 171.5t290 65.5q224 0 337.5 -99.5t113.5 -323.5v-224q0 -101 10 -216.5t25 -180.5h-289l-37 123q-106 -148 -340 -148
q-149 0 -249.5 82t-100.5 217zM588 1096q-112 0 -191.5 79.5t-79.5 192.5q0 112 79 191t192 79t192.5 -79t79.5 -191t-80 -192t-192 -80zM719 451q-88 -7 -148 -17t-111 -27t-75.5 -44t-24.5 -66q0 -49 41 -79t103 -30q101 0 158 53.5t57 184.5v25zM492 1368q0 -40 28 -68
t68 -28t68 28t28 68t-28 68t-68 28t-68 -28t-28 -68z" />
    <glyph glyph-name="ae" unicode="&#xe6;" horiz-adv-x="1798" 
d="M389 -23q-151 11 -250.5 89t-99.5 210q0 338 674 338v60q0 85 -42.5 122.5t-127.5 37.5q-67 0 -114 -30.5t-62 -90.5l-263 94q53 106 175 171.5t290 65.5q227 0 336 -98q140 98 324 98q250 0 394.5 -172t129.5 -444h-754q6 -101 74 -156t160 -55q140 0 209 76l246 -90
q-76 -114 -195 -171t-250 -57q-268 0 -424 162q-24 -28 -37 -41q-66 -64 -171 -96t-222 -23zM1237 811q-93 0 -160 -50t-80 -149h465q-3 95 -66 147t-159 52zM719 428q-90 1 -152 -4t-111 -18t-72.5 -38.5t-23.5 -64.5q0 -50 41.5 -83.5t102.5 -33.5q101 0 158 54.5
t57 185.5v2z" />
    <glyph glyph-name="ae" unicode="&#xe973;" horiz-adv-x="1798" 
d="M389 -23q-151 11 -250.5 89t-99.5 210q0 338 674 338v60q0 85 -42.5 122.5t-127.5 37.5q-67 0 -114 -30.5t-62 -90.5l-263 94q53 106 175 171.5t290 65.5q227 0 336 -98q140 98 324 98q250 0 394.5 -172t129.5 -444h-754q6 -101 74 -156t160 -55q140 0 209 76l246 -90
q-76 -114 -195 -171t-250 -57q-268 0 -424 162q-24 -28 -37 -41q-66 -64 -171 -96t-222 -23zM1237 811q-93 0 -160 -50t-80 -149h465q-3 95 -66 147t-159 52zM719 428q-90 1 -152 -4t-111 -18t-72.5 -38.5t-23.5 -64.5q0 -50 41.5 -83.5t102.5 -33.5q101 0 158 54.5
t57 185.5v2z" />
    <glyph glyph-name="ccedilla" unicode="&#xe7;" horiz-adv-x="1064" 
d="M469 -18q-202 30 -311 171.5t-109 360.5q0 239 144 384.5t376 145.5q69 0 133 -14t126 -43.5t114 -82.5t86 -126l-260 -94q-46 119 -180 119q-95 0 -158 -70.5t-63 -220.5q0 -80 18.5 -139t50.5 -92t70 -48.5t82 -15.5q125 0 182 96l254 -92q-37 -65 -89.5 -113.5
t-111.5 -76.5t-119.5 -41.5t-123.5 -14.5l-45 -71q27 6 69 6q69 0 122.5 -31.5t53.5 -95.5q0 -57 -39 -95t-95 -53.5t-126 -15.5q-94 0 -180 27l33 102q52 -27 125 -27q90 0 90 56q0 24 -21 38.5t-55 14.5q-25 0 -55 -10q-18 -6 -35 4q-15 8 -20 25t4 32z" />
    <glyph glyph-name="egrave" unicode="&#xe8;" horiz-adv-x="1159" 
d="M49 514q0 158 74.5 280t198 186t272.5 64q164 0 286.5 -78.5t183 -218t50.5 -317.5h-752q7 -102 75 -157.5t161 -55.5q139 0 205 76l248 -90q-76 -113 -195 -170.5t-250 -57.5q-251 0 -404 145t-153 394zM362 614h463q-3 95 -65.5 147t-157.5 52q-94 0 -160.5 -50
t-79.5 -149zM326 1288q-39 39 -39 86q0 48 33.5 82.5t80.5 34.5q44 0 78 -31l234 -284h-234z" />
    <glyph glyph-name="eacute" unicode="&#xe9;" horiz-adv-x="1159" 
d="M49 514q0 158 74.5 280t198 186t272.5 64q164 0 286.5 -78.5t183 -218t50.5 -317.5h-752q7 -102 75 -157.5t161 -55.5q139 0 205 76l248 -90q-76 -113 -195 -170.5t-250 -57.5q-251 0 -404 145t-153 394zM362 614h463q-3 95 -65.5 147t-157.5 52q-94 0 -160.5 -50
t-79.5 -149zM477 1176l228 276q30 37 83 37q50 0 82.5 -32.5t32.5 -82.5q0 -55 -39 -86l-153 -112h-234z" />
    <glyph glyph-name="ecircumflex" unicode="&#xea;" horiz-adv-x="1159" 
d="M49 514q0 158 74.5 280t198 186t272.5 64q164 0 286.5 -78.5t183 -218t50.5 -317.5h-752q7 -102 75 -157.5t161 -55.5q139 0 205 76l248 -90q-76 -113 -195 -170.5t-250 -57.5q-251 0 -404 145t-153 394zM190 1176l302 270q44 41 102 41q54 0 102 -41l299 -270h-262
l-139 124l-139 -124h-265zM602 813q-94 0 -160.5 -50t-79.5 -149h463q-3 95 -65.5 147t-157.5 52z" />
    <glyph glyph-name="edieresis" unicode="&#xeb;" horiz-adv-x="1159" 
d="M49 514q0 158 74.5 280t198 186t272.5 64q164 0 286.5 -78.5t183 -218t50.5 -317.5h-752q7 -102 75 -157.5t161 -55.5q139 0 205 76l248 -90q-76 -113 -195 -170.5t-250 -57.5q-251 0 -404 145t-153 394zM362 614h463q-3 95 -65.5 147t-157.5 52q-94 0 -160.5 -50
t-79.5 -149zM233 1327q0 60 43 103t103 43t101.5 -43t41.5 -103t-41.5 -101.5t-101.5 -41.5t-103 41.5t-43 101.5zM776 1184q-60 0 -102.5 41.5t-42.5 101.5t42.5 103t102.5 43q58 0 100 -43t42 -103t-41.5 -101.5t-100.5 -41.5z" />
    <glyph glyph-name="igrave" unicode="&#xec;" horiz-adv-x="616" 
d="M242 780h-193v236h506v-1016h-313v780zM96 1374q0 47 34 82t81 35q44 0 78 -31l233 -284h-233l-154 112q-39 39 -39 86z" />
    <glyph glyph-name="iacute" unicode="&#xed;" horiz-adv-x="616" 
d="M242 780h-193v236h506v-1016h-313v780zM254 1176l227 276q30 37 84 37q49 0 82 -32.5t33 -82.5q0 -55 -39 -86l-154 -112h-233z" />
    <glyph glyph-name="icircumflex" unicode="&#xee;" horiz-adv-x="616" 
d="M242 780h-193v236h506v-1016h-313v780zM236 1176h-265l301 270q44 41 103 41q54 0 102 -41l299 -270h-262l-139 124z" />
    <glyph glyph-name="idieresis" unicode="&#xef;" horiz-adv-x="616" 
d="M242 780h-193v236h506v-1016h-313v780zM6 1327q0 60 43 103t103 43t101.5 -43t41.5 -103t-41.5 -101.5t-101.5 -41.5t-103 41.5t-43 101.5zM549 1184q-60 0 -103 41.5t-43 101.5t43 103t103 43q58 0 99.5 -43t41.5 -103t-41 -101.5t-100 -41.5z" />
    <glyph glyph-name="eth" unicode="&#xf0;" horiz-adv-x="1198" 
d="M586 -25q-236 0 -386.5 130t-150.5 346q0 134 65.5 244t172.5 170.5t231 60.5q177 0 293 -101q-3 186 -127 295l-129 -131l-98 96l108 109q-98 43 -231 43v250q254 0 424 -98l114 114l99 -98l-99 -96q8 -6 23 -21q131 -131 185.5 -285t54.5 -352q0 -116 -19.5 -216
t-62.5 -185.5t-106.5 -146t-155 -94.5t-205.5 -34zM586 692q-100 0 -158.5 -67t-58.5 -174q0 -111 58.5 -177.5t158.5 -66.5t160.5 67t60.5 177t-61 175.5t-160 65.5z" />
    <glyph glyph-name="eth" unicode="&#xe97d;" horiz-adv-x="1198" 
d="M586 -25q-236 0 -386.5 130t-150.5 346q0 134 65.5 244t172.5 170.5t231 60.5q177 0 293 -101q-3 186 -127 295l-129 -131l-98 96l108 109q-98 43 -231 43v250q254 0 424 -98l114 114l99 -98l-99 -96q8 -6 23 -21q131 -131 185.5 -285t54.5 -352q0 -116 -19.5 -216
t-62.5 -185.5t-106.5 -146t-155 -94.5t-205.5 -34zM586 692q-100 0 -158.5 -67t-58.5 -174q0 -111 58.5 -177.5t158.5 -66.5t160.5 67t60.5 177t-61 175.5t-160 65.5z" />
    <glyph glyph-name="ntilde" unicode="&#xf1;" horiz-adv-x="1171" 
d="M102 0v1016h273l39 -135q39 65 122 114t191 49q189 0 265.5 -105t76.5 -321v-618h-311v541q0 52 -1.5 83t-10 69.5t-24.5 59.5t-46 35.5t-74 14.5q-97 0 -142.5 -70.5t-45.5 -210.5v-522h-312zM197 1176q19 114 83.5 174.5t172.5 60.5q55 0 100.5 -21t82.5 -42t71 -21
q48 0 88 43q38 41 73 41q52 0 76 -41.5t-2 -87.5q-31 -55 -93.5 -86t-129.5 -31q-71 0 -139 33q-12 6 -31.5 16.5t-28 15t-22 8.5t-25.5 5q-37 2 -62.5 -16t-31.5 -51h-182z" />
    <glyph glyph-name="ograve" unicode="&#xf2;" 
d="M49 512q0 133 44 237t120 167t171 95.5t204 32.5q85 0 163 -19.5t146.5 -62t118.5 -104t79 -150.5t29 -196t-29 -196.5t-79.5 -151.5t-118.5 -105t-146 -63.5t-163 -20.5q-109 0 -204 33t-171 97t-120 169t-44 238zM367 512q0 -152 59.5 -223.5t161.5 -71.5
q100 0 159.5 71.5t59.5 223.5t-60 221.5t-159 69.5q-100 0 -160.5 -69.5t-60.5 -221.5zM276 1374q0 47 34 82t81 35q44 0 78 -31l233 -284h-233l-154 112q-39 39 -39 86z" />
    <glyph glyph-name="oacute" unicode="&#xf3;" 
d="M49 512q0 133 44 237t120 167t171 95.5t204 32.5q85 0 163 -19.5t146.5 -62t118.5 -104t79 -150.5t29 -196t-29 -196.5t-79.5 -151.5t-118.5 -105t-146 -63.5t-163 -20.5q-109 0 -204 33t-171 97t-120 169t-44 238zM367 512q0 -152 59.5 -223.5t161.5 -71.5
q100 0 159.5 71.5t59.5 223.5t-60 221.5t-159 69.5q-100 0 -160.5 -69.5t-60.5 -221.5zM702 1176h-233l227 276q30 37 84 37q50 0 82.5 -32.5t32.5 -82.5q0 -55 -39 -86z" />
    <glyph glyph-name="ocircumflex" unicode="&#xf4;" 
d="M49 512q0 133 44 237t120 167t171 95.5t204 32.5q85 0 163 -19.5t146.5 -62t118.5 -104t79 -150.5t29 -196t-29 -196.5t-79.5 -151.5t-118.5 -105t-146 -63.5t-163 -20.5q-109 0 -204 33t-171 97t-120 169t-44 238zM588 803q-100 0 -160.5 -69.5t-60.5 -221.5
t59.5 -223.5t161.5 -71.5q100 0 159.5 71.5t59.5 223.5t-60 221.5t-159 69.5zM449 1176h-265l301 270q44 41 103 41q54 0 102 -41l299 -270h-262l-139 124z" />
    <glyph glyph-name="otilde" unicode="&#xf5;" 
d="M49 512q0 133 44 237t120 167t171 95.5t204 32.5q85 0 163 -19.5t146.5 -62t118.5 -104t79 -150.5t29 -196t-29 -196.5t-79.5 -151.5t-118.5 -105t-146 -63.5t-163 -20.5q-109 0 -204 33t-171 97t-120 169t-44 238zM367 512q0 -152 59.5 -223.5t161.5 -71.5
q100 0 159.5 71.5t59.5 223.5t-60 221.5t-159 69.5q-100 0 -160.5 -69.5t-60.5 -221.5zM197 1176q19 114 83.5 174.5t172.5 60.5q55 0 100.5 -21t82.5 -42t71 -21q48 0 88 43q38 41 73 41q52 0 76 -41.5t-2 -87.5q-31 -55 -93.5 -86t-129.5 -31q-71 0 -139 33
q-12 6 -31.5 16.5t-28 15t-22 8.5t-25.5 5q-37 2 -62.5 -16t-31.5 -51h-182z" />
    <glyph glyph-name="odieresis" unicode="&#xf6;" 
d="M49 512q0 133 44 237t120 167t171 95.5t204 32.5q85 0 163 -19.5t146.5 -62t118.5 -104t79 -150.5t29 -196t-29 -196.5t-79.5 -151.5t-118.5 -105t-146 -63.5t-163 -20.5q-109 0 -204 33t-171 97t-120 169t-44 238zM367 512q0 -152 59.5 -223.5t161.5 -71.5
q100 0 159.5 71.5t59.5 223.5t-60 221.5t-159 69.5q-100 0 -160.5 -69.5t-60.5 -221.5zM389 1184q-60 0 -102.5 41.5t-42.5 101.5t42.5 103t102.5 43t101.5 -43t41.5 -103t-41.5 -101.5t-101.5 -41.5zM786 1184q-60 0 -102.5 41.5t-42.5 101.5t42.5 103t102.5 43
q58 0 100 -43t42 -103t-41.5 -101.5t-100.5 -41.5z" />
    <glyph glyph-name="divide" unicode="&#xf7;" horiz-adv-x="1216" 
d="M84 381v262h1049v-262h-1049zM608 719q-66 0 -114 48.5t-48 115.5t48 114t114 47t114 -47t48 -114t-48 -115.5t-114 -48.5zM608 -25q-66 0 -114 48.5t-48 115.5q0 66 48 114t114 48t114 -48t48 -114q0 -67 -48 -115.5t-114 -48.5z" />
    <glyph glyph-name="divide" unicode="&#xe984;" horiz-adv-x="1216" 
d="M84 381v262h1049v-262h-1049zM608 719q-66 0 -114 48.5t-48 115.5t48 114t114 47t114 -47t48 -114t-48 -115.5t-114 -48.5zM608 -25q-66 0 -114 48.5t-48 115.5q0 66 48 114t114 48t114 -48t48 -114q0 -67 -48 -115.5t-114 -48.5z" />
    <glyph glyph-name="oslash" unicode="&#xf8;" 
d="M168 154q-119 138 -119 358q0 133 44 237t120 167t171 95.5t204 32.5q163 0 286 -69l87 98l114 -98l-80 -92q129 -142 129 -371q0 -108 -29 -197.5t-79 -151.5t-118.5 -105t-146.5 -63t-163 -20q-172 0 -305 80l-95 -108l-114 98zM457 258q52 -41 131 -41
q100 0 159.5 71.5t59.5 223.5q0 73 -16 135zM588 803q-100 0 -160.5 -70t-60.5 -221q0 -66 12 -115l321 375q-51 31 -112 31z" />
    <glyph glyph-name="oslash" unicode="&#xe985;" 
d="M168 154q-119 138 -119 358q0 133 44 237t120 167t171 95.5t204 32.5q163 0 286 -69l87 98l114 -98l-80 -92q129 -142 129 -371q0 -108 -29 -197.5t-79 -151.5t-118.5 -105t-146.5 -63t-163 -20q-172 0 -305 80l-95 -108l-114 98zM457 258q52 -41 131 -41
q100 0 159.5 71.5t59.5 223.5q0 73 -16 135zM588 803q-100 0 -160.5 -70t-60.5 -221q0 -66 12 -115l321 375q-51 31 -112 31z" />
    <glyph glyph-name="ugrave" unicode="&#xf9;" horiz-adv-x="1167" 
d="M102 406v610h312v-533q0 -39 0.5 -61t3.5 -54.5t9 -51t17 -40t27.5 -32.5t41 -19t56.5 -8q98 0 139.5 61t41.5 203v535h313v-1016h-270l-43 143q-48 -82 -116.5 -125t-178.5 -43q-194 0 -273.5 106.5t-79.5 324.5zM315 1288q-39 39 -39 88q0 46 34 80.5t81 34.5
q44 0 78 -31l10 -10l223 -274h-233z" />
    <glyph glyph-name="uacute" unicode="&#xfa;" horiz-adv-x="1167" 
d="M455 -25q-194 0 -273.5 106.5t-79.5 324.5v610h312v-533q0 -39 0.5 -61t3.5 -54.5t9 -51t17 -40t27.5 -32.5t41 -19t56.5 -8q98 0 139.5 61t41.5 203v535h313v-1016h-270l-43 143q-48 -82 -116.5 -125t-178.5 -43zM702 1176h-233l227 276q30 37 84 37q50 0 82.5 -32.5
t32.5 -82.5q0 -55 -39 -86z" />
    <glyph glyph-name="ucircumflex" unicode="&#xfb;" horiz-adv-x="1167" 
d="M455 -25q-194 0 -273.5 106.5t-79.5 324.5v610h312v-533q0 -39 0.5 -61t3.5 -54.5t9 -51t17 -40t27.5 -32.5t41 -19t56.5 -8q98 0 139.5 61t41.5 203v535h313v-1016h-270l-43 143q-48 -82 -116.5 -125t-178.5 -43zM180 1176l301 270q44 41 103 41q54 0 102 -41l299 -270
h-262l-139 124l-140 -124h-264z" />
    <glyph glyph-name="udieresis" unicode="&#xfc;" horiz-adv-x="1167" 
d="M455 -25q-194 0 -273.5 106.5t-79.5 324.5v610h312v-533q0 -39 0.5 -61t3.5 -54.5t9 -51t17 -40t27.5 -32.5t41 -19t56.5 -8q98 0 139.5 61t41.5 203v535h313v-1016h-270l-43 143q-48 -82 -116.5 -125t-178.5 -43zM383 1184q-60 0 -102.5 41.5t-42.5 101.5t42.5 103
t102.5 43t101.5 -43t41.5 -103t-41.5 -101.5t-101.5 -41.5zM635 1327q0 60 42.5 103t102.5 43q58 0 100 -43t42 -103t-41.5 -101.5t-100.5 -41.5q-60 0 -102.5 41.5t-42.5 101.5z" />
    <glyph glyph-name="yacute" unicode="&#xfd;" horiz-adv-x="1060" 
d="M0 1016h334l198 -635l195 635h334l-389 -1016q-31 -82 -58.5 -134t-62 -93t-79 -62t-101.5 -31t-138 -10h-100v226h62q100 0 130.5 13.5t53.5 70.5l10 26zM645 1176h-233l227 276q30 37 84 37q49 0 82 -32.5t33 -82.5q0 -55 -39 -86z" />
    <glyph glyph-name="thorn" unicode="&#xfe;" horiz-adv-x="1220" 
d="M102 -330v1698h312v-491q47 79 134.5 123t174.5 44q199 0 323.5 -146.5t124.5 -391.5t-124 -388t-324 -143q-87 0 -174.5 44.5t-134.5 123.5v-473h-312zM625 803q-100 0 -163 -71t-63 -218q0 -150 63 -223.5t163 -73.5q95 0 159 76.5t64 212.5q0 135 -64.5 216t-158.5 81
z" />
    <glyph glyph-name="thorn" unicode="&#xe98b;" horiz-adv-x="1220" 
d="M102 -330v1698h312v-491q47 79 134.5 123t174.5 44q199 0 323.5 -146.5t124.5 -391.5t-124 -388t-324 -143q-87 0 -174.5 44.5t-134.5 123.5v-473h-312zM625 803q-100 0 -163 -71t-63 -218q0 -150 63 -223.5t163 -73.5q95 0 159 76.5t64 212.5q0 135 -64.5 216t-158.5 81
z" />
    <glyph glyph-name="ydieresis" unicode="&#xff;" horiz-adv-x="1060" 
d="M0 1016h334l198 -635l195 635h334l-389 -1016q-31 -82 -58.5 -134t-62 -93t-79 -62t-101.5 -31t-138 -10h-100v226h62q100 0 130.5 13.5t53.5 70.5l10 26zM334 1184q-60 0 -103 41.5t-43 101.5t43 103t103 43t101.5 -43t41.5 -103t-41.5 -101.5t-101.5 -41.5zM731 1184
q-60 0 -102.5 41.5t-42.5 101.5t42.5 103t102.5 43q58 0 99.5 -43t41.5 -103t-41 -101.5t-100 -41.5z" />
    <glyph glyph-name="Amacron" unicode="&#x100;" horiz-adv-x="1413" 
d="M10 0l518 1368h357l518 -1368h-352l-82 244h-525l-82 -244h-352zM401 1528v201h613v-201h-613zM705 1026l-173 -520h349z" />
    <glyph glyph-name="amacron" unicode="&#x101;" horiz-adv-x="1122" 
d="M389 -25q-149 0 -249.5 82t-100.5 217q0 90 48.5 156t142.5 107t210 63.5t273 34.5v39q0 85 -42.5 122.5t-127.5 37.5q-67 0 -114 -30.5t-62 -90.5l-263 94q53 106 175 171.5t290 65.5q224 0 337.5 -99.5t113.5 -323.5v-224q0 -101 10 -216.5t25 -180.5h-289l-37 123
q-106 -148 -340 -148zM895 1167h-612v201h612v-201zM360 297q0 -49 41 -79t103 -30q101 0 158 53.5t57 184.5v25q-88 -7 -148 -17t-111 -27t-75.5 -44t-24.5 -66z" />
    <glyph glyph-name="Abreve" unicode="&#x102;" horiz-adv-x="1413" 
d="M10 0l518 1368h357l518 -1368h-352l-82 244h-525l-82 -244h-352zM707 1497q-108 0 -191 70.5t-102 175.5h174q8 -34 41.5 -61t77.5 -27t78 27t42 61h174q-19 -105 -102 -175.5t-192 -70.5zM705 1026l-173 -520h349z" />
    <glyph glyph-name="abreve" unicode="&#x103;" horiz-adv-x="1122" 
d="M389 -25q-149 0 -249.5 82t-100.5 217q0 90 48.5 156t142.5 107t210 63.5t273 34.5v39q0 85 -42.5 122.5t-127.5 37.5q-67 0 -114 -30.5t-62 -90.5l-263 94q53 106 175 171.5t290 65.5q224 0 337.5 -99.5t113.5 -323.5v-224q0 -101 10 -216.5t25 -180.5h-289l-37 123
q-106 -148 -340 -148zM295 1411h174q8 -34 41.5 -61t77.5 -27t78.5 27t42.5 61h174q-19 -105 -102.5 -175.5t-192.5 -70.5q-108 0 -191 70.5t-102 175.5zM360 297q0 -49 41 -79t103 -30q101 0 158 53.5t57 184.5v25q-88 -7 -148 -17t-111 -27t-75.5 -44t-24.5 -66z" />
    <glyph glyph-name="Aogonek" unicode="&#x104;" horiz-adv-x="1413" 
d="M10 0l518 1368h357l518 -1368h-62q-67 -8 -130.5 -49t-63.5 -90q0 -62 94 -62q24 0 100 19v-154q-62 -20 -161 -20q-79 0 -138 17t-91 45t-47 58t-15 62q0 65 47.5 108.5t116.5 65.5h-2l-82 244h-525l-82 -244h-352zM532 506h349l-176 520z" />
    <glyph glyph-name="aogonek" unicode="&#x105;" horiz-adv-x="1122" 
d="M39 274q0 90 48.5 156t142.5 107t210 63.5t273 34.5v39q0 85 -42.5 122.5t-127.5 37.5q-67 0 -114 -30.5t-62 -90.5l-263 94q53 106 175 171.5t290 65.5q224 0 337.5 -99.5t113.5 -323.5v-224q0 -101 10 -216.5t25 -180.5q-11 -6 -31 -15.5t-31.5 -15.5t-29.5 -15
t-28.5 -15.5t-24 -15t-21 -15.5t-15 -15t-11 -16t-3.5 -16q0 -62 94 -62q25 0 101 19v-154q-23 -8 -73.5 -14t-88.5 -6q-79 0 -138 17t-91 45t-47 58t-15 62q0 65 47.5 108.5t116.5 65.5l-37 123q-106 -148 -340 -148q-149 0 -249.5 82t-100.5 217zM719 451q-88 -7 -148 -17
t-111 -27t-75.5 -44t-24.5 -66q0 -49 41 -79t103 -30q101 0 158 53.5t57 184.5v25z" />
    <glyph glyph-name="Cacute" unicode="&#x106;" horiz-adv-x="1394" 
d="M72 684q0 324 187 516.5t505 192.5q190 0 335.5 -85t225.5 -233l-287 -104q-43 79 -119 117t-165 38q-147 0 -243.5 -119t-96.5 -323q0 -209 96 -325.5t248 -116.5q89 0 168.5 35.5t122.5 117.5l284 -104q-84 -148 -235 -232t-342 -84q-319 0 -501.5 190.5t-182.5 518.5z
M881 1497h-256q243 273 243 275l11 10q33 30 77 30q47 0 81 -33.5t34 -80.5q0 -49 -39 -88z" />
    <glyph glyph-name="cacute" unicode="&#x107;" horiz-adv-x="1064" 
d="M569 -25q-247 0 -383.5 146.5t-136.5 392.5q0 239 144 384.5t376 145.5q69 0 133 -14t126 -43.5t114 -82.5t86 -126l-260 -94q-46 119 -180 119q-95 0 -158 -70.5t-63 -220.5q0 -80 18.5 -139t50.5 -92t70 -48.5t82 -15.5q125 0 182 96l254 -92q-73 -128 -196 -187
t-259 -59zM680 1176h-234l228 276q30 37 84 37q49 0 81.5 -32.5t32.5 -82.5q0 -56 -38 -86z" />
    <glyph glyph-name="Cdotaccent" unicode="&#x10a;" horiz-adv-x="1394" 
d="M756 -25q-319 0 -501.5 190.5t-182.5 518.5q0 324 187 516.5t505 192.5q190 0 335.5 -85t225.5 -233l-287 -104q-43 79 -119 117t-165 38q-147 0 -243.5 -119t-96.5 -323q0 -209 96 -325.5t248 -116.5q89 0 168.5 35.5t122.5 117.5l284 -104q-84 -148 -235 -232t-342 -84
zM610 1630q0 60 43 103t103 43t101.5 -43t41.5 -103t-41.5 -101.5t-101.5 -41.5t-103 41.5t-43 101.5z" />
    <glyph glyph-name="cdotaccent" unicode="&#x10b;" horiz-adv-x="1064" 
d="M569 -25q-247 0 -383.5 146.5t-136.5 392.5q0 239 144 384.5t376 145.5q69 0 133 -14t126 -43.5t114 -82.5t86 -126l-260 -94q-46 119 -180 119q-95 0 -158 -70.5t-63 -220.5q0 -80 18.5 -139t50.5 -92t70 -48.5t82 -15.5q125 0 182 96l254 -92q-73 -128 -196 -187
t-259 -59zM430 1339q0 60 42.5 103t102.5 43t102 -43t42 -103t-42 -101.5t-102 -41.5t-102.5 41.5t-42.5 101.5z" />
    <glyph glyph-name="Ccaron" unicode="&#x10c;" horiz-adv-x="1394" 
d="M72 684q0 324 187 516.5t505 192.5q190 0 335.5 -85t225.5 -233l-287 -104q-43 79 -119 117t-165 38q-147 0 -243.5 -119t-96.5 -323q0 -209 96 -325.5t248 -116.5q89 0 168.5 35.5t122.5 117.5l284 -104q-84 -148 -235 -232t-342 -84q-319 0 -501.5 190.5t-182.5 518.5z
M354 1796h264l140 -125l139 125h262l-299 -272q-45 -39 -102 -39q-61 0 -103 39z" />
    <glyph glyph-name="ccaron" unicode="&#x10d;" horiz-adv-x="1064" 
d="M49 514q0 239 144 384.5t376 145.5q69 0 133 -14t126 -43.5t114 -82.5t86 -126l-260 -94q-46 119 -180 119q-95 0 -158 -70.5t-63 -220.5q0 -80 18.5 -139t50.5 -92t70 -48.5t82 -15.5q125 0 182 96l254 -92q-73 -128 -196 -187t-259 -59q-247 0 -383.5 146.5
t-136.5 392.5zM481 1202l-301 273h264l140 -125l139 125h262l-299 -273q-45 -39 -102 -39q-61 0 -103 39z" />
    <glyph glyph-name="Dcaron" unicode="&#x10e;" horiz-adv-x="1396" 
d="M90 0v1368h451q792 0 792 -684t-792 -684h-451zM547 1100h-133v-828h133q79 0 138.5 8t121.5 33.5t101.5 69.5t65 120t25.5 181q0 88 -16.5 156t-48.5 112.5t-71.5 74.5t-94 45.5t-106 21.5t-115.5 6zM274 1796h265l139 -125l139 125h262l-299 -272q-45 -39 -102 -39
q-61 0 -103 39z" />
    <glyph glyph-name="dcaron" unicode="&#x10f;" horiz-adv-x="1345" 
d="M498 -25q-199 0 -324 147.5t-125 393.5q0 245 124.5 386.5t324.5 141.5q89 0 175.5 -43.5t133.5 -123.5v491h311v-971q0 -216 35 -397h-297l-41 137q-61 -83 -144 -122.5t-173 -39.5zM598 803q-96 0 -160.5 -76.5t-64.5 -210.5q0 -137 64.5 -218t160.5 -81q98 0 160.5 72
t62.5 221q0 147 -62.5 220t-160.5 73zM1180 1016l49 297q7 44 41 70t73 26q50 0 81.5 -36.5t31.5 -80.5q0 -20 -6 -35l-107 -241h-163z" />
    <glyph glyph-name="Dcroat" unicode="&#x110;" horiz-adv-x="1599" 
d="M51 844h242v524h450q793 0 793 -684t-793 -684h-450v563h-242v281zM616 844h158v-281h-158v-291h134q79 0 138.5 8t121.5 33.5t101.5 69.5t65 120t25.5 181q0 88 -16.5 156t-48.5 112.5t-71.5 74.5t-94 45.5t-106 21.5t-115.5 6h-134v-256z" />
    <glyph glyph-name="dcroat" unicode="&#x111;" horiz-adv-x="1214" 
d="M498 -25q-199 0 -324 147.5t-125 393.5q0 245 124.5 386.5t324.5 141.5q89 0 175.5 -43.5t133.5 -123.5v260h-309v159h309v134h311v-134h135v-159h-135v-740q0 -216 35 -397h-297l-41 137q-61 -83 -144 -122.5t-173 -39.5zM373 516q0 -137 64.5 -218t160.5 -81
q98 0 160.5 72t62.5 221q0 147 -62.5 220t-160.5 73q-96 0 -160.5 -76.5t-64.5 -210.5z" />
    <glyph glyph-name="Emacron" unicode="&#x112;" horiz-adv-x="1187" 
d="M90 0v1368h1053v-285h-729v-237h444v-285h-444v-276h729v-285h-1053zM311 1731h613v-201h-613v201z" />
    <glyph glyph-name="emacron" unicode="&#x113;" horiz-adv-x="1159" 
d="M49 514q0 158 74.5 280t198 186t272.5 64q164 0 286.5 -78.5t183 -218t50.5 -317.5h-752q7 -102 75 -157.5t161 -55.5q139 0 205 76l248 -90q-76 -113 -195 -170.5t-250 -57.5q-251 0 -404 145t-153 394zM287 1167v201h612v-201h-612zM362 614h463q-3 95 -65.5 147
t-157.5 52q-94 0 -160.5 -50t-79.5 -149z" />
    <glyph glyph-name="Edotaccent" unicode="&#x116;" horiz-adv-x="1187" 
d="M90 1368h1053v-285h-729v-237h444v-285h-444v-276h729v-285h-1053v1368zM473 1630q0 60 42.5 103t102.5 43t102 -43t42 -103t-42 -101.5t-102 -41.5t-102.5 41.5t-42.5 101.5z" />
    <glyph glyph-name="edotaccent" unicode="&#x117;" horiz-adv-x="1159" 
d="M49 514q0 158 74.5 280t198 186t272.5 64q164 0 286.5 -78.5t183 -218t50.5 -317.5h-752q7 -102 75 -157.5t161 -55.5q139 0 205 76l248 -90q-76 -113 -195 -170.5t-250 -57.5q-251 0 -404 145t-153 394zM602 813q-94 0 -160.5 -50t-79.5 -149h463q-3 95 -65.5 147
t-157.5 52zM449 1339q0 60 42.5 103t102.5 43t101.5 -43t41.5 -103t-41.5 -101.5t-101.5 -41.5t-102.5 41.5t-42.5 101.5z" />
    <glyph glyph-name="Eogonek" unicode="&#x118;" horiz-adv-x="1187" 
d="M90 0v1368h1053v-285h-729v-237h444v-285h-444v-276h729v-285h-76q-67 -8 -131 -49t-64 -90q0 -62 95 -62q24 0 100 19v-154q-23 -8 -73.5 -14t-88.5 -6q-79 0 -138 17t-91 45t-47 58t-15 62q0 65 47.5 108.5t116.5 65.5h-688z" />
    <glyph glyph-name="eogonek" unicode="&#x119;" horiz-adv-x="1159" 
d="M49 514q0 158 74.5 280t198 186t272.5 64q164 0 286.5 -78.5t183 -218t50.5 -317.5h-752q7 -102 75 -157.5t161 -55.5q139 0 205 76l248 -90q-85 -126 -232 -187q-84 -41 -132 -78t-48 -77q0 -62 94 -62q25 0 101 19v-154q-23 -8 -73.5 -14t-88.5 -6q-79 0 -138 17
t-91 45t-47 58t-15 62q0 99 119 158q-206 30 -328.5 169.5t-122.5 360.5zM362 614h463q-3 95 -65.5 147t-157.5 52q-94 0 -160.5 -50t-79.5 -149z" />
    <glyph glyph-name="Ecaron" unicode="&#x11a;" horiz-adv-x="1187" 
d="M90 0v1368h1053v-285h-729v-237h444v-285h-444v-276h729v-285h-1053zM516 1524l-301 272h264l139 -125l140 125h262l-299 -272q-45 -39 -103 -39q-60 0 -102 39z" />
    <glyph glyph-name="ecaron" unicode="&#x11b;" horiz-adv-x="1159" 
d="M49 514q0 158 74.5 280t198 186t272.5 64q164 0 286.5 -78.5t183 -218t50.5 -317.5h-752q7 -102 75 -157.5t161 -55.5q139 0 205 76l248 -90q-76 -113 -195 -170.5t-250 -57.5q-251 0 -404 145t-153 394zM190 1475h265l139 -125l139 125h262l-299 -273q-45 -39 -102 -39
q-60 0 -102 39zM362 614h463q-3 95 -65.5 147t-157.5 52q-94 0 -160.5 -50t-79.5 -149z" />
    <glyph glyph-name="Gbreve" unicode="&#x11e;" horiz-adv-x="1472" 
d="M72 688q0 213 87.5 373.5t245 246t363.5 85.5q182 0 326 -72.5t225 -210.5l-279 -115q-37 59 -106.5 95t-169.5 36q-153 0 -251.5 -114.5t-98.5 -323.5q0 -212 96.5 -329t259.5 -117q47 0 89.5 7t82.5 24.5t69 43t46.5 66t17.5 90.5v39h-307v262h631v-774h-213l-45 152
q-131 -177 -420 -177q-300 0 -474.5 192.5t-174.5 520.5zM768 1497q-108 0 -191 70.5t-102 175.5h174q8 -34 41.5 -61t77.5 -27t78.5 27t42.5 61h174q-19 -105 -102.5 -175.5t-192.5 -70.5z" />
    <glyph glyph-name="gbreve" unicode="&#x11f;" horiz-adv-x="1222" 
d="M49 530q0 128 37 229.5t98.5 162.5t136.5 93t156 32q99 0 186.5 -44t145.5 -126l41 139h268v-940q0 -249 -136 -370.5t-382 -121.5q-67 0 -129 12t-123 38.5t-112.5 75.5t-85.5 116l253 92q48 -96 189 -96q100 0 158.5 46.5t58.5 145.5v183q-64 -79 -148.5 -119.5
t-173.5 -40.5q-83 0 -161.5 34t-140 96t-99 156.5t-37.5 206.5zM373 547q0 -129 63.5 -198.5t161.5 -69.5q101 0 162 60.5t61 199.5q0 140 -61.5 202t-161.5 62q-99 0 -162 -64.5t-63 -191.5zM608 1165q-108 0 -191 70.5t-102 175.5h174q8 -34 41.5 -61t77.5 -27t78.5 27
t42.5 61h174q-19 -105 -102.5 -175.5t-192.5 -70.5z" />
    <glyph glyph-name="Gdotaccent" unicode="&#x120;" horiz-adv-x="1472" 
d="M72 688q0 213 87.5 373.5t245 246t363.5 85.5q182 0 326 -72.5t225 -210.5l-279 -115q-37 59 -106.5 95t-169.5 36q-153 0 -251.5 -114.5t-98.5 -323.5q0 -212 96.5 -329t259.5 -117q47 0 89.5 7t82.5 24.5t69 43t46.5 66t17.5 90.5v39h-307v262h631v-774h-213l-45 152
q-131 -177 -420 -177q-300 0 -474.5 192.5t-174.5 520.5zM770 1487q-60 0 -102.5 41.5t-42.5 101.5t42.5 103t102.5 43t101.5 -43t41.5 -103t-41.5 -101.5t-101.5 -41.5z" />
    <glyph glyph-name="gdotaccent" unicode="&#x121;" horiz-adv-x="1222" 
d="M49 530q0 128 37 229.5t98.5 162.5t136.5 93t156 32q99 0 186.5 -44t145.5 -126l41 139h268v-940q0 -249 -136 -370.5t-382 -121.5q-67 0 -129 12t-123 38.5t-112.5 75.5t-85.5 116l253 92q48 -96 189 -96q100 0 158.5 46.5t58.5 145.5v183q-64 -79 -148.5 -119.5
t-173.5 -40.5q-83 0 -161.5 34t-140 96t-99 156.5t-37.5 206.5zM598 803q-99 0 -162 -64.5t-63 -191.5q0 -129 63.5 -198.5t161.5 -69.5q101 0 162 60.5t61 199.5q0 140 -61.5 202t-161.5 62zM475 1327q0 60 43 103t103 43t101.5 -43t41.5 -103t-41.5 -101.5t-101.5 -41.5
t-103 41.5t-43 101.5z" />
    <glyph glyph-name="uni0122" unicode="&#x122;" horiz-adv-x="1472" 
d="M768 512v262h631v-774h-213l-45 152q-131 -177 -420 -177q-300 0 -474.5 192.5t-174.5 520.5q0 213 87.5 373.5t245 246t363.5 85.5q182 0 326 -72.5t225 -210.5l-279 -115q-37 59 -106.5 95t-169.5 36q-153 0 -251.5 -114.5t-98.5 -323.5q0 -212 96.5 -329t259.5 -117
q47 0 89.5 7t82.5 24.5t69 43t46.5 66t17.5 90.5v39h-307zM614 -514l-106 92q98 0 153.5 33t55.5 92q0 42 -39.5 75.5t-99.5 47.5l208 82q172 -69 172 -197q0 -98 -91.5 -161.5t-252.5 -63.5z" />
    <glyph glyph-name="uni0123" unicode="&#x123;" horiz-adv-x="1222" 
d="M850 1016h268v-940q0 -332 -244 -441q-39 -18 -94 -30.5t-123.5 -19t-141 3.5t-140 34t-127.5 76.5t-98 126.5l253 92q26 -53 85.5 -76.5t114.5 -20.5t97 19q109 38 109 174v183q-63 -77 -146 -117.5t-166 -42.5t-164.5 31.5t-144 95t-101 157t-38.5 209.5
q0 103 24.5 189.5t65.5 145.5t96.5 101t116.5 61t126.5 19t125.5 -19t113.5 -57.5t91.5 -92.5zM598 279q101 0 162 60.5t61 199.5q0 140 -61.5 202t-161.5 62q-99 0 -162 -64.5t-63 -191.5q0 -129 63.5 -198.5t161.5 -69.5zM733 1585l107 -92q-98 0 -153.5 -32t-55.5 -93
q0 -42 39.5 -75.5t99.5 -45.5l-209 -84q-172 69 -172 197q0 98 91.5 161.5t252.5 63.5z" />
    <glyph glyph-name="Hbar" unicode="&#x126;" horiz-adv-x="1515" 
d="M31 1016v201h123v151h323v-151h563v151h324v-151h121v-201h-123l2 -1016h-324v561h-563v-561h-323v1016h-123zM1040 1016h-563v-170h563v170z" />
    <glyph glyph-name="hbar" unicode="&#x127;" horiz-adv-x="1208" 
d="M-53 1137v159h192v134h312v-134h251v-159h-251v-256q39 65 122 114t191 49q189 0 265.5 -105t76.5 -321v-618h-311v541q0 52 -1.5 83t-10 69.5t-24.5 59.5t-46 35.5t-74 14.5q-97 0 -142.5 -70.5t-45.5 -210.5v-522h-312v1137h-192z" />
    <glyph glyph-name="Imacron" unicode="&#x12a;" horiz-adv-x="937" 
d="M117 254h192v860h-192v254h704v-254h-188v-860h188v-254h-704v254zM164 1530v201h612v-201h-612z" />
    <glyph glyph-name="imacron" unicode="&#x12b;" horiz-adv-x="616" 
d="M49 1016h506v-1016h-313v780h-193v236zM666 1167h-613v201h613v-201z" />
    <glyph glyph-name="Iogonek" unicode="&#x12e;" horiz-adv-x="937" 
d="M340 0h-223v254h192v860h-192v254h704v-254h-188v-860h188v-254h-192q-67 -8 -131 -49t-64 -90q0 -62 94 -62q25 0 101 19v-154q-23 -8 -73.5 -14t-88.5 -6q-79 0 -138 17t-91 45t-47 58t-15 62q0 65 47.5 108.5t116.5 65.5z" />
    <glyph glyph-name="iogonek" unicode="&#x12f;" horiz-adv-x="645" 
d="M49 778v238h506v-1016h-20q-11 -6 -31 -15.5t-31.5 -15.5t-29.5 -15t-28.5 -15.5t-24 -15t-21 -15.5t-15 -15t-11 -16t-3.5 -16q0 -62 94 -62q25 0 101 19v-154q-23 -8 -73.5 -14t-88.5 -6q-79 0 -138 17t-91 45t-47 58t-15 62q0 65 47.5 108.5t116.5 65.5h-4v778h-193z
M399 1184q-76 0 -130 54.5t-54 129.5q0 76 53.5 130t130.5 54t131 -54t54 -130q0 -75 -54.5 -129.5t-130.5 -54.5z" />
    <glyph glyph-name="dotlessi" unicode="&#x131;" horiz-adv-x="616" 
d="M49 1016h506v-1016h-313v780h-193v236z" />
    <glyph glyph-name="dotlessi" unicode="&#xe98d;" horiz-adv-x="616" 
d="M49 1016h506v-1016h-313v780h-193v236z" />
    <glyph glyph-name="uni0136" unicode="&#x136;" horiz-adv-x="1349" 
d="M762 782l567 -782h-375l-401 557l-139 -154v-403h-324v1368h324v-543l493 543h396zM471 -514l-106 92q98 0 153 32.5t55 92.5q0 42 -39.5 75.5t-99.5 47.5l209 82q172 -69 172 -197q0 -98 -91.5 -161.5t-252.5 -63.5z" />
    <glyph glyph-name="uni0137" unicode="&#x137;" horiz-adv-x="1161" 
d="M725 592l428 -592h-369l-264 369l-106 -113v-256h-312v1368h312v-737l340 385h368zM418 -514l-107 92q98 0 153.5 33t55.5 92q0 42 -39.5 75.5t-99.5 47.5l209 82q172 -69 172 -197q0 -98 -91.5 -161.5t-252.5 -63.5z" />
    <glyph glyph-name="uni013B" unicode="&#x13b;" horiz-adv-x="1099" 
d="M414 285h655v-285h-979v1368h324v-1083zM496 -516l-107 92q98 0 153.5 33t55.5 92q0 42 -39.5 75.5t-99.5 47.5l209 82q172 -69 172 -197q0 -98 -91.5 -161.5t-252.5 -63.5z" />
    <glyph glyph-name="uni013C" unicode="&#x13c;" horiz-adv-x="643" 
d="M549 254h88v-254h-199q-99 0 -159 11t-102 42.5t-58.5 87t-16.5 146.5v1081h312v-999q0 -70 27.5 -92.5t107.5 -22.5zM152 -514l-107 92q98 0 153.5 33t55.5 92q0 42 -39.5 75.5t-99.5 47.5l209 82q172 -69 172 -197q0 -98 -91.5 -161.5t-252.5 -63.5z" />
    <glyph glyph-name="Lcaron" unicode="&#x13d;" horiz-adv-x="1099" 
d="M90 1368h324v-1083h655v-285h-979v1368zM479 1030l49 297q7 44 41.5 70t73.5 26q50 0 81.5 -36t31.5 -80q0 -20 -6 -35l-107 -242h-164z" />
    <glyph glyph-name="lcaron" unicode="&#x13e;" horiz-adv-x="643" 
d="M438 0q-99 0 -159 11t-102 42.5t-58.5 87t-16.5 146.5v1081h312v-999q0 -70 27.5 -92.5t107.5 -22.5h88v-254h-199zM477 1018l49 297q7 44 41.5 70t73.5 26q50 0 81.5 -36.5t31.5 -80.5q0 -19 -6 -34l-107 -242h-164z" />
    <glyph glyph-name="Lslash" unicode="&#x141;" horiz-adv-x="1200" 
d="M27 614l163 97v657h324v-465l328 199v-250l-328 -195v-372h655v-285h-979v463l-163 -98v249z" />
    <glyph glyph-name="Lslash" unicode="&#xe98e;" horiz-adv-x="1200" 
d="M27 614l163 97v657h324v-465l328 199v-250l-328 -195v-372h655v-285h-979v463l-163 -98v249z" />
    <glyph glyph-name="lslash" unicode="&#x142;" horiz-adv-x="659" 
d="M10 399v250l111 66v653h313v-467l219 133v-250l-219 -131v-286q0 -69 27 -91t106 -22h86v-254h-194q-66 0 -112.5 4.5t-86 16.5t-64.5 32t-42.5 52.5t-25 76t-7.5 103.5v182z" />
    <glyph glyph-name="lslash" unicode="&#xe98f;" horiz-adv-x="659" 
d="M10 399v250l111 66v653h313v-467l219 133v-250l-219 -131v-286q0 -69 27 -91t106 -22h86v-254h-194q-66 0 -112.5 4.5t-86 16.5t-64.5 32t-42.5 52.5t-25 76t-7.5 103.5v182z" />
    <glyph glyph-name="Nacute" unicode="&#x143;" horiz-adv-x="1433" 
d="M90 0v1368h412l528 -975v975h313v-1368h-413l-529 975v-975h-311zM895 1497h-256q244 273 244 275l10 10q33 30 78 30q47 0 80.5 -33.5t33.5 -80.5q0 -50 -38 -88z" />
    <glyph glyph-name="nacute" unicode="&#x144;" horiz-adv-x="1171" 
d="M102 1016h273l39 -135q39 65 122 114t191 49q189 0 265.5 -105t76.5 -321v-618h-311v541q0 52 -1.5 83t-10 69.5t-24.5 59.5t-46 35.5t-74 14.5q-97 0 -142.5 -70.5t-45.5 -210.5v-522h-312v1016zM709 1176h-234l227 276q30 37 84 37q50 0 82.5 -32.5t32.5 -82.5
q0 -55 -39 -86z" />
    <glyph glyph-name="uni0145" unicode="&#x145;" horiz-adv-x="1433" 
d="M930 0l-529 975v-975h-311v1368h412l528 -975v975h313v-1368h-413zM539 -514l-107 92q98 0 153.5 33t55.5 92q0 42 -39.5 75.5t-99.5 47.5l209 82q172 -69 172 -197q0 -98 -91.5 -161.5t-252.5 -63.5z" />
    <glyph glyph-name="uni0146" unicode="&#x146;" horiz-adv-x="1171" 
d="M727 1044q189 0 265.5 -105t76.5 -321v-618h-311v541q0 52 -1.5 83t-10 69.5t-24.5 59.5t-46 35.5t-74 14.5q-97 0 -142.5 -70.5t-45.5 -210.5v-522h-312v1016h273l39 -135q39 65 122 114t191 49zM422 -514l-107 92q98 0 153.5 33t55.5 92q0 42 -39.5 75.5t-99.5 47.5
l209 82q172 -69 172 -197q0 -98 -91.5 -161.5t-252.5 -63.5z" />
    <glyph glyph-name="Ncaron" unicode="&#x147;" horiz-adv-x="1433" 
d="M401 0h-311v1368h412l528 -975v975h313v-1368h-413l-529 975v-975zM616 1524l-301 272h265l139 -125l139 125h262l-299 -272q-45 -39 -102 -39q-61 0 -103 39z" />
    <glyph glyph-name="ncaron" unicode="&#x148;" horiz-adv-x="1171" 
d="M102 1016h273l39 -135q39 65 122 114t191 49q189 0 265.5 -105t76.5 -321v-618h-311v541q0 52 -1.5 83t-10 69.5t-24.5 59.5t-46 35.5t-74 14.5q-97 0 -142.5 -70.5t-45.5 -210.5v-522h-312v1016zM485 1202l-301 273h265l139 -125l139 125h262l-299 -273
q-45 -39 -102 -39q-61 0 -103 39z" />
    <glyph glyph-name="Ohungarumlaut" unicode="&#x150;" horiz-adv-x="1564" 
d="M780 -25q-208 0 -369 88t-250 249.5t-89 371.5t89 371.5t250 249.5t369 88t370 -88t252.5 -249.5t90.5 -371.5t-90.5 -371.5t-252.5 -249.5t-370 -88zM780 1126q-157 0 -261.5 -116t-104.5 -326t104.5 -326t261.5 -116q76 0 142.5 28.5t117.5 82.5t80 139.5t29 191.5
t-29 191.5t-80 139.5t-117.5 82.5t-142.5 28.5zM662 1526h-234l223 272l7 7q7 7 16 14.5t27 13.5t38 6q49 0 82 -32.5t33 -82.5q0 -55 -39 -86zM1075 1526h-233l223 272l7 7q7 7 16 14.5t27 13.5t38 6q49 0 82 -32.5t33 -82.5q0 -55 -39 -86z" />
    <glyph glyph-name="ohungarumlaut" unicode="&#x151;" 
d="M49 512q0 133 44 237t120 167t171 95.5t204 32.5q85 0 163 -19.5t146.5 -62t118.5 -104t79 -150.5t29 -196t-29 -196.5t-79.5 -151.5t-118.5 -105t-146 -63.5t-163 -20.5q-109 0 -204 33t-171 97t-120 169t-44 238zM588 803q-100 0 -160.5 -69.5t-60.5 -221.5
t59.5 -223.5t161.5 -71.5q100 0 159.5 71.5t59.5 223.5t-60 221.5t-159 69.5zM481 1176h-233l223 272l7 7q7 7 16 14.5t27 13.5t38 6q49 0 82 -32.5t33 -82.5q0 -55 -39 -86zM895 1176h-233l223 272l7 7q7 7 16 14.5t27 13.5t38 6q49 0 81.5 -32.5t32.5 -82.5q0 -56 -38 -86
z" />
    <glyph glyph-name="OE" unicode="&#x152;" horiz-adv-x="2172" 
d="M780 -25q-208 0 -369 87.5t-250 249t-89 372.5q0 210 89 371.5t250 249.5t369 88t369 -88v63h979v-287h-729v-235h446v-283h-446v-278h729v-285h-979v63q-161 -88 -369 -88zM780 1124q-157 0 -261.5 -115.5t-104.5 -324.5q0 -210 104.5 -326t261.5 -116q76 0 142.5 28.5
t117.5 82.5t80 139.5t29 191.5q0 209 -105 324.5t-264 115.5z" />
    <glyph glyph-name="OE" unicode="&#xe990;" horiz-adv-x="2172" 
d="M780 -25q-208 0 -369 87.5t-250 249t-89 372.5q0 210 89 371.5t250 249.5t369 88t369 -88v63h979v-287h-729v-235h446v-283h-446v-278h729v-285h-979v63q-161 -88 -369 -88zM780 1124q-157 0 -261.5 -115.5t-104.5 -324.5q0 -210 104.5 -326t261.5 -116q76 0 142.5 28.5
t117.5 82.5t80 139.5t29 191.5q0 209 -105 324.5t-264 115.5z" />
    <glyph glyph-name="oe" unicode="&#x153;" horiz-adv-x="1918" 
d="M49 512q0 133 44 237t120 167t171 95.5t204 32.5q111 0 211.5 -35.5t173.5 -105.5q154 141 379 141q165 0 288 -79t183.5 -219t50.5 -318h-754q7 -101 75 -156t159 -55q143 0 209 76l247 -90q-76 -114 -194.5 -171t-251.5 -57q-248 0 -395 138q-73 -69 -172.5 -103.5
t-208.5 -34.5t-204 33t-171 96.5t-120 168.5t-44 239zM588 803q-100 0 -160.5 -70t-60.5 -221q0 -152 59.5 -223.5t161.5 -71.5q100 0 159.5 71.5t59.5 223.5q0 151 -60.5 221t-158.5 70zM1360 811q-94 0 -160.5 -50t-79.5 -149h463q-1 95 -64 147t-159 52z" />
    <glyph glyph-name="oe" unicode="&#xe991;" horiz-adv-x="1918" 
d="M49 512q0 133 44 237t120 167t171 95.5t204 32.5q111 0 211.5 -35.5t173.5 -105.5q154 141 379 141q165 0 288 -79t183.5 -219t50.5 -318h-754q7 -101 75 -156t159 -55q143 0 209 76l247 -90q-76 -114 -194.5 -171t-251.5 -57q-248 0 -395 138q-73 -69 -172.5 -103.5
t-208.5 -34.5t-204 33t-171 96.5t-120 168.5t-44 239zM588 803q-100 0 -160.5 -70t-60.5 -221q0 -152 59.5 -223.5t161.5 -71.5q100 0 159.5 71.5t59.5 223.5q0 151 -60.5 221t-158.5 70zM1360 811q-94 0 -160.5 -50t-79.5 -149h463q-1 95 -64 147t-159 52z" />
    <glyph glyph-name="Racute" unicode="&#x154;" horiz-adv-x="1339" 
d="M414 0h-324v1368h526q112 0 201 -11t170 -40.5t134 -76.5t84.5 -121.5t31.5 -174.5q0 -50 -9 -94.5t-32.5 -91t-60 -84t-94.5 -70.5t-134 -53l398 -551h-375l-371 516h-145v-516zM627 1096h-213v-310h213q49 0 86.5 3.5t73 14t58.5 27.5t36.5 44.5t13.5 64.5
q0 46 -20 77.5t-58 48t-83.5 23.5t-106.5 7zM793 1497h-256q243 273 243 275l11 10q33 30 77 30q47 0 81 -33.5t34 -80.5q0 -49 -39 -88z" />
    <glyph glyph-name="racute" unicode="&#x155;" horiz-adv-x="761" 
d="M414 0h-312v1016h246l55 -187q46 120 127 170.5t201 44.5v-311q-49 6 -84 6q-117 0 -175 -54t-58 -173v-512zM553 1176h-234l228 276q30 37 84 37q49 0 81.5 -32.5t32.5 -82.5q0 -56 -38 -86z" />
    <glyph glyph-name="Rcaron" unicode="&#x158;" horiz-adv-x="1339" 
d="M90 0v1368h526q112 0 201 -11t170 -40.5t134 -76.5t84.5 -121.5t31.5 -174.5q0 -50 -9 -94.5t-32.5 -91t-60 -84t-94.5 -70.5t-134 -53l398 -551h-375l-371 516h-145v-516h-324zM627 1096h-213v-310h213q49 0 86.5 3.5t73 14t58.5 27.5t36.5 44.5t13.5 64.5
q0 46 -20 77.5t-58 48t-83.5 23.5t-106.5 7zM528 1524l-301 272h265l139 -125l139 125h262l-299 -272q-45 -39 -102 -39q-61 0 -103 39z" />
    <glyph glyph-name="rcaron" unicode="&#x159;" horiz-adv-x="761" 
d="M102 0v1016h246l55 -187q46 120 127 170.5t201 44.5v-311q-49 6 -84 6q-117 0 -175 -54t-58 -173v-512h-312zM51 1475h264l140 -125l139 125h262l-299 -273q-45 -39 -102 -39q-61 0 -103 39z" />
    <glyph glyph-name="Sacute" unicode="&#x15a;" horiz-adv-x="1267" 
d="M643 -25q-223 0 -375.5 90.5t-216.5 256.5l295 106q27 -96 104.5 -144t194.5 -48q100 0 172 35t72 108q0 68 -65 108t-185 64l-166 33q-88 17 -159.5 46t-131 74.5t-92.5 113t-33 151.5q0 105 51.5 189t136.5 133.5t185.5 75.5t206.5 26q85 0 163.5 -17t148.5 -52
t125.5 -93t86.5 -135l-293 -107q-28 69 -95.5 106.5t-164.5 37.5q-96 0 -157.5 -35.5t-61.5 -96.5q0 -52 42 -88.5t114 -50.5l184 -37q57 -12 97.5 -21.5t96 -27.5t94 -37.5t80 -50t66.5 -66t41.5 -85.5t16.5 -109q0 -105 -50.5 -193t-133 -143.5t-184.5 -86t-210 -30.5z
M776 1497h-256q244 273 244 275l10 10q33 30 78 30q47 0 81 -33.5t34 -80.5q0 -49 -39 -88z" />
    <glyph glyph-name="sacute" unicode="&#x15b;" horiz-adv-x="1093" 
d="M541 -25q-181 0 -310.5 66t-187.5 192l264 97q23 -63 86.5 -95t153.5 -32q80 0 136 24.5t56 69.5q0 33 -36 55t-121 37l-183 31q-154 26 -242.5 103t-88.5 200q0 103 65 177t169 109t233 35q156 0 276 -55.5t174 -169.5l-262 -96q-25 94 -191 94q-167 0 -167 -82
q0 -31 28.5 -50.5t95.5 -31.5l189 -35q191 -35 275.5 -98.5t84.5 -187.5q0 -87 -39 -156.5t-107.5 -112.5t-157.5 -65.5t-193 -22.5zM432 1176l227 276q30 37 84 37q49 0 82 -32.5t33 -82.5q0 -55 -39 -86l-153 -112h-234z" />
    <glyph glyph-name="Scedilla" unicode="&#x15e;" horiz-adv-x="1267" 
d="M51 322l295 106q27 -96 104.5 -144t194.5 -48q100 0 172 35t72 108q0 68 -65 108t-185 64l-166 33q-88 17 -159.5 46t-131 74.5t-92.5 113t-33 151.5q0 105 51.5 189t136.5 133.5t185.5 75.5t206.5 26q85 0 163.5 -17t148.5 -52t125.5 -93t86.5 -135l-293 -107
q-28 69 -95.5 106.5t-164.5 37.5q-96 0 -157.5 -35.5t-61.5 -96.5q0 -52 42 -88.5t114 -50.5l184 -37q57 -12 97.5 -21.5t96 -27.5t94 -37.5t80 -50t66.5 -66t41.5 -85.5t16.5 -109q0 -80 -29.5 -150t-79.5 -122t-117.5 -91t-143.5 -61t-157 -27l-47 -75q27 6 70 6
q69 0 122.5 -31.5t53.5 -95.5q0 -57 -39 -95t-95 -53.5t-126 -15.5q-94 0 -180 27l32 102q52 -27 125 -27q90 0 90 56q0 25 -20.5 39t-54.5 14q-26 0 -56 -10q-18 -6 -34 4q-15 8 -20.5 25t3.5 32l60 98q-196 12 -332 102t-195 243z" />
    <glyph glyph-name="scedilla" unicode="&#x15f;" horiz-adv-x="1093" 
d="M481 -23q-159 11 -272 75.5t-166 180.5l264 97q23 -63 86.5 -95t153.5 -32q80 0 136 24.5t56 69.5q0 33 -36 55t-121 37l-183 31q-154 26 -242.5 103t-88.5 200q0 103 65 177t169 109t233 35q156 0 276 -55.5t174 -169.5l-262 -96q-25 94 -191 94q-167 0 -167 -82
q0 -31 28.5 -50.5t95.5 -31.5l189 -35q191 -35 275.5 -98.5t84.5 -187.5q0 -108 -59.5 -187t-157.5 -120t-225 -48l-47 -75q27 6 69 6q69 0 123 -31.5t54 -95.5q0 -57 -39 -95t-95 -53.5t-126 -15.5q-95 0 -181 27l33 102q52 -27 125 -27q90 0 90 56q0 24 -21 38.5t-55 14.5
q-25 0 -55 -10q-18 -6 -35 4q-15 8 -20 25t4 32z" />
    <glyph glyph-name="Scaron" unicode="&#x160;" horiz-adv-x="1267" 
d="M51 322l295 106q27 -96 104.5 -144t194.5 -48q100 0 172 35t72 108q0 68 -65 108t-185 64l-166 33q-88 17 -159.5 46t-131 74.5t-92.5 113t-33 151.5q0 105 51.5 189t136.5 133.5t185.5 75.5t206.5 26q85 0 163.5 -17t148.5 -52t125.5 -93t86.5 -135l-293 -107
q-28 69 -95.5 106.5t-164.5 37.5q-96 0 -157.5 -35.5t-61.5 -96.5q0 -52 42 -88.5t114 -50.5l184 -37q57 -12 97.5 -21.5t96 -27.5t94 -37.5t80 -50t66.5 -66t41.5 -85.5t16.5 -109q0 -105 -50.5 -193t-133 -143.5t-184.5 -86t-210 -30.5q-223 0 -375.5 90.5t-216.5 256.5z
M537 1524l-301 272h264l139 -125l139 125h262l-299 -272q-45 -39 -102 -39q-60 0 -102 39z" />
    <glyph glyph-name="scaron" unicode="&#x161;" horiz-adv-x="1093" 
d="M541 -25q-181 0 -310.5 66t-187.5 192l264 97q23 -63 86.5 -95t153.5 -32q80 0 136 24.5t56 69.5q0 33 -36 55t-121 37l-183 31q-154 26 -242.5 103t-88.5 200q0 103 65 177t169 109t233 35q156 0 276 -55.5t174 -169.5l-262 -96q-25 94 -191 94q-167 0 -167 -82
q0 -31 28.5 -50.5t95.5 -31.5l189 -35q191 -35 275.5 -98.5t84.5 -187.5q0 -87 -39 -156.5t-107.5 -112.5t-157.5 -65.5t-193 -22.5zM436 1202l-301 273h264l140 -125l139 125h262l-299 -273q-45 -39 -102 -39q-61 0 -103 39z" />
    <glyph glyph-name="uni0162" unicode="&#x162;" horiz-adv-x="1263" 
d="M31 1368h1202v-285h-440v-1083h-322v1083h-440v285zM494 -514l-107 92q98 0 153.5 33t55.5 92q0 42 -39.5 75.5t-99.5 47.5l209 82q172 -69 172 -197q0 -98 -91.5 -161.5t-252.5 -63.5z" />
    <glyph glyph-name="uni0163" unicode="&#x163;" horiz-adv-x="776" 
d="M727 778h-221v-409q0 -70 27 -92.5t104 -22.5h90v-254h-197q-99 0 -158.5 11t-101.5 42.5t-58.5 87t-16.5 146.5v491h-168v238h168v254h311v-254h221v-238zM258 -514l-106 92q98 0 153 32.5t55 92.5q0 42 -39.5 75.5t-99.5 47.5l209 82q172 -69 172 -197
q0 -98 -91.5 -161.5t-252.5 -63.5z" />
    <glyph glyph-name="Tcaron" unicode="&#x164;" horiz-adv-x="1263" 
d="M471 1083h-440v285h1202v-285h-440v-1083h-322v1083zM530 1524l-301 272h265l139 -125l139 125h262l-299 -272q-45 -39 -102 -39q-61 0 -103 39z" />
    <glyph glyph-name="tcaron" unicode="&#x165;" horiz-adv-x="776" 
d="M27 778v238h168v254h311v-254h221v-238h-221v-409q0 -70 27 -92.5t104 -22.5h90v-254h-197q-99 0 -158.5 11t-101.5 42.5t-58.5 87t-16.5 146.5v491h-168zM766 1133h-164l49 297q7 44 41.5 70t73.5 26q50 0 81.5 -36.5t31.5 -80.5q0 -17 -7 -35z" />
    <glyph glyph-name="Umacron" unicode="&#x16a;" horiz-adv-x="1345" 
d="M84 598v770h324v-797q0 -83 10 -138.5t37.5 -102t81.5 -68.5t137 -22q82 0 135.5 22t81 68.5t37.5 102t10 138.5v797h324v-770q0 -322 -137.5 -472.5t-450.5 -150.5q-316 0 -453 150.5t-137 472.5zM367 1731h612v-201h-612v201z" />
    <glyph glyph-name="umacron" unicode="&#x16b;" horiz-adv-x="1167" 
d="M102 1016h312v-533q0 -39 0.5 -61t3.5 -54.5t9 -51t17 -40t27.5 -32.5t41 -19t56.5 -8q98 0 139.5 61t41.5 203v535h313v-1016h-270l-43 143q-48 -82 -116.5 -125t-178.5 -43q-194 0 -273.5 106.5t-79.5 324.5v610zM279 1368h612v-201h-612v201z" />
    <glyph glyph-name="Uring" unicode="&#x16e;" horiz-adv-x="1345" 
d="M674 -25q-316 0 -453 150.5t-137 472.5v770h324v-797q0 -83 10 -138.5t37.5 -102t81.5 -68.5t137 -22q82 0 135.5 22t81 68.5t37.5 102t10 138.5v797h324v-770q0 -322 -137.5 -472.5t-450.5 -150.5zM672 1323q-112 0 -191.5 79.5t-79.5 192.5t79.5 192t191.5 79
q113 0 192.5 -79.5t79.5 -191.5q0 -113 -80 -192.5t-192 -79.5zM672 1692q-40 0 -68.5 -28.5t-28.5 -68.5t28.5 -68t68.5 -28t68 28t28 68t-28 68.5t-68 28.5z" />
    <glyph glyph-name="uring" unicode="&#x16f;" horiz-adv-x="1167" 
d="M455 -25q-194 0 -273.5 106.5t-79.5 324.5v610h312v-533q0 -39 0.5 -61t3.5 -54.5t9 -51t17 -40t27.5 -32.5t41 -19t56.5 -8q98 0 139.5 61t41.5 203v535h313v-1016h-270l-43 143q-48 -82 -116.5 -125t-178.5 -43zM584 1096q-112 0 -191.5 79.5t-79.5 192.5q0 112 79 191
t192 79t192.5 -79t79.5 -191t-80 -192t-192 -80zM487 1368q0 -40 28.5 -68t68.5 -28t68 28t28 68t-28 68t-68 28t-68.5 -28t-28.5 -68z" />
    <glyph glyph-name="Uhungarumlaut" unicode="&#x170;" horiz-adv-x="1345" 
d="M84 598v770h324v-797q0 -83 10 -138.5t37.5 -102t81.5 -68.5t137 -22q82 0 135.5 22t81 68.5t37.5 102t10 138.5v797h324v-770q0 -322 -137.5 -472.5t-450.5 -150.5q-316 0 -453 150.5t-137 472.5zM319 1528l224 272l7 7q7 7 16 14.5t27 13.5t38 6q49 0 81.5 -32.5
t32.5 -82.5q0 -56 -38 -86l-154 -112h-234zM967 1528h-234l223 272l7 7q7 7 16 14.5t27 13.5t38 6q50 0 82.5 -32.5t32.5 -82.5q0 -55 -39 -86z" />
    <glyph glyph-name="uhungarumlaut" unicode="&#x171;" horiz-adv-x="1167" 
d="M455 -25q-194 0 -273.5 106.5t-79.5 324.5v610h312v-533q0 -39 0.5 -61t3.5 -54.5t9 -51t17 -40t27.5 -32.5t41 -19t56.5 -8q98 0 139.5 61t41.5 203v535h313v-1016h-270l-43 143q-48 -82 -116.5 -125t-178.5 -43zM479 1176h-233l223 272l7 7q7 7 16 14.5t27 13.5t38 6
q49 0 82 -32.5t33 -82.5q0 -55 -39 -86zM659 1176l224 272l7 7q7 7 16 14.5t27 13.5t38 6q49 0 81.5 -32.5t32.5 -82.5q0 -56 -38 -86l-154 -112h-234z" />
    <glyph glyph-name="Uogonek" unicode="&#x172;" horiz-adv-x="1345" 
d="M84 1368h324v-797q0 -83 10 -138.5t37.5 -102t81.5 -68.5t137 -22q82 0 135.5 22t81 68.5t37.5 102t10 138.5v797h324v-770q0 -275 -99.5 -424.5t-320.5 -185.5q-58 -19 -101 -53.5t-43 -73.5q0 -62 95 -62q24 0 100 19v-154q-23 -8 -73.5 -14t-88.5 -6q-79 0 -138 17
t-91 45t-47 58t-15 62q0 98 115 156q-251 26 -361 175.5t-110 440.5v770z" />
    <glyph glyph-name="uogonek" unicode="&#x173;" 
d="M104 406v610h312v-533q0 -39 0.5 -61t3.5 -54.5t9 -51t17 -40t27.5 -32.5t41 -19t56.5 -8q98 0 139.5 61t41.5 203v535h313v-1016q-11 -6 -31 -15.5t-31.5 -15.5t-29.5 -15t-28.5 -15.5t-24 -15t-21 -15.5t-15 -15t-11 -16t-3.5 -16q0 -62 95 -62q24 0 100 19v-154
q-23 -8 -73.5 -14t-88.5 -6q-79 0 -138 17t-91 45t-47 58t-15 62q0 63 56 112t125 66l-41 139q-48 -82 -116.5 -125t-178.5 -43q-194 0 -273.5 106.5t-79.5 324.5z" />
    <glyph glyph-name="Ydieresis" unicode="&#x178;" horiz-adv-x="1406" 
d="M543 532l-523 836h377l305 -526l306 526h378l-522 -836v-532h-321v532zM362 1630q0 60 43 103t103 43t101.5 -43t41.5 -103t-41.5 -101.5t-101.5 -41.5t-103 41.5t-43 101.5zM760 1630q0 60 42.5 103t102.5 43q58 0 100 -43t42 -103t-41.5 -101.5t-100.5 -41.5
q-60 0 -102.5 41.5t-42.5 101.5z" />
    <glyph glyph-name="Zacute" unicode="&#x179;" horiz-adv-x="1271" 
d="M1206 0h-1140v248l690 835h-660v285h1080v-248l-684 -835h714v-285zM776 1497h-256q244 273 244 275l10 10q33 30 78 30q47 0 81 -33.5t34 -80.5q0 -49 -39 -88z" />
    <glyph glyph-name="zacute" unicode="&#x17a;" horiz-adv-x="1056" 
d="M1016 0h-955v248l527 520h-498v248h897v-248l-524 -520h553v-248zM432 1176l227 276q30 37 84 37q49 0 82 -32.5t33 -82.5q0 -55 -39 -86l-153 -112h-234z" />
    <glyph glyph-name="Zdotaccent" unicode="&#x17b;" horiz-adv-x="1271" 
d="M66 248l690 835h-660v285h1080v-248l-684 -835h714v-285h-1140v248zM639 1487q-60 0 -102.5 41.5t-42.5 101.5t42.5 103t102.5 43t101.5 -43t41.5 -103t-41.5 -101.5t-101.5 -41.5z" />
    <glyph glyph-name="zdotaccent" unicode="&#x17c;" horiz-adv-x="1056" 
d="M1016 0h-955v248l527 520h-498v248h897v-248l-524 -520h553v-248zM395 1327q0 60 43 103t103 43t101.5 -43t41.5 -103t-41.5 -101.5t-101.5 -41.5t-103 41.5t-43 101.5z" />
    <glyph glyph-name="Zcaron" unicode="&#x17d;" horiz-adv-x="1271" 
d="M1206 0h-1140v248l690 835h-660v285h1080v-248l-684 -835h714v-285zM233 1796h265l139 -125l139 125h262l-299 -272q-45 -39 -102 -39q-60 0 -102 39z" />
    <glyph glyph-name="zcaron" unicode="&#x17e;" horiz-adv-x="1056" 
d="M61 248l527 520h-498v248h897v-248l-524 -520h553v-248h-955v248zM137 1475h264l140 -125l139 125h262l-299 -273q-45 -39 -102 -39q-61 0 -103 39z" />
    <glyph glyph-name="florin" unicode="&#x192;" horiz-adv-x="772" 
d="M31 1016h168v168q0 175 89.5 242t301.5 67h141v-248h-86q-84 0 -109.5 -16.5t-25.5 -73.5v-139h221v-236h-221v-813q0 -117 -47.5 -194.5t-126.5 -106.5q-53 -18 -146 -18q-84 0 -159 16v273q82 -15 123 10q28 18 36.5 46t8.5 87v700h-168v236z" />
    <glyph glyph-name="florin" unicode="&#xe997;" horiz-adv-x="772" 
d="M31 1016h168v168q0 175 89.5 242t301.5 67h141v-248h-86q-84 0 -109.5 -16.5t-25.5 -73.5v-139h221v-236h-221v-813q0 -117 -47.5 -194.5t-126.5 -106.5q-53 -18 -146 -18q-84 0 -159 16v273q82 -15 123 10q28 18 36.5 46t8.5 87v700h-168v236z" />
    <glyph glyph-name="uni0218" unicode="&#x218;" horiz-adv-x="1267" 
d="M729 825q57 -12 97.5 -21.5t96 -27.5t94 -37.5t80 -50t66.5 -66t41.5 -85.5t16.5 -109q0 -105 -50.5 -193t-133 -143.5t-184.5 -86t-210 -30.5q-223 0 -375.5 90.5t-216.5 256.5l295 106q27 -96 104.5 -144t194.5 -48q100 0 172 35t72 108q0 68 -65 108t-185 64l-166 33
q-88 17 -159.5 46t-131 74.5t-92.5 113t-33 151.5q0 105 51.5 189t136.5 133.5t185.5 75.5t206.5 26q85 0 163.5 -17t148.5 -52t125.5 -93t86.5 -135l-293 -107q-28 69 -95.5 106.5t-164.5 37.5q-96 0 -157.5 -35.5t-61.5 -96.5q0 -52 42 -88.5t114 -50.5zM498 -514l-107 92
q98 0 153.5 33t55.5 92q0 42 -39.5 75.5t-99.5 47.5l209 82q172 -69 172 -197q0 -98 -91.5 -161.5t-252.5 -63.5z" />
    <glyph glyph-name="uni0219" unicode="&#x219;" horiz-adv-x="1093" 
d="M678 618q191 -35 275.5 -98.5t84.5 -187.5q0 -87 -39 -156.5t-107.5 -112.5t-157.5 -65.5t-193 -22.5q-181 0 -310.5 66t-187.5 192l264 97q23 -63 86.5 -95t153.5 -32q80 0 136 24.5t56 69.5q0 33 -36 55t-121 37l-183 31q-154 26 -242.5 103t-88.5 200q0 103 65 177
t169 109t233 35q156 0 276 -55.5t174 -169.5l-262 -96q-25 94 -191 94q-167 0 -167 -82q0 -31 28.5 -50.5t95.5 -31.5zM399 -514l-106 92q98 0 153.5 33t55.5 92q0 42 -40 75.5t-100 47.5l209 82q172 -69 172 -197q0 -98 -91.5 -161.5t-252.5 -63.5z" />
    <glyph glyph-name="uni021A" unicode="&#x21a;" horiz-adv-x="1263" 
d="M31 1368h1202v-285h-440v-1083h-322v1083h-440v285zM494 -514l-107 92q98 0 153.5 33t55.5 92q0 42 -39.5 75.5t-99.5 47.5l209 82q172 -69 172 -197q0 -98 -91.5 -161.5t-252.5 -63.5z" />
    <glyph glyph-name="uni021B" unicode="&#x21b;" horiz-adv-x="776" 
d="M727 778h-221v-409q0 -70 27 -92.5t104 -22.5h90v-254h-197q-99 0 -158.5 11t-101.5 42.5t-58.5 87t-16.5 146.5v491h-168v238h168v254h311v-254h221v-238zM258 -514l-106 92q98 0 153 32.5t55 92.5q0 42 -39.5 75.5t-99.5 47.5l209 82q172 -69 172 -197
q0 -98 -91.5 -161.5t-252.5 -63.5z" />
    <glyph glyph-name="circumflex" unicode="&#x2c6;" horiz-adv-x="956" 
d="M340 1176h-264l301 270q44 41 102 41q55 0 103 -41l299 -270h-263l-139 124z" />
    <glyph glyph-name="circumflex" unicode="&#xe998;" horiz-adv-x="956" 
d="M340 1176h-264l301 270q44 41 102 41q55 0 103 -41l299 -270h-263l-139 124z" />
    <glyph glyph-name="caron" unicode="&#x2c7;" horiz-adv-x="956" 
d="M76 1475h264l139 -125l139 125h263l-299 -273q-45 -39 -103 -39q-60 0 -102 39z" />
    <glyph glyph-name="caron" unicode="&#xe999;" horiz-adv-x="956" 
d="M76 1475h264l139 -125l139 125h263l-299 -273q-45 -39 -103 -39q-60 0 -102 39z" />
    <glyph glyph-name="uni02C9" unicode="&#x2c9;" horiz-adv-x="763" 
d="M688 1126h-612v201h612v-201z" />
    <glyph glyph-name="breve" unicode="&#x2d8;" horiz-adv-x="763" 
d="M117 1411h174q8 -34 41.5 -61t77.5 -27t78 27t42 61h175q-19 -105 -102.5 -175.5t-192.5 -70.5q-108 0 -191 70.5t-102 175.5z" />
    <glyph glyph-name="breve" unicode="&#xe99b;" horiz-adv-x="763" 
d="M117 1411h174q8 -34 41.5 -61t77.5 -27t78 27t42 61h175q-19 -105 -102.5 -175.5t-192.5 -70.5q-108 0 -191 70.5t-102 175.5z" />
    <glyph glyph-name="dotaccent" unicode="&#x2d9;" horiz-adv-x="411" 
d="M61 1327q0 60 43 103t103 43t101.5 -43t41.5 -103t-41.5 -101.5t-101.5 -41.5t-103 41.5t-43 101.5z" />
    <glyph glyph-name="dotaccent" unicode="&#xe99c;" horiz-adv-x="411" 
d="M61 1327q0 60 43 103t103 43t101.5 -43t41.5 -103t-41.5 -101.5t-101.5 -41.5t-103 41.5t-43 101.5z" />
    <glyph glyph-name="ring" unicode="&#x2da;" horiz-adv-x="604" 
d="M301 1096q-112 0 -191 79.5t-79 192.5q0 112 78.5 191t191.5 79t192.5 -79t79.5 -191t-79.5 -192t-192.5 -80zM205 1368q0 -40 28 -68t68 -28t68 28t28 68t-28 68t-68 28t-68 -28t-28 -68z" />
    <glyph glyph-name="ogonek" unicode="&#x2db;" horiz-adv-x="604" 
d="M367 -356q-79 0 -138 17t-91 45t-47 58t-15 62q0 65 47.5 108.5t116.5 65.5h288q-11 -5 -31.5 -15t-31.5 -16t-29 -15t-28 -15.5t-23.5 -15t-21.5 -15.5t-15.5 -15t-10.5 -16t-3 -16q0 -62 94 -62q24 0 100 19v-154q-62 -20 -161 -20z" />
    <glyph glyph-name="ogonek" unicode="&#xe99e;" horiz-adv-x="604" 
d="M367 -356q-79 0 -138 17t-91 45t-47 58t-15 62q0 65 47.5 108.5t116.5 65.5h288q-11 -5 -31.5 -15t-31.5 -16t-29 -15t-28 -15.5t-23.5 -15t-21.5 -15.5t-15.5 -15t-10.5 -16t-3 -16q0 -62 94 -62q24 0 100 19v-154q-62 -20 -161 -20z" />
    <glyph glyph-name="tilde" unicode="&#x2dc;" horiz-adv-x="909" 
d="M76 1176q19 114 83.5 174.5t172.5 60.5q55 0 100.5 -21t82.5 -42t71 -21q48 0 88 43q38 41 74 41q52 0 75.5 -41.5t-2.5 -87.5q-31 -55 -93.5 -86t-129.5 -31q-71 0 -139 33q-12 6 -31.5 16.5t-28 15t-22 8.5t-25.5 5q-37 2 -62.5 -16t-31.5 -51h-182z" />
    <glyph glyph-name="tilde" unicode="&#xe99f;" horiz-adv-x="909" 
d="M76 1176q19 114 83.5 174.5t172.5 60.5q55 0 100.5 -21t82.5 -42t71 -21q48 0 88 43q38 41 74 41q52 0 75.5 -41.5t-2.5 -87.5q-31 -55 -93.5 -86t-129.5 -31q-71 0 -139 33q-12 6 -31.5 16.5t-28 15t-22 8.5t-25.5 5q-37 2 -62.5 -16t-31.5 -51h-182z" />
    <glyph glyph-name="hungarumlaut" unicode="&#x2dd;" horiz-adv-x="1003" 
d="M76 1176l223 272l7 7q7 7 16 14.5t27 13.5t38 6q49 0 82 -32.5t33 -82.5q0 -55 -39 -86l-154 -112h-233zM723 1176h-234l224 272l7 7q7 7 16 14.5t27 13.5t38 6q49 0 81.5 -32.5t32.5 -82.5q0 -56 -38 -86z" />
    <glyph glyph-name="hungarumlaut" unicode="&#xe9c5;" horiz-adv-x="1003" 
d="M76 1176l223 272l7 7q7 7 16 14.5t27 13.5t38 6q49 0 82 -32.5t33 -82.5q0 -55 -39 -86l-154 -112h-233zM723 1176h-234l224 272l7 7q7 7 16 14.5t27 13.5t38 6q49 0 81.5 -32.5t32.5 -82.5q0 -56 -38 -86z" />
    <glyph glyph-name="uni0326" unicode="&#x326;" horiz-adv-x="573" 
d="M156 -514l-107 92q98 0 153.5 33t55.5 92q0 42 -39.5 75.5t-99.5 47.5l209 82q172 -69 172 -197q0 -98 -91.5 -161.5t-252.5 -63.5z" />
    <glyph glyph-name="uni0394" unicode="&#x394;" horiz-adv-x="1464" 
d="M731 856l-262 -620h524zM731 1393l649 -1393h-1296z" />
    <glyph glyph-name="uni0394" unicode="&#xe9b7;" horiz-adv-x="1464" 
d="M731 856l-262 -620h524zM731 1393l649 -1393h-1296z" />
    <glyph glyph-name="uni03A9" unicode="&#x3a9;" horiz-adv-x="1368" 
d="M84 0v236h281v49q-128 81 -204.5 215.5t-76.5 290.5q0 122 47.5 233.5t127.5 192.5t191.5 128.5t233.5 47.5t233.5 -47.5t191.5 -128.5t127.5 -192.5t47.5 -233.5q0 -156 -76 -290.5t-204 -215.5v-49h280v-236h-549v457q128 19 213.5 117.5t85.5 228.5q0 146 -102.5 249
t-247.5 103q-146 0 -249 -103t-103 -249q0 -130 86.5 -228.5t214.5 -117.5v-457h-549z" />
    <glyph glyph-name="uni03A9" unicode="&#xe9b4;" horiz-adv-x="1368" 
d="M84 0v236h281v49q-128 81 -204.5 215.5t-76.5 290.5q0 122 47.5 233.5t127.5 192.5t191.5 128.5t233.5 47.5t233.5 -47.5t191.5 -128.5t127.5 -192.5t47.5 -233.5q0 -156 -76 -290.5t-204 -215.5v-49h280v-236h-549v457q128 19 213.5 117.5t85.5 228.5q0 146 -102.5 249
t-247.5 103q-146 0 -249 -103t-103 -249q0 -130 86.5 -228.5t214.5 -117.5v-457h-549z" />
    <glyph glyph-name="uni03BC" unicode="&#x3bc;" horiz-adv-x="1167" 
d="M102 -332v1346h312v-543q0 -150 32 -202t121 -52q99 0 141 56.5t42 197.5v543h313v-1014h-283l-26 88q-64 -113 -183 -113q-89 0 -157 62v-369h-312z" />
    <glyph glyph-name="uni03BC" unicode="&#xe945;" horiz-adv-x="1167" 
d="M102 -332v1346h312v-543q0 -150 32 -202t121 -52q99 0 141 56.5t42 197.5v543h313v-1014h-283l-26 88q-64 -113 -183 -113q-89 0 -157 62v-369h-312z" />
    <glyph glyph-name="pi" unicode="&#x3c0;" horiz-adv-x="1374" 
d="M84 1016h1206v-238h-180v-469q0 -58 23 -76t90 -18h67v-215h-160q-83 0 -133 9.5t-85.5 36.5t-49.5 73.5t-14 122.5v536h-316v-778h-262v778h-186v238z" />
    <glyph glyph-name="pi" unicode="&#xe9a0;" horiz-adv-x="1374" 
d="M84 1016h1206v-238h-180v-469q0 -58 23 -76t90 -18h67v-215h-160q-83 0 -133 9.5t-85.5 36.5t-49.5 73.5t-14 122.5v536h-316v-778h-262v778h-186v238z" />
    <glyph glyph-name="endash" unicode="&#x2013;" horiz-adv-x="1040" 
d="M956 379h-872v262h872v-262z" />
    <glyph glyph-name="emdash" unicode="&#x2014;" horiz-adv-x="1724" 
d="M1640 379h-1556v262h1556v-262z" />
    <glyph glyph-name="quoteleft" unicode="&#x2018;" horiz-adv-x="567" 
d="M84 895q0 32 14 72l156 401h184l-108 -281q67 -15 110 -68.5t43 -123.5q0 -83 -58 -142t-140 -59q-83 0 -142 59t-59 142z" />
    <glyph glyph-name="quoteleft" unicode="&#xe9a3;" horiz-adv-x="567" 
d="M84 895q0 32 14 72l156 401h184l-108 -281q67 -15 110 -68.5t43 -123.5q0 -83 -58 -142t-140 -59q-83 0 -142 59t-59 142z" />
    <glyph glyph-name="quoteright" unicode="&#x2019;" horiz-adv-x="567" 
d="M238 997q-67 18 -110.5 71.5t-43.5 123.5q0 83 59 142t142 59q82 0 140 -59t58 -142q0 -38 -12 -72l-158 -401h-184z" />
    <glyph glyph-name="quoteright" unicode="&#xe9a4;" horiz-adv-x="567" 
d="M238 997q-67 18 -110.5 71.5t-43.5 123.5q0 83 59 142t142 59q82 0 140 -59t58 -142q0 -38 -12 -72l-158 -401h-184z" />
    <glyph glyph-name="quotesinglbase" unicode="&#x201a;" horiz-adv-x="567" 
d="M238 -18q-67 15 -110.5 69.5t-43.5 124.5q0 83 59 142t142 59q82 0 140 -59t58 -142q0 -38 -12 -72l-158 -403h-184z" />
    <glyph glyph-name="quotesinglbase" unicode="&#xe9a5;" horiz-adv-x="567" 
d="M238 -18q-67 15 -110.5 69.5t-43.5 124.5q0 83 59 142t142 59q82 0 140 -59t58 -142q0 -38 -12 -72l-158 -403h-184z" />
    <glyph glyph-name="quotedblleft" unicode="&#x201c;" horiz-adv-x="1019" 
d="M84 895q0 32 14 72l156 401h184l-108 -281q67 -15 110 -68.5t43 -123.5q0 -83 -58 -142t-140 -59q-83 0 -142 59t-59 142zM539 895q0 32 14 72l154 401h186l-111 -281q67 -15 110.5 -68.5t43.5 -123.5q0 -83 -58 -142t-141 -59q-82 0 -140 59t-58 142z" />
    <glyph glyph-name="quotedblleft" unicode="&#xe9a6;" horiz-adv-x="1019" 
d="M84 895q0 32 14 72l156 401h184l-108 -281q67 -15 110 -68.5t43 -123.5q0 -83 -58 -142t-140 -59q-83 0 -142 59t-59 142zM539 895q0 32 14 72l154 401h186l-111 -281q67 -15 110.5 -68.5t43.5 -123.5q0 -83 -58 -142t-141 -59q-82 0 -140 59t-58 142z" />
    <glyph glyph-name="quotedblright" unicode="&#x201d;" horiz-adv-x="1019" 
d="M84 1192q0 83 59 142t142 59q82 0 140 -59t58 -142q0 -38 -12 -72l-158 -401h-184l109 278q-67 18 -110.5 71.5t-43.5 123.5zM539 1192q0 83 58 142t140 59q83 0 141 -59t58 -142q0 -38 -12 -72l-158 -401h-182l108 278q-67 17 -110 71t-43 124z" />
    <glyph glyph-name="quotedblright" unicode="&#xe9a7;" horiz-adv-x="1019" 
d="M84 1192q0 83 59 142t142 59q82 0 140 -59t58 -142q0 -38 -12 -72l-158 -401h-184l109 278q-67 18 -110.5 71.5t-43.5 123.5zM539 1192q0 83 58 142t140 59q83 0 141 -59t58 -142q0 -38 -12 -72l-158 -401h-182l108 278q-67 17 -110 71t-43 124z" />
    <glyph glyph-name="quotedblbase" unicode="&#x201e;" horiz-adv-x="1019" 
d="M84 176q0 83 59 142t142 59q82 0 140 -59t58 -142q0 -38 -12 -72l-158 -403h-184l109 281q-67 15 -110.5 69.5t-43.5 124.5zM539 176q0 83 58 142t140 59q83 0 141 -59t58 -142q0 -38 -12 -72l-158 -403h-182l108 281q-66 15 -109.5 69.5t-43.5 124.5z" />
    <glyph glyph-name="quotedblbase" unicode="&#xe9a8;" horiz-adv-x="1019" 
d="M84 176q0 83 59 142t142 59q82 0 140 -59t58 -142q0 -38 -12 -72l-158 -403h-184l109 281q-67 15 -110.5 69.5t-43.5 124.5zM539 176q0 83 58 142t140 59q83 0 141 -59t58 -142q0 -38 -12 -72l-158 -403h-182l108 281q-66 15 -109.5 69.5t-43.5 124.5z" />
    <glyph glyph-name="dagger" unicode="&#x2020;" horiz-adv-x="1216" 
d="M461 778h-377v238h377v352h295v-352h377v-238h-377v-778h-295v778z" />
    <glyph glyph-name="dagger" unicode="&#xe9a9;" horiz-adv-x="1216" 
d="M461 778h-377v238h377v352h295v-352h377v-238h-377v-778h-295v778z" />
    <glyph glyph-name="daggerdbl" unicode="&#x2021;" horiz-adv-x="1216" 
d="M84 778v238h377v352h295v-352h377v-238h-377v-188h377v-236h-377v-354h-295v354h-377v236h377v188h-377z" />
    <glyph glyph-name="daggerdbl" unicode="&#xe9aa;" horiz-adv-x="1216" 
d="M84 778v238h377v352h295v-352h377v-238h-377v-188h377v-236h-377v-354h-295v354h-377v236h377v188h-377z" />
    <glyph glyph-name="bullet" unicode="&#x2022;" horiz-adv-x="897" 
d="M109 520q0 141 99.5 240.5t240.5 99.5t240 -99.5t99 -240.5q0 -140 -99 -240t-240 -100t-240.5 100t-99.5 240z" />
    <glyph glyph-name="ellipsis" unicode="&#x2026;" horiz-adv-x="1644" 
d="M1161 176q0 83 59 142t142 59t141 -59t58 -142t-58 -142t-141 -59t-142 59t-59 142zM84 176q0 83 59 142t142 59q82 0 140 -59t58 -142t-58 -142t-140 -59q-83 0 -142 59t-59 142zM625 176q0 84 56.5 142.5t139.5 58.5t142 -59t59 -142t-59 -142t-142 -59t-139.5 58.5
t-56.5 142.5z" />
    <glyph glyph-name="ellipsis" unicode="&#xe9ac;" horiz-adv-x="1644" 
d="M1161 176q0 83 59 142t142 59t141 -59t58 -142t-58 -142t-141 -59t-142 59t-59 142zM84 176q0 83 59 142t142 59q82 0 140 -59t58 -142t-58 -142t-140 -59q-83 0 -142 59t-59 142zM625 176q0 84 56.5 142.5t139.5 58.5t142 -59t59 -142t-59 -142t-142 -59t-139.5 58.5
t-56.5 142.5z" />
    <glyph glyph-name="perthousand" unicode="&#x2030;" horiz-adv-x="2949" 
d="M1583 -25q-167 0 -285 119t-118 287q0 167 118 284t285 117q168 0 286 -117t118 -284t-118.5 -286.5t-285.5 -119.5zM2058 381q0 167 118 284t286 117q167 0 285 -117t118 -284q0 -168 -118 -287t-285 -119t-285.5 119.5t-118.5 286.5zM487 586q-167 0 -285 118t-118 285
t118 285.5t285 118.5q166 0 285 -118.5t119 -285.5t-119 -285t-285 -118zM686 0h-258l956 1368h261zM1421 381q0 -67 48 -114.5t114 -47.5t114 47.5t48 114.5q0 66 -48 113t-114 47t-114 -47t-48 -113zM2300 381q0 -67 47 -114.5t115 -47.5q66 0 112.5 47.5t46.5 114.5
q0 66 -46.5 113t-112.5 47q-67 0 -114.5 -47t-47.5 -113zM328 989q0 -67 46.5 -114.5t112.5 -47.5q67 0 114.5 47.5t47.5 114.5q0 66 -47.5 113t-114.5 47q-66 0 -112.5 -47t-46.5 -113z" />
    <glyph glyph-name="perthousand" unicode="&#xe9ad;" horiz-adv-x="2949" 
d="M1583 -25q-167 0 -285 119t-118 287q0 167 118 284t285 117q168 0 286 -117t118 -284t-118.5 -286.5t-285.5 -119.5zM2058 381q0 167 118 284t286 117q167 0 285 -117t118 -284q0 -168 -118 -287t-285 -119t-285.5 119.5t-118.5 286.5zM487 586q-167 0 -285 118t-118 285
t118 285.5t285 118.5q166 0 285 -118.5t119 -285.5t-119 -285t-285 -118zM686 0h-258l956 1368h261zM1421 381q0 -67 48 -114.5t114 -47.5t114 47.5t48 114.5q0 66 -48 113t-114 47t-114 -47t-48 -113zM2300 381q0 -67 47 -114.5t115 -47.5q66 0 112.5 47.5t46.5 114.5
q0 66 -46.5 113t-112.5 47q-67 0 -114.5 -47t-47.5 -113zM328 989q0 -67 46.5 -114.5t112.5 -47.5q67 0 114.5 47.5t47.5 114.5q0 66 -47.5 113t-114.5 47q-66 0 -112.5 -47t-46.5 -113z" />
    <glyph glyph-name="guilsinglleft" unicode="&#x2039;" horiz-adv-x="827" 
d="M743 82h-356l-303 430l303 432h354l-303 -432z" />
    <glyph glyph-name="guilsinglleft" unicode="&#xe9ae;" horiz-adv-x="827" 
d="M743 82h-356l-303 430l303 432h354l-303 -432z" />
    <glyph glyph-name="guilsinglright" unicode="&#x203a;" horiz-adv-x="827" 
d="M442 82h-358l307 428l-305 432h356l301 -432z" />
    <glyph glyph-name="guilsinglright" unicode="&#xe9af;" horiz-adv-x="827" 
d="M442 82h-358l307 428l-305 432h356l301 -432z" />
    <glyph glyph-name="fraction" unicode="&#x2044;" horiz-adv-x="1277" 
d="M989 1368h258l-956 -1368h-260z" />
    <glyph glyph-name="fraction" unicode="&#xe9b0;" horiz-adv-x="1277" 
d="M989 1368h258l-956 -1368h-260z" />
    <glyph glyph-name="Euro" unicode="&#x20ac;" horiz-adv-x="1490" 
d="M268 750h-184l82 151h123q53 230 212 361t392 131q171 0 303.5 -85t204.5 -233l-264 -96q-38 73 -106.5 110t-147.5 37q-91 0 -163.5 -59t-109.5 -166h381l-84 -151h-327q-5 -50 -5 -66q0 -10 1.5 -30t1.5 -29h260l-82 -152h-150q36 -112 110 -171.5t171 -59.5
q81 0 151 34t107 111l262 -96q-74 -148 -210.5 -232t-311.5 -84q-236 0 -392 131.5t-206 366.5h-201l82 152h100v125z" />
    <glyph glyph-name="Euro" unicode="&#xe9b1;" horiz-adv-x="1490" 
d="M268 750h-184l82 151h123q53 230 212 361t392 131q171 0 303.5 -85t204.5 -233l-264 -96q-38 73 -106.5 110t-147.5 37q-91 0 -163.5 -59t-109.5 -166h381l-84 -151h-327q-5 -50 -5 -66q0 -10 1.5 -30t1.5 -29h260l-82 -152h-150q36 -112 110 -171.5t171 -59.5
q81 0 151 34t107 111l262 -96q-74 -148 -210.5 -232t-311.5 -84q-236 0 -392 131.5t-206 366.5h-201l82 152h100v125z" />
    <glyph glyph-name="uni2113" unicode="&#x2113;" horiz-adv-x="1032" 
d="M84 229v217l133 97v383q0 243 103 355t288 112q159 0 249.5 -79.5t90.5 -223.5q0 -63 -20.5 -123.5t-53.5 -109.5t-87.5 -103.5t-107.5 -97.5t-130 -99l-23 -16v-150q0 -89 30.5 -127.5t96.5 -38.5q80 0 162 64l117 -183q-58 -53 -146.5 -92t-201.5 -39q-80 0 -144 18.5
t-115 58.5t-79 108.5t-29 161.5zM526 764l9 6q74 56 116.5 134t42.5 163q0 107 -82 107q-46 0 -66 -36t-20 -112v-262z" />
    <glyph glyph-name="uni2113" unicode="&#xe9b2;" horiz-adv-x="1032" 
d="M84 229v217l133 97v383q0 243 103 355t288 112q159 0 249.5 -79.5t90.5 -223.5q0 -63 -20.5 -123.5t-53.5 -109.5t-87.5 -103.5t-107.5 -97.5t-130 -99l-23 -16v-150q0 -89 30.5 -127.5t96.5 -38.5q80 0 162 64l117 -183q-58 -53 -146.5 -92t-201.5 -39q-80 0 -144 18.5
t-115 58.5t-79 108.5t-29 161.5zM526 764l9 6q74 56 116.5 134t42.5 163q0 107 -82 107q-46 0 -66 -36t-20 -112v-262z" />
    <glyph glyph-name="trademark" unicode="&#x2122;" horiz-adv-x="1914" 
d="M850 616v752h354l135 -483l138 483h354v-752h-219v527l-172 -527h-199l-172 527v-527h-219zM84 1178v190h717v-190h-246v-562h-223v562h-248z" />
    <glyph glyph-name="trademark" unicode="&#xe9b3;" horiz-adv-x="1914" 
d="M850 616v752h354l135 -483l138 483h354v-752h-219v527l-172 -527h-199l-172 527v-527h-219zM84 1178v190h717v-190h-246v-562h-223v562h-248z" />
    <glyph glyph-name="estimated" unicode="&#x212e;" horiz-adv-x="1236" 
d="M621 -25q-146 0 -269.5 71.5t-195.5 195t-72 268.5t72 268t195.5 194.5t269.5 71.5q144 0 266.5 -71.5t194 -194.5t71.5 -268h-788v-297q108 -94 256 -94q88 0 167 38t134 105l139 -51q-74 -108 -190 -172t-250 -64zM365 807v-162h507v162q-108 94 -251 94
q-148 0 -256 -94z" />
    <glyph glyph-name="estimated" unicode="&#xe9b5;" horiz-adv-x="1236" 
d="M621 -25q-146 0 -269.5 71.5t-195.5 195t-72 268.5t72 268t195.5 194.5t269.5 71.5q144 0 266.5 -71.5t194 -194.5t71.5 -268h-788v-297q108 -94 256 -94q88 0 167 38t134 105l139 -51q-74 -108 -190 -172t-250 -64zM365 807v-162h507v162q-108 94 -251 94
q-148 0 -256 -94z" />
    <glyph glyph-name="partialdiff" unicode="&#x2202;" horiz-adv-x="1222" 
d="M592 -25q-104 0 -195 30t-161.5 86t-111 144.5t-40.5 198.5q0 189 134.5 323t324.5 134q129 0 220.5 -48t141.5 -114q-6 81 -25 144.5t-59.5 119.5t-101.5 91t-154 52.5t-213 10.5v246q164 0 247 -13q540 -83 540 -735q0 -211 -56 -352q-37 -90 -95 -155t-125.5 -99
t-133.5 -49t-137 -15zM606 645q-88 0 -150.5 -62t-62.5 -151q0 -88 62.5 -150.5t150.5 -62.5t149.5 62.5t61.5 150.5q0 89 -61.5 151t-149.5 62z" />
    <glyph glyph-name="partialdiff" unicode="&#xe9b6;" horiz-adv-x="1222" 
d="M592 -25q-104 0 -195 30t-161.5 86t-111 144.5t-40.5 198.5q0 189 134.5 323t324.5 134q129 0 220.5 -48t141.5 -114q-6 81 -25 144.5t-59.5 119.5t-101.5 91t-154 52.5t-213 10.5v246q164 0 247 -13q540 -83 540 -735q0 -211 -56 -352q-37 -90 -95 -155t-125.5 -99
t-133.5 -49t-137 -15zM606 645q-88 0 -150.5 -62t-62.5 -151q0 -88 62.5 -150.5t150.5 -62.5t149.5 62.5t61.5 150.5q0 89 -61.5 151t-149.5 62z" />
    <glyph glyph-name="product" unicode="&#x220f;" horiz-adv-x="1257" 
d="M346 -330h-262v1698h1090v-1698h-263v1460h-565v-1460z" />
    <glyph glyph-name="product" unicode="&#xe9b8;" horiz-adv-x="1257" 
d="M346 -330h-262v1698h1090v-1698h-263v1460h-565v-1460z" />
    <glyph glyph-name="summation" unicode="&#x2211;" horiz-adv-x="1263" 
d="M84 1368h1096v-262h-748l490 -586l-490 -590h748v-262h-1096v262l485 590l-485 586v262z" />
    <glyph glyph-name="summation" unicode="&#xe9b9;" horiz-adv-x="1263" 
d="M84 1368h1096v-262h-748l490 -586l-490 -590h748v-262h-1096v262l485 590l-485 586v262z" />
    <glyph glyph-name="minus" unicode="&#x2212;" horiz-adv-x="1216" 
d="M1133 377h-1049v262h1049v-262z" />
    <glyph glyph-name="minus" unicode="&#xe9ba;" horiz-adv-x="1216" 
d="M1133 377h-1049v262h1049v-262z" />
    <glyph glyph-name="uni2215" unicode="&#x2215;" horiz-adv-x="1333" 
d="M989 1368h314l-959 -1368h-313z" />
    <glyph glyph-name="uni2215" unicode="&#xe9bb;" horiz-adv-x="1333" 
d="M989 1368h314l-959 -1368h-313z" />
    <glyph glyph-name="uni2219" unicode="&#x2219;" horiz-adv-x="567" 
d="M84 522q0 83 58.5 140t142.5 57q82 0 140 -57t58 -140t-58 -141.5t-140 -58.5q-83 0 -142 58.5t-59 141.5z" />
    <glyph glyph-name="uni2219" unicode="&#xe9bc;" horiz-adv-x="567" 
d="M84 522q0 83 58.5 140t142.5 57q82 0 140 -57t58 -140t-58 -141.5t-140 -58.5q-83 0 -142 58.5t-59 141.5z" />
    <glyph glyph-name="radical" unicode="&#x221a;" horiz-adv-x="1452" 
d="M1073 1368h295l-448 -1700h-320l-225 522h-291v271h477l164 -402z" />
    <glyph glyph-name="radical" unicode="&#xe9bd;" horiz-adv-x="1452" 
d="M1073 1368h295l-448 -1700h-320l-225 522h-291v271h477l164 -402z" />
    <glyph glyph-name="infinity" unicode="&#x221e;" horiz-adv-x="1533" 
d="M436 199q-151 0 -251.5 91t-100.5 232q0 139 103.5 230.5t256.5 91.5q176 0 322 -156q149 156 324 156q153 0 256.5 -91.5t103.5 -230.5q0 -141 -100.5 -232t-251.5 -91q-182 0 -332 161q-71 -76 -149.5 -118.5t-180.5 -42.5zM1079 627q-88 0 -176 -103q87 -106 180 -106
q54 0 87.5 30t33.5 76q0 45 -36 74t-89 29zM455 627q-53 0 -89 -29t-36 -74q0 -46 33.5 -76t87.5 -30q93 0 180 106q-88 103 -176 103z" />
    <glyph glyph-name="infinity" unicode="&#xe9be;" horiz-adv-x="1533" 
d="M436 199q-151 0 -251.5 91t-100.5 232q0 139 103.5 230.5t256.5 91.5q176 0 322 -156q149 156 324 156q153 0 256.5 -91.5t103.5 -230.5q0 -141 -100.5 -232t-251.5 -91q-182 0 -332 161q-71 -76 -149.5 -118.5t-180.5 -42.5zM1079 627q-88 0 -176 -103q87 -106 180 -106
q54 0 87.5 30t33.5 76q0 45 -36 74t-89 29zM455 627q-53 0 -89 -29t-36 -74q0 -46 33.5 -76t87.5 -30q93 0 180 106q-88 103 -176 103z" />
    <glyph glyph-name="integral" unicode="&#x222b;" horiz-adv-x="995" 
d="M84 -172q1 46 35 78.5t80 32.5q49 0 82.5 -33.5t33.5 -81.5q0 -21 -6 -39q33 15 46.5 67.5t13.5 151.5q0 44 -8 366t-9 425q-1 138 17.5 243.5t50 171.5t78.5 108t98 58.5t113 16.5q78 0 140 -54t62 -131q-1 -46 -34.5 -78t-79.5 -32q-49 0 -82 33t-33 81q0 21 6 39
q-59 -27 -59 -219q0 -45 7.5 -365.5t8.5 -424.5q1 -138 -17 -243.5t-50 -171.5t-78.5 -108t-97.5 -58.5t-113 -16.5q-72 0 -138.5 57t-66.5 127z" />
    <glyph glyph-name="integral" unicode="&#xe9bf;" horiz-adv-x="995" 
d="M84 -172q1 46 35 78.5t80 32.5q49 0 82.5 -33.5t33.5 -81.5q0 -21 -6 -39q33 15 46.5 67.5t13.5 151.5q0 44 -8 366t-9 425q-1 138 17.5 243.5t50 171.5t78.5 108t98 58.5t113 16.5q78 0 140 -54t62 -131q-1 -46 -34.5 -78t-79.5 -32q-49 0 -82 33t-33 81q0 21 6 39
q-59 -27 -59 -219q0 -45 7.5 -365.5t8.5 -424.5q1 -138 -17 -243.5t-50 -171.5t-78.5 -108t-97.5 -58.5t-113 -16.5q-72 0 -138.5 57t-66.5 127z" />
    <glyph glyph-name="approxequal" unicode="&#x2248;" horiz-adv-x="1089" 
d="M297 117l-213 78q14 147 78.5 225t195.5 78q53 0 107 -19.5t91.5 -43t80 -43t74.5 -19.5q80 0 82 127l213 -78q-14 -148 -77.5 -224.5t-193.5 -76.5q-48 0 -99.5 19t-88.5 41.5t-83 41.5t-85 19q-37 0 -59 -26.5t-23 -98.5zM84 602q14 146 78.5 223.5t195.5 77.5
q53 0 107 -19.5t91.5 -43t80 -43t74.5 -19.5q80 0 82 125l213 -76q-14 -147 -78 -224t-193 -77q-48 0 -99.5 19t-88.5 42.5t-83 42.5t-85 19q-37 0 -59 -26.5t-23 -98.5z" />
    <glyph glyph-name="approxequal" unicode="&#xe9c0;" horiz-adv-x="1089" 
d="M297 117l-213 78q14 147 78.5 225t195.5 78q53 0 107 -19.5t91.5 -43t80 -43t74.5 -19.5q80 0 82 127l213 -78q-14 -148 -77.5 -224.5t-193.5 -76.5q-48 0 -99.5 19t-88.5 41.5t-83 41.5t-85 19q-37 0 -59 -26.5t-23 -98.5zM84 602q14 146 78.5 223.5t195.5 77.5
q53 0 107 -19.5t91.5 -43t80 -43t74.5 -19.5q80 0 82 125l213 -76q-14 -147 -78 -224t-193 -77q-48 0 -99.5 19t-88.5 42.5t-83 42.5t-85 19q-37 0 -59 -26.5t-23 -98.5z" />
    <glyph glyph-name="notequal" unicode="&#x2260;" horiz-adv-x="1216" 
d="M84 461h334l84 119h-418v260h602l121 174h313l-123 -174h136v-260h-320l-82 -119h402v-264h-584l-139 -197h-314l137 197h-149v264z" />
    <glyph glyph-name="notequal" unicode="&#xe9c1;" horiz-adv-x="1216" 
d="M84 461h334l84 119h-418v260h602l121 174h313l-123 -174h136v-260h-320l-82 -119h402v-264h-584l-139 -197h-314l137 197h-149v264z" />
    <glyph glyph-name="lessequal" unicode="&#x2264;" horiz-adv-x="1216" 
d="M1133 279l-1049 253v259l1049 253v-264l-691 -116l691 -121v-264zM84 262h1049v-262h-1049v262z" />
    <glyph glyph-name="lessequal" unicode="&#xe9c2;" horiz-adv-x="1216" 
d="M1133 279l-1049 253v259l1049 253v-264l-691 -116l691 -121v-264zM84 262h1049v-262h-1049v262z" />
    <glyph glyph-name="greaterequal" unicode="&#x2265;" horiz-adv-x="1216" 
d="M84 1044l1049 -253v-259l-1049 -253v264l690 121l-690 116v264zM84 0v262h1049v-262h-1049z" />
    <glyph glyph-name="greaterequal" unicode="&#xe9c3;" horiz-adv-x="1216" 
d="M84 1044l1049 -253v-259l-1049 -253v264l690 121l-690 116v264zM84 0v262h1049v-262h-1049z" />
    <glyph glyph-name="lozenge" unicode="&#x25ca;" horiz-adv-x="1243" 
d="M623 1028l-256 -387l256 -387l254 387zM623 1466l536 -825l-536 -827l-539 827z" />
    <glyph glyph-name="lozenge" unicode="&#xe9c4;" horiz-adv-x="1243" 
d="M623 1028l-256 -387l256 -387l254 387zM623 1466l536 -825l-536 -827l-539 827z" />
    <glyph glyph-name="NULL" horiz-adv-x="0" 
 />
    <glyph glyph-name="grave.case" horiz-adv-x="509" 
d="M-41 1698q0 44 35.5 79t79.5 35q45 0 78 -30l256 -285h-256l-152 113q-41 41 -41 88z" />
    <glyph glyph-name="acute.case" horiz-adv-x="407" 
d="M90 1497q244 273 244 275l10 10q33 30 78 30q47 0 81 -33.5t34 -80.5q0 -49 -39 -88l-152 -113h-256z" />
    <glyph glyph-name="circumflex.case" horiz-adv-x="808" 
d="M2 1497l301 272q46 39 100 39q59 0 101 -39l303 -272h-264l-140 125l-137 -125h-264z" />
    <glyph glyph-name="dieresis.case" horiz-adv-x="749" 
d="M33 1630q0 60 42.5 103t102.5 43t102 -43t42 -103t-42 -101.5t-102 -41.5t-102.5 41.5t-42.5 101.5zM575 1487q-60 0 -102.5 41.5t-42.5 101.5t42.5 103t102.5 43q58 0 100 -43t42 -103t-41.5 -101.5t-100.5 -41.5z" />
    <glyph glyph-name="caron.case" horiz-adv-x="808" 
d="M2 1796h264l140 -125l139 125h262l-299 -272q-45 -39 -102 -39q-61 0 -103 39z" />
    <glyph glyph-name="ring.case" horiz-adv-x="761" 
d="M381 1221q-112 0 -191 79.5t-79 192.5t78.5 191.5t191.5 78.5t192.5 -79t79.5 -191q0 -113 -79.5 -192.5t-192.5 -79.5zM285 1493q0 -40 28 -68t68 -28t68 28t28 68t-28 68t-68 28t-68 -28t-28 -68z" />
    <glyph glyph-name="macron.case" horiz-adv-x="712" 
d="M664 1530h-613v201h613v-201z" />
    <glyph glyph-name="breve.case" horiz-adv-x="675" 
d="M53 1743h174q8 -34 41.5 -61t77.5 -27t78.5 27t42.5 61h174q-19 -105 -102.5 -175.5t-192.5 -70.5q-108 0 -191 70.5t-102 175.5z" />
    <glyph glyph-name="dotaccent.case" horiz-adv-x="706" 
d="M215 1630q0 60 42.5 103t102.5 43t102 -43t42 -103t-42 -101.5t-102 -41.5t-102.5 41.5t-42.5 101.5z" />
    <glyph glyph-name="tilde.case" horiz-adv-x="749" 
d="M-4 1503q19 114 84 175t172 61q55 0 100.5 -21t82.5 -42t71 -21q48 0 88 43q38 41 74 41q52 0 75.5 -41.5t-2.5 -87.5q-31 -55 -93.5 -86t-129.5 -31q-71 0 -139 33q-12 6 -31.5 16.5t-28 15t-22 8.5t-25.5 5q-37 2 -62.5 -16.5t-31.5 -51.5h-182z" />
    <glyph glyph-name="hungarumlaut.case" horiz-adv-x="886" 
d="M18 1528l224 272l7 7q7 7 16 14.5t27 13.5t38 6q49 0 81.5 -32.5t32.5 -82.5q0 -56 -38 -86l-154 -112h-234zM666 1528h-234l223 272l7 7q7 7 16 14.5t27 13.5t38 6q49 0 82 -32.5t33 -82.5q0 -55 -39 -86z" />
    <glyph glyph-name="zero.tf" horiz-adv-x="1294" 
d="M61 686q0 333 151 520t435 187q285 0 436.5 -187t151.5 -520q0 -332 -152 -521.5t-436 -189.5q-283 0 -434.5 189.5t-151.5 521.5zM397 883q-16 -91 -16 -197q0 -239 71.5 -359t194.5 -120q103 0 166 78zM647 1161q-94 0 -158 -67l412 -590q12 80 12 180q0 241 -70.5 359
t-195.5 118z" />
    <glyph glyph-name="one.tf" horiz-adv-x="1294" 
d="M518 918h-311v251q73 0 116.5 3t89.5 14t74.5 32.5t55.5 58t49 91.5h235v-1114h263v-254h-883v254h311v664z" />
    <glyph glyph-name="two.tf" horiz-adv-x="1294" 
d="M123 256l88 63q56 39 84 59t89.5 65t97 73.5t91.5 76t90 82t74.5 80.5t63 84t38 80.5t15.5 79.5q0 76 -54.5 119t-133.5 43q-73 0 -130 -40t-79 -128l-283 103q55 141 189 219t317 78q215 0 351 -106.5t136 -293.5q0 -198 -163.5 -374.5t-483.5 -362.5h654v-256h-1051
v256z" />
    <glyph glyph-name="three.tf" horiz-adv-x="1294" 
d="M115 287l282 102q25 -94 93.5 -138t160.5 -44q98 0 154.5 47t56.5 131q0 211 -383 211v217q177 0 272 48.5t95 139.5q0 76 -61.5 118t-151.5 42q-83 0 -143.5 -40t-79.5 -128l-281 103q39 101 121.5 169.5t183 98t217.5 29.5q77 0 149 -13t137.5 -41.5t114.5 -69
t78 -100.5t29 -131q0 -103 -55.5 -187.5t-134.5 -129.5q97 -37 155 -130t58 -192q0 -103 -44.5 -185.5t-120 -134t-171.5 -78t-203 -26.5q-119 0 -221 32t-184 103.5t-123 176.5z" />
    <glyph glyph-name="four.tf" horiz-adv-x="1294" 
d="M66 516l665 852h311v-805h189v-274h-189v-289h-311v289h-665v227zM731 961l-328 -398h328v398z" />
    <glyph glyph-name="five.tf" horiz-adv-x="1294" 
d="M631 -25q-182 0 -319.5 80t-200.5 230l270 98q52 -176 233 -176q111 0 179.5 64.5t68.5 181.5q0 119 -69 182t-172 63q-153 0 -226 -133l-276 103l86 700h915v-254h-657l-31 -256q46 33 122.5 52.5t150.5 19.5q93 0 178 -30.5t153 -88.5t108 -150.5t40 -207.5
q0 -114 -44.5 -206t-121.5 -151t-176 -90t-211 -31z" />
    <glyph glyph-name="six.tf" horiz-adv-x="1294" 
d="M104 659q0 121 20.5 227.5t66 200.5t113.5 161t168 106t224 39q150 0 256 -53t162 -146l-278 -100q-20 35 -62.5 54t-97.5 19q-113 0 -179.5 -86.5t-66.5 -255.5q113 101 293 101q123 0 229.5 -60.5t172 -172.5t65.5 -249q0 -211 -149.5 -340t-383.5 -129
q-115 0 -207.5 34t-156.5 95t-107 147t-62.5 188t-19.5 220zM434 451q0 -111 60 -177.5t161 -66.5q99 0 157 66t58 176q0 109 -58.5 176t-158.5 67q-99 0 -159 -65.5t-60 -175.5z" />
    <glyph glyph-name="seven.tf" horiz-adv-x="1294" 
d="M633 0h-359l555 1112h-694v256h1024v-256z" />
    <glyph glyph-name="eight.tf" horiz-adv-x="1294" 
d="M647 -25q-249 0 -406 118.5t-157 330.5q0 121 56.5 202t176.5 146q-65 105 -65 225q0 166 111.5 281t283.5 115t282.5 -115t110.5 -281q0 -125 -67 -223q121 -67 178 -148.5t57 -203.5q0 -141 -74.5 -243.5t-200 -153t-286.5 -50.5zM406 422q0 -85 67 -137t174 -52
q105 0 172.5 53t67.5 136q0 84 -66.5 132t-173.5 48q-109 0 -175 -47.5t-66 -132.5zM647 1137q-59 0 -100 -41t-41 -101q0 -59 41 -100t100 -41q57 0 97 41t40 100q0 60 -39.5 101t-97.5 41z" />
    <glyph glyph-name="nine.tf" horiz-adv-x="1294" 
d="M158 903q0 132 65 244.5t176.5 178t243.5 65.5q99 0 190.5 -39t158 -105t106 -157.5t39.5 -190.5q0 -107 -50 -213l-331 -686h-328l221 414q-133 0 -246 64.5t-179 177.5t-66 247zM434 883q7 -84 69.5 -140.5t145.5 -56.5q88 0 150.5 62.5t62.5 150.5q0 8 -2 12v11
q-9 83 -70 137.5t-143 54.5h-18q-84 -7 -139.5 -68.5t-55.5 -144.5v-18z" />
    <glyph glyph-name="ogonek.case" horiz-adv-x="538" 
d="M358 -356q-79 0 -138 17t-90.5 45t-46.5 58t-15 62q0 65 47 108.5t116 65.5h289q-67 -8 -130.5 -49t-63.5 -90q0 -62 94 -62q24 0 100 19v-154q-23 -8 -73.5 -14t-88.5 -6z" />
    <glyph glyph-name="caron.salt" horiz-adv-x="419" 
d="M246 1016h-164l49 297q7 44 41.5 70t73.5 26q50 0 81 -36t31 -81q0 -20 -6 -35z" />
    </font>
</defs>
</svg>
