<svg id="ic_info_stock_control_pendiente" xmlns="http://www.w3.org/2000/svg" width="20" height="20" viewBox="0 0 20 20">
  <rect id="Rectángulo_2284" data-name="Rectángulo 2284" width="20" height="20" fill="none"/>
  <rect id="Rectángulo_2303" data-name="Rectángulo 2303" width="16" height="2" transform="translate(2 2)" fill="#786ade"/>
  <path id="Trazado_2008" data-name="Trazado 2008" d="M14.143,12.58l-3.027-1.507a.939.939,0,0,0-.36-.073H10.25V7a1,1,0,0,0-2,0v7.16c-2.4-.507-2.36-.5-2.447-.5a.746.746,0,0,0-.527.22l-.527.533,3.293,3.293A1,1,0,0,0,8.75,18h4.527a.971.971,0,0,0,.96-.853l.5-3.513a.958.958,0,0,0-.593-1.053Z" transform="translate(3.25)" fill="#786ade"/>
  <rect id="Rectángulo_2401" data-name="Rectángulo 2401" width="8" height="2" transform="translate(2 6)" fill="#786ade"/>
  <rect id="Rectángulo_2402" data-name="Rectángulo 2402" width="6" height="2" transform="translate(2 16)" fill="#786ade"/>
  <rect id="Rectángulo_2403" data-name="Rectángulo 2403" width="2" height="8" transform="translate(2 8)" fill="#786ade"/>
</svg>
