<svg id="ic_info_pedcom_encargo" xmlns="http://www.w3.org/2000/svg" width="20" height="20" viewBox="0 0 20 20">
  <rect id="Rectángulo_2290" data-name="Rectángulo 2290" width="20" height="20" fill="none"/>
  <path id="Trazado_1942" data-name="Trazado 1942" d="M14,7A7,7,0,0,1,0,7" transform="translate(3 3)" fill="#71d875"/>
  <path id="Trazado_1943" data-name="Trazado 1943" d="M7.09,19.2a5.815,5.815,0,0,1-2.28-.43,5.154,5.154,0,0,1-1.74-1.18,5.333,5.333,0,0,1-1.11-1.72,5.444,5.444,0,0,1-.39-2.05,5.67,5.67,0,0,1,.67-2.74A5.141,5.141,0,0,1,4.16,9.09a5.625,5.625,0,0,1,2.95-.75,5.507,5.507,0,0,1,2.94.75,5.078,5.078,0,0,1,1.87,1.98,5.587,5.587,0,0,1,.65,2.65q0,.24-.02.49t-.04.41H4.41a3.092,3.092,0,0,0,.47,1.4,2.566,2.566,0,0,0,1,.91,2.851,2.851,0,0,0,1.31.31,3.089,3.089,0,0,0,1.51-.39,2.064,2.064,0,0,0,.97-1.03l2.3.64a4.36,4.36,0,0,1-1.09,1.42,5.237,5.237,0,0,1-1.67.97A6.149,6.149,0,0,1,7.09,19.2ZM4.35,12.92H9.83a3.172,3.172,0,0,0-.45-1.39,2.619,2.619,0,0,0-.97-.92,2.734,2.734,0,0,0-1.34-.33A2.62,2.62,0,0,0,4.8,11.53,3.172,3.172,0,0,0,4.35,12.92Z" transform="translate(3 -4)" fill="#786ade"/>
</svg>
