<svg id="ic_info_pendiente_receta" xmlns="http://www.w3.org/2000/svg" width="20" height="20" viewBox="0 0 20 20">
  <rect id="Rectángulo_2328" data-name="Rectángulo 2328" width="20" height="20" fill="none"/>
  <path id="Trazado_2006" data-name="Trazado 2006" d="M1.98,11.655V3.64H5.525a2.322,2.322,0,0,1,1.022.226,2.594,2.594,0,0,1,.813.61,2.819,2.819,0,0,1,.531.858,2.633,2.633,0,0,1,.186.971A2.768,2.768,0,0,1,7.9,7.28a2.427,2.427,0,0,1-.5.818,2.3,2.3,0,0,1-.768.542l1.829,3.014H6.744L5.1,8.968H3.538v2.687ZM3.538,7.6H5.491a.824.824,0,0,0,.519-.175,1.233,1.233,0,0,0,.361-.468A1.544,1.544,0,0,0,6.507,6.3a1.374,1.374,0,0,0-.158-.672,1.32,1.32,0,0,0-.4-.457.9.9,0,0,0-.525-.169H3.538Zm7.513,4.052V3.64h3.4a2.286,2.286,0,0,1,1.016.226,2.614,2.614,0,0,1,.807.61,2.912,2.912,0,0,1,.536.858A2.566,2.566,0,0,1,17,6.3a2.758,2.758,0,0,1-.316,1.287,2.7,2.7,0,0,1-.869.993,2.239,2.239,0,0,1-1.309.384h-1.9v2.687ZM12.609,7.6h1.806a.865.865,0,0,0,.508-.158,1.09,1.09,0,0,0,.361-.457A1.639,1.639,0,0,0,15.42,6.3a1.527,1.527,0,0,0-.152-.711,1.078,1.078,0,0,0-.4-.44,1,1,0,0,0-.525-.147H12.609Z" transform="translate(0.521 2.36)" fill="#786ade" stroke="#786ade" stroke-width="0.2"/>
</svg>
