<svg id="ic_info_generico_g" xmlns="http://www.w3.org/2000/svg" width="20" height="20" viewBox="0 0 20 20">
  <rect id="Rect치ngulo_2352" data-name="Rect치ngulo 2352" width="20" height="20" fill="none"/>
  <path id="Trazado_1988" data-name="Trazado 1988" d="M7.1,15.08a4.98,4.98,0,0,1-2.088-.448,5.445,5.445,0,0,1-1.728-1.24,5.744,5.744,0,0,1-1.16-1.848,6.187,6.187,0,0,1-.416-2.288,5.828,5.828,0,0,1,.416-2.2A5.645,5.645,0,0,1,3.3,5.24a5.52,5.52,0,0,1,1.76-1.232A5.336,5.336,0,0,1,7.248,3.56a5.275,5.275,0,0,1,2.744.68,4.425,4.425,0,0,1,1.72,1.8L10.064,7.256a3.058,3.058,0,0,0-1.208-1.3,3.318,3.318,0,0,0-1.688-.448,2.829,2.829,0,0,0-1.312.3,3.2,3.2,0,0,0-1.024.832,3.836,3.836,0,0,0-.664,1.216A4.526,4.526,0,0,0,3.936,9.32a4.405,4.405,0,0,0,.248,1.5,3.638,3.638,0,0,0,.7,1.2,3.414,3.414,0,0,0,1.064.808,3.029,3.029,0,0,0,1.344.3,3.317,3.317,0,0,0,1.656-.448,5.178,5.178,0,0,0,1.48-1.312v2.176A4.406,4.406,0,0,1,7.1,15.08Zm3.168-4.3H7.984V9.16H12.1V15H10.272Z" transform="translate(6 3)" fill="#b2a8f8" stroke="#b2a8f8" stroke-width="0.2"/>
  <rect id="Rect치ngulo_2353" data-name="Rect치ngulo 2353" width="4" height="2" transform="translate(5 2)" fill="#786ade"/>
  <path id="Trazado_1976" data-name="Trazado 1976" d="M7360,2329h-4v-7l2-3h2" transform="translate(-7353 -2312)" fill="none" stroke="#786ade" stroke-width="2"/>
</svg>
