<svg id="ic_info_descuento" xmlns="http://www.w3.org/2000/svg" width="20" height="20" viewBox="0 0 20 20">
  <rect id="Rectángulo_2330" data-name="Rectángulo 2330" width="20" height="20" fill="none"/>
  <path id="Trazado_1967" data-name="Trazado 1967" d="M3.441,8.668a2.8,2.8,0,0,1-1.383-.345,2.607,2.607,0,0,1-.978-.936,2.58,2.58,0,0,1,0-2.627,2.607,2.607,0,0,1,.978-.936A2.8,2.8,0,0,1,3.441,3.48a2.8,2.8,0,0,1,1.383.345,2.607,2.607,0,0,1,.978.936,2.58,2.58,0,0,1,0,2.627,2.607,2.607,0,0,1-.978.936A2.8,2.8,0,0,1,3.441,8.668Zm0-1.477a.53.53,0,0,0,.367-.156,1.089,1.089,0,0,0,.268-.41,1.5,1.5,0,0,0,.1-.55,1.481,1.481,0,0,0-.1-.558,1.1,1.1,0,0,0-.268-.4.51.51,0,0,0-.734,0,1.1,1.1,0,0,0-.268.4,1.481,1.481,0,0,0-.1.558,1.5,1.5,0,0,0,.1.55,1.089,1.089,0,0,0,.268.41A.53.53,0,0,0,3.441,7.19ZM10,15.464a2.8,2.8,0,0,1-1.383-.345,2.607,2.607,0,0,1-.978-.936,2.58,2.58,0,0,1,0-2.627,2.607,2.607,0,0,1,.978-.936,2.948,2.948,0,0,1,2.767,0,2.607,2.607,0,0,1,.978.936,2.58,2.58,0,0,1,0,2.627,2.607,2.607,0,0,1-.978.936A2.8,2.8,0,0,1,10,15.464Zm0-1.477a.53.53,0,0,0,.367-.156,1.089,1.089,0,0,0,.268-.41,1.5,1.5,0,0,0,.1-.55,1.481,1.481,0,0,0-.1-.558,1.1,1.1,0,0,0-.268-.4.51.51,0,0,0-.734,0,1.1,1.1,0,0,0-.268.4,1.481,1.481,0,0,0-.1.558,1.5,1.5,0,0,0,.1.55,1.089,1.089,0,0,0,.268.41A.53.53,0,0,0,10,13.987ZM2,14.233,6.33,9l3.837-5.532L11.436,4.7,7.293,9.768l-4.02,5.7Z" transform="translate(3.28 0.536)" fill="#786ade" stroke="#786ade" stroke-width="0.2"/>
</svg>
