<svg id="ic_info_tabla_oferta_compra" xmlns="http://www.w3.org/2000/svg" width="20" height="20" viewBox="0 0 20 20">
  <rect id="Rectángulo_2272" data-name="Rectángulo 2272" width="20" height="20" fill="none"/>
  <path id="Trazado_1960" data-name="Trazado 1960" d="M2.008,9.24A5.753,5.753,0,0,1,2.384,7.2a5.921,5.921,0,0,1,1.1-1.824A5.287,5.287,0,0,1,5.24,4.064a5.511,5.511,0,0,1,2.368-.488,5.163,5.163,0,0,1,2.712.688,4.394,4.394,0,0,1,1.7,1.792l-1.7,1.168a2.709,2.709,0,0,0-.752-1.016,2.8,2.8,0,0,0-.992-.528,3.747,3.747,0,0,0-1.04-.152A2.978,2.978,0,0,0,6.1,5.864a3.229,3.229,0,0,0-1.032.88A3.74,3.74,0,0,0,4.448,7.96a4.691,4.691,0,0,0-.2,1.344,4.411,4.411,0,0,0,.24,1.448,3.953,3.953,0,0,0,.68,1.232,3.255,3.255,0,0,0,1.056.848,2.949,2.949,0,0,0,1.352.312,3.469,3.469,0,0,0,1.072-.176,3.04,3.04,0,0,0,1.008-.56,2.541,2.541,0,0,0,.72-.992l1.808,1.04a3.386,3.386,0,0,1-1.1,1.44,5.484,5.484,0,0,1-1.7.9,6.08,6.08,0,0,1-1.872.3,4.9,4.9,0,0,1-2.224-.5,5.568,5.568,0,0,1-1.736-1.344A6.412,6.412,0,0,1,2.416,11.36,5.8,5.8,0,0,1,2.008,9.24Z" transform="translate(3 1)" fill="#786ade" stroke="#786ade" stroke-width="0.2"/>
</svg>
