<svg id="ic_info_tabla_oferta" xmlns="http://www.w3.org/2000/svg" width="20" height="20" viewBox="0 0 20 20">
  <rect id="Rectángulo_2272" data-name="Rectángulo 2272" width="20" height="20" fill="none"/>
  <path id="Trazado_1961" data-name="Trazado 1961" d="M6.984,15.08A5.234,5.234,0,0,1,4.72,14.6a5.349,5.349,0,0,1-1.744-1.3A6.122,6.122,0,0,1,1.848,11.44a5.819,5.819,0,0,1-.4-2.12,5.65,5.65,0,0,1,.424-2.168A6.135,6.135,0,0,1,3.04,5.312,5.539,5.539,0,0,1,4.8,4.032,5.232,5.232,0,0,1,7.032,3.56a5.055,5.055,0,0,1,2.248.5,5.4,5.4,0,0,1,1.736,1.328,6.343,6.343,0,0,1,1.12,1.856A5.775,5.775,0,0,1,12.12,11.5a6.009,6.009,0,0,1-1.16,1.84A5.436,5.436,0,0,1,9.2,14.616,5.27,5.27,0,0,1,6.984,15.08Zm-3.3-5.76a4.571,4.571,0,0,0,.224,1.424,3.9,3.9,0,0,0,.648,1.224,3.09,3.09,0,0,0,1.04.848,3.055,3.055,0,0,0,1.4.312A3.015,3.015,0,0,0,8.424,12.8a3.077,3.077,0,0,0,1.04-.88,4.085,4.085,0,0,0,.632-1.232,4.5,4.5,0,0,0,.216-1.368A4.355,4.355,0,0,0,10.08,7.9a4.051,4.051,0,0,0-.656-1.216,3.09,3.09,0,0,0-1.04-.848A3.019,3.019,0,0,0,7,5.528a3,3,0,0,0-1.432.328,3.14,3.14,0,0,0-1.032.872A4,4,0,0,0,3.9,7.944,4.47,4.47,0,0,0,3.688,9.32Z" transform="translate(3 1)" fill="#71d875" stroke="#71d875" stroke-width="0.2"/>
</svg>
