<svg id="ic_info_tabla_microficha" xmlns="http://www.w3.org/2000/svg" width="20" height="20" viewBox="0 0 20 20">
  <rect id="Rectángulo_2272" data-name="Rectángulo 2272" width="20" height="20" fill="none"/>
  <path id="Trazado_1959" data-name="Trazado 1959" d="M-4.59-9.432h2.412V-4.05a2.776,2.776,0,0,0,.4,1.629,1.408,1.408,0,0,0,1.224.549,2.268,2.268,0,0,0,.882-.189,2.793,2.793,0,0,0,.846-.567,3.147,3.147,0,0,0,.666-.954v-5.85H4.248v6.66a.808.808,0,0,0,.144.54.7.7,0,0,0,.5.18V0q-.378.054-.648.081T3.762.108A1.664,1.664,0,0,1,2.691-.216a1.215,1.215,0,0,1-.459-.864L2.2-1.764a3.365,3.365,0,0,1-.648.873A4.1,4.1,0,0,1,.513-.126,2.624,2.624,0,0,1-.72.18,1.749,1.749,0,0,1-1.512.009a1.558,1.558,0,0,1-.54-.423A2.061,2.061,0,0,1-2.34-.882l.162,4.7H-4.59Z" transform="translate(10.565 13)" fill="#786ade"/>
</svg>
