<svg id="ic_info_receta_dispensada" xmlns="http://www.w3.org/2000/svg" width="20" height="20" viewBox="0 0 20 20">
  <rect id="Rect치ngulo_2275" data-name="Rect치ngulo 2275" width="20" height="20" fill="none"/>
  <path id="Sustracci칩n_5" data-name="Sustracci칩n 5" d="M-3289.5-1855.353h0v-2.018a3.183,3.183,0,0,0,.63-.264,2.077,2.077,0,0,0,.97-1.03l2.3.64a4.369,4.369,0,0,1-1.09,1.419,5.243,5.243,0,0,1-1.67.97,5.65,5.65,0,0,1-1.139.283Zm-2-.009h0a5.365,5.365,0,0,1-1.259-.354,5.154,5.154,0,0,1-1.74-1.18,5.339,5.339,0,0,1-1.111-1.72,5.458,5.458,0,0,1-.39-2.05,5.7,5.7,0,0,1,.67-2.74,5.165,5.165,0,0,1,1.92-1.99,5.242,5.242,0,0,1,1.911-.674v2.047a2.562,2.562,0,0,0-.31.147,2.652,2.652,0,0,0-.96.92,3.177,3.177,0,0,0-.45,1.39h1.72v1.7h-1.66a3.132,3.132,0,0,0,.47,1.4,2.584,2.584,0,0,0,1,.91c.062.032.126.061.19.088v2.1Zm6.44-4.5h-4.44v-1.7h1.76a3.186,3.186,0,0,0-.451-1.39,2.629,2.629,0,0,0-.969-.92,2.6,2.6,0,0,0-.34-.156v-2.05a5.084,5.084,0,0,1,1.98.687,5.1,5.1,0,0,1,1.87,1.98,5.618,5.618,0,0,1,.65,2.65c0,.151-.006.311-.02.49s-.027.3-.041.409Z" transform="translate(3300.5 1871)" fill="#786ade"/>
</svg>
