<svg id="ic_info_ereceta_anulada" xmlns="http://www.w3.org/2000/svg" width="20" height="20" viewBox="0 0 20 20">
  <rect id="Rect치ngulo_2272" data-name="Rect치ngulo 2272" width="20" height="20" fill="none"/>
  <path id="Uni칩n_40" data-name="Uni칩n 40" d="M-3296-1854.979l12.021-12.02,1.415,1.414-2.166,2.166a5.045,5.045,0,0,1,1.136,1.44,5.621,5.621,0,0,1,.65,2.651c0,.163-.007.328-.02.489-.016.191-.028.314-.041.41h-6.715l-1.089,1.089a2.722,2.722,0,0,0,.175.311,2.58,2.58,0,0,0,1,.911,2.871,2.871,0,0,0,1.309.31,3.1,3.1,0,0,0,1.51-.39,2.086,2.086,0,0,0,.971-1.031l2.3.639a4.392,4.392,0,0,1-1.091,1.421,5.266,5.266,0,0,1-1.67.97,6.183,6.183,0,0,1-2.12.35,5.822,5.822,0,0,1-2.279-.431,5.179,5.179,0,0,1-1.74-1.179q-.06-.063-.119-.128l-2.023,2.023Zm10.315-5.151a3.187,3.187,0,0,0-.449-1.39,2.744,2.744,0,0,0-.208-.289l-1.679,1.679Zm-8.257,1.089q0-.095,0-.189a5.7,5.7,0,0,1,.669-2.74,5.17,5.17,0,0,1,1.922-1.991,5.653,5.653,0,0,1,2.95-.75h.133l-5.669,5.669,0,0Z" transform="translate(3298.5 1869.565)" fill="#ff5b52"/>
</svg>
