<svg id="ic_info_proveedor_predeterminado" xmlns="http://www.w3.org/2000/svg" width="20" height="20" viewBox="0 0 20 20">
  <rect id="Rectángulo_2272" data-name="Rectángulo 2272" width="20" height="20" fill="none"/>
  <path id="Trazado_1965" data-name="Trazado 1965" d="M3.2,15V3.64H8.016a3.24,3.24,0,0,1,1.44.32,3.705,3.705,0,0,1,1.144.864,4.127,4.127,0,0,1,.76,1.216,3.637,3.637,0,0,1,.272,1.376,3.909,3.909,0,0,1-.448,1.824,3.833,3.833,0,0,1-1.232,1.408,3.174,3.174,0,0,1-1.856.544H5.408V15ZM5.408,9.256h2.56a1.226,1.226,0,0,0,.72-.224A1.544,1.544,0,0,0,9.2,8.384a2.323,2.323,0,0,0,.192-.968,2.165,2.165,0,0,0-.216-1.008,1.528,1.528,0,0,0-.56-.624,1.412,1.412,0,0,0-.744-.208H5.408Z" transform="translate(3 1)" fill="#786ade" stroke="#786ade" stroke-width="0.2"/>
</svg>
