<svg id="ic_info_ereceta_notificada" xmlns="http://www.w3.org/2000/svg" width="20" height="20" viewBox="0 0 20 20">
  <rect id="Rectángulo_2275" data-name="Rectángulo 2275" width="20" height="20" fill="none"/>
  <path id="Sustracción_8" data-name="Sustracción 8" d="M-3290.48-1855.285a6.6,6.6,0,0,1-1.02-.077v-2.1a2.872,2.872,0,0,0,1.12.221,3.086,3.086,0,0,0,.88-.126v2.019A6.945,6.945,0,0,1-3290.48-1855.285Zm1.981-.3h0v-2.292a1.932,1.932,0,0,0,.6-.786l2.3.64a4.358,4.358,0,0,1-1.09,1.419,5.254,5.254,0,0,1-1.67.97c-.046.017-.093.033-.139.049Zm-4-.027h0c-.087-.031-.174-.065-.259-.1a5.151,5.151,0,0,1-1.74-1.18,5.337,5.337,0,0,1-1.111-1.72,5.467,5.467,0,0,1-.39-2.05,5.7,5.7,0,0,1,.67-2.74,5.17,5.17,0,0,1,1.92-1.99,4.968,4.968,0,0,1,.911-.425v2.5a2.84,2.84,0,0,0-.27.363,3.179,3.179,0,0,0-.45,1.39h.72v1.7h-.661a3.138,3.138,0,0,0,.47,1.4,2.8,2.8,0,0,0,.191.259v2.59Zm7.439-4.251h-3.44v-1.7h.76a3.182,3.182,0,0,0-.451-1.39,2.729,2.729,0,0,0-.31-.406v-2.489a4.712,4.712,0,0,1,.98.455,5.109,5.109,0,0,1,1.87,1.98,5.62,5.62,0,0,1,.65,2.65c0,.151-.006.311-.02.49-.013.16-.026.293-.041.409Zm-4.44,0h-2v-1.7h2v1.7Zm-2-4.156h0v-2.045a6.793,6.793,0,0,1,1.04-.077,7.015,7.015,0,0,1,.96.064v2.05a2.833,2.833,0,0,0-1-.174,2.72,2.72,0,0,0-1,.183Z" transform="translate(3300.5 1871)" fill="#b2a8f8"/>
  <path id="Intersección_2" data-name="Intersección 2" d="M-3291.5-1855.861v-2.106a2.855,2.855,0,0,0,1.12.222,3.081,3.081,0,0,0,.88-.126v2.019a6.918,6.918,0,0,1-.98.068A6.587,6.587,0,0,1-3291.5-1855.861Zm0-4.5v-1.7h2v1.7Zm0-6.2a6.824,6.824,0,0,1,1.04-.077,6.964,6.964,0,0,1,.96.064v2.05a2.83,2.83,0,0,0-1-.173,2.712,2.712,0,0,0-1,.182Z" transform="translate(3300.5 1871.5)" fill="#786ade"/>
</svg>
