<svg id="ic_info_linea_regalo" xmlns="http://www.w3.org/2000/svg" width="20" height="20" viewBox="0 0 20 20">
  <rect id="Rectángulo_2377" data-name="Rectángulo 2377" width="20" height="20" fill="none"/>
  <g id="Grupo_3793" data-name="Grupo 3793" transform="translate(2 1)">
    <rect id="Rectángulo_2384" data-name="Rectángulo 2384" width="6" height="7" transform="translate(1 10.999)" fill="#786ade"/>
    <rect id="Rectángulo_2385" data-name="Rectángulo 2385" width="6" height="7" transform="translate(9 10.999)" fill="#786ade"/>
    <g id="Grupo_3794" data-name="Grupo 3794">
      <g id="Grupo_3796" data-name="Grupo 3796">
        <path id="Trazado_2000" data-name="Trazado 2000" d="M3.861,4a.935.935,0,0,1-.569-.293A1,1,0,0,1,4.707,2.291L6.414,4h3.17l1.708-1.708a1,1,0,0,1,1.414,0,1.012,1.012,0,0,1-.026,1.441A.872.872,0,0,1,12.144,4h2.672A2.993,2.993,0,0,0,9.878.877L8,2.755,6.121.877A3,3,0,0,0,1.175,4Z" fill="#786ade"/>
        <rect id="Rectángulo_2386" data-name="Rectángulo 2386" width="7" height="3" transform="translate(0 5.999)" fill="#786ade"/>
        <rect id="Rectángulo_2387" data-name="Rectángulo 2387" width="7" height="3" transform="translate(9 5.999)" fill="#786ade"/>
      </g>
    </g>
  </g>
</svg>
