<svg id="Capa_2" data-name="Capa 2" xmlns="http://www.w3.org/2000/svg" width="138" height="32" viewBox="0 0 138 32">
  <g id="Capa_1" data-name="Capa 1">
    <path id="Trazado_2372" data-name="Trazado 2372" d="M89.395,35.837H84.773A3.713,3.713,0,0,0,84.526,35a2.507,2.507,0,0,0-.741-.964,2.368,2.368,0,0,0-1.5-.464,2.489,2.489,0,0,0-1.754.639,3.4,3.4,0,0,0-.916,1.579,7.647,7.647,0,0,0,0,4.037,3.4,3.4,0,0,0,.916,1.579,2.519,2.519,0,0,0,1.754.639,2.163,2.163,0,0,0,1.748-.741,3.989,3.989,0,0,0,.759-1.808h4.67a6.2,6.2,0,0,1-.826,3.055,6.454,6.454,0,0,1-2.41,2.41,7.526,7.526,0,0,1-3.832.97,8.171,8.171,0,0,1-4.218-1.079,7,7,0,0,1-2.663-2.9,9.757,9.757,0,0,1,.048-8.382,6.918,6.918,0,0,1,2.712-2.808,8.334,8.334,0,0,1,4.146-1.018A7.091,7.091,0,0,1,87.34,31.36a6.779,6.779,0,0,1,2.055,4.5Z" transform="translate(-30.213 -13.932)" fill="#009fe3"/>
    <path id="Trazado_2373" data-name="Trazado 2373" d="M108.853,44.309V43.273a7.171,7.171,0,0,1-1.687.542,2.826,2.826,0,0,0-1.079.4.91.91,0,0,0-.368.807.934.934,0,0,0,.38.711,1.519,1.519,0,0,0,.958.325,1.808,1.808,0,0,0,1.241-.44,1.862,1.862,0,0,0,.554-1.314Zm4.1-3.109v4.6a8.689,8.689,0,0,0,.084,1.3,2.911,2.911,0,0,0,.44,1.205h-4.369a3.014,3.014,0,0,1-.133-.542,2.725,2.725,0,0,1,0-.53h-.042A3.676,3.676,0,0,1,107.31,48.3a6.315,6.315,0,0,1-1.983.283,5.381,5.381,0,0,1-1.989-.356,3.151,3.151,0,0,1-1.422-1.115,3.326,3.326,0,0,1-.548-1.922,3.013,3.013,0,0,1,.687-2.037,3.851,3.851,0,0,1,1.663-1.055,11.358,11.358,0,0,1,2.073-.464c.711-.09,1.35-.181,1.91-.271a2.29,2.29,0,0,0,.8-.271.8.8,0,0,0,.368-.723.892.892,0,0,0-.446-.8,1.808,1.808,0,0,0-.958-.235,1.766,1.766,0,0,0-1.29.392,1.115,1.115,0,0,0-.313.753h-3.977a3.338,3.338,0,0,1,.946-2.35A4.5,4.5,0,0,1,105,37.06a12.016,12.016,0,0,1,2.645-.253,10.244,10.244,0,0,1,3.091.38,3.236,3.236,0,0,1,1.579,1,2.959,2.959,0,0,1,.6,1.41,9.96,9.96,0,0,1,.072,1.6Z" transform="translate(-41.043 -16.74)" fill="#009fe3" fill-rule="evenodd"/>
    <path id="Trazado_2374" data-name="Trazado 2374" d="M128.773,31.65v3.417h2.29V37.7h-2.29v3.917a1.808,1.808,0,0,0,.253,1.133,1.271,1.271,0,0,0,1.067.356,7.569,7.569,0,0,0,.97-.066v3.242a9.539,9.539,0,0,0-1.356.066,10.869,10.869,0,0,1-1.392.066,7.1,7.1,0,0,1-1.808-.187,2.555,2.555,0,0,1-1.44-.934,3.616,3.616,0,0,1-.6-2.23V37.7h-1.9V35.067h1.9V31.65Z" transform="translate(-49.599 -14.692)" fill="#009fe3"/>
    <path id="Trazado_2375" data-name="Trazado 2375" d="M137.451,40.31h4.754a2.827,2.827,0,0,0,.169,1.012,1.549,1.549,0,0,0,.934.91,3.616,3.616,0,0,0,1.338.217,3.658,3.658,0,0,0,.856-.108,1.754,1.754,0,0,0,.771-.422,1.205,1.205,0,0,0,.337-.874c.03-.38-.193-.681-.663-.9a18.2,18.2,0,0,0-2.663-.874,22.513,22.513,0,0,1-2.41-.771,5.116,5.116,0,0,1-1.976-1.308,3.507,3.507,0,0,1-.814-2.41,4.664,4.664,0,0,1,.9-2.886,5.128,5.128,0,0,1,2.29-1.663,8.213,8.213,0,0,1,3.013-.53,9.3,9.3,0,0,1,3.127.47,4.947,4.947,0,0,1,2.332,1.585,5,5,0,0,1,.982,2.977h-4.513a1.205,1.205,0,0,0-.1-.735,1.259,1.259,0,0,0-.464-.494,1.982,1.982,0,0,0-.669-.3,3.067,3.067,0,0,0-.735-.09,3.615,3.615,0,0,0-.729.078,1.579,1.579,0,0,0-.675.307.8.8,0,0,0-.3.651,1.115,1.115,0,0,0,.711.862,8.437,8.437,0,0,0,1.651.56c.669.157,1.368.331,2.109.524a10.183,10.183,0,0,1,2.1.8,4.411,4.411,0,0,1,1.609,1.38,3.935,3.935,0,0,1,.639,2.278,4.688,4.688,0,0,1-1.085,3.164,5.731,5.731,0,0,1-2.669,1.669,11.046,11.046,0,0,1-3.375.482,9.641,9.641,0,0,1-1.808-.175,8.063,8.063,0,0,1-2.23-.741,5.086,5.086,0,0,1-1.916-1.675,5.261,5.261,0,0,1-.832-2.947Z" transform="translate(-55.663 -13.916)" fill="#009fe3"/>
    <path id="Trazado_2376" data-name="Trazado 2376" d="M169.278,44.309V43.273a7.171,7.171,0,0,1-1.687.542,2.862,2.862,0,0,0-1.079.4.922.922,0,0,0-.368.807.934.934,0,0,0,.38.711,1.519,1.519,0,0,0,.958.325,1.808,1.808,0,0,0,1.241-.44,1.862,1.862,0,0,0,.554-1.314Zm4.086-3.109v4.6a7.943,7.943,0,0,0,.078,1.3,3.013,3.013,0,0,0,.44,1.205h-4.369a2.549,2.549,0,0,1-.121-.53,2.35,2.35,0,0,1,0-.53h-.042a3.676,3.676,0,0,1-1.627,1.061,6.291,6.291,0,0,1-1.983.283,5.381,5.381,0,0,1-1.989-.356,3.182,3.182,0,0,1-1.422-1.115,3.284,3.284,0,0,1-.542-1.922,2.971,2.971,0,0,1,.681-2.037,3.851,3.851,0,0,1,1.663-1.055,11.449,11.449,0,0,1,2.073-.464c.717-.09,1.35-.181,1.91-.271a2.362,2.362,0,0,0,.807-.271.814.814,0,0,0,.362-.723.886.886,0,0,0-.44-.8,1.808,1.808,0,0,0-.964-.235,1.741,1.741,0,0,0-1.284.392,1.091,1.091,0,0,0-.313.753h-3.977a3.308,3.308,0,0,1,.952-2.362,4.526,4.526,0,0,1,2.163-1.067,12.016,12.016,0,0,1,2.645-.253,10.244,10.244,0,0,1,3.091.38,3.236,3.236,0,0,1,1.6,1.006,2.959,2.959,0,0,1,.572,1.41A10.7,10.7,0,0,1,173.364,41.2Z" transform="translate(-65.506 -16.74)" fill="#009fe3" fill-rule="evenodd"/>
    <path id="Trazado_2377" data-name="Trazado 2377" d="M184.91,45.752V30.32h4.278V45.752Z" transform="translate(-74.789 -14.164)" fill="#009fe3"/>
    <path id="Trazado_2378" data-name="Trazado 2378" d="M207.743,37.32V48.534h-4.128V47.112h-.048a3.808,3.808,0,0,1-1.506,1.271,4.935,4.935,0,0,1-2.169.434,4.3,4.3,0,0,1-1.886-.416,3.381,3.381,0,0,1-1.368-1.259,4.019,4.019,0,0,1-.548-2.127v-7.7h4.278V43.2a3.754,3.754,0,0,0,.235,1.591,1.163,1.163,0,0,0,1.169.6,1.615,1.615,0,0,0,1.133-.41,2.314,2.314,0,0,0,.6-1.748V37.32Z" transform="translate(-79.511 -16.946)" fill="#009fe3"/>
    <path id="Trazado_2379" data-name="Trazado 2379" d="M223.747,31.65v3.417h2.29V37.7h-2.29v3.917A1.808,1.808,0,0,0,224,42.75a1.272,1.272,0,0,0,1.067.356,7.568,7.568,0,0,0,.97-.066v3.242a9.539,9.539,0,0,0-1.356.066,10.828,10.828,0,0,1-1.386.066,7.122,7.122,0,0,1-1.808-.187,2.555,2.555,0,0,1-1.44-.934,3.616,3.616,0,0,1-.6-2.23V37.7h-1.9V35.067h1.9V31.65Z" transform="translate(-88.037 -14.692)" fill="#009fe3"/>
    <path id="Trazado_2380" data-name="Trazado 2380" d="M17.917,0H11.18V6.737h6.737V0Z" transform="translate(-4.443)" fill="#009fe3"/>
    <path id="Trazado_2381" data-name="Trazado 2381" d="M6.737,11.17H0v6.737H6.737V11.17Z" transform="translate(0 -4.959)" fill="#009fe3"/>
    <path id="Trazado_2382" data-name="Trazado 2382" d="M42.015,27.852a4.327,4.327,0,0,0-2.031-.434c-1.729,0-2.495.5-2.495,1.362,0,2.6,7.183,2.157,11.172,4.989v-4.29h-5.5A2.115,2.115,0,0,0,42.015,27.852Z" transform="translate(-15.178 -12.154)" fill="#009fe3"/>
    <path id="Trazado_2383" data-name="Trazado 2383" d="M17.917,11.17v6.737H11.18V38.184H21.918a7.55,7.55,0,0,1-2.935-5.574h7.532a2.754,2.754,0,0,0,1.3,1.9,4.321,4.321,0,0,0,2.23.6c1.964,0,3.26-.6,3.26-1.766,0-3.6-13.793-1.109-13.793-10.226,0-5.086,4.393-7.647,10.377-7.647,3.989,0,6.677,1.205,8.31,3.1V11.17Z" transform="translate(-4.443 -6.553)" fill="#009fe3"/>
  </g>
</svg>
