<svg xmlns="http://www.w3.org/2000/svg" width="36" height="36" viewBox="0 0 36 36">
  <g id="edit" transform="translate(0 -0.261)">
    <path id="Trazado_2254" data-name="Trazado 2254" d="M32.1,58.124a.894.894,0,0,0-.893.895v7.945a2.685,2.685,0,0,1-2.679,2.684H4.466a2.685,2.685,0,0,1-2.679-2.684V43.646a2.685,2.685,0,0,1,2.679-2.684H12.4a.895.895,0,0,0,0-1.79H4.466A4.475,4.475,0,0,0,0,43.646V66.964a4.475,4.475,0,0,0,4.466,4.474h24.06a4.475,4.475,0,0,0,4.466-4.474V59.019A.894.894,0,0,0,32.1,58.124Zm0,0" transform="translate(0 -35.177)" fill="#22949b"/>
    <path id="Trazado_2255" data-name="Trazado 2255" d="M133.947,1.525a4.318,4.318,0,0,0-6.107,0L110.722,18.644a.959.959,0,0,0-.246.422l-2.251,8.127a.959.959,0,0,0,1.181,1.181l8.127-2.252a.959.959,0,0,0,.422-.246L135.073,8.758a4.323,4.323,0,0,0,0-6.107ZM112.813,19.268l14.01-14.011,4.518,4.518L117.331,23.786Zm-.9,1.811,3.61,3.61-4.993,1.383ZM133.716,7.4,132.7,8.419,128.18,3.9,129.2,2.882a2.4,2.4,0,0,1,3.392,0l1.126,1.126A2.4,2.4,0,0,1,133.716,7.4Zm0,0" transform="translate(-100.336 0)" fill="#71d875"/>
  </g>
</svg>
