<svg width="440.000000pt" height="265.000000pt" viewBox="0 0 440.000000 265.000000"
    xmlns="http://www.w3.org/2000/svg">
    <g transform="translate(0.000000,265.000000) scale(0.100000,-0.100000)" fill="#fefefe" stroke="none">
        <path d="M0 1325 l0 -1325 2200 0 2200 0 0 1325 0 1325 -2200 0 -2200 0 0
-1325z m4070 1030 l0 -135 -1402 0 c-772 0 -1589 -3 -1815 -7 l-413 -6 0 -919
0 -918 1815 0 1815 0 0 -105 0 -105 -1915 0 -1915 0 0 1165 0 1165 1915 0
1915 0 0 -135z m-80 -465 l0 -110 -125 0 -125 0 0 110 0 110 125 0 125 0 0
-110z m-3343 -196 c-4 -4 -20 -8 -37 -9 -16 -2 -30 1 -30 6 0 5 17 9 37 9 20
0 33 -3 30 -6z m653 -124 l0 -50 -375 0 -375 0 0 50 0 50 375 0 375 0 0 -50z
m2310 10 l0 -40 -630 0 -630 0 0 -395 0 -395 -230 0 -230 0 0 374 c0 205 -3
401 -6 435 l-7 61 867 0 866 0 0 -40z m-930 -765 l0 -35 -125 0 -125 0 0 35 0
35 125 0 125 0 0 -35z m870 0 l0 -35 -130 0 -130 0 0 35 0 35 130 0 130 0 0
-35z" />
    </g>
    <g transform="translate(0.000000,265.000000) scale(0.100000,-0.100000)" fill="#f8e5ef" stroke="none">
        <path d="M988 2263 c-2 -32 -4 -58 -3 -58 0 0 696 1 1547 3 l1548 2 0 55 0 55
-1544 0 -1544 0 -4 -57z" />
        <path d="M2137 2003 l-1597 -3 0 -110 0 -110 1589 0 c874 0 1597 -3 1607 -7
l17 -6 -4 12 -4 11 -1598 0 -1597 0 0 100 0 100 1593 0 c875 0 1652 0 1725 0
l132 0 0 10 0 10 -132 -2 c-73 -2 -852 -4 -1731 -5z" />

        <path d="M540 1570 l0 -60 385 0 385 0 0 60 0 60 -385 0 -385 0 0 -60z" />
        <path d="M1878 1140 l2 -400 870 0 870 0 0 400 c0 220 -3 400 -7 400 -5 0 -7
-178 -5 -395 l2 -395 -625 0 -625 0 2 395 3 395 -245 0 -245 0 3 -400z" />
        <path d="M3280 850 c0 -5 5 -10 10 -10 6 0 10 5 10 10 0 6 -4 10 -10 10 -5 0
-10 -4 -10 -10z" />
        <path d="M2420 780 l0 -10 135 0 135 0 0 10 0 10 -135 0 -135 0 0 -10z" />
        <path d="M3280 780 l0 -10 140 0 140 0 0 10 0 10 -140 0 -140 0 0 -10z" />
        <path d="M440 268 l0 -118 1820 0 1820 0 0 115 0 115 -1820 2 -1820 3 0 -117z
m450 -8 l0 -50 -175 0 -175 0 0 50 0 50 175 0 175 0 0 -50z m390 0 l0 -50
-175 0 -175 0 0 50 0 50 175 0 175 0 0 -50z" />
    </g>
    <g transform="translate(0.000000,265.000000) scale(0.100000,-0.100000)" fill="#000000" stroke="none">
        <path d="M440 2405 l0 -95 1820 0 1820 0 0 95 0 95 -1820 0 -1820 0 0 -95z" />
        <path d="M1870 1580 l0 -50 875 0 875 0 0 50 0 50 -875 0 -875 0 0 -50z" />
    </g>
    <g transform="translate(0.000000,265.000000) scale(0.100000,-0.100000)" fill="#ab025c" stroke="none">
        <path d="M230 1325 l0 -1175 110 0 110 0 0 1025 0 1025 273 2 272 3 3 52 3 53
1542 3 1542 2 -1817 3 -1818 2 0 90 0 90 -110 0 -110 0 0 -1175z" />
        <path d="M3732 1888 l3 -113 133 -3 132 -3 0 116 0 115 -135 0 -136 0 3 -112z" />
        <path d="M3610 1535 c0 -3 2 -5 5 -5 3 0 5 2 5 5 0 3 -2 5 -5 5 -3 0 -5 -2 -5
-5z" />
        <path d="M2420 820 l0 -40 135 0 135 0 0 40 0 40 -135 0 -135 0 0 -40z" />
        <path d="M3287 853 c-4 -3 -7 -21 -7 -40 l0 -33 140 0 140 0 0 40 0 40 -133 0
c-74 0 -137 -3 -140 -7z" />
        <path d="M530 260 l0 -60 185 0 185 0 0 60 0 60 -185 0 -185 0 0 -60z" />
        <path d="M920 260 l0 -60 185 0 185 0 0 60 0 60 -185 0 -185 0 0 -60z" />
    </g>
</svg>