<svg id="ic_menu_bi_clientes" xmlns="http://www.w3.org/2000/svg" width="24" height="24" viewBox="0 0 24 24">
  <path id="Trazado_2256" data-name="Trazado 2256" d="M0,0H24V24H0Z" fill="none"/>
  <path id="Trazado_2257" data-name="Trazado 2257" d="M17.5,11A2.5,2.5,0,1,0,15,8.5,2.492,2.492,0,0,0,17.5,11ZM9,10A3,3,0,1,0,6,7,2.987,2.987,0,0,0,9,10Zm8.5,4c-1.83,0-5.5.92-5.5,2.75V19H23V16.75C23,14.92,19.33,14,17.5,14ZM2,16.5V19H8V16.75a4.163,4.163,0,0,1,1.37-3.47C4.889,13.28,2,14.17,2,16.5Z" transform="translate(-0.5)" fill="none" stroke="#fff" stroke-linejoin="round" stroke-width="2"/>
</svg>
