<svg id="ic_info_ereceta" xmlns="http://www.w3.org/2000/svg" width="20" height="20" viewBox="0 0 20 20">
  <rect id="Rectángulo_2275" data-name="Rectángulo 2275" width="20" height="20" fill="none"/>
  <path id="Trazado_1939" data-name="Trazado 1939" d="M.09.2A5.815,5.815,0,0,1-2.19-.23,5.154,5.154,0,0,1-3.93-1.41,5.333,5.333,0,0,1-5.04-3.13a5.444,5.444,0,0,1-.39-2.05,5.67,5.67,0,0,1,.67-2.74A5.141,5.141,0,0,1-2.84-9.91a5.625,5.625,0,0,1,2.95-.75,5.507,5.507,0,0,1,2.94.75A5.078,5.078,0,0,1,4.92-7.93a5.587,5.587,0,0,1,.65,2.65q0,.24-.02.49t-.04.41h-8.1a3.092,3.092,0,0,0,.47,1.4,2.566,2.566,0,0,0,1,.91,2.851,2.851,0,0,0,1.31.31A3.089,3.089,0,0,0,1.7-2.15a2.064,2.064,0,0,0,.97-1.03l2.3.64A4.36,4.36,0,0,1,3.88-1.12a5.237,5.237,0,0,1-1.67.97A6.149,6.149,0,0,1,.09.2ZM-2.65-6.08H2.83a3.172,3.172,0,0,0-.45-1.39,2.619,2.619,0,0,0-.97-.92A2.734,2.734,0,0,0,.07-8.72a2.637,2.637,0,0,0-1.31.33,2.643,2.643,0,0,0-.96.92A3.172,3.172,0,0,0-2.65-6.08Z" transform="translate(9.93 15.515)" fill="#71d875"/>
</svg>
